<?xml version="1.0" standalone="no"?>
<!DOCTYPE svg PUBLIC "-//W3C//DTD SVG 1.1//EN" "http://www.w3.org/Graphics/SVG/1.1/DTD/svg11.dtd" >
<svg xmlns="http://www.w3.org/2000/svg" xmlns:xlink="http://www.w3.org/1999/xlink" version="1.1">
<metadata>
Created by FontForge 20170731 at Mon Dec  5 03:57:12 2022
 By Aleksey,,,
Copyright (c) 2020 by Mathieu Desjardins. All rights reserved.
</metadata>
<defs>
<font id="PPNeueWorld-SemiCondensedUltrabold" horiz-adv-x="0" >
  <font-face 
    font-family="PP Neue World Semi Cond Ulbold"
    font-weight="800"
    font-stretch="semi-condensed"
    units-per-em="2048"
    panose-1="0 0 0 0 0 0 0 0 0 0"
    ascent="1434"
    descent="-614"
    x-height="1024"
    cap-height="1434"
    bbox="-319 -614 2189 1874"
    underline-thickness="20"
    underline-position="-153"
    unicode-range="U+0020-25CF"
  />
<missing-glyph horiz-adv-x="1024" 
d="M840 1434v-2048h-650v2048h650zM342 -473h340v67h-209l143 97h66v67h-340v-67h143l-143 -97v-67zM342 -195h340v232h-340v-232zM342 160h340v231h-205v-115h70v48h67v-97h-204v164h-68v-231zM342 436h340v205h-68v-135h-272v-70zM342 553h205v143h135v68h-340v-68h135
v-75h-135v-68zM342 819h340v70h-135v143h-205v-213zM342 1085h340v68h-135v76h135v67h-338v-67h133v-76h-135v-68zM410 -127v96h204v-96h-204zM410 889v74h67v-74h-67z" />
    <glyph glyph-name="f_f" unicode="ff" horiz-adv-x="1284" 
d="M352 1434q90 0 155 -9t121.5 -24.5t73.5 -18.5q82 76 259 76q85 0 160 -13t104 -13l51 -332h-41q-35 130 -68 200.5t-62.5 92.5t-70.5 22q-43 0 -66.5 -35.5t-23.5 -101.5q0 -61 22.5 -117.5t70.5 -96.5t112 -40h86v-41q-82 0 -108.5 -20.5t-26.5 -85.5v-689
q0 -72 29 -106t96 -45v-37h-566v37q46 11 66 44.5t20 106.5v689q0 68 -21.5 87t-105.5 19q-72 0 -96 -20.5t-24 -85.5v-689q0 -73 28.5 -106.5t96.5 -44.5v-37h-566v37q46 11 66 44.5t20 106.5v689q0 68 -21.5 87t-105.5 19v41h242q-109 45 -159 97.5t-50 125.5
q0 90 81 138.5t222 48.5zM330 1241q0 -92 56.5 -154t160.5 -63h313q-108 38 -158.5 96.5t-50.5 141.5q0 28 11 61q-96 66 -189 66q-69 0 -106 -37t-37 -111z" />
    <glyph glyph-name="f_f_i" unicode="ffi" horiz-adv-x="1828" 
d="M352 1434q91 0 158.5 -10t121 -24.5t75.5 -17.5q95 76 346 76q101 0 231 -13t203 -13l98 -312h-141q-41 154 -115.5 224.5t-195.5 70.5q-88 0 -138.5 -44t-50.5 -122q0 -56 22.5 -105.5t76.5 -84.5t131 -35h53q237 0 319.5 4t134.5 21h21v-861q0 -73 20 -106.5t66 -44.5
v-37h-526v37q46 11 66 44.5t20 106.5v689q0 66 -23 86t-98 20q-76 0 -101.5 -20.5t-25.5 -85.5v-689q0 -73 28 -106.5t95 -44.5v-37h-564v37q46 11 66 44.5t20 106.5v689q0 68 -21.5 87t-105.5 19q-72 0 -96 -20.5t-24 -85.5v-689q0 -73 28.5 -106.5t96.5 -44.5v-37h-566v37
q46 11 66 44.5t20 106.5v689q0 68 -21.5 87t-105.5 19v41h242q-109 45 -159 97.5t-50 125.5q0 90 81 138.5t222 48.5zM330 1241q0 -92 56.5 -154t160.5 -63h313q-209 74 -209 236q0 34 13 63q-100 66 -191 66q-69 0 -106 -37t-37 -111z" />
    <glyph glyph-name="f_i" unicode="fi" horiz-adv-x="1224" 
d="M451 1458q101 0 231 -13t203 -13l98 -312h-141q-41 154 -116 224.5t-196 70.5q-88 0 -138 -44t-50 -122q0 -57 22.5 -106t76 -84t130.5 -35h54q237 0 319.5 4t134.5 21h21v-861q0 -73 20 -106.5t66 -44.5v-37h-527v37q46 11 66 44.5t20 106.5v689q0 66 -22.5 86t-97.5 20
q-76 0 -101.5 -20.5t-25.5 -85.5v-689q0 -73 28 -106.5t95 -44.5v-37h-564v37q46 11 66 44.5t20 106.5v689q0 68 -21.5 87t-105.5 19v41h242q-209 74 -209 236q0 99 96.5 148.5t305.5 49.5z" />
    <glyph glyph-name="f_l" unicode="fl" horiz-adv-x="1204" 
d="M16 983v41h242q-110 48 -159.5 102t-49.5 131q0 98 81 149.5t237 51.5q95 0 238.5 -13t215.5 -13q59 0 90 1t80.5 10t77.5 27h21v-1282q0 -73 20 -106.5t66 -44.5v-37h-527v37q46 11 66 44.5t20 106.5v961q0 64 -13 112.5t-34 77.5t-52 47t-63 24.5t-71 6.5
q-81 0 -120.5 -46t-39.5 -122q0 -90 54.5 -157.5t150.5 -67.5h96v-41q-97 0 -125.5 -20t-28.5 -86v-689q0 -73 27.5 -106.5t93.5 -44.5v-37h-563v37q46 11 66 44.5t20 106.5v689q0 67 -20 86.5t-97 19.5z" />
    <glyph glyph-name=".notdef" horiz-adv-x="1024" 
d="M840 1434v-2048h-650v2048h650zM342 -473h340v67h-209l143 97h66v67h-340v-67h143l-143 -97v-67zM342 -195h340v232h-340v-232zM342 160h340v231h-205v-115h70v48h67v-97h-204v164h-68v-231zM342 436h340v205h-68v-135h-272v-70zM342 553h205v143h135v68h-340v-68h135
v-75h-135v-68zM342 819h340v70h-135v143h-205v-213zM342 1085h340v68h-135v76h135v67h-338v-67h133v-76h-135v-68zM410 -127v96h204v-96h-204zM410 889v74h67v-74h-67z" />
    <glyph glyph-name=".null" 
 />
    <glyph glyph-name="nonmarkingreturn" horiz-adv-x="682" 
 />
    <glyph glyph-name="space" unicode=" " horiz-adv-x="372" 
 />
    <glyph glyph-name="space" unicode="&#xa0;" horiz-adv-x="372" 
 />
    <glyph glyph-name="exclam" unicode="!" horiz-adv-x="385" 
d="M193 1462q66 0 105.5 -43t39.5 -116q0 -53 -19 -139t-42.5 -173.5t-42.5 -239.5t-19 -321h-41q0 169 -20 321t-43.5 239.5t-43.5 173.5t-20 139q0 73 40.5 116t105.5 43zM47 119q0 62 38.5 101.5t107.5 39.5t108 -39.5t39 -101.5t-39.5 -103t-107.5 -41t-107 41t-39 103z
" />
    <glyph glyph-name="quotedbl" unicode="&#x22;" horiz-adv-x="735" 
d="M186 1460q61 0 98.5 -34.5t37.5 -90.5q0 -39 -18 -90t-39.5 -97t-39.5 -119t-18 -150h-41q0 77 -18.5 150t-40 119t-40 97t-18.5 90q0 56 38 90.5t99 34.5zM414 1335q0 56 38 90.5t99 34.5t98 -34.5t37 -90.5q0 -39 -18 -90t-39.5 -97t-39.5 -119t-18 -150h-41
q0 77 -18 150t-40 119t-40 97t-18 90z" />
    <glyph glyph-name="numbersign" unicode="#" horiz-adv-x="946" 
d="M109 1081h249l62 353h41l-62 -353h273l61 353h41l-61 -353h182v-231h-221l-47 -266h211v-232h-250l-62 -352h-43l62 352h-271l-61 -352h-41l61 352h-182v232h221l47 266h-210v231zM313 584h273l45 266h-271z" />
    <glyph glyph-name="dollar" unicode="$" horiz-adv-x="1073" 
d="M147 565q20 -126 50 -222t62 -154.5t70 -95.5t72.5 -50.5t71.5 -13.5h4v485q-61 84 -129 166q-135 156 -197.5 261t-62.5 214q0 131 110.5 211t305.5 80l47 -2v123h41v-125q27 -2 82.5 -9t100 -10.5t87.5 -3.5l56 -512h-50q-20 117 -44 204t-49.5 142t-56 89t-60.5 47.5
t-66 15.5v-424q35 -47 94 -117q63 -74 95 -113.5t77 -102.5t66.5 -108t38 -102.5t16.5 -113.5q0 -160 -111.5 -248t-308.5 -88h-41v-135h-41v137q-31 2 -95 9t-119 11t-113 4l-50 551h47zM453 1280q0 -101 98 -244v367q-98 -15 -98 -123zM518 35q47 12 71.5 52t24.5 101
q0 117 -96 267v-420z" />
    <glyph glyph-name="percent" unicode="%" horiz-adv-x="1482" 
d="M444 0h-47l641 1434h47zM49 1114q0 162 93.5 253t240.5 91q148 0 242 -91t94 -253t-94 -253t-242 -91q-147 0 -240.5 91.5t-93.5 252.5zM305 1114q0 -170 15 -236.5t63 -66.5q50 0 65 66.5t15 236.5q0 169 -15 236t-65 67q-48 0 -63 -67t-15 -236zM764 322
q0 161 94 251.5t242 90.5q146 0 240 -90.5t94 -251.5q0 -164 -94 -255.5t-240 -91.5q-147 0 -241.5 92t-94.5 255zM1020 322q0 -172 15 -239t65 -67q48 0 63 67t15 239q0 168 -15 234.5t-63 66.5q-50 0 -65 -66.5t-15 -234.5z" />
    <glyph glyph-name="ampersand" unicode="&#x26;" horiz-adv-x="1361" 
d="M944 0l-18 92q-158 -117 -373 -117q-112 0 -204.5 27t-163 80t-109.5 138t-39 194q0 95 29 178.5t77.5 145t116 111t141 81t156.5 51.5q-145 214 -356 412v41h911l51 -527h-41q-16 116 -28.5 191.5t-29 132.5t-31 87t-38.5 48t-47.5 22.5t-62.5 4.5h-623
q245 -141 476.5 -391t398.5 -551q71 161 106 387l39 -9q-40 -248 -119 -428q105 -196 170 -401h-389zM428 463q0 -181 76 -281t211 -100q100 0 198 70q-102 436 -319 774q-80 -94 -123 -203.5t-43 -259.5z" />
    <glyph glyph-name="quotesingle" unicode="'" horiz-adv-x="370" 
d="M186 1460q61 0 98.5 -34.5t37.5 -90.5q0 -39 -18 -90t-39.5 -97t-39.5 -119t-18 -150h-41q0 77 -18.5 150t-40 119t-40 97t-18.5 90q0 56 38 90.5t99 34.5z" />
    <glyph glyph-name="parenleft" unicode="(" horiz-adv-x="704" 
d="M659 -313q-95 45 -176.5 100t-161 137.5t-135.5 179.5t-90.5 228.5t-34.5 281.5t34.5 282t90.5 229t135.5 179.5t161 137.5t176.5 100l21 -20q-122 -177 -191 -409.5t-69 -498.5t69 -498t191 -409z" />
    <glyph glyph-name="parenright" unicode=")" horiz-adv-x="704" 
d="M25 -293q122 177 191 409t69 498t-69 498.5t-191 409.5l20 20q95 -45 176.5 -100t161 -137.5t135.5 -179.5t90.5 -229t34.5 -282t-34.5 -281.5t-90.5 -228.5t-135.5 -179.5t-161 -137.5t-176.5 -100z" />
    <glyph glyph-name="asterisk" unicode="*" horiz-adv-x="653" 
d="M326 1470q31 0 53 -19.5t22 -53.5q0 -21 -10 -47t-22.5 -49t-22.5 -62.5t-10 -85.5q45 26 71.5 60.5t43.5 63.5t38 42q32 16 59.5 6.5t43.5 -35.5q15 -24 9 -54t-34 -46q-22 -13 -55.5 -14t-77 -8t-88.5 -33q45 -26 88.5 -33t77 -8.5t55.5 -14.5q28 -16 34 -46t-9 -54
q-16 -26 -43.5 -35.5t-59.5 6.5q-21 13 -38 42t-43.5 63.5t-71.5 60.5q0 -46 10 -86t22.5 -63t22.5 -49t10 -46q0 -34 -22 -53.5t-53 -19.5q-30 0 -52 19.5t-22 53.5q0 20 10 46t21.5 49t21.5 63t10 86q-45 -26 -71.5 -60.5t-43 -63.5t-38.5 -42q-30 -16 -58.5 -6.5
t-42.5 35.5q-16 24 -9.5 53.5t34.5 46.5q22 13 55 14.5t76 8.5t88 33q-45 26 -88 33t-76 8t-55 14q-28 17 -34.5 46.5t9.5 53.5q14 26 42.5 35.5t58.5 -6.5q22 -13 38.5 -42t43 -63.5t71.5 -60.5q0 58 -15.5 105t-31.5 80t-16 59q0 33 22 53t52 20z" />
    <glyph glyph-name="plus" unicode="+" horiz-adv-x="626" 
d="M102 532h191v191h41v-191h190v-40h-190v-189h-41v189h-191v40z" />
    <glyph glyph-name="comma" unicode="," horiz-adv-x="380" 
d="M78 -268q75 100 96 138.5t21 70.5q0 25 -15.5 43t-37.5 30t-44 26t-37.5 38t-15.5 59q0 59 38 92t101 33q73 0 113.5 -40t40.5 -116q0 -96 -60 -190t-172 -213z" />
    <glyph glyph-name="hyphen" unicode="-" horiz-adv-x="649" 
d="M61 532h527v-40h-527v40z" />
    <glyph glyph-name="period" unicode="." horiz-adv-x="378" 
d="M190 -25q-68 0 -107.5 41t-39.5 103t39 101.5t108 39.5t107.5 -39.5t38.5 -101.5t-39 -103t-107 -41z" />
    <glyph glyph-name="slash" unicode="/" horiz-adv-x="428" 
d="M61 -410h-41l347 1844h41z" />
    <glyph glyph-name="zero" unicode="0" horiz-adv-x="1222" 
d="M610 -25q-93 0 -174 25t-151.5 81.5t-120.5 141t-78.5 210.5t-28.5 284t28.5 284t78.5 210.5t120.5 140.5t151.5 81t174 25q94 0 174.5 -24.5t151.5 -81t121 -140.5t79 -210.5t29 -284.5t-28.5 -284.5t-78.5 -211t-121 -140.5t-152 -81t-175 -25zM449 717
q0 -282 16.5 -434t50 -209.5t94.5 -57.5t94.5 57.5t50.5 209.5t17 434t-17 434t-50.5 209t-94.5 57q-60 0 -93.5 -57.5t-50.5 -210t-17 -432.5z" />
    <glyph glyph-name="one" unicode="1" horiz-adv-x="679" 
d="M27 1206q176 12 292 71.5t203 180.5h21v-1270q0 -73 21.5 -106.5t74.5 -44.5v-37h-551v37q54 11 76 44.5t22 106.5v832q0 81 -32 113t-127 32v41z" />
    <glyph glyph-name="two" unicode="2" horiz-adv-x="999" 
d="M27 41l1 1v1l1 1l1 1v1l1 1l1 1v1l1 1v1l1 1l1 1v1l1 1l1 1v1l1 1l1 1v1l1 1l1 1v1l1 1q231 358 323 529q198 369 198 621q0 101 -32 151t-113 50q-46 0 -81 -20t-71 -73t-68 -155.5t-63 -259.5h-41l49 525q37 0 138 13t184 13q113 0 201 -20.5t154 -63t101 -114
t35 -168.5q0 -80 -21.5 -156t-56.5 -139t-91.5 -127t-114.5 -114.5t-139 -107t-150 -99t-162 -95.5h375q76 0 119 10t78.5 43.5t56 92.5t39.5 163h41l-51 -563h-852v41z" />
    <glyph glyph-name="three" unicode="3" horiz-adv-x="1028" 
d="M82 563q29 -170 59 -280t65.5 -167.5t71 -78.5t84.5 -21q109 0 164.5 120.5t55.5 326.5q0 77 -9 142t-28 116.5t-51 80.5t-74 29q-37 0 -73 -22t-87 -70l-24 33q141 163 204.5 274t63.5 236q0 135 -109 135q-46 0 -80.5 -20.5t-69.5 -74.5t-66 -156.5t-60 -258.5h-41
l49 525q40 0 155.5 13t202.5 13q182 0 279.5 -57.5t97.5 -188.5q0 -224 -270 -319q71 -4 138.5 -31.5t126 -78.5t94.5 -136t36 -192q0 -103 -31 -185.5t-84.5 -137t-129.5 -90.5t-161.5 -51.5t-185.5 -15.5q-84 0 -177 13.5t-128 13.5l-49 561h41z" />
    <glyph glyph-name="four" unicode="4" horiz-adv-x="1089" 
d="M551 1473q91 -49 166 -63.5t184 -16.5v-813h158v-252h-158v-140q0 -73 21.5 -106.5t74.5 -44.5v-37h-559v37q51 11 72.5 44.5t21.5 106.5v140h-501v41l499 1104h21zM176 580h356v792z" />
    <glyph glyph-name="five" unicode="5" horiz-adv-x="1013" 
d="M88 563q29 -166 59 -274.5t63.5 -167t68 -81t79.5 -22.5q50 0 86.5 24.5t65 83t43 163t14.5 256.5q0 235 -45 336.5t-141 101.5q-75 0 -139 -60t-127 -194h-41l84 705h680v-254h-670l-25 -219q18 2 50 15t65 27t92 25.5t127 11.5q109 0 198 -30.5t155.5 -92t103.5 -160.5
t37 -229q0 -102 -19.5 -186t-55 -143.5t-82.5 -103.5t-106.5 -70t-122.5 -38t-134 -12q-104 0 -210.5 13.5t-144.5 13.5l-49 561h41z" />
    <glyph glyph-name="six" unicode="6" horiz-adv-x="1202" 
d="M43 668q0 367 178.5 578.5t499.5 211.5q73 0 169 -13t132 -13l45 -408h-43q-15 118 -43.5 199t-67.5 121.5t-78 56.5t-87 16q-257 0 -293 -571q123 119 315 119q79 0 147.5 -26.5t124 -79.5t87.5 -143t32 -208q0 -265 -146.5 -399t-393.5 -134q-94 0 -175.5 20.5t-157 71
t-128.5 128t-85 198.5t-32 275zM446 584q0 -236 18.5 -361.5t51 -166t92.5 -40.5q55 0 87 35t49.5 133t17.5 275q0 159 -16.5 251.5t-46 127t-76.5 34.5q-74 0 -172 -81q-5 -90 -5 -207z" />
    <glyph glyph-name="seven" unicode="7" horiz-adv-x="1040" 
d="M1040 1393q-134 -173 -208 -298.5t-123 -287t-64.5 -342t-15.5 -465.5h-404q0 187 29 339.5t97.5 299.5t188.5 280.5t296 260.5h-545q-39 0 -60.5 -2t-46 -11.5t-38.5 -27t-29 -50.5t-26 -79.5t-23 -116.5h-41l51 541h962v-41z" />
    <glyph glyph-name="eight" unicode="8" horiz-adv-x="1239" 
d="M690 795l78 28q-4 2 -11.5 6.5t-11.5 6.5q-36 19 -69 45q-61 -71 -146 -99l-67 -24q4 -2 12 -7.5t12 -7.5q21 -11 64 -41q52 58 139 93zM53 334q0 -177 150 -269t409 -92q168 0 295.5 40.5t203 127t75.5 209.5q0 63 -22 119t-54.5 99t-92.5 90.5t-112 81t-137 83.5
q82 31 140 60.5t108.5 70t76 94t25.5 119.5q0 95 -63.5 162t-171.5 99t-250 32q-241 0 -380.5 -83t-139.5 -228q0 -116 79 -200t271 -191q-194 -73 -302 -175.5t-108 -248.5zM424 311q0 261 127 391q117 -85 164 -189t47 -232q0 -267 -162 -267q-87 0 -131.5 78t-44.5 219z
M510 1225q0 92 33.5 143t99.5 51q131 0 131 -217q0 -201 -98 -321q-166 127 -166 344z" />
    <glyph glyph-name="nine" unicode="9" horiz-adv-x="1208" 
d="M1165 766q0 -367 -178.5 -579t-499.5 -212q-73 0 -169 13.5t-132 13.5l-45 408h43q12 -95 34 -166.5t48 -114t60 -69t66 -35.5t69 -9q257 0 293 572q-123 -119 -316 -119q-79 0 -147.5 26.5t-124 79.5t-87.5 143t-32 208q0 265 147 398.5t394 133.5q94 0 175.5 -20.5
t156.5 -71t128.5 -127.5t85 -198t31.5 -275zM446 975q0 -159 17 -252t46.5 -127.5t76.5 -34.5q73 0 172 82q4 72 4 207q0 236 -18.5 361t-51 165.5t-92.5 40.5q-55 0 -87 -34.5t-49.5 -132.5t-17.5 -275z" />
    <glyph glyph-name="colon" unicode=":" horiz-adv-x="378" 
d="M190 766q-68 0 -107.5 40.5t-39.5 102.5t39 102t108 40q68 0 107 -40t39 -102t-39 -102.5t-107 -40.5zM43 119q0 62 39 101.5t108 39.5t107.5 -39.5t38.5 -101.5t-39 -103t-107 -41t-107.5 41t-39.5 103z" />
    <glyph glyph-name="semicolon" unicode=";" horiz-adv-x="399" 
d="M190 766q-68 0 -107.5 40.5t-39.5 102.5t39 102t108 40q68 0 107 -40t39 -102t-39 -102.5t-107 -40.5zM45 137q0 59 38 92t101 33q73 0 113.5 -40t40.5 -116q0 -96 -60 -190t-172 -213l-28 29q75 100 96 138.5t21 70.5q0 25 -15.5 43t-37.5 30t-44 26t-37.5 38t-15.5 59z
" />
    <glyph glyph-name="less" unicode="&#x3c;" horiz-adv-x="626" 
d="M524 739l-399 -227l399 -225v-47l-422 235v74l422 237v-47z" />
    <glyph glyph-name="equal" unicode="=" horiz-adv-x="684" 
d="M102 641h498v-41h-498v41zM102 383v41h498v-41h-498z" />
    <glyph glyph-name="greater" unicode="&#x3e;" horiz-adv-x="626" 
d="M102 739v47l422 -237v-74l-422 -235v47l400 225z" />
    <glyph glyph-name="question" unicode="?" horiz-adv-x="829" 
d="M260 430q0 258 12.5 359.5t53.5 209.5q3 9 15 48t15 48t11.5 40t11 44.5t7 38t6 44.5t1.5 41q0 59 -17 86.5t-57 27.5q-47 0 -81.5 -37t-72.5 -154t-75 -327h-41l49 533q50 0 140.5 13t187.5 13q165 0 259.5 -58t94.5 -179q0 -39 -11 -74.5t-25.5 -62t-42 -54t-47 -44
t-56 -38t-53 -30.5t-51.5 -27q-64 -35 -100.5 -70t-58 -90t-28 -121.5t-6.5 -179.5h-41zM133 119q0 61 40 101t108 40t107.5 -40t39.5 -101q0 -64 -39 -105t-108 -41t-108.5 41.5t-39.5 104.5z" />
    <glyph glyph-name="at" unicode="@" horiz-adv-x="1597" 
d="M1237 334q0 -119 12.5 -164t53.5 -45q31 0 64 34t62 94t47.5 155.5t18.5 205.5q0 118 -22 222t-70 195.5t-120 157.5t-177.5 104t-235.5 38q-134 0 -252.5 -44t-208.5 -124.5t-155 -188.5t-99 -239t-34 -274q0 -187 52 -335t146.5 -245t225 -148.5t289.5 -51.5
q215 0 365.5 82.5t262.5 236.5l31 -25q-46 -76 -106.5 -137.5t-141 -111.5t-186 -77.5t-225.5 -27.5q-168 0 -308 53t-244.5 155t-162.5 264t-58 368q0 253 101 460t287 328.5t421 122.5q131 1 240 -37t187.5 -106.5t132.5 -163.5t80 -208.5t26 -242.5q0 -284 -94 -451
t-254 -167q-92 0 -147 45.5t-62 140.5q-100 -153 -270 -153q-61 0 -113 14.5t-99 50t-78.5 90.5t-47.5 141.5t-11 196.5q6 125 45 227.5t99.5 166.5t134.5 98.5t154 34.5q109 0 174.5 -54.5t115.5 -183.5q113 74 113 221h41v-698zM633 573q-12 -216 29 -333t139 -117
q46 0 85.5 26.5t90.5 90.5v405q0 350 -154 350q-89 0 -133.5 -104.5t-56.5 -317.5z" />
    <glyph glyph-name="A" unicode="A" horiz-adv-x="1179" 
d="M188 184q-15 -74 1 -105.5t81 -41.5v-37h-250v37q49 11 80 44.5t47 102.5l252 1110l-14 66v20q148 0 218 14.5t138 63.5h21l272 -1274q14 -68 44.5 -102t78.5 -45v-37h-604v37q65 10 82 42t2 105l-43 203h-358zM244 428h342l-166 770z" />
    <glyph glyph-name="B" unicode="B" horiz-adv-x="1255" 
d="M143 1245q0 73 -19 107.5t-65 46.5v35h113q135 1 285.5 10.5t204.5 9.5q234 0 344 -80.5t110 -259.5q0 -149 -73 -227.5t-207 -106.5q174 -33 268 -129t94 -274q0 -199 -141 -298t-398 -99q-56 0 -203.5 9.5t-283.5 10.5h-113v37q46 11 65 44.5t19 106.5v1057zM512 31
q45 -11 86 -11q110 0 159.5 78t49.5 271q0 200 -49.5 296.5t-151.5 96.5q-32 0 -94 8v-739zM512 813q45 -10 76 -10q87 0 126.5 71.5t39.5 237.5q0 168 -39 234.5t-121 66.5q-53 0 -82 -8v-592z" />
    <glyph glyph-name="C" unicode="C" horiz-adv-x="1128" 
d="M47 717q0 185 50 328t139.5 232.5t209 135t263.5 45.5q73 0 165.5 -13t131.5 -13l49 -531h-41q-18 129 -41 221.5t-47.5 149.5t-57 89.5t-64 44t-73.5 11.5q-133 0 -205.5 -167.5t-72.5 -485.5q0 -311 78 -478t221 -167q254 0 315 481l39 -8q-16 -147 -47 -256
t-71.5 -177.5t-97 -110t-117.5 -57.5t-140 -16q-128 0 -234 46.5t-185 136.5t-123 233t-44 326z" />
    <glyph glyph-name="D" unicode="D" horiz-adv-x="1286" 
d="M172 0h-113v37q46 11 65 44.5t19 106.5v1057q0 73 -19 107.5t-65 46.5v35h113q68 1 224.5 10.5t215.5 9.5q73 0 137 -9t129 -31.5t117.5 -58.5t98.5 -94t77.5 -133.5t49.5 -180.5t18 -232t-18 -232t-49.5 -180t-78 -132.5t-98.5 -93t-117 -58t-128.5 -31t-137.5 -8.5
q-59 0 -215.5 9.5t-224.5 10.5zM512 31q54 -11 94 -11q45 0 79 19t63 67t47.5 126.5t28.5 199t10 283.5q0 203 -15 341t-46 215.5t-71 109.5t-96 32q-48 0 -94 -10v-1372z" />
    <glyph glyph-name="E" unicode="E" horiz-adv-x="1077" 
d="M961 1434l51 -533h-41q-17 115 -32 194t-32.5 135t-33.5 87t-40 48.5t-47 22.5t-59 5h-215v-609h164q30 0 46 4t30 17.5t16.5 39.5t5 70t-3.5 109h41l41 -541h-41q-6 57 -11 90.5t-10.5 65.5t-13 47.5t-15.5 29t-22.5 18t-29.5 7t-39 2.5h-158v-702h240q51 0 80.5 13.5
t60 65t54 155.5t48.5 282h41l-49 -557h-928v37q46 11 65 44.5t19 106.5v1057q0 73 -19 107.5t-65 46.5v35h902z" />
    <glyph glyph-name="F" unicode="F" horiz-adv-x="1054" 
d="M680 743q28 0 45 2t31.5 11.5t20.5 24t9.5 43.5t3 65t-3.5 94h41l43 -541h-43q-5 50 -9 80.5t-9.5 61t-10 46.5t-13.5 31.5t-18 22t-24.5 11.5t-31 6t-39.5 1h-160v-514q0 -73 19 -106.5t65 -44.5v-37h-537v37q46 11 65 44.5t19 106.5v1057q0 73 -19 107.5t-65 46.5v35
h930l49 -557h-41q-18 121 -33.5 204t-34.5 141.5t-36 91.5t-43.5 51t-52 23t-66.5 5h-219v-650h168z" />
    <glyph glyph-name="G" unicode="G" horiz-adv-x="1241" 
d="M641 -25q-135 0 -241.5 41t-187 127.5t-123 230t-42.5 337.5q0 157 34 283.5t93 212t142 143t179 83t207 25.5q66 0 166 -13t150 -13l51 -531h-39q-27 130 -53.5 221.5t-53 149t-58 90t-62.5 44t-72 11.5q-278 0 -278 -661q0 -278 25 -438.5t70 -222.5t120 -62
q47 0 84 12v381q0 78 -3.5 123.5t-12.5 83t-29.5 56.5t-49.5 31t-77 19v41l620 -35v-40q-22 0 -38.5 -13t-26 -39t-15.5 -50t-8.5 -62.5t-3 -59.5t-0.5 -57v-424q-108 0 -246 -12.5t-221 -12.5z" />
    <glyph glyph-name="H" unicode="H" horiz-adv-x="1359" 
d="M766 0v37q45 11 64.5 45t19.5 106v514h-338v-514q0 -73 19 -106.5t65 -44.5v-37h-537v37q46 11 65 44.5t19 106.5v1057q0 73 -19 107.5t-65 46.5v35h537v-35q-46 -12 -65 -46.5t-19 -107.5v-502h338v502q0 72 -19.5 107t-64.5 47v35h534v-35q-45 -12 -64 -46.5
t-19 -107.5v-1057q0 -73 19 -106.5t64 -44.5v-37h-534z" />
    <glyph glyph-name="I" unicode="I" horiz-adv-x="655" 
d="M143 1245q0 73 -19 107.5t-65 46.5v35h537v-35q-46 -12 -65 -46.5t-19 -107.5v-1057q0 -73 19 -106.5t65 -44.5v-37h-537v37q46 11 65 44.5t19 106.5v1057z" />
    <glyph glyph-name="J" unicode="J" horiz-adv-x="765" 
d="M63 569q41 -223 79 -346.5t72 -165t79 -41.5q43 0 64.5 26t21.5 71q0 40 -15.5 87t-33.5 86.5t-33.5 102.5t-15.5 129v727q0 73 -18.5 107.5t-63.5 46.5v35h534v-35q-46 -12 -65 -46.5t-19 -107.5v-860q0 -193 -84.5 -301.5t-265.5 -108.5q-57 0 -124 19.5t-99 19.5
l-53 555h40z" />
    <glyph glyph-name="K" unicode="K" horiz-adv-x="1409" 
d="M1229 172q47 -109 160 -135v-37h-639v37q63 10 71 39t-24 96l-213 485l-72 -108v-361q0 -73 19 -106.5t65 -44.5v-37h-537v37q46 11 65 44.5t19 106.5v1057q0 73 -19 107.5t-65 46.5v35h537v-35q-46 -12 -65 -46.5t-19 -107.5v-612l455 682q36 47 28 64.5t-73 17.5v37
h274v-37q-72 0 -109.5 -18.5t-72.5 -71.5l-168 -254z" />
    <glyph glyph-name="L" unicode="L" horiz-adv-x="1046" 
d="M59 0v37q46 11 65 44.5t19 106.5v1057q0 73 -19 107.5t-65 46.5v35h537v-35q-46 -12 -65 -46.5t-19 -107.5v-1204h207q41 0 66.5 5t52 23t43.5 51t36 91.5t34.5 141.5t33.5 204h41l-49 -557h-918z" />
    <glyph glyph-name="M" unicode="M" horiz-adv-x="1527" 
d="M516 0l-268 1255l-74 -1067q-5 -74 13 -107.5t69 -43.5v-37h-219v37q47 11 69.5 45t26.5 106l72 1057q6 74 -12 108t-70 46v35h473l178 -801l164 801h463v-35q-52 -12 -69.5 -45.5t-12.5 -108.5l78 -1057q6 -72 29 -106t69 -45v-37h-551v37q50 10 67.5 43.5t12.5 107.5
l-80 1067l-250 -1255h-178z" />
    <glyph glyph-name="N" unicode="N" horiz-adv-x="1093" 
d="M946 1245q0 73 -19 107.5t-65 46.5v35h209v-35q-45 -12 -64.5 -47t-19.5 -107v-1245h-272l-531 1260l-10 22v-1094q0 -72 19.5 -106t64.5 -45v-37h-209v37q46 11 65 44.5t19 106.5v1153q-37 40 -86 58v35h500l399 -965v776z" />
    <glyph glyph-name="O" unicode="O" horiz-adv-x="1277" 
d="M639 -25q-96 0 -181 25.5t-160 83t-129 142t-85 210.5t-31 281t31 280.5t85 210.5t129 142t160 82.5t181 25.5t180.5 -25t160 -82t129 -141.5t85 -210.5t31.5 -282t-31 -282t-85 -211t-129 -141.5t-160 -82t-181 -25.5zM459 717q0 -288 17 -437.5t54.5 -206.5t108.5 -57
q72 0 109.5 57t55 206t17.5 438q0 218 -8.5 351t-31 212.5t-55.5 108t-87 28.5q-71 0 -108.5 -56.5t-54.5 -206t-17 -437.5z" />
    <glyph glyph-name="P" unicode="P" horiz-adv-x="1177" 
d="M59 0v37q46 11 65 44.5t19 106.5v1057q0 73 -19 107.5t-65 46.5v35h113q132 1 277.5 12.5t193.5 11.5q90 0 162.5 -12t141.5 -45.5t115.5 -87t74.5 -141t28 -203.5q0 -133 -36 -233t-102 -162t-155 -92.5t-200 -30.5q-74 0 -160 18v-281q0 -73 25 -106.5t84 -44.5v-37
h-562zM512 516q44 -24 94 -24q42 0 70.5 17.5t52.5 64.5t35.5 140t11.5 234q0 142 -12.5 237t-38 144t-56 68.5t-73.5 19.5q-38 0 -84 -12v-889z" />
    <glyph glyph-name="Q" unicode="Q" horiz-adv-x="1277" 
d="M639 16q72 0 109.5 57t55 206t17.5 438q0 218 -8.5 351t-31 212.5t-55.5 108t-87 28.5q-71 0 -108.5 -56.5t-54.5 -206t-17 -437.5t17 -437.5t54.5 -206.5t108.5 -57zM53 717q0 155 31 280.5t85 210.5t129 142t160 82.5t181 25.5t180.5 -25t160 -82t129 -141.5t85 -210.5
t31.5 -282q0 -189 -44.5 -333t-123 -230.5t-177.5 -130.5t-216 -48q51 -28 80 -42.5t75.5 -28t89.5 -13.5q63 0 111 30t84 104l37 -15q-16 -65 -37 -115t-53.5 -97t-81.5 -72t-111 -25q-67 0 -127.5 32t-106 77.5t-89.5 90.5t-96 77t-107 32q-52 0 -99 -27t-102 -79l-25 26
q51 55 101.5 90.5t111.5 47.5q-125 84 -195.5 245.5t-70.5 403.5z" />
    <glyph glyph-name="R" unicode="R" horiz-adv-x="1294" 
d="M59 0v37q46 11 65 44.5t19 106.5v1057q0 73 -19 107.5t-65 46.5v35h113q152 1 303.5 11.5t192.5 10.5q218 0 329 -74.5t111 -240.5q0 -283 -317 -344q90 -14 149.5 -40t96.5 -72.5t54.5 -107.5t24.5 -153q18 -223 28 -274.5t38 -51.5q24 0 37.5 33.5t21.5 134.5l41 -4
q-11 -156 -67 -221.5t-185 -65.5q-144 0 -207 86t-78 293q-21 246 -32 304q-21 98 -69 116q-15 6 -34 6h-4q-40 0 -94 11v-603q0 -73 19 -106.5t65 -44.5v-37h-537zM512 831q39 -10 80 -10q153 0 153 312q0 141 -36.5 211.5t-116.5 70.5q-47 0 -80 -10v-574z" />
    <glyph glyph-name="S" unicode="S" horiz-adv-x="1036" 
d="M109 557q89 -541 350 -541q76 0 113.5 45t37.5 121q0 58 -18 115t-59 121.5t-84.5 119.5t-116.5 140q-71 80 -111.5 130t-83 113.5t-61.5 120.5t-19 115q0 136 119 218.5t328 82.5q60 0 178 -13t184 -13l54 -531h-41q-21 127 -47.5 220t-55 149.5t-64 89.5t-69.5 45
t-78 12q-67 0 -103 -34t-36 -95q0 -81 59 -177.5t183 -238.5q64 -72 101.5 -116t83 -106t69 -110t40.5 -106.5t17 -116.5q0 -168 -116 -255t-337 -87q-64 0 -193.5 13.5t-213.5 13.5l-51 555h41z" />
    <glyph glyph-name="T" unicode="T" horiz-adv-x="1146" 
d="M1075 1434l49 -533h-41q-36 224 -69 329t-68.5 134t-103.5 29h-84v-1205q0 -73 19 -106.5t65 -44.5v-37h-535v37q45 11 64.5 45t19.5 106v1205h-86q-51 0 -80.5 -13.5t-59 -64.5t-52.5 -148t-50 -266h-40l51 533h1001z" />
    <glyph glyph-name="U" unicode="U" horiz-adv-x="1161" 
d="M117 1245q0 73 -19 107.5t-65 46.5v35h534v-35q-45 -12 -64.5 -47t-19.5 -107v-762q0 -374 265 -374q121 0 188.5 90t67.5 282v764q0 73 -18.5 107.5t-63.5 46.5v35h206v-35q-45 -12 -64.5 -47t-19.5 -107v-782q0 -247 -110 -367.5t-332 -120.5q-224 0 -354.5 132
t-130.5 397v741z" />
    <glyph glyph-name="V" unicode="V" horiz-adv-x="1241" 
d="M700 -25h-137l-401 1278q-20 66 -56 99.5t-86 46.5v35h623v-35q-64 -12 -76.5 -44t11.5 -102l231 -749l227 749q24 70 11.5 102t-76.5 44v35h250v-35q-50 -13 -85 -46.5t-55 -99.5z" />
    <glyph glyph-name="W" unicode="W" horiz-adv-x="1830" 
d="M713 -25h-156l-395 1278q-22 66 -57 99.5t-85 46.5v35h1209v-37q-54 -7 -67 -41t7 -101l234 -770l227 770q21 66 7.5 99t-72.5 43v37h245v-35q-49 -13 -82.5 -46t-54.5 -100l-370 -1278h-156l-223 725zM580 1255l233 -770l86 293l-147 477q-20 71 -47 106.5t-72 35.5
q-94 0 -53 -142z" />
    <glyph glyph-name="X" unicode="X" horiz-adv-x="1239" 
d="M651 1434v-35q-63 -11 -71 -41.5t24 -97.5l184 -437l201 439q32 67 25.5 96.5t-68.5 40.5v35h250v-35q-114 -31 -162 -137l-223 -492l250 -596q48 -112 158 -137v-37h-631v37q63 10 71.5 40t-22.5 97l-186 438l-211 -442q-22 -48 -27 -71.5t10 -39t58 -22.5v-37h-250v37
q112 27 164 133l235 496l-252 594q-48 110 -158 139v35h631z" />
    <glyph glyph-name="Y" unicode="Y" horiz-adv-x="1214" 
d="M1001 1257q27 69 16.5 99.5t-73.5 42.5v35h250v-35q-50 -14 -87 -46t-60 -96l-224 -614v-455q0 -73 19 -106.5t65 -44.5v-37h-536v37q46 11 65 44.5t19 106.5v377l-279 695q-45 110 -156 139v35h644v-35q-64 -12 -74 -42.5t18 -99.5l197 -534z" />
    <glyph glyph-name="Z" unicode="Z" horiz-adv-x="1073" 
d="M682 41q41 0 68.5 8t58 37t52.5 84t43.5 151t39.5 236h43l-53 -557h-860v41l495 1352h-168q-45 0 -74 -8t-59 -35.5t-51 -80.5t-41.5 -143.5t-38.5 -224.5h-41l51 533h848v-41l-495 -1352h182z" />
    <glyph glyph-name="bracketleft" unicode="[" horiz-adv-x="661" 
d="M74 1542h563v-41h-215v-1773h215v-41h-563v1855z" />
    <glyph glyph-name="backslash" unicode="\" horiz-adv-x="428" 
d="M367 -410l-347 1844h41l347 -1844h-41z" />
    <glyph glyph-name="bracketright" unicode="]" horiz-adv-x="661" 
d="M588 1542v-1855h-563v41h215v1773h-215v41h563z" />
    <glyph glyph-name="asciicircum" unicode="^" horiz-adv-x="612" 
d="M106 940h-45l213 494h64l213 -494h-45l-199 463z" />
    <glyph glyph-name="underscore" unicode="_" horiz-adv-x="727" 
d="M61 -123h605v-41h-605v41z" />
    <glyph glyph-name="grave" unicode="`" horiz-adv-x="610" 
d="M76 1251q0 127 65 158.5t193 -49.5l215 -143l-10 -27z" />
    <glyph glyph-name="a" unicode="a" horiz-adv-x="1185" 
d="M805 -25q-62 0 -89.5 29t-27.5 96v62q-75 -187 -280 -187q-72 0 -133.5 24t-111 72.5t-78 130.5t-28.5 189t28.5 189t78 130.5t111 72.5t133.5 24q206 0 280 -184v73q0 171 -49.5 241.5t-157.5 70.5q-200 0 -319 -205h-43l88 213q38 0 156 16.5t190 16.5q76 0 144 -11
t133.5 -38.5t112.5 -69.5t75.5 -108.5t28.5 -151.5v-447q0 -75 19 -98.5t83 -11.5l12 -33l-153 -60q-125 -45 -203 -45zM406 391q0 -280 143 -280q139 0 139 280q0 281 -139 281q-143 0 -143 -281z" />
    <glyph glyph-name="b" unicode="b" horiz-adv-x="1181" 
d="M113 1210q0 71 -20 105.5t-66 46.5v35h114q133 2 199.5 15t108.5 61h20v-568q61 70 131 107t168 37q157 0 256.5 -132.5t99.5 -375.5q0 -262 -117 -414t-302 -152q-137 0 -209 80t-103 264q-86 -51 -136 -125t-103 -221h-41v1237zM469 383q0 -143 36 -217t95 -74
q76 0 109.5 95t33.5 325q0 241 -26.5 333.5t-95.5 92.5q-33 0 -66 -20t-86 -74v-461z" />
    <glyph glyph-name="c" unicode="c" horiz-adv-x="997" 
d="M57 504q0 251 144.5 398t394.5 147q63 0 143 -13.5t117 -13.5l49 -365h-41q-20 109 -46.5 182t-56 108t-56.5 48t-60 13q-105 0 -157 -107.5t-52 -292.5q0 -141 27.5 -251t84.5 -175t136 -65q165 0 236 274l41 -8q-49 -217 -159 -312.5t-278 -95.5q-215 0 -341 142
t-126 387z" />
    <glyph glyph-name="d" unicode="d" horiz-adv-x="1181" 
d="M713 1196q0 73 -20 107.5t-66 46.5v34h114q129 0 197.5 14t110.5 62h20v-1235q0 -73 19 -106t67 -45v-37h-117q-127 0 -195 -13.5t-110 -60.5h-20v154q-62 -70 -132 -106t-167 -36q-154 0 -255.5 134.5t-101.5 373.5q0 257 112 411.5t282 154.5q187 0 262 -148v295z
M436 512q0 -163 12.5 -255t38.5 -131.5t72 -39.5q33 0 67.5 20t86.5 72v463q0 142 -36.5 216.5t-94.5 74.5q-77 0 -111.5 -95.5t-34.5 -324.5z" />
    <glyph glyph-name="e" unicode="e" horiz-adv-x="1024" 
d="M57 512q0 249 130.5 393t357.5 144q197 0 309.5 -107t112.5 -309h-535q3 -251 69.5 -383.5t192.5 -132.5q177 0 258 274l39 -8q-51 -217 -166 -312.5t-293 -95.5q-224 0 -349.5 143t-125.5 394zM432 674h221q0 185 -22 259.5t-80 74.5q-64 0 -90.5 -82t-28.5 -252z" />
    <glyph glyph-name="f" unicode="f" horiz-adv-x="681" 
d="M358 1458q85 0 160.5 -13t104.5 -13l51 -332h-41q-35 130 -68 200.5t-62.5 92.5t-70.5 22q-43 0 -66.5 -35.5t-23.5 -101.5q0 -61 22.5 -117.5t70.5 -96.5t112 -40h86v-41q-82 0 -108.5 -20.5t-26.5 -85.5v-689q0 -72 29 -106t96 -45v-37h-566v37q46 11 66 44.5t20 106.5
v689q0 68 -21.5 87t-105.5 19v41h242q-108 38 -158.5 96.5t-50.5 141.5q0 94 82.5 145t226.5 51z" />
    <glyph glyph-name="g" unicode="g" horiz-adv-x="1030" 
d="M514 115q-144 0 -252 51q-29 -21 -29 -37q0 -23 52 -40t239 -60q62 -14 95.5 -22.5t81 -20.5t72.5 -20.5t58 -21.5t49.5 -24.5t35.5 -27.5t27 -33t14 -38t6 -46q0 -58 -32 -101t-87 -67.5t-119 -36.5t-137 -12q-154 0 -253 38t-99 115q0 93 149 135q-184 40 -259 84.5
t-75 116.5q0 99 168 143q-182 119 -182 392q0 221 127 345t350 124q88 0 162 -21q38 84 91 137t136 86l70 -153q-95 0 -150 -19t-92 -67q126 -51 193 -161.5t67 -270.5q0 -221 -126 -344t-351 -123zM408 582q0 -238 19 -332t87 -94q69 0 89 96t20 330t-20 331t-89 97
q-67 0 -86.5 -95.5t-19.5 -332.5zM424 -281q0 -58 43 -87t119 -29q77 0 117 24t40 66q0 49 -46 71t-205 58q-68 -36 -68 -103z" />
    <glyph glyph-name="h" unicode="h" horiz-adv-x="1234" 
d="M113 1196q0 72 -19.5 106t-66.5 46v36h114q129 0 197.5 13.5t110.5 60.5h20v-584q144 175 346 175q135 0 214 -75t79 -243v-543q0 -73 20 -106.5t66 -44.5v-37h-526v37q46 11 66 44.5t20 106.5v580q0 152 -99 152q-79 0 -186 -107v-625q0 -73 19.5 -106.5t66.5 -44.5v-37
h-528v37q46 11 66 44.5t20 106.5v1008z" />
    <glyph glyph-name="i" unicode="i" horiz-adv-x="606" 
d="M125 786q0 72 -19.5 106t-66.5 46v37h115q129 0 197 13.5t110 60.5h20v-861q0 -73 19.5 -106.5t66.5 -44.5v-37h-528v37q46 11 66 44.5t20 106.5v598zM86 1296q0 75 56.5 118.5t154.5 43.5t153.5 -43.5t55.5 -118.5q0 -74 -55.5 -117.5t-153.5 -43.5t-154.5 43.5
t-56.5 117.5z" />
    <glyph glyph-name="j" unicode="j" horiz-adv-x="575" 
d="M131 786q0 73 -19.5 107.5t-66.5 46.5v35h115q129 0 197 14t110 62h20v-1041q0 -68 -1.5 -113t-7.5 -96t-17.5 -83.5t-31 -64t-47.5 -49t-68 -28t-93 -10.5q-58 0 -125.5 13t-95.5 13l-49 385h39q21 -101 42 -172t37.5 -109t36.5 -58.5t33.5 -25.5t32.5 -5q61 0 61 102
q0 53 -16 106.5t-35 93t-35 101.5t-16 129v647zM82 1296q0 75 56.5 118.5t154.5 43.5t153.5 -43.5t55.5 -118.5q0 -74 -55.5 -117.5t-153.5 -43.5t-154.5 43.5t-56.5 117.5z" />
    <glyph glyph-name="k" unicode="k" horiz-adv-x="1300" 
d="M1114 170q50 -107 164 -133v-37h-616v37q57 10 61.5 39t-29.5 94l-143 317l-82 -100v-199q0 -73 19.5 -106.5t66.5 -44.5v-37h-528v37q46 11 66 44.5t20 106.5v1008q0 72 -19.5 106t-66.5 46v36h114q129 0 197.5 13.5t110.5 60.5h20v-1005l375 452q23 29 31 45t-3 24.5
t-32.5 10.5t-67.5 2v37h342v-37q-81 0 -128.5 -17t-94.5 -71l-72 -88z" />
    <glyph glyph-name="l" unicode="l" horiz-adv-x="581" 
d="M113 1196q0 72 -19.5 106t-66.5 46v36h114q129 0 197.5 13.5t110.5 60.5h20v-1270q0 -73 19.5 -106.5t66.5 -44.5v-37h-528v37q46 11 66 44.5t20 106.5v1008z" />
    <glyph glyph-name="m" unicode="m" horiz-adv-x="1796" 
d="M1229 0v37q46 11 66 44.5t20 106.5v580q0 150 -80 150q-65 0 -170 -111q4 -40 4 -70v-549q0 -73 20 -106.5t66 -44.5v-37h-526v37q46 11 66 44.5t20 106.5v580q0 150 -80 150q-65 0 -166 -107v-623q0 -73 19.5 -106.5t66.5 -44.5v-37h-528v37q46 11 66 44.5t20 106.5v598
q0 72 -19.5 106t-66.5 46v37h114q129 0 197.5 13.5t110.5 60.5h20v-175q59 76 142 125.5t184 49.5q210 0 260 -187q157 187 342 187q124 0 199 -72.5t75 -239.5v-549q0 -73 19.5 -106.5t66.5 -44.5v-37h-528z" />
    <glyph glyph-name="n" unicode="n" horiz-adv-x="1234" 
d="M113 786q0 72 -19.5 106t-66.5 46v37h114q129 0 197.5 13.5t110.5 60.5h20v-175q144 175 346 175q135 0 214 -75t79 -243v-543q0 -73 20 -106.5t66 -44.5v-37h-526v37q46 11 66 44.5t20 106.5v580q0 152 -99 152q-79 0 -186 -107v-625q0 -73 19.5 -106.5t66.5 -44.5v-37
h-528v37q46 11 66 44.5t20 106.5v598z" />
    <glyph glyph-name="o" unicode="o" horiz-adv-x="1120" 
d="M559 -25q-246 0 -380 141t-134 396t134 396t380 141q247 0 381.5 -140.5t134.5 -396.5t-134.5 -396.5t-381.5 -140.5zM424 512q0 -285 26 -390.5t109 -105.5q84 0 110.5 105.5t26.5 390.5t-26.5 390.5t-110.5 105.5q-82 0 -108.5 -107t-26.5 -389z" />
    <glyph glyph-name="p" unicode="p" horiz-adv-x="1181" 
d="M113 786q0 72 -19.5 106t-66.5 46v37h114q129 0 197.5 13.5t110.5 60.5h20v-144q61 70 131 107t168 37q154 0 255 -134t101 -374q0 -257 -112.5 -411.5t-282.5 -154.5q-184 0 -260 146v-342q0 -73 19.5 -107.5t66.5 -46.5v-35h-528v35q46 12 66 46.5t20 107.5v1007z
M469 383q0 -143 36 -217t95 -74q76 0 109.5 95t33.5 325q0 165 -11.5 256t-37.5 130.5t-73 39.5q-33 0 -66 -20t-86 -74v-461z" />
    <glyph glyph-name="q" unicode="q" horiz-adv-x="1169" 
d="M1069 -221q0 -73 19.5 -107.5t66.5 -46.5v-35h-528v35q46 12 66 46.5t20 107.5v340q-63 -71 -132 -107.5t-167 -36.5q-157 0 -257 132.5t-100 375.5q0 262 117 414t301 152q137 0 209.5 -79t101.5 -263q85 54 139 131.5t103 218.5h41v-1278zM436 512q0 -162 12 -254.5
t38.5 -132t72.5 -39.5q34 0 68 20t86 74v461q0 142 -36.5 216.5t-94.5 74.5q-77 0 -111.5 -95.5t-34.5 -324.5z" />
    <glyph glyph-name="r" unicode="r" horiz-adv-x="976" 
d="M739 686q-35 0 -61 11t-41 27t-26 40t-15.5 44t-10.5 44.5t-10 36.5q-5 25 -36 -7q-21 -23 -70 -87v-607q0 -73 40 -106.5t136 -44.5v-37h-618v37q46 11 66 44.5t20 106.5v598q0 72 -19.5 106t-66.5 46v37h114q129 0 197.5 13.5t110.5 60.5h20v-189q72 98 130.5 143.5
t125.5 45.5q37 0 63.5 -13.5t38.5 -29.5t28 -29.5t34 -13.5q19 0 51 28l14 -30q-39 -275 -215 -275z" />
    <glyph glyph-name="s" unicode="s" horiz-adv-x="907" 
d="M84 408q26 -100 54.5 -172t55.5 -114t59 -66t60.5 -32t65.5 -8q57 0 82.5 28.5t25.5 74.5q0 37 -14 74.5t-48 85t-62 80.5t-84 96q-107 109 -156 186.5t-49 165.5q0 124 97.5 183t266.5 59q73 0 179 -13.5t157 -13.5l55 -365h-38q-22 95 -47.5 162t-48.5 103.5
t-52.5 56.5t-51 24.5t-52.5 4.5q-43 0 -68 -21.5t-25 -56.5q0 -58 50.5 -134t152.5 -184q111 -116 160 -194t49 -168q0 -275 -397 -275q-90 0 -207.5 13.5t-159.5 13.5l-51 406h41z" />
    <glyph glyph-name="t" unicode="t" horiz-adv-x="733" 
d="M20 1024q117 1 197.5 21.5t130 64.5t75.5 99.5t42 138.5h33v-324h194v-41q-87 0 -127 -9t-53.5 -29.5t-13.5 -67.5v-562q0 -51 1.5 -79.5t7 -55t18 -37t32.5 -10.5q38 0 63.5 60.5t47.5 199.5l37 -14q-15 -105 -33.5 -172t-52 -123.5t-87 -82.5t-131.5 -26q-79 0 -130 23
t-79 73t-38.5 116t-10.5 167v523q0 37 -2.5 54t-15.5 31t-36.5 17.5t-68.5 3.5v41z" />
    <glyph glyph-name="u" unicode="u" horiz-adv-x="1247" 
d="M461 1051h20v-795q0 -152 99 -152q81 0 188 107v575q0 73 -20 107.5t-66 46.5v35h115q127 0 195 14t110 62h20v-811q0 -73 20 -107t66 -45v-37h-114q-127 0 -195.5 -14t-110.5 -62h-20v177q-144 -179 -348 -179q-136 0 -215.5 75.5t-79.5 244.5v493q0 73 -19.5 107.5
t-66.5 46.5v35h115q129 0 197 14t110 62z" />
    <glyph glyph-name="v" unicode="v" horiz-adv-x="1105" 
d="M670 -25h-176l-324 873q-23 64 -60.5 95.5t-89.5 45.5v35h619v-35q-64 -12 -75 -43t16 -100l174 -492l149 490q24 70 10.5 101.5t-77.5 43.5v35h249v-35q-50 -13 -84.5 -46t-56.5 -99z" />
    <glyph glyph-name="w" unicode="w" horiz-adv-x="1685" 
d="M170 848q-23 64 -60.5 95.5t-89.5 45.5v35h1192v-37q-59 -10 -69 -41.5t16 -95.5l174 -492l148 488q23 67 10.5 99t-72.5 42v37h246v-35q-105 -27 -141 -145l-275 -869h-164l-231 625l-197 -625h-163zM569 850l172 -492l93 299l-72 193q-25 70 -55.5 103.5t-77.5 33.5
q-51 0 -66.5 -36.5t6.5 -100.5z" />
    <glyph glyph-name="x" unicode="x" horiz-adv-x="1034" 
d="M627 1024v-35q-64 -12 -73 -42t21 -97l105 -252l106 254q32 65 24 95.5t-73 41.5v35h252v-35q-111 -30 -158 -137l-129 -307l154 -371q45 -110 150 -137v-37h-600v37q63 10 72 40t-21 97l-107 258l-110 -258q-32 -67 -23.5 -97t72.5 -40v-37h-252v37q112 26 158 135
l133 311l-152 367q-45 110 -149 139v35h600z" />
    <glyph glyph-name="y" unicode="y" horiz-adv-x="1071" 
d="M403 -438q-34 0 -85.5 13t-90.5 13l-61 392h41q29 -124 54.5 -201.5t50.5 -115t45.5 -49t50.5 -11.5q54 0 87.5 49t71.5 178l43 145h-141l-303 871q-39 115 -146 143v35h611v-35q-64 -12 -76.5 -43t12.5 -100l158 -481l143 479q24 70 10.5 101.5t-79.5 43.5v35h252v-35
q-50 -13 -85 -46t-55 -99l-311 -1047q-16 -52 -27.5 -83t-28.5 -63.5t-35.5 -49.5t-45 -28t-60.5 -11z" />
    <glyph glyph-name="z" unicode="z" horiz-adv-x="927" 
d="M610 41q43 0 68.5 6.5t50 26t42 62t35 106.5t38.5 168h41l-54 -410h-788v41l418 942h-121q-54 0 -84 -9t-58 -44.5t-48 -97t-46 -175.5h-41l56 367h749v-41l-415 -942h157z" />
    <glyph glyph-name="braceleft" unicode="{" horiz-adv-x="710" 
d="M25 635q42 0 73.5 5t52.5 18.5t34.5 27t19.5 40t8 48.5t-2 61t-8 68.5t-11.5 81t-11.5 88.5q-4 47 -6 93t9.5 89.5t31 82.5t59.5 73t94 60t135 44.5t183 26.5v-20q-93 -35 -116.5 -120.5t-8.5 -260.5q19 -238 -51 -363t-256 -164q186 -39 256 -163.5t51 -360.5
q-15 -177 8.5 -262.5t116.5 -120.5v-20q-102 8 -183 26.5t-135 44.5t-94 60t-60 73t-31.5 82.5t-9.5 89.5t5 93q5 37 12.5 88.5t11.5 81t8 68.5t2 61t-7.5 48.5t-19 40t-34.5 27t-52.5 18.5t-73.5 5v41z" />
    <glyph glyph-name="bar" unicode="|" horiz-adv-x="163" 
d="M61 1556h41v-1679h-41v1679z" />
    <glyph glyph-name="braceright" unicode="}" horiz-adv-x="710" 
d="M686 594q-38 0 -67 -5t-50 -13t-35 -24t-22 -31t-11 -41t-3 -48t4 -58t8 -64t11 -74t11 -80q3 -47 5 -93t-9.5 -89.5t-31 -82.5t-59.5 -73t-94 -60t-135 -44.5t-183 -26.5v20q93 35 116.5 120.5t8.5 262.5q-19 236 51 360.5t256 163.5q-186 39 -256 164t-51 363
q15 175 -8.5 260.5t-116.5 120.5v20q102 -8 183 -26.5t135 -44.5t93.5 -60t59 -73t31 -82.5t9.5 -89.5t-6 -93q-4 -35 -10.5 -80.5l-10.5 -73.5t-8 -64t-3.5 -58t3 -48t11 -41t22.5 -31t35 -24t50 -13t67 -5v-41z" />
    <glyph glyph-name="asciitilde" unicode="~" horiz-adv-x="700" 
d="M598 559q-25 -63 -55.5 -92t-81.5 -29q-29 0 -53.5 11t-41.5 27t-33 32.5t-35.5 27.5t-41.5 11q-38 0 -59 -19.5t-58 -76.5l-37 16q37 64 70 92.5t84 28.5q34 0 63.5 -17t46.5 -37.5t42.5 -37.5t52.5 -17q37 0 56.5 20.5t43.5 75.5z" />
    <glyph glyph-name="exclamdown" unicode="&#xa1;" horiz-adv-x="403" 
d="M211 -438q-66 0 -105.5 43t-39.5 116q0 53 19 139t42 173.5t42 239.5t19 321h41q0 -169 20 -321t43.5 -239.5t43.5 -173.5t20 -139q0 -73 -40 -116t-105 -43zM63 905q0 62 40 103t108 41t106.5 -41t38.5 -103t-38.5 -101.5t-106.5 -39.5q-69 0 -108.5 39.5t-39.5 101.5z
" />
    <glyph glyph-name="cent" unicode="&#xa2;" horiz-adv-x="997" 
d="M57 709q0 251 144.5 397.5t394.5 146.5h25v303h41v-305q27 -3 91.5 -13.5t102.5 -10.5l49 -365h-41q-19 102 -43 172t-51 106.5t-52 52.5t-56 19v-888q8 -2 22 -2q165 0 236 274l41 -8q-71 -324 -299 -389v-322h-41v311q-41 -8 -97 -8q-215 0 -341 142t-126 387zM436 813
q0 -185 48 -314t137 -165v876q-93 -12 -139 -118t-46 -279z" />
    <glyph glyph-name="sterling" unicode="&#xa3;" horiz-adv-x="1069" 
d="M342 -25q-108 0 -186 61.5t-78 182.5q0 98 66.5 166t177.5 68q72 0 126.5 -32.5t110.5 -90.5q-5 49 -25 97.5t-50.5 91.5t-65.5 84t-75 84q-14 15 -21 22h-226v41h189q-82 93 -128 184t-46 201q0 162 127 242.5t344 80.5q75 0 165 -13t144 -13l53 -500h-47
q-29 154 -56 252.5t-56 148t-56 67t-63 17.5q-136 0 -136 -309q0 -177 29 -358h266v-41h-258q9 -50 27 -138t26.5 -145t8.5 -109q0 -23 -4 -59q45 -46 83 -70t85 -24q61 0 97 48.5t56 168.5h47q-10 -125 -27.5 -208t-44.5 -125t-55.5 -57.5t-68.5 -15.5q-42 0 -82 24
t-65.5 52.5t-61.5 77.5q-36 -72 -99.5 -113t-146.5 -41zM190 172q0 -69 42.5 -112.5t115.5 -43.5q78 0 127.5 46.5t71.5 121.5q-49 60 -97 93.5t-110 33.5q-65 0 -107.5 -36.5t-42.5 -102.5z" />
    <glyph glyph-name="currency" unicode="&#xa4;" horiz-adv-x="933" 
d="M467 287q-130 0 -221 94l-168 -170l-29 29l170 172q-94 120 -94 305q0 183 94 307l-170 170l29 29l168 -168q92 92 221 92t221 -92l168 168l29 -29l-170 -170q94 -127 94 -307t-94 -307l170 -170l-29 -29l-168 168q-92 -92 -221 -92zM166 717q0 -166 82.5 -277.5
t218.5 -111.5q135 0 218 112t83 277t-83 277t-218 112q-136 0 -218.5 -111.5t-82.5 -277.5z" />
    <glyph glyph-name="yen" unicode="&#xa5;" horiz-adv-x="1214" 
d="M1001 1257q27 69 16.5 99.5t-73.5 42.5v35h250v-35q-50 -14 -87 -46t-60 -96l-138 -376h244v-41h-258l-45 -123h303v-41h-317l-13 -33v-455q0 -73 19 -106.5t65 -44.5v-37h-536v37q46 11 65 44.5t19 106.5v377l-45 111h-344v41h327l-49 123h-278v41h262l-152 379
q-45 110 -156 139v35h644v-35q-64 -12 -74 -42.5t18 -99.5l140 -376h114zM762 840l43 -117l43 117h-86z" />
    <glyph glyph-name="brokenbar" unicode="&#xa6;" horiz-adv-x="163" 
d="M61 1556h41v-655h-41v655zM61 -123v655h41v-655h-41z" />
    <glyph glyph-name="section" unicode="&#xa7;" horiz-adv-x="1046" 
d="M68 551q0 120 82 195t229 100q-95 95 -135.5 162t-40.5 153q0 79 47 129.5t121.5 71t177.5 20.5q87 0 193 -14t151 -14l47 -350h-41q-22 112 -47 183.5t-53.5 102.5t-51 40t-55.5 9q-39 0 -61.5 -26.5t-22.5 -73.5t23 -93.5t45 -73.5t92 -102q17 -20 27 -30
q95 -101 140.5 -184t45.5 -183q0 -120 -82 -194.5t-229 -99.5q92 -92 134 -159.5t42 -154.5q0 -117 -93.5 -170t-252.5 -53q-88 0 -193.5 14.5t-150.5 14.5l-47 350h41q18 -91 38.5 -155t39 -99t42 -54t42 -23.5t44.5 -4.5q38 0 61 27t23 73q0 18 -2 33.5t-8.5 32.5t-11 29
t-17.5 31t-20 29.5t-26.5 32.5t-29 33t-34.5 39t-37 41q-94 97 -140 180t-46 185zM399 639q0 -16 2 -30.5t8.5 -30.5t11 -26.5t18 -29t20.5 -27.5t28 -31.5t30 -31.5t37 -37.5t40 -40.5q55 49 55 133q0 22 -3.5 40.5t-14.5 39.5t-18.5 34t-30.5 38t-34 37t-44.5 45.5
l-48.5 48.5q-56 -53 -56 -131z" />
    <glyph glyph-name="dieresis" unicode="&#xa8;" horiz-adv-x="798" 
d="M543 1223q-54 0 -84.5 29t-30.5 81q0 53 30.5 83t84.5 30t84 -30t30 -83q0 -52 -30 -81t-84 -29zM35 1333q0 53 30.5 83t84.5 30t83 -30t29 -83t-29 -81.5t-83 -28.5t-84.5 29t-30.5 81z" />
    <glyph glyph-name="copyright" unicode="&#xa9;" horiz-adv-x="1454" 
d="M727 -27q-191 0 -342.5 94t-237.5 264t-86 386q0 162 50 300.5t138 235.5t211.5 152t266.5 55t266.5 -55t211.5 -152t138 -235.5t50 -300.5q0 -216 -86 -386t-237.5 -264t-342.5 -94zM102 717q0 -206 80.5 -366.5t222.5 -248.5t322 -88q179 0 321.5 88.5t223 249.5
t80.5 365t-80.5 364.5t-223 249t-321.5 88.5t-321.5 -88.5t-223 -249t-80.5 -364.5zM373 707q0 203 115.5 321.5t308.5 118.5q47 0 108.5 -10.5t89.5 -10.5l41 -292h-32q-17 87 -37.5 145.5t-43.5 86t-43.5 38t-45.5 10.5q-156 0 -156 -315q0 -175 48.5 -286.5t139.5 -111.5
q125 0 183 220l32 -9q-40 -173 -124.5 -249t-215.5 -76q-168 0 -268 113.5t-100 306.5z" />
    <glyph glyph-name="ordfeminine" unicode="&#xaa;" horiz-adv-x="806" 
d="M547 700q-38 0 -56 18.5t-18 59.5v39q-52 -117 -184 -117q-103 0 -170.5 72t-67.5 217t67.5 217t170.5 72q132 0 184 -117v43q0 121 -31.5 169t-103.5 48q-134 0 -215 -141h-31l62 147q26 0 102.5 11.5t124.5 11.5q63 0 117 -13.5t101 -42.5t74 -81.5t27 -124.5v-260
q0 -77 19.5 -100.5t83.5 -10.5l12 -33l-153 -59q-71 -25 -115 -25zM272 989q0 -205 103 -205q46 0 72 51t26 154q0 205 -98 205q-103 0 -103 -205z" />
    <glyph glyph-name="guillemotleft" unicode="&#xab;" horiz-adv-x="718" 
d="M49 514q0 61 60 113l249 209l27 -19l-145 -303l145 -303l-27 -18l-249 208q-60 52 -60 113zM348 514q0 61 60 113l249 209l27 -19l-145 -303l145 -303l-27 -18l-249 208q-60 52 -60 113z" />
    <glyph glyph-name="logicalnot" unicode="&#xac;" horiz-adv-x="626" 
d="M102 602h422v-211h-41v170h-381v41z" />
    <glyph glyph-name="registered" unicode="&#xae;" horiz-adv-x="808" 
d="M403 711q-152 0 -253 104t-101 270t101 270.5t253 104.5q153 0 255 -104.5t102 -270.5t-102 -270t-255 -104zM90 1085q0 -150 89 -241.5t224 -91.5q136 0 226 92.5t90 240.5q0 150 -90 242t-226 92q-135 0 -224 -92t-89 -242zM236 883v12q17 4 23.5 16.5t6.5 38.5v289
q0 26 -6.5 38.5t-23.5 16.5v13h38q35 0 78 4.5t66 3.5q137 0 137 -105q0 -41 -26.5 -68t-69.5 -36q51 -8 70 -34t24 -77q7 -62 14.5 -78t26.5 -16v-18q-52 0 -78.5 3.5t-42.5 18t-20.5 32.5t-8.5 58q-8 62 -15.5 83.5t-25.5 21.5q-14 0 -28 4v-154q0 -26 7 -38t24 -17v-12
h-170zM375 1124q16 -4 24 -4q41 0 41 90q0 84 -39 84q-6 0 -26 -4v-166z" />
    <glyph glyph-name="macron" unicode="&#xaf;" horiz-adv-x="690" 
d="M70 1354h551v-92h-551v92z" />
    <glyph glyph-name="degree" unicode="&#xb0;" horiz-adv-x="581" 
d="M291 893q-104 0 -169 79.5t-65 203.5t65 203t169 79q102 0 167.5 -79.5t65.5 -202.5t-65.5 -203t-167.5 -80zM98 1176q0 -107 53 -174.5t140 -67.5q85 0 138.5 68.5t53.5 173.5q0 106 -53 173.5t-139 67.5q-87 0 -140 -67t-53 -174z" />
    <glyph glyph-name="plusminus" unicode="&#xb1;" horiz-adv-x="626" 
d="M102 594h191v190h41v-190h190v-41h-190v-188h-41v188h-191v41zM102 236v40h422v-40h-422z" />
    <glyph glyph-name="uni00B2" unicode="&#xb2;" horiz-adv-x="540" 
d="M12 942q67 97 106.5 158.5t85.5 144t67.5 153t21.5 132.5q0 49 -16.5 74.5t-57.5 25.5q-48 0 -82.5 -55t-66.5 -207h-21l27 272q19 0 72.5 5.5t97.5 5.5q274 0 274 -195q0 -69 -31 -128t-91.5 -106.5t-123 -82.5t-153.5 -74h205q78 0 108.5 26.5t48.5 116.5h21l-27 -286
h-465v20z" />
    <glyph glyph-name="uni00B3" unicode="&#xb3;" horiz-adv-x="559" 
d="M41 1208q29 -165 61.5 -221.5t85.5 -56.5q57 0 87 61t30 164q0 79 -21 132.5t-63 53.5q-32 0 -82 -47l-14 17q72 83 105.5 139t33.5 115q0 65 -57 65q-50 0 -83.5 -55t-62.5 -207h-20l27 272q20 0 82.5 5.5t111.5 5.5q207 0 207 -127q0 -108 -139 -152q81 -7 145 -64.5
t64 -158.5q0 -126 -91.5 -183t-238.5 -57q-46 0 -95.5 5.5t-66.5 5.5l-27 288h21z" />
    <glyph glyph-name="acute" unicode="&#xb4;" horiz-adv-x="595" 
d="M535 1251l-463 -61l-11 27l215 143q128 81 193.5 49.5t65.5 -158.5z" />
    <glyph glyph-name="paragraph" unicode="&#xb6;" horiz-adv-x="1021" 
d="M436 729q-191 0 -294 99.5t-103 252.5t103 253t294 100h498v-1553h-41v1512h-311v-1512h-41v848h-105z" />
    <glyph glyph-name="periodcentered" unicode="&#xb7;" horiz-adv-x="382" 
d="M193 385q-69 0 -108.5 40.5t-39.5 102.5t39.5 102t108.5 40q68 0 106.5 -40t38.5 -102t-38.5 -102.5t-106.5 -40.5z" />
    <glyph glyph-name="cedilla" unicode="&#xb8;" horiz-adv-x="524" 
d="M182 -109q295 -9 295 -167q0 -77 -66.5 -114.5t-172.5 -37.5q-36 0 -81 7t-73 7l-37 230h43q26 -127 49.5 -169t57.5 -42q53 0 53 78q0 61 -32 115t-81 71v20l43 111h45z" />
    <glyph glyph-name="uni00B9" unicode="&#xb9;" horiz-adv-x="380" 
d="M25 1526q171 11 276 125h10v-635q0 -63 49 -74v-20h-303v20q47 11 47 74v411q0 42 -16 60t-63 18v21z" />
    <glyph glyph-name="ordmasculine" unicode="&#xba;" horiz-adv-x="763" 
d="M381 700q-162 0 -250 96.5t-88 278.5t88 278.5t250 96.5q164 0 252 -96.5t88 -278.5t-88 -278.5t-252 -96.5zM285 1075q0 -196 19.5 -271t76.5 -75q60 0 79 73.5t19 272.5q0 197 -19.5 271.5t-78.5 74.5q-57 0 -76.5 -75.5t-19.5 -270.5z" />
    <glyph glyph-name="guillemotright" unicode="&#xbb;" horiz-adv-x="718" 
d="M670 514q0 -61 -60 -113l-250 -208l-26 18l145 303l-145 303l26 19l250 -209q60 -52 60 -113zM35 211l145 303l-145 303l26 19l250 -209q60 -52 60 -113t-60 -113l-250 -208z" />
    <glyph glyph-name="onequarter" unicode="&#xbc;" horiz-adv-x="1040" 
d="M25 1321q171 11 276 125h10v-635q0 -63 49 -74v-20h-303v20q47 11 47 74v412q0 42 -16 59.5t-63 17.5v21zM125 0l618 1434h45l-618 -1434h-45zM471 158v20l264 559h10q54 -26 96.5 -33.5t106.5 -7.5v-393h80v-145h-80v-64q0 -63 49 -74v-20h-311v20q49 11 49 74v64h-264z
M553 303h182v385z" />
    <glyph glyph-name="onehalf" unicode="&#xbd;" horiz-adv-x="1050" 
d="M25 1321q171 11 276 125h10v-635q0 -63 49 -74v-20h-303v20q47 11 47 74v412q0 42 -16 59.5t-63 17.5v21zM125 0l618 1434h45l-618 -1434h-45zM522 0v20q67 97 106.5 158.5t85.5 144t67.5 153t21.5 132.5q0 101 -74 101q-48 0 -82.5 -55.5t-66.5 -207.5h-21l27 273
q19 0 72.5 5t97.5 5q274 0 274 -194q0 -69 -31 -128t-91.5 -107t-123.5 -83t-153 -74h205q78 0 108.5 26.5t48.5 117.5h21l-27 -287h-465z" />
    <glyph glyph-name="threequarters" unicode="&#xbe;" horiz-adv-x="1191" 
d="M41 1004q29 -165 61.5 -222t85.5 -57q57 0 87 61t30 164q0 79 -21 133t-63 54q-32 0 -82 -47l-14 16q72 83 105.5 139t33.5 115q0 65 -57 65q-50 0 -83.5 -55t-62.5 -207h-20l27 273q20 0 82.5 5t111.5 5q207 0 207 -127q0 -108 -139 -152q81 -7 145 -64.5t64 -158.5
q0 -65 -26 -113t-73 -74.5t-104 -39t-127 -12.5q-46 0 -95.5 5t-66.5 5l-27 289h21zM276 0l619 1434h45l-618 -1434h-46zM623 158v20l264 559h10q54 -26 96.5 -33.5t106.5 -7.5v-393h80v-145h-80v-64q0 -63 49 -74v-20h-311v20q49 11 49 74v64h-264zM705 303h182v385z" />
    <glyph glyph-name="questiondown" unicode="&#xbf;" horiz-adv-x="829" 
d="M569 594q0 -259 -12 -360.5t-53 -208.5q-3 -11 -17 -55t-17.5 -56t-12.5 -45.5t-12 -51.5t-6 -44.5t-3 -51.5q0 -59 17 -86.5t57 -27.5q47 0 81.5 37t72.5 154t75 327h41l-49 -533q-50 0 -140.5 -13t-187.5 -13q-165 0 -259.5 58t-94.5 179q0 39 11 74.5t25.5 62t42.5 54
t47.5 44t56 38.5t52.5 30.5t52 26.5q51 28 84 57t55 63t33 84t15.5 108t4.5 149h41zM401 905q0 63 39.5 104.5t108.5 41.5t108 -41t39 -105q0 -61 -39.5 -101t-107.5 -40t-108 40t-40 101z" />
    <glyph glyph-name="Agrave" unicode="&#xc0;" horiz-adv-x="1179" 
d="M188 184q-15 -74 1 -105.5t81 -41.5v-37h-250v37q49 11 80 44.5t47 102.5l252 1110l-14 66v20q148 0 218 14.5t138 63.5h21l272 -1274q14 -68 44.5 -102t78.5 -45v-37h-604v37q65 10 82 42t2 105l-43 203h-358zM244 428h342l-166 770zM340 1620q0 127 64.5 158.5
t193.5 -49.5l215 -144l-10 -26z" />
    <glyph glyph-name="Aacute" unicode="&#xc1;" horiz-adv-x="1179" 
d="M188 184q-15 -74 1 -105.5t81 -41.5v-37h-250v37q49 11 80 44.5t47 102.5l252 1110l-14 66v20q148 0 218 14.5t138 63.5h21l272 -1274q14 -68 44.5 -102t78.5 -45v-37h-604v37q65 10 82 42t2 105l-43 203h-358zM244 428h342l-166 770zM340 1585l215 144
q127 81 192.5 49.5t65.5 -158.5l-463 -61z" />
    <glyph glyph-name="Acircumflex" unicode="&#xc2;" horiz-adv-x="1179" 
d="M188 184q-15 -74 1 -105.5t81 -41.5v-37h-250v37q49 11 80 44.5t47 102.5l252 1110l-14 66v20q148 0 218 14.5t138 63.5h21l272 -1274q14 -68 44.5 -102t78.5 -45v-37h-604v37q65 10 82 42t2 105l-43 203h-358zM244 428h342l-166 770zM289 1571l200 205q42 45 84 45
t84 -45l205 -205l-26 -27l-263 105l-258 -105z" />
    <glyph glyph-name="Atilde" unicode="&#xc3;" horiz-adv-x="1179" 
d="M188 184q-15 -74 1 -105.5t81 -41.5v-37h-250v37q49 11 80 44.5t47 102.5l252 1110l-14 66v20q148 0 218 14.5t138 63.5h21l272 -1274q14 -68 44.5 -102t78.5 -45v-37h-604v37q65 10 82 42t2 105l-43 203h-358zM244 428h342l-166 770zM281 1602q77 231 194 231
q44 0 89.5 -23.5t85 -47t69.5 -23.5q35 0 58 19t57 65l36 -17q-27 -98 -74.5 -164.5t-115.5 -66.5q-43 0 -88 23.5t-85 47t-71 23.5q-34 0 -60.5 -20t-58.5 -64z" />
    <glyph glyph-name="Adieresis" unicode="&#xc4;" horiz-adv-x="1179" 
d="M188 184q-15 -74 1 -105.5t81 -41.5v-37h-250v37q49 11 80 44.5t47 102.5l252 1110l-14 66v20q148 0 218 14.5t138 63.5h21l272 -1274q14 -68 44.5 -102t78.5 -45v-37h-604v37q65 10 82 42t2 105l-43 203h-358zM227 1686q0 62 41 97.5t113 35.5q70 0 110.5 -35.5
t40.5 -97.5q0 -63 -40.5 -99.5t-110.5 -36.5q-72 0 -113 36.5t-41 99.5zM244 428h342l-166 770zM621 1686q0 62 40.5 97.5t112.5 35.5q71 0 112.5 -36t41.5 -97q0 -63 -41.5 -99.5t-112.5 -36.5q-72 0 -112.5 36.5t-40.5 99.5z" />
    <glyph glyph-name="Aring" unicode="&#xc5;" horiz-adv-x="1179" 
d="M188 184q-15 -74 1 -105.5t81 -41.5v-37h-250v37q49 11 80 44.5t47 102.5l252 1110l-14 66v20q148 0 218 14.5t138 63.5h21l272 -1274q14 -68 44.5 -102t78.5 -45v-37h-604v37q65 10 82 42t2 105l-43 203h-358zM244 428h342l-166 770zM395 1683q0 64 50.5 107t129.5 43
q78 0 129.5 -43.5t51.5 -106.5q0 -64 -51.5 -106.5t-129.5 -42.5q-79 0 -129.5 42t-50.5 107zM440 1683q0 -48 37.5 -80t97.5 -32q59 0 97.5 32t38.5 80t-38 79.5t-98 31.5q-61 0 -98 -31.5t-37 -79.5z" />
    <glyph glyph-name="AE" unicode="&#xc6;" horiz-adv-x="1546" 
d="M213 178q-27 -70 -13 -100.5t87 -40.5v-37h-279v37q59 11 99 43t63 98l422 1178q-19 30 -64 43v35h902l51 -533h-41q-17 115 -32 194t-32.5 135t-33.5 87t-40 48.5t-47 22.5t-59 5h-215v-609h164q30 0 46 4t30 17.5t16.5 39.5t5 70t-3.5 109h41l41 -541h-41
q-6 57 -11 90.5t-10.5 65.5t-13 47.5t-15.5 29t-22.5 18t-29.5 7t-39 2.5h-158v-702h240q51 0 80.5 13.5t60 65t54 155.5t48.5 282h41l-49 -557h-928v37q46 11 65 44.5t19 106.5v199h-323zM303 428h309v817q0 27 -2 37z" />
    <glyph glyph-name="Ccedilla" unicode="&#xc7;" horiz-adv-x="1128" 
d="M47 717q0 185 50 328t139.5 232.5t209 135t263.5 45.5q73 0 165.5 -13t131.5 -13l49 -531h-41q-18 129 -41 221.5t-47.5 149.5t-57 89.5t-64 44t-73.5 11.5q-133 0 -205.5 -167.5t-72.5 -485.5q0 -311 78 -478t221 -167q254 0 315 481l39 -8q-16 -147 -47 -256
t-71.5 -177.5t-97 -110t-117.5 -57.5t-140 -16h-29l-33 -84q295 -9 295 -167q0 -77 -66.5 -114.5t-172.5 -37.5q-36 0 -81 7t-73 7l-37 230h43q26 -127 49.5 -169t57.5 -42q53 0 53 78q0 61 -32 115t-81 71v20l35 91q-234 26 -374 214t-140 523z" />
    <glyph glyph-name="Egrave" unicode="&#xc8;" horiz-adv-x="1077" 
d="M961 1434l51 -533h-41q-17 115 -32 194t-32.5 135t-33.5 87t-40 48.5t-47 22.5t-59 5h-215v-609h164q30 0 46 4t30 17.5t16.5 39.5t5 70t-3.5 109h41l41 -541h-41q-6 57 -11 90.5t-10.5 65.5t-13 47.5t-15.5 29t-22.5 18t-29.5 7t-39 2.5h-158v-702h240q51 0 80.5 13.5
t60 65t54 155.5t48.5 282h41l-49 -557h-928v37q46 11 65 44.5t19 106.5v1057q0 73 -19 107.5t-65 46.5v35h902zM338 1620q0 127 64.5 158.5t193.5 -49.5l215 -144l-10 -26z" />
    <glyph glyph-name="Eacute" unicode="&#xc9;" horiz-adv-x="1077" 
d="M961 1434l51 -533h-41q-17 115 -32 194t-32.5 135t-33.5 87t-40 48.5t-47 22.5t-59 5h-215v-609h164q30 0 46 4t30 17.5t16.5 39.5t5 70t-3.5 109h41l41 -541h-41q-6 57 -11 90.5t-10.5 65.5t-13 47.5t-15.5 29t-22.5 18t-29.5 7t-39 2.5h-158v-702h240q51 0 80.5 13.5
t60 65t54 155.5t48.5 282h41l-49 -557h-928v37q46 11 65 44.5t19 106.5v1057q0 73 -19 107.5t-65 46.5v35h902zM338 1585l215 144q127 81 192.5 49.5t65.5 -158.5l-463 -61z" />
    <glyph glyph-name="Ecircumflex" unicode="&#xca;" horiz-adv-x="1077" 
d="M961 1434l51 -533h-41q-17 115 -32 194t-32.5 135t-33.5 87t-40 48.5t-47 22.5t-59 5h-215v-609h164q30 0 46 4t30 17.5t16.5 39.5t5 70t-3.5 109h41l41 -541h-41q-6 57 -11 90.5t-10.5 65.5t-13 47.5t-15.5 29t-22.5 18t-29.5 7t-39 2.5h-158v-702h240q51 0 80.5 13.5
t60 65t54 155.5t48.5 282h41l-49 -557h-928v37q46 11 65 44.5t19 106.5v1057q0 73 -19 107.5t-65 46.5v35h902zM287 1571l200 205q42 45 84 45t84 -45l205 -205l-26 -27l-263 105l-258 -105z" />
    <glyph glyph-name="Edieresis" unicode="&#xcb;" horiz-adv-x="1077" 
d="M961 1434l51 -533h-41q-17 115 -32 194t-32.5 135t-33.5 87t-40 48.5t-47 22.5t-59 5h-215v-609h164q30 0 46 4t30 17.5t16.5 39.5t5 70t-3.5 109h41l41 -541h-41q-6 57 -11 90.5t-10.5 65.5t-13 47.5t-15.5 29t-22.5 18t-29.5 7t-39 2.5h-158v-702h240q51 0 80.5 13.5
t60 65t54 155.5t48.5 282h41l-49 -557h-928v37q46 11 65 44.5t19 106.5v1057q0 73 -19 107.5t-65 46.5v35h902zM225 1686q0 62 41 97.5t113 35.5q70 0 110.5 -35.5t40.5 -97.5q0 -63 -40.5 -99.5t-110.5 -36.5q-72 0 -113 36.5t-41 99.5zM618 1686q0 62 41 97.5t113 35.5
q71 0 112.5 -36t41.5 -97q0 -63 -41.5 -99.5t-112.5 -36.5q-72 0 -113 36.5t-41 99.5z" />
    <glyph glyph-name="Igrave" unicode="&#xcc;" horiz-adv-x="655" 
d="M143 1245q0 73 -19 107.5t-65 46.5v35h537v-35q-46 -12 -65 -46.5t-19 -107.5v-1057q0 -73 19 -106.5t65 -44.5v-37h-537v37q46 11 65 44.5t19 106.5v1057zM92 1645q0 127 64.5 158t193.5 -50l215 -143l-10 -27z" />
    <glyph glyph-name="Iacute" unicode="&#xcd;" horiz-adv-x="655" 
d="M143 1245q0 73 -19 107.5t-65 46.5v35h537v-35q-46 -12 -65 -46.5t-19 -107.5v-1057q0 -73 19 -106.5t65 -44.5v-37h-537v37q46 11 65 44.5t19 106.5v1057zM90 1610l215 143q127 81 192.5 50t65.5 -158l-463 -62z" />
    <glyph glyph-name="Icircumflex" unicode="&#xce;" horiz-adv-x="655" 
d="M143 1245q0 73 -19 107.5t-65 46.5v35h537v-35q-46 -12 -65 -46.5t-19 -107.5v-1057q0 -73 19 -106.5t65 -44.5v-37h-537v37q46 11 65 44.5t19 106.5v1057zM41 1595l201 205q42 45 84 45t84 -45l204 -205l-26 -26l-262 104l-258 -104z" />
    <glyph glyph-name="Idieresis" unicode="&#xcf;" horiz-adv-x="655" 
d="M143 1245q0 73 -19 107.5t-65 46.5v35h537v-35q-46 -12 -65 -46.5t-19 -107.5v-1057q0 -73 19 -106.5t65 -44.5v-37h-537v37q46 11 65 44.5t19 106.5v1057zM-23 1710q0 62 41 97.5t113 35.5q70 0 111 -35.5t41 -97.5q0 -63 -40.5 -99t-111.5 -36q-72 0 -113 36t-41 99z
M371 1710q0 62 40.5 97.5t112.5 35.5q71 0 112.5 -36t41.5 -97q0 -63 -41.5 -99t-112.5 -36q-72 0 -112.5 36t-40.5 99z" />
    <glyph glyph-name="Eth" unicode="&#xd0;" horiz-adv-x="1413" 
d="M172 0h-113v37q46 11 65 44.5t19 106.5v508h-84v41h84v508q0 73 -19 107.5t-65 46.5v35h113q68 1 224.5 10.5t215.5 9.5q73 0 137 -9t129 -31.5t117.5 -58.5t98.5 -94t77.5 -133.5t49.5 -180.5t18 -232t-18 -232t-49.5 -180t-78 -132.5t-98.5 -93t-117 -58t-128.5 -31
t-137.5 -8.5q-59 0 -215.5 9.5t-224.5 10.5zM512 31q54 -11 94 -11q45 0 79 19t63 67t47.5 126.5t28.5 199t10 283.5q0 203 -15 341t-46 215.5t-71 109.5t-96 32q-48 0 -94 -10v-666h188v-41h-188v-665z" />
    <glyph glyph-name="Ntilde" unicode="&#xd1;" horiz-adv-x="1093" 
d="M946 1245q0 73 -19 107.5t-65 46.5v35h209v-35q-45 -12 -64.5 -47t-19.5 -107v-1245h-272l-531 1260l-10 22v-1094q0 -72 19.5 -106t64.5 -45v-37h-209v37q46 11 65 44.5t19 106.5v1153q-37 40 -86 58v35h500l399 -965v776zM252 1642q77 232 194 232q44 0 89.5 -23.5
t85 -47t69.5 -23.5q35 0 58 19t57 65l37 -17q-17 -62 -40.5 -110.5t-63.5 -84.5t-87 -36q-43 0 -88 23.5t-84.5 47t-70.5 23.5q-34 0 -60.5 -20t-58.5 -64z" />
    <glyph glyph-name="Ograve" unicode="&#xd2;" horiz-adv-x="1277" 
d="M639 -25q-96 0 -181 25.5t-160 83t-129 142t-85 210.5t-31 281t31 280.5t85 210.5t129 142t160 82.5t181 25.5t180.5 -25t160 -82t129 -141.5t85 -210.5t31.5 -282t-31 -282t-85 -211t-129 -141.5t-160 -82t-181 -25.5zM403 1620q0 127 65 158.5t194 -49.5l215 -144
l-11 -26zM459 717q0 -288 17 -437.5t54.5 -206.5t108.5 -57q72 0 109.5 57t55 206t17.5 438q0 218 -8.5 351t-31 212.5t-55.5 108t-87 28.5q-71 0 -108.5 -56.5t-54.5 -206t-17 -437.5z" />
    <glyph glyph-name="Oacute" unicode="&#xd3;" horiz-adv-x="1277" 
d="M639 -25q-96 0 -181 25.5t-160 83t-129 142t-85 210.5t-31 281t31 280.5t85 210.5t129 142t160 82.5t181 25.5t180.5 -25t160 -82t129 -141.5t85 -210.5t31.5 -282t-31 -282t-85 -211t-129 -141.5t-160 -82t-181 -25.5zM401 1585l215 144q128 81 193 49.5t65 -158.5
l-462 -61zM459 717q0 -288 17 -437.5t54.5 -206.5t108.5 -57q72 0 109.5 57t55 206t17.5 438q0 218 -8.5 351t-31 212.5t-55.5 108t-87 28.5q-71 0 -108.5 -56.5t-54.5 -206t-17 -437.5z" />
    <glyph glyph-name="Ocircumflex" unicode="&#xd4;" horiz-adv-x="1277" 
d="M639 -25q-96 0 -181 25.5t-160 83t-129 142t-85 210.5t-31 281t31 280.5t85 210.5t129 142t160 82.5t181 25.5t180.5 -25t160 -82t129 -141.5t85 -210.5t31.5 -282t-31 -282t-85 -211t-129 -141.5t-160 -82t-181 -25.5zM352 1571l201 205q42 45 84 45t84 -45l205 -205
l-27 -27l-262 105l-258 -105zM459 717q0 -288 17 -437.5t54.5 -206.5t108.5 -57q72 0 109.5 57t55 206t17.5 438q0 218 -8.5 351t-31 212.5t-55.5 108t-87 28.5q-71 0 -108.5 -56.5t-54.5 -206t-17 -437.5z" />
    <glyph glyph-name="Otilde" unicode="&#xd5;" horiz-adv-x="1277" 
d="M639 -25q-96 0 -181 25.5t-160 83t-129 142t-85 210.5t-31 281t31 280.5t85 210.5t129 142t160 82.5t181 25.5t180.5 -25t160 -82t129 -141.5t85 -210.5t31.5 -282t-31 -282t-85 -211t-129 -141.5t-160 -82t-181 -25.5zM344 1602q77 231 195 231q44 0 89 -23.5t84.5 -47
t69.5 -23.5q35 0 58 19t57 65l37 -17q-17 -62 -40.5 -110.5t-63.5 -84.5t-87 -36q-43 0 -88 23.5t-84.5 47t-70.5 23.5q-34 0 -60.5 -20t-58.5 -64zM459 717q0 -288 17 -437.5t54.5 -206.5t108.5 -57q72 0 109.5 57t55 206t17.5 438q0 218 -8.5 351t-31 212.5t-55.5 108
t-87 28.5q-71 0 -108.5 -56.5t-54.5 -206t-17 -437.5z" />
    <glyph glyph-name="Odieresis" unicode="&#xd6;" horiz-adv-x="1277" 
d="M639 -25q-96 0 -181 25.5t-160 83t-129 142t-85 210.5t-31 281t31 280.5t85 210.5t129 142t160 82.5t181 25.5t180.5 -25t160 -82t129 -141.5t85 -210.5t31.5 -282t-31 -282t-85 -211t-129 -141.5t-160 -82t-181 -25.5zM289 1686q0 62 40.5 97.5t112.5 35.5
q70 0 111 -35.5t41 -97.5q0 -63 -41 -99.5t-111 -36.5q-72 0 -112.5 36.5t-40.5 99.5zM459 717q0 -288 17 -437.5t54.5 -206.5t108.5 -57q72 0 109.5 57t55 206t17.5 438q0 218 -8.5 351t-31 212.5t-55.5 108t-87 28.5q-71 0 -108.5 -56.5t-54.5 -206t-17 -437.5zM682 1686
q0 62 41 97.5t113 35.5q71 0 112 -36t41 -97q0 -63 -41 -99.5t-112 -36.5q-72 0 -113 36.5t-41 99.5z" />
    <glyph glyph-name="multiply" unicode="&#xd7;" horiz-adv-x="526" 
d="M152 303h-50l138 211l-136 209h50l110 -172l111 172h49l-135 -209l135 -211h-49l-111 172z" />
    <glyph glyph-name="Oslash" unicode="&#xd8;" horiz-adv-x="1277" 
d="M639 -25q-45 0 -113 11l-34 -191h-41l36 199q-95 23 -172 76.5t-136.5 140t-92.5 215.5t-33 291q0 155 31 280.5t85 210.5t129 142t160 82.5t181 25.5q51 0 113 -10l34 190h43l-36 -198q75 -19 139 -56t118.5 -97.5t93 -140.5t60 -189.5t21.5 -239.5q0 -156 -31 -282
t-85 -211t-129 -141.5t-160 -82t-181 -25.5zM459 717q0 -468 51 -600l229 1259q-36 41 -100 41q-71 0 -108.5 -56.5t-54.5 -206t-17 -437.5zM541 59q35 -43 98 -43q72 0 109.5 57t55 206t17.5 438q0 468 -51 600z" />
    <glyph glyph-name="Ugrave" unicode="&#xd9;" horiz-adv-x="1161" 
d="M117 1245q0 73 -19 107.5t-65 46.5v35h534v-35q-45 -12 -64.5 -47t-19.5 -107v-762q0 -374 265 -374q121 0 188.5 90t67.5 282v764q0 73 -18.5 107.5t-63.5 46.5v35h206v-35q-45 -12 -64.5 -47t-19.5 -107v-782q0 -247 -110 -367.5t-332 -120.5q-224 0 -354.5 132
t-130.5 397v741zM379 1620q0 127 64.5 158.5t193.5 -49.5l215 -144l-10 -26z" />
    <glyph glyph-name="Uacute" unicode="&#xda;" horiz-adv-x="1161" 
d="M117 1245q0 73 -19 107.5t-65 46.5v35h534v-35q-45 -12 -64.5 -47t-19.5 -107v-762q0 -374 265 -374q121 0 188.5 90t67.5 282v764q0 73 -18.5 107.5t-63.5 46.5v35h206v-35q-45 -12 -64.5 -47t-19.5 -107v-782q0 -247 -110 -367.5t-332 -120.5q-224 0 -354.5 132
t-130.5 397v741zM377 1585l215 144q128 81 193 49.5t65 -158.5l-463 -61z" />
    <glyph glyph-name="Ucircumflex" unicode="&#xdb;" horiz-adv-x="1161" 
d="M117 1245q0 73 -19 107.5t-65 46.5v35h534v-35q-45 -12 -64.5 -47t-19.5 -107v-762q0 -374 265 -374q121 0 188.5 90t67.5 282v764q0 73 -18.5 107.5t-63.5 46.5v35h206v-35q-45 -12 -64.5 -47t-19.5 -107v-782q0 -247 -110 -367.5t-332 -120.5q-224 0 -354.5 132
t-130.5 397v741zM328 1571l200 205q42 45 84 45t84 -45l205 -205l-27 -27l-262 105l-258 -105z" />
    <glyph glyph-name="Udieresis" unicode="&#xdc;" horiz-adv-x="1161" 
d="M117 1245q0 73 -19 107.5t-65 46.5v35h534v-35q-45 -12 -64.5 -47t-19.5 -107v-762q0 -374 265 -374q121 0 188.5 90t67.5 282v764q0 73 -18.5 107.5t-63.5 46.5v35h206v-35q-45 -12 -64.5 -47t-19.5 -107v-782q0 -247 -110 -367.5t-332 -120.5q-224 0 -354.5 132
t-130.5 397v741zM264 1686q0 62 41 97.5t113 35.5q70 0 110.5 -35.5t40.5 -97.5q0 -63 -40.5 -99.5t-110.5 -36.5q-72 0 -113 36.5t-41 99.5zM657 1686q0 62 41 97.5t113 35.5q71 0 112.5 -36t41.5 -97q0 -63 -41.5 -99.5t-112.5 -36.5q-72 0 -113 36.5t-41 99.5z" />
    <glyph glyph-name="Yacute" unicode="&#xdd;" horiz-adv-x="1214" 
d="M1001 1257q27 69 16.5 99.5t-73.5 42.5v35h250v-35q-50 -14 -87 -46t-60 -96l-224 -614v-455q0 -73 19 -106.5t65 -44.5v-37h-536v37q46 11 65 44.5t19 106.5v377l-279 695q-45 110 -156 139v35h644v-35q-64 -12 -74 -42.5t18 -99.5l197 -534zM420 1585l215 144
q127 81 192.5 49.5t65.5 -158.5l-463 -61z" />
    <glyph glyph-name="Thorn" unicode="&#xde;" horiz-adv-x="1177" 
d="M512 334q52 -25 84 -25q53 0 87 33.5t54.5 125.5t20.5 249q0 158 -20.5 250t-54.5 124.5t-87 32.5q-34 0 -84 -24v-766zM59 0v37q46 11 65 44.5t19 106.5v1057q0 73 -19 107.5t-65 46.5v35h537v-35q-46 -12 -65 -46.5t-19 -107.5v-98q105 18 184 18q96 0 175 -23.5
t143 -74.5t99.5 -140t35.5 -210q0 -97 -23.5 -174t-64.5 -128t-99 -84.5t-123 -48t-141 -14.5q-75 0 -186 19v-99q0 -73 19 -106.5t65 -44.5v-37h-537z" />
    <glyph glyph-name="germandbls" unicode="&#xdf;" horiz-adv-x="1269" 
d="M29 0v37q45 11 64.5 45t19.5 106v695q0 104 -84 104v37h86q8 120 48.5 205.5t110 135t156 71.5t197.5 22q210 0 305.5 -97t95.5 -284q-336 -24 -336 -192q0 -48 29.5 -88t76.5 -70.5t103.5 -61t113.5 -67.5t104 -81t76.5 -110t29.5 -147q0 -285 -351 -285
q-84 0 -157.5 13.5t-102.5 13.5l-43 440h41q33 -175 58.5 -262.5t51 -119t64.5 -31.5q70 0 70 135q0 85 -25 166.5t-61 145t-72 122.5t-61 123.5t-25 124.5q0 54 17 96t48 71t61.5 47t70.5 34q0 171 -38 249t-130 78q-100 0 -137 -86.5t-37 -259.5v-1075h-438z" />
    <glyph glyph-name="agrave" unicode="&#xe0;" horiz-adv-x="1185" 
d="M805 -25q-62 0 -89.5 29t-27.5 96v62q-75 -187 -280 -187q-72 0 -133.5 24t-111 72.5t-78 130.5t-28.5 189t28.5 189t78 130.5t111 72.5t133.5 24q206 0 280 -184v73q0 171 -49.5 241.5t-157.5 70.5q-200 0 -319 -205h-43l88 213q38 0 156 16.5t190 16.5q76 0 144 -11
t133.5 -38.5t112.5 -69.5t75.5 -108.5t28.5 -151.5v-447q0 -75 19 -98.5t83 -11.5l12 -33l-153 -60q-125 -45 -203 -45zM352 1251q0 127 64.5 158.5t193.5 -49.5l215 -143l-10 -27zM406 391q0 -280 143 -280q139 0 139 280q0 281 -139 281q-143 0 -143 -281z" />
    <glyph glyph-name="aacute" unicode="&#xe1;" horiz-adv-x="1185" 
d="M805 -25q-62 0 -89.5 29t-27.5 96v62q-75 -187 -280 -187q-72 0 -133.5 24t-111 72.5t-78 130.5t-28.5 189t28.5 189t78 130.5t111 72.5t133.5 24q206 0 280 -184v73q0 171 -49.5 241.5t-157.5 70.5q-200 0 -319 -205h-43l88 213q38 0 156 16.5t190 16.5q76 0 144 -11
t133.5 -38.5t112.5 -69.5t75.5 -108.5t28.5 -151.5v-447q0 -75 19 -98.5t83 -11.5l12 -33l-153 -60q-125 -45 -203 -45zM352 1217l215 143q127 81 192.5 49.5t65.5 -158.5l-463 -61zM406 391q0 -280 143 -280q139 0 139 280q0 281 -139 281q-143 0 -143 -281z" />
    <glyph glyph-name="acircumflex" unicode="&#xe2;" horiz-adv-x="1185" 
d="M805 -25q-62 0 -89.5 29t-27.5 96v62q-75 -187 -280 -187q-72 0 -133.5 24t-111 72.5t-78 130.5t-28.5 189t28.5 189t78 130.5t111 72.5t133.5 24q206 0 280 -184v73q0 171 -49.5 241.5t-157.5 70.5q-200 0 -319 -205h-43l88 213q38 0 156 16.5t190 16.5q76 0 144 -11
t133.5 -38.5t112.5 -69.5t75.5 -108.5t28.5 -151.5v-447q0 -75 19 -98.5t83 -11.5l12 -33l-153 -60q-125 -45 -203 -45zM301 1202l201 205q42 45 84 45t84 -45l204 -205l-26 -26l-262 104l-258 -104zM406 391q0 -280 143 -280q139 0 139 280q0 281 -139 281
q-143 0 -143 -281z" />
    <glyph glyph-name="atilde" unicode="&#xe3;" horiz-adv-x="1185" 
d="M805 -25q-62 0 -89.5 29t-27.5 96v62q-75 -187 -280 -187q-72 0 -133.5 24t-111 72.5t-78 130.5t-28.5 189t28.5 189t78 130.5t111 72.5t133.5 24q206 0 280 -184v73q0 171 -49.5 241.5t-157.5 70.5q-200 0 -319 -205h-43l88 213q38 0 156 16.5t190 16.5q76 0 144 -11
t133.5 -38.5t112.5 -69.5t75.5 -108.5t28.5 -151.5v-447q0 -75 19 -98.5t83 -11.5l12 -33l-153 -60q-125 -45 -203 -45zM293 1233q77 231 194 231q44 0 89.5 -23.5t85 -47t69.5 -23.5q35 0 58 19t57 65l37 -16q-27 -98 -75 -165t-116 -67q-43 0 -88 23.5t-84.5 47
t-70.5 23.5q-35 0 -61 -20t-58 -63zM406 391q0 -280 143 -280q139 0 139 280q0 281 -139 281q-143 0 -143 -281z" />
    <glyph glyph-name="adieresis" unicode="&#xe4;" horiz-adv-x="1185" 
d="M805 -25q-62 0 -89.5 29t-27.5 96v62q-75 -187 -280 -187q-72 0 -133.5 24t-111 72.5t-78 130.5t-28.5 189t28.5 189t78 130.5t111 72.5t133.5 24q206 0 280 -184v73q0 171 -49.5 241.5t-157.5 70.5q-200 0 -319 -205h-43l88 213q38 0 156 16.5t190 16.5q76 0 144 -11
t133.5 -38.5t112.5 -69.5t75.5 -108.5t28.5 -151.5v-447q0 -75 19 -98.5t83 -11.5l12 -33l-153 -60q-125 -45 -203 -45zM240 1317q0 62 40.5 97.5t112.5 35.5q70 0 111 -35.5t41 -97.5q0 -63 -40.5 -99t-111.5 -36q-72 0 -112.5 36t-40.5 99zM406 391q0 -280 143 -280
q139 0 139 280q0 281 -139 281q-143 0 -143 -281zM633 1317q0 62 40.5 97.5t112.5 35.5q71 0 112.5 -36t41.5 -97q0 -63 -41.5 -99t-112.5 -36q-72 0 -112.5 36t-40.5 99z" />
    <glyph glyph-name="aring" unicode="&#xe5;" horiz-adv-x="1185" 
d="M805 -25q-62 0 -89.5 29t-27.5 96v62q-75 -187 -280 -187q-72 0 -133.5 24t-111 72.5t-78 130.5t-28.5 189t28.5 189t78 130.5t111 72.5t133.5 24q206 0 280 -184v73q0 171 -49.5 241.5t-157.5 70.5q-200 0 -319 -205h-43l88 213q38 0 156 16.5t190 16.5q76 0 144 -11
t133.5 -38.5t112.5 -69.5t75.5 -108.5t28.5 -151.5v-447q0 -75 19 -98.5t83 -11.5l12 -33l-153 -60q-125 -45 -203 -45zM406 391q0 -280 143 -280q139 0 139 280q0 281 -139 281q-143 0 -143 -281zM408 1315q0 64 50.5 106.5t129.5 42.5q78 0 129 -43t51 -106
q0 -65 -51 -107.5t-129 -42.5q-79 0 -129.5 42.5t-50.5 107.5zM453 1315q0 -48 37.5 -80.5t97.5 -32.5q59 0 97 32.5t38 80.5t-37.5 79t-97.5 31q-61 0 -98 -31t-37 -79z" />
    <glyph glyph-name="ae" unicode="&#xe6;" horiz-adv-x="1638" 
d="M412 -25q-75 0 -137.5 22.5t-112 69.5t-77.5 128t-28 190q0 213 103 317.5t264 104.5q187 0 250 -156v37q0 172 -49 246t-156 74q-196 0 -319 -205h-44l93 213q39 0 155 16.5t195 16.5q204 0 313 -88q120 88 295 88q197 0 309.5 -107t112.5 -309h-535q3 -251 70 -383.5
t193 -132.5q177 0 258 274l39 -8q-51 -217 -166 -312.5t-293 -95.5q-132 0 -232 52.5t-161 150.5q-107 -203 -340 -203zM406 393q0 -141 32 -209.5t109 -68.5q112 0 176 114q-53 121 -53 283v39q-7 60 -39.5 91.5t-81.5 31.5q-80 0 -111.5 -68t-31.5 -213zM1044 674h222
q0 185 -22.5 259.5t-80.5 74.5q-64 0 -90.5 -82t-28.5 -252z" />
    <glyph glyph-name="ccedilla" unicode="&#xe7;" horiz-adv-x="997" 
d="M57 504q0 251 144.5 398t394.5 147q63 0 143 -13.5t117 -13.5l49 -365h-41q-20 109 -46.5 182t-56 108t-56.5 48t-60 13q-105 0 -157 -107.5t-52 -292.5q0 -141 27.5 -251t84.5 -175t136 -65q165 0 236 274l41 -8q-49 -217 -159 -312.5t-278 -95.5h-14l-33 -84
q295 -9 295 -167q0 -77 -67 -114.5t-173 -37.5q-36 0 -80.5 7t-72.5 7l-37 230h43q26 -127 49.5 -169t57.5 -42q53 0 53 78q0 61 -32 115t-81 71v20l35 88q-190 20 -300 160t-110 367z" />
    <glyph glyph-name="egrave" unicode="&#xe8;" horiz-adv-x="1024" 
d="M57 512q0 249 130.5 393t357.5 144q197 0 309.5 -107t112.5 -309h-535q3 -251 69.5 -383.5t192.5 -132.5q177 0 258 274l39 -8q-51 -217 -166 -312.5t-293 -95.5q-224 0 -349.5 143t-125.5 394zM313 1251q0 127 64.5 158.5t193.5 -49.5l215 -143l-10 -27zM432 674h221
q0 185 -22 259.5t-80 74.5q-64 0 -90.5 -82t-28.5 -252z" />
    <glyph glyph-name="eacute" unicode="&#xe9;" horiz-adv-x="1024" 
d="M57 512q0 249 130.5 393t357.5 144q197 0 309.5 -107t112.5 -309h-535q3 -251 69.5 -383.5t192.5 -132.5q177 0 258 274l39 -8q-51 -217 -166 -312.5t-293 -95.5q-224 0 -349.5 143t-125.5 394zM311 1217l215 143q128 81 193 49.5t65 -158.5l-462 -61zM432 674h221
q0 185 -22 259.5t-80 74.5q-64 0 -90.5 -82t-28.5 -252z" />
    <glyph glyph-name="ecircumflex" unicode="&#xea;" horiz-adv-x="1024" 
d="M57 512q0 249 130.5 393t357.5 144q197 0 309.5 -107t112.5 -309h-535q3 -251 69.5 -383.5t192.5 -132.5q177 0 258 274l39 -8q-51 -217 -166 -312.5t-293 -95.5q-224 0 -349.5 143t-125.5 394zM262 1202l201 205q42 45 84 45t84 -45l205 -205l-27 -26l-262 104
l-258 -104zM432 674h221q0 185 -22 259.5t-80 74.5q-64 0 -90.5 -82t-28.5 -252z" />
    <glyph glyph-name="edieresis" unicode="&#xeb;" horiz-adv-x="1024" 
d="M57 512q0 249 130.5 393t357.5 144q197 0 309.5 -107t112.5 -309h-535q3 -251 69.5 -383.5t192.5 -132.5q177 0 258 274l39 -8q-51 -217 -166 -312.5t-293 -95.5q-224 0 -349.5 143t-125.5 394zM199 1317q0 62 40.5 97.5t112.5 35.5q70 0 111 -35.5t41 -97.5
q0 -63 -40.5 -99t-111.5 -36q-72 0 -112.5 36t-40.5 99zM432 674h221q0 185 -22 259.5t-80 74.5q-64 0 -90.5 -82t-28.5 -252zM592 1317q0 62 40.5 97.5t112.5 35.5q71 0 112.5 -36t41.5 -97q0 -63 -41.5 -99t-112.5 -36q-72 0 -112.5 36t-40.5 99z" />
    <glyph glyph-name="igrave" unicode="&#xec;" horiz-adv-x="606" 
d="M125 786q0 72 -19.5 106t-66.5 46v37h115q129 0 197 13.5t110 60.5h20v-861q0 -73 19.5 -106.5t66.5 -44.5v-37h-528v37q46 11 66 44.5t20 106.5v598zM57 1251q0 127 64.5 158.5t193.5 -49.5l215 -143l-10 -27z" />
    <glyph glyph-name="iacute" unicode="&#xed;" horiz-adv-x="606" 
d="M125 786q0 72 -19.5 106t-66.5 46v37h115q129 0 197 13.5t110 60.5h20v-861q0 -73 19.5 -106.5t66.5 -44.5v-37h-528v37q46 11 66 44.5t20 106.5v598zM57 1217l215 143q128 81 193 49.5t65 -158.5l-462 -61z" />
    <glyph glyph-name="icircumflex" unicode="&#xee;" horiz-adv-x="606" 
d="M125 786q0 72 -19.5 106t-66.5 46v37h115q129 0 197 13.5t110 60.5h20v-861q0 -73 19.5 -106.5t66.5 -44.5v-37h-528v37q46 11 66 44.5t20 106.5v598zM6 1202l201 205q42 45 84 45t84 -45l205 -205l-27 -26l-262 104l-258 -104z" />
    <glyph glyph-name="idieresis" unicode="&#xef;" horiz-adv-x="606" 
d="M125 786q0 72 -19.5 106t-66.5 46v37h115q129 0 197 13.5t110 60.5h20v-861q0 -73 19.5 -106.5t66.5 -44.5v-37h-528v37q46 11 66 44.5t20 106.5v598zM-55 1317q0 62 40.5 97.5t112.5 35.5q70 0 111 -35.5t41 -97.5q0 -63 -40.5 -99t-111.5 -36q-72 0 -112.5 36t-40.5 99
zM338 1317q0 62 41 97.5t113 35.5q71 0 112 -36t41 -97q0 -63 -41 -99t-112 -36q-72 0 -113 36t-41 99z" />
    <glyph glyph-name="eth" unicode="&#xf0;" horiz-adv-x="1167" 
d="M1096 606q0 -151 -35 -267t-88 -183t-127.5 -109.5t-143 -57t-143.5 -14.5q-108 0 -200 33t-163 99t-111 173.5t-40 247.5q0 94 19 174t51.5 135.5t74 97.5t89 66t93.5 36t91 12q143 0 219 -76q-44 193 -147 334l-154 -127l-27 30l156 129q-86 103 -199 181l13 36
q167 -70 280 -139l158 131l26 -30l-147 -121q110 -70 192 -147.5t142 -174t90.5 -214t30.5 -255.5zM416 483q0 -245 36 -356t109 -111q78 0 117 128t39 425q0 193 -21 336q-56 72 -123 72q-78 0 -117.5 -117.5t-39.5 -376.5z" />
    <glyph glyph-name="ntilde" unicode="&#xf1;" horiz-adv-x="1234" 
d="M113 786q0 72 -19.5 106t-66.5 46v37h114q129 0 197.5 13.5t110.5 60.5h20v-175q144 175 346 175q135 0 214 -75t79 -243v-543q0 -73 20 -106.5t66 -44.5v-37h-526v37q46 11 66 44.5t20 106.5v580q0 152 -99 152q-79 0 -186 -107v-625q0 -73 19.5 -106.5t66.5 -44.5v-37
h-528v37q46 11 66 44.5t20 106.5v598zM315 1233q77 231 195 231q44 0 89.5 -23.5t85 -47t69.5 -23.5q35 0 57.5 18.5t56.5 65.5l37 -16q-28 -99 -75 -165.5t-115 -66.5q-43 0 -88 23.5t-85 47t-71 23.5q-35 0 -61 -20t-58 -63z" />
    <glyph glyph-name="ograve" unicode="&#xf2;" horiz-adv-x="1120" 
d="M559 -25q-246 0 -380 141t-134 396t134 396t380 141q247 0 381.5 -140.5t134.5 -396.5t-134.5 -396.5t-381.5 -140.5zM324 1251q0 127 64.5 158.5t193.5 -49.5l215 -143l-11 -27zM424 512q0 -285 26 -390.5t109 -105.5q84 0 110.5 105.5t26.5 390.5t-26.5 390.5
t-110.5 105.5q-82 0 -108.5 -107t-26.5 -389z" />
    <glyph glyph-name="oacute" unicode="&#xf3;" horiz-adv-x="1120" 
d="M559 -25q-246 0 -380 141t-134 396t134 396t380 141q247 0 381.5 -140.5t134.5 -396.5t-134.5 -396.5t-381.5 -140.5zM324 1217l215 143q127 81 192.5 49.5t65.5 -158.5l-463 -61zM424 512q0 -285 26 -390.5t109 -105.5q84 0 110.5 105.5t26.5 390.5t-26.5 390.5
t-110.5 105.5q-82 0 -108.5 -107t-26.5 -389z" />
    <glyph glyph-name="ocircumflex" unicode="&#xf4;" horiz-adv-x="1120" 
d="M559 -25q-246 0 -380 141t-134 396t134 396t380 141q247 0 381.5 -140.5t134.5 -396.5t-134.5 -396.5t-381.5 -140.5zM272 1202l201 205q42 45 84 45t84 -45l205 -205l-27 -26l-262 104l-258 -104zM424 512q0 -285 26 -390.5t109 -105.5q84 0 110.5 105.5t26.5 390.5
t-26.5 390.5t-110.5 105.5q-82 0 -108.5 -107t-26.5 -389z" />
    <glyph glyph-name="otilde" unicode="&#xf5;" horiz-adv-x="1120" 
d="M559 -25q-246 0 -380 141t-134 396t134 396t380 141q247 0 381.5 -140.5t134.5 -396.5t-134.5 -396.5t-381.5 -140.5zM264 1233q77 231 195 231q44 0 89 -23.5t84.5 -47t69.5 -23.5q35 0 58 19t57 65l37 -16q-28 -99 -75 -165.5t-115 -66.5q-43 0 -88 23.5t-85 47
t-71 23.5q-35 0 -61 -20t-58 -63zM424 512q0 -285 26 -390.5t109 -105.5q84 0 110.5 105.5t26.5 390.5t-26.5 390.5t-110.5 105.5q-82 0 -108.5 -107t-26.5 -389z" />
    <glyph glyph-name="odieresis" unicode="&#xf6;" horiz-adv-x="1120" 
d="M559 -25q-246 0 -380 141t-134 396t134 396t380 141q247 0 381.5 -140.5t134.5 -396.5t-134.5 -396.5t-381.5 -140.5zM211 1317q0 62 41 97.5t113 35.5q70 0 110.5 -35.5t40.5 -97.5q0 -63 -40.5 -99t-110.5 -36q-72 0 -113 36t-41 99zM424 512q0 -285 26 -390.5
t109 -105.5q84 0 110.5 105.5t26.5 390.5t-26.5 390.5t-110.5 105.5q-82 0 -108.5 -107t-26.5 -389zM604 1317q0 62 41 97.5t113 35.5q71 0 112 -36t41 -97q0 -63 -41 -99t-112 -36q-72 0 -113 36t-41 99z" />
    <glyph glyph-name="divide" unicode="&#xf7;" horiz-adv-x="684" 
d="M344 651q-26 0 -43.5 20.5t-17.5 47.5q0 28 17.5 47.5t43.5 19.5q24 0 41.5 -20t17.5 -47q0 -26 -18 -47t-41 -21zM102 492v40h498v-40h-498zM283 305q0 27 17.5 47.5t43.5 20.5q23 0 41 -21t18 -47q0 -27 -17.5 -47t-41.5 -20q-26 0 -43.5 19.5t-17.5 47.5z" />
    <glyph glyph-name="oslash" unicode="&#xf8;" horiz-adv-x="1120" 
d="M559 -25q-53 0 -125 11l-53 -191h-43l55 199q-168 43 -258 176t-90 342q0 255 134 396t380 141q54 0 129 -11l53 191h43l-57 -201q169 -43 258.5 -176t89.5 -340q0 -256 -134.5 -396.5t-381.5 -140.5zM424 512q0 -247 18 -350l217 774q-29 72 -100 72q-82 0 -108.5 -107
t-26.5 -389zM463 86q29 -70 96 -70q84 0 110.5 105.5t26.5 390.5q0 240 -16 344z" />
    <glyph glyph-name="ugrave" unicode="&#xf9;" horiz-adv-x="1247" 
d="M461 1051h20v-795q0 -152 99 -152q81 0 188 107v575q0 73 -20 107.5t-66 46.5v35h115q127 0 195 14t110 62h20v-811q0 -73 20 -107t66 -45v-37h-114q-127 0 -195.5 -14t-110.5 -62h-20v177q-144 -179 -348 -179q-136 0 -215.5 75.5t-79.5 244.5v493q0 73 -19.5 107.5
t-66.5 46.5v35h115q129 0 197 14t110 62zM391 1251q0 127 64.5 158.5t193.5 -49.5l215 -143l-10 -27z" />
    <glyph glyph-name="uacute" unicode="&#xfa;" horiz-adv-x="1247" 
d="M461 1051h20v-795q0 -152 99 -152q81 0 188 107v575q0 73 -20 107.5t-66 46.5v35h115q127 0 195 14t110 62h20v-811q0 -73 20 -107t66 -45v-37h-114q-127 0 -195.5 -14t-110.5 -62h-20v177q-144 -179 -348 -179q-136 0 -215.5 75.5t-79.5 244.5v493q0 73 -19.5 107.5
t-66.5 46.5v35h115q129 0 197 14t110 62zM391 1217l215 143q128 81 193 49.5t65 -158.5l-463 -61z" />
    <glyph glyph-name="ucircumflex" unicode="&#xfb;" horiz-adv-x="1247" 
d="M461 1051h20v-795q0 -152 99 -152q81 0 188 107v575q0 73 -20 107.5t-66 46.5v35h115q127 0 195 14t110 62h20v-811q0 -73 20 -107t66 -45v-37h-114q-127 0 -195.5 -14t-110.5 -62h-20v177q-144 -179 -348 -179q-136 0 -215.5 75.5t-79.5 244.5v493q0 73 -19.5 107.5
t-66.5 46.5v35h115q129 0 197 14t110 62zM340 1202l201 205q42 45 84 45t84 -45l204 -205l-26 -26l-262 104l-258 -104z" />
    <glyph glyph-name="udieresis" unicode="&#xfc;" horiz-adv-x="1247" 
d="M461 1051h20v-795q0 -152 99 -152q81 0 188 107v575q0 73 -20 107.5t-66 46.5v35h115q127 0 195 14t110 62h20v-811q0 -73 20 -107t66 -45v-37h-114q-127 0 -195.5 -14t-110.5 -62h-20v177q-144 -179 -348 -179q-136 0 -215.5 75.5t-79.5 244.5v493q0 73 -19.5 107.5
t-66.5 46.5v35h115q129 0 197 14t110 62zM279 1317q0 62 40.5 97.5t112.5 35.5q70 0 111 -35.5t41 -97.5q0 -63 -40.5 -99t-111.5 -36q-72 0 -112.5 36t-40.5 99zM672 1317q0 62 40.5 97.5t112.5 35.5q71 0 112.5 -36t41.5 -97q0 -63 -41.5 -99t-112.5 -36q-72 0 -112.5 36
t-40.5 99z" />
    <glyph glyph-name="yacute" unicode="&#xfd;" horiz-adv-x="1071" 
d="M403 -438q-34 0 -85.5 13t-90.5 13l-61 392h41q29 -124 54.5 -201.5t50.5 -115t45.5 -49t50.5 -11.5q54 0 87.5 49t71.5 178l43 145h-141l-303 871q-39 115 -146 143v35h611v-35q-64 -12 -76.5 -43t12.5 -100l158 -481l143 479q24 70 10.5 101.5t-79.5 43.5v35h252v-35
q-50 -13 -85 -46t-55 -99l-311 -1047q-16 -52 -27.5 -83t-28.5 -63.5t-35.5 -49.5t-45 -28t-60.5 -11zM354 1217l215 143q127 81 192.5 49.5t65.5 -158.5l-462 -61z" />
    <glyph glyph-name="thorn" unicode="&#xfe;" horiz-adv-x="1181" 
d="M27 -410v35q46 12 66 46.5t20 107.5v1417q0 73 -20 107.5t-66 46.5v34h114q129 0 197.5 14t110.5 62h20v-555q61 70 131 107t168 37q154 0 255 -134t101 -374q0 -257 -112.5 -411.5t-282.5 -154.5q-184 0 -260 146v-342q0 -73 19.5 -107.5t66.5 -46.5v-35h-528zM469 383
q0 -143 36 -217t95 -74q76 0 109.5 95t33.5 325q0 243 -26.5 335.5t-95.5 92.5q-33 0 -66 -20t-86 -74v-463z" />
    <glyph glyph-name="ydieresis" unicode="&#xff;" horiz-adv-x="1071" 
d="M403 -438q-34 0 -85.5 13t-90.5 13l-61 392h41q29 -124 54.5 -201.5t50.5 -115t45.5 -49t50.5 -11.5q54 0 87.5 49t71.5 178l43 145h-141l-303 871q-39 115 -146 143v35h611v-35q-64 -12 -76.5 -43t12.5 -100l158 -481l143 479q24 70 10.5 101.5t-79.5 43.5v35h252v-35
q-50 -13 -85 -46t-55 -99l-311 -1047q-16 -52 -27.5 -83t-28.5 -63.5t-35.5 -49.5t-45 -28t-60.5 -11zM242 1317q0 62 40.5 97.5t112.5 35.5q70 0 111 -35.5t41 -97.5q0 -63 -40.5 -99t-111.5 -36q-72 0 -112.5 36t-40.5 99zM635 1317q0 62 40.5 97.5t112.5 35.5
q71 0 112.5 -36t41.5 -97q0 -63 -41.5 -99t-112.5 -36q-72 0 -112.5 36t-40.5 99z" />
    <glyph glyph-name="Amacron" unicode="&#x100;" horiz-adv-x="1179" 
d="M188 184q-15 -74 1 -105.5t81 -41.5v-37h-250v37q49 11 80 44.5t47 102.5l252 1110l-14 66v20q148 0 218 14.5t138 63.5h21l272 -1274q14 -68 44.5 -102t78.5 -45v-37h-604v37q65 10 82 42t2 105l-43 203h-358zM244 428h342l-166 770zM301 1630v92h551v-92h-551z" />
    <glyph glyph-name="amacron" unicode="&#x101;" horiz-adv-x="1185" 
d="M805 -25q-62 0 -89.5 29t-27.5 96v62q-75 -187 -280 -187q-72 0 -133.5 24t-111 72.5t-78 130.5t-28.5 189t28.5 189t78 130.5t111 72.5t133.5 24q206 0 280 -184v73q0 171 -49.5 241.5t-157.5 70.5q-200 0 -319 -205h-43l88 213q38 0 156 16.5t190 16.5q76 0 144 -11
t133.5 -38.5t112.5 -69.5t75.5 -108.5t28.5 -151.5v-447q0 -75 19 -98.5t83 -11.5l12 -33l-153 -60q-125 -45 -203 -45zM313 1262v92h551v-92h-551zM406 391q0 -280 143 -280q139 0 139 280q0 281 -139 281q-143 0 -143 -281z" />
    <glyph glyph-name="Abreve" unicode="&#x102;" horiz-adv-x="1179" 
d="M188 184q-15 -74 1 -105.5t81 -41.5v-37h-250v37q49 11 80 44.5t47 102.5l252 1110l-14 66v20q148 0 218 14.5t138 63.5h21l272 -1274q14 -68 44.5 -102t78.5 -45v-37h-604v37q65 10 82 42t2 105l-43 203h-358zM244 428h342l-166 770zM326 1831h41q14 -61 67 -96t141 -35
t142.5 35.5t70.5 95.5h41q-3 -135 -67 -215t-187 -80q-122 0 -184 79.5t-65 215.5z" />
    <glyph glyph-name="abreve" unicode="&#x103;" horiz-adv-x="1185" 
d="M805 -25q-62 0 -89.5 29t-27.5 96v62q-75 -187 -280 -187q-72 0 -133.5 24t-111 72.5t-78 130.5t-28.5 189t28.5 189t78 130.5t111 72.5t133.5 24q206 0 280 -184v73q0 171 -49.5 241.5t-157.5 70.5q-200 0 -319 -205h-43l88 213q38 0 156 16.5t190 16.5q76 0 144 -11
t133.5 -38.5t112.5 -69.5t75.5 -108.5t28.5 -151.5v-447q0 -75 19 -98.5t83 -11.5l12 -33l-153 -60q-125 -45 -203 -45zM338 1462h41q14 -61 67.5 -96t141.5 -35t142.5 35.5t70.5 95.5h41q-3 -135 -67 -215t-187 -80t-185 79.5t-65 215.5zM406 391q0 -280 143 -280
q139 0 139 280q0 281 -139 281q-143 0 -143 -281z" />
    <glyph glyph-name="Aogonek" unicode="&#x104;" horiz-adv-x="1179" 
d="M188 184q-15 -74 1 -105.5t81 -41.5v-37h-250v37q49 11 80 44.5t47 102.5l252 1110l-14 66v20q148 0 218 14.5t138 63.5h21l272 -1274q14 -68 44.5 -102t78.5 -45v-37h-184q-70 -58 -112 -127.5t-42 -136.5q0 -42 22 -69t64 -27q49 0 84.5 37.5t63.5 119.5l37 -18
q-39 -107 -103.5 -164t-179.5 -57q-95 0 -155 45t-60 129q0 48 25.5 89.5t72 74.5t96 57t113.5 47h-346v37q65 10 82 42t2 105l-43 203h-358zM244 428h342l-166 770z" />
    <glyph glyph-name="aogonek" unicode="&#x105;" horiz-adv-x="1185" 
d="M805 -25q-62 0 -89.5 29t-27.5 96v62q-75 -187 -280 -187q-72 0 -133.5 24t-111 72.5t-78 130.5t-28.5 189t28.5 189t78 130.5t111 72.5t133.5 24q206 0 280 -184v73q0 171 -49.5 241.5t-157.5 70.5q-200 0 -319 -205h-43l88 213q38 0 156 16.5t190 16.5q76 0 144 -11
t133.5 -38.5t112.5 -69.5t75.5 -108.5t28.5 -151.5v-447q0 -75 19 -98.5t83 -11.5l12 -33l-153 -60q-37 -14 -86 -28q-69 -58 -111.5 -128t-42.5 -136q0 -42 22 -69.5t64 -27.5q49 0 84 38t63 120l37 -18q-39 -108 -103 -165t-179 -57q-95 0 -155 45t-60 130q0 147 264 251z
M406 391q0 -280 143 -280q139 0 139 280q0 281 -139 281q-143 0 -143 -281z" />
    <glyph glyph-name="Cacute" unicode="&#x106;" horiz-adv-x="1128" 
d="M47 717q0 185 50 328t139.5 232.5t209 135t263.5 45.5q73 0 165.5 -13t131.5 -13l49 -531h-41q-18 129 -41 221.5t-47.5 149.5t-57 89.5t-64 44t-73.5 11.5q-133 0 -205.5 -167.5t-72.5 -485.5q0 -311 78 -478t221 -167q254 0 315 481l39 -8q-16 -147 -47 -256
t-71.5 -177.5t-97 -110t-117.5 -57.5t-140 -16q-128 0 -234 46.5t-185 136.5t-123 233t-44 326zM393 1597l215 144q128 81 193 49.5t65 -158.5l-463 -61z" />
    <glyph glyph-name="cacute" unicode="&#x107;" horiz-adv-x="997" 
d="M57 504q0 251 144.5 398t394.5 147q63 0 143 -13.5t117 -13.5l49 -365h-41q-20 109 -46.5 182t-56 108t-56.5 48t-60 13q-105 0 -157 -107.5t-52 -292.5q0 -141 27.5 -251t84.5 -175t136 -65q165 0 236 274l41 -8q-49 -217 -159 -312.5t-278 -95.5q-215 0 -341 142
t-126 387zM279 1217l215 143q128 81 193 49.5t65 -158.5l-463 -61z" />
    <glyph glyph-name="Cdotaccent" unicode="&#x10a;" horiz-adv-x="1128" 
d="M47 717q0 185 50 328t139.5 232.5t209 135t263.5 45.5q73 0 165.5 -13t131.5 -13l49 -531h-41q-18 129 -41 221.5t-47.5 149.5t-57 89.5t-64 44t-73.5 11.5q-133 0 -205.5 -167.5t-72.5 -485.5q0 -311 78 -478t221 -167q254 0 315 481l39 -8q-16 -147 -47 -256
t-71.5 -177.5t-97 -110t-117.5 -57.5t-140 -16q-128 0 -234 46.5t-185 136.5t-123 233t-44 326zM451 1700q0 62 48 97.5t132 35.5t131 -35.5t47 -97.5q0 -63 -46.5 -98t-131.5 -35t-132.5 35t-47.5 98z" />
    <glyph glyph-name="cdotaccent" unicode="&#x10b;" horiz-adv-x="997" 
d="M57 504q0 251 144.5 398t394.5 147q63 0 143 -13.5t117 -13.5l49 -365h-41q-20 109 -46.5 182t-56 108t-56.5 48t-60 13q-105 0 -157 -107.5t-52 -292.5q0 -141 27.5 -251t84.5 -175t136 -65q165 0 236 274l41 -8q-49 -217 -159 -312.5t-278 -95.5q-215 0 -341 142
t-126 387zM336 1319q0 62 48 97.5t132 35.5t131 -35.5t47 -97.5q0 -63 -46.5 -98t-131.5 -35t-132.5 35t-47.5 98z" />
    <glyph glyph-name="Ccaron" unicode="&#x10c;" horiz-adv-x="1128" 
d="M47 717q0 185 50 328t139.5 232.5t209 135t263.5 45.5q73 0 165.5 -13t131.5 -13l49 -531h-41q-18 129 -41 221.5t-47.5 149.5t-57 89.5t-64 44t-73.5 11.5q-133 0 -205.5 -167.5t-72.5 -485.5q0 -311 78 -478t221 -167q254 0 315 481l39 -8q-16 -147 -47 -256
t-71.5 -177.5t-97 -110t-117.5 -57.5t-140 -16q-128 0 -234 46.5t-185 136.5t-123 233t-44 326zM344 1798l27 27l258 -105l262 105l27 -27l-205 -205q-42 -45 -84 -45t-84 45z" />
    <glyph glyph-name="ccaron" unicode="&#x10d;" horiz-adv-x="997" 
d="M57 504q0 251 144.5 398t394.5 147q63 0 143 -13.5t117 -13.5l49 -365h-41q-20 109 -46.5 182t-56 108t-56.5 48t-60 13q-105 0 -157 -107.5t-52 -292.5q0 -141 27.5 -251t84.5 -175t136 -65q165 0 236 274l41 -8q-49 -217 -159 -312.5t-278 -95.5q-215 0 -341 142
t-126 387zM227 1417l27 27l258 -105l262 105l27 -27l-205 -205q-42 -45 -84 -45t-84 45z" />
    <glyph glyph-name="Dcaron" unicode="&#x10e;" horiz-adv-x="1286" 
d="M172 0h-113v37q46 11 65 44.5t19 106.5v1057q0 73 -19 107.5t-65 46.5v35h113q68 1 224.5 10.5t215.5 9.5q73 0 137 -9t129 -31.5t117.5 -58.5t98.5 -94t77.5 -133.5t49.5 -180.5t18 -232t-18 -232t-49.5 -180t-78 -132.5t-98.5 -93t-117 -58t-128.5 -31t-137.5 -8.5
q-59 0 -215.5 9.5t-224.5 10.5zM307 1786l27 26l258 -104l262 104l27 -26l-205 -205q-42 -45 -84 -45t-84 45zM512 31q54 -11 94 -11q45 0 79 19t63 67t47.5 126.5t28.5 199t10 283.5q0 203 -15 341t-46 215.5t-71 109.5t-96 32q-48 0 -94 -10v-1372z" />
    <glyph glyph-name="dcaron" unicode="&#x10f;" horiz-adv-x="1607" 
d="M713 1196q0 73 -20 107.5t-66 46.5v34h114q129 0 197.5 14t110.5 62h20v-1235q0 -73 19 -106t67 -45v-37h-117q-127 0 -195 -13.5t-110 -60.5h-20v154q-62 -70 -132 -106t-167 -36q-154 0 -255.5 134.5t-101.5 373.5q0 257 112 411.5t282 154.5q187 0 262 -148v295z
M436 512q0 -163 12.5 -255t38.5 -131.5t72 -39.5q33 0 67.5 20t86.5 72v463q0 142 -36.5 216.5t-94.5 74.5q-77 0 -111.5 -95.5t-34.5 -324.5zM1182 1329q0 59 38 92t101 33q73 0 113.5 -40t40.5 -116q0 -96 -60 -190t-172 -213l-29 29q75 100 96 138.5t21 70.5
q0 25 -15.5 43t-37.5 30t-43.5 26t-37 38t-15.5 59z" />
    <glyph glyph-name="Dcroat" unicode="&#x110;" horiz-adv-x="1413" 
d="M172 0h-113v37q46 11 65 44.5t19 106.5v508h-84v41h84v508q0 73 -19 107.5t-65 46.5v35h113q68 1 224.5 10.5t215.5 9.5q73 0 137 -9t129 -31.5t117.5 -58.5t98.5 -94t77.5 -133.5t49.5 -180.5t18 -232t-18 -232t-49.5 -180t-78 -132.5t-98.5 -93t-117 -58t-128.5 -31
t-137.5 -8.5q-59 0 -215.5 9.5t-224.5 10.5zM512 31q54 -11 94 -11q45 0 79 19t63 67t47.5 126.5t28.5 199t10 283.5q0 203 -15 341t-46 215.5t-71 109.5t-96 32q-48 0 -94 -10v-666h188v-41h-188v-665z" />
    <glyph glyph-name="dcroat" unicode="&#x111;" horiz-adv-x="1206" 
d="M414 -25q-154 0 -255.5 134.5t-101.5 373.5q0 257 112 411.5t282 154.5q187 0 262 -148v258h-254v41h254q0 71 -19.5 104.5t-66.5 45.5v34h114q129 0 197.5 14t110.5 62h20v-260h94v-41h-94v-934q0 -73 19 -106t67 -45v-37h-117q-127 0 -195 -13.5t-110 -60.5h-20v154
q-62 -70 -132 -106t-167 -36zM436 512q0 -163 12.5 -255t38.5 -131.5t72 -39.5q33 0 67.5 20t86.5 72v463q0 142 -36.5 216.5t-94.5 74.5q-77 0 -111.5 -95.5t-34.5 -324.5z" />
    <glyph glyph-name="Emacron" unicode="&#x112;" horiz-adv-x="1077" 
d="M961 1434l51 -533h-41q-17 115 -32 194t-32.5 135t-33.5 87t-40 48.5t-47 22.5t-59 5h-215v-609h164q30 0 46 4t30 17.5t16.5 39.5t5 70t-3.5 109h41l41 -541h-41q-6 57 -11 90.5t-10.5 65.5t-13 47.5t-15.5 29t-22.5 18t-29.5 7t-39 2.5h-158v-702h240q51 0 80.5 13.5
t60 65t54 155.5t48.5 282h41l-49 -557h-928v37q46 11 65 44.5t19 106.5v1057q0 73 -19 107.5t-65 46.5v35h902zM299 1630v92h551v-92h-551z" />
    <glyph glyph-name="emacron" unicode="&#x113;" horiz-adv-x="1024" 
d="M57 512q0 249 130.5 393t357.5 144q197 0 309.5 -107t112.5 -309h-535q3 -251 69.5 -383.5t192.5 -132.5q177 0 258 274l39 -8q-51 -217 -166 -312.5t-293 -95.5q-224 0 -349.5 143t-125.5 394zM272 1262v92h551v-92h-551zM432 674h221q0 185 -22 259.5t-80 74.5
q-64 0 -90.5 -82t-28.5 -252z" />
    <glyph glyph-name="Edotaccent" unicode="&#x116;" horiz-adv-x="1077" 
d="M961 1434l51 -533h-41q-17 115 -32 194t-32.5 135t-33.5 87t-40 48.5t-47 22.5t-59 5h-215v-609h164q30 0 46 4t30 17.5t16.5 39.5t5 70t-3.5 109h41l41 -541h-41q-6 57 -11 90.5t-10.5 65.5t-13 47.5t-15.5 29t-22.5 18t-29.5 7t-39 2.5h-158v-702h240q51 0 80.5 13.5
t60 65t54 155.5t48.5 282h41l-49 -557h-928v37q46 11 65 44.5t19 106.5v1057q0 73 -19 107.5t-65 46.5v35h902zM395 1688q0 62 48 97.5t132 35.5t131.5 -35.5t47.5 -97.5q0 -63 -47 -98.5t-132 -35.5t-132.5 35.5t-47.5 98.5z" />
    <glyph glyph-name="edotaccent" unicode="&#x117;" horiz-adv-x="1024" 
d="M57 512q0 249 130.5 393t357.5 144q197 0 309.5 -107t112.5 -309h-535q3 -251 69.5 -383.5t192.5 -132.5q177 0 258 274l39 -8q-51 -217 -166 -312.5t-293 -95.5q-224 0 -349.5 143t-125.5 394zM371 1319q0 62 48 97.5t132 35.5t131 -35.5t47 -97.5q0 -63 -46.5 -98
t-131.5 -35t-132.5 35t-47.5 98zM432 674h221q0 185 -22 259.5t-80 74.5q-64 0 -90.5 -82t-28.5 -252z" />
    <glyph glyph-name="Eogonek" unicode="&#x118;" horiz-adv-x="1077" 
d="M961 1434l51 -533h-41q-17 115 -32 194t-32.5 135t-33.5 87t-40 48.5t-47 22.5t-59 5h-215v-609h164q30 0 46 4t30 17.5t16.5 39.5t5 70t-3.5 109h41l41 -541h-41q-6 57 -11 90.5t-10.5 65.5t-13 47.5t-15.5 29t-22.5 18t-29.5 7t-39 2.5h-158v-702h240q51 0 80.5 13.5
t60 65t54 155.5t48.5 282h41l-49 -557h-178q-70 -58 -112 -127.5t-42 -136.5q0 -42 22 -69t64 -27q49 0 84.5 37.5t63.5 119.5l37 -18q-39 -107 -103.5 -164t-179.5 -57q-95 0 -155 45t-60 129q0 48 25.5 89.5t72 74.5t96 57t113.5 47h-676v37q46 11 65 44.5t19 106.5v1057
q0 73 -19 107.5t-65 46.5v35h902z" />
    <glyph glyph-name="eogonek" unicode="&#x119;" horiz-adv-x="1024" 
d="M57 512q0 249 130.5 393t357.5 144q197 0 309.5 -107t112.5 -309h-535q3 -251 69.5 -383.5t192.5 -132.5q177 0 258 274l39 -8q-69 -302 -280 -379q-72 -60 -117 -132t-45 -140q0 -42 22 -69.5t64 -27.5q49 0 84 38t63 120l37 -18q-39 -107 -103 -164t-179 -57
q-95 0 -155 45t-60 129q0 35 14.5 66.5t37.5 56.5t58 49t70 41.5t78 35.5q-14 -2 -48 -2q-224 0 -349.5 143t-125.5 394zM432 674h221q0 185 -22 259.5t-80 74.5q-64 0 -90.5 -82t-28.5 -252z" />
    <glyph glyph-name="Ecaron" unicode="&#x11a;" horiz-adv-x="1077" 
d="M961 1434l51 -533h-41q-17 115 -32 194t-32.5 135t-33.5 87t-40 48.5t-47 22.5t-59 5h-215v-609h164q30 0 46 4t30 17.5t16.5 39.5t5 70t-3.5 109h41l41 -541h-41q-6 57 -11 90.5t-10.5 65.5t-13 47.5t-15.5 29t-22.5 18t-29.5 7t-39 2.5h-158v-702h240q51 0 80.5 13.5
t60 65t54 155.5t48.5 282h41l-49 -557h-928v37q46 11 65 44.5t19 106.5v1057q0 73 -19 107.5t-65 46.5v35h902zM287 1786l26 26l258 -104l263 104l26 -26l-205 -205q-42 -45 -84 -45t-84 45z" />
    <glyph glyph-name="ecaron" unicode="&#x11b;" horiz-adv-x="1024" 
d="M57 512q0 249 130.5 393t357.5 144q197 0 309.5 -107t112.5 -309h-535q3 -251 69.5 -383.5t192.5 -132.5q177 0 258 274l39 -8q-51 -217 -166 -312.5t-293 -95.5q-224 0 -349.5 143t-125.5 394zM262 1417l27 27l258 -105l262 105l27 -27l-205 -205q-42 -45 -84 -45
t-84 45zM432 674h221q0 185 -22 259.5t-80 74.5q-64 0 -90.5 -82t-28.5 -252z" />
    <glyph glyph-name="Gbreve" unicode="&#x11e;" horiz-adv-x="1241" 
d="M641 -25q-135 0 -241.5 41t-187 127.5t-123 230t-42.5 337.5q0 157 34 283.5t93 212t142 143t179 83t207 25.5q66 0 166 -13t150 -13l51 -531h-39q-27 130 -53.5 221.5t-53 149t-58 90t-62.5 44t-72 11.5q-278 0 -278 -661q0 -278 25 -438.5t70 -222.5t120 -62
q47 0 84 12v381q0 78 -3.5 123.5t-12.5 83t-29.5 56.5t-49.5 31t-77 19v41l620 -35v-40q-22 0 -38.5 -13t-26 -39t-15.5 -50t-8.5 -62.5t-3 -59.5t-0.5 -57v-424q-108 0 -246 -12.5t-221 -12.5zM444 1843h41q14 -61 67.5 -96t141.5 -35t142.5 35.5t70.5 95.5h41
q-3 -135 -67 -215t-187 -80t-185 79.5t-65 215.5z" />
    <glyph glyph-name="gbreve" unicode="&#x11f;" horiz-adv-x="1030" 
d="M514 115q-144 0 -252 51q-29 -21 -29 -37q0 -23 52 -40t239 -60q62 -14 95.5 -22.5t81 -20.5t72.5 -20.5t58 -21.5t49.5 -24.5t35.5 -27.5t27 -33t14 -38t6 -46q0 -58 -32 -101t-87 -67.5t-119 -36.5t-137 -12q-154 0 -253 38t-99 115q0 93 149 135q-184 40 -259 84.5
t-75 116.5q0 99 168 143q-182 119 -182 392q0 221 127 345t350 124q88 0 162 -21q38 84 91 137t136 86l70 -153q-95 0 -150 -19t-92 -67q126 -51 193 -161.5t67 -270.5q0 -221 -126 -344t-351 -123zM266 1462h41q14 -61 67.5 -96t141.5 -35t142.5 35.5t70.5 95.5h41
q-3 -135 -67 -215t-187 -80t-185 79.5t-65 215.5zM408 582q0 -238 19 -332t87 -94q69 0 89 96t20 330t-20 331t-89 97q-67 0 -86.5 -95.5t-19.5 -332.5zM424 -281q0 -58 43 -87t119 -29q77 0 117 24t40 66q0 49 -46 71t-205 58q-68 -36 -68 -103z" />
    <glyph glyph-name="Gdotaccent" unicode="&#x120;" horiz-adv-x="1241" 
d="M641 -25q-135 0 -241.5 41t-187 127.5t-123 230t-42.5 337.5q0 157 34 283.5t93 212t142 143t179 83t207 25.5q66 0 166 -13t150 -13l51 -531h-39q-27 130 -53.5 221.5t-53 149t-58 90t-62.5 44t-72 11.5q-278 0 -278 -661q0 -278 25 -438.5t70 -222.5t120 -62
q47 0 84 12v381q0 78 -3.5 123.5t-12.5 83t-29.5 56.5t-49.5 31t-77 19v41l620 -35v-40q-22 0 -38.5 -13t-26 -39t-15.5 -50t-8.5 -62.5t-3 -59.5t-0.5 -57v-424q-108 0 -246 -12.5t-221 -12.5zM516 1700q0 62 48 97.5t132 35.5t131 -35.5t47 -97.5q0 -63 -46.5 -98
t-131.5 -35t-132.5 35t-47.5 98z" />
    <glyph glyph-name="gdotaccent" unicode="&#x121;" horiz-adv-x="1030" 
d="M514 115q-144 0 -252 51q-29 -21 -29 -37q0 -23 52 -40t239 -60q62 -14 95.5 -22.5t81 -20.5t72.5 -20.5t58 -21.5t49.5 -24.5t35.5 -27.5t27 -33t14 -38t6 -46q0 -58 -32 -101t-87 -67.5t-119 -36.5t-137 -12q-154 0 -253 38t-99 115q0 93 149 135q-184 40 -259 84.5
t-75 116.5q0 99 168 143q-182 119 -182 392q0 221 127 345t350 124q88 0 162 -21q38 84 91 137t136 86l70 -153q-95 0 -150 -19t-92 -67q126 -51 193 -161.5t67 -270.5q0 -221 -126 -344t-351 -123zM350 1303q0 59 45.5 93t124.5 34t123.5 -34t44.5 -93q0 -60 -44 -92.5
t-124 -32.5t-125 32.5t-45 92.5zM408 582q0 -238 19 -332t87 -94q69 0 89 96t20 330t-20 331t-89 97q-67 0 -86.5 -95.5t-19.5 -332.5zM424 -281q0 -58 43 -87t119 -29q77 0 117 24t40 66q0 49 -46 71t-205 58q-68 -36 -68 -103z" />
    <glyph glyph-name="uni0122" unicode="&#x122;" horiz-adv-x="1241" 
d="M641 -25q-135 0 -241.5 41t-187 127.5t-123 230t-42.5 337.5q0 157 34 283.5t93 212t142 143t179 83t207 25.5q66 0 166 -13t150 -13l51 -531h-39q-27 130 -53.5 221.5t-53 149t-58 90t-62.5 44t-72 11.5q-278 0 -278 -661q0 -278 25 -438.5t70 -222.5t120 -62
q47 0 84 12v381q0 78 -3.5 123.5t-12.5 83t-29.5 56.5t-49.5 31t-77 19v41l620 -35v-40q-22 0 -38.5 -13t-26 -39t-15.5 -50t-8.5 -62.5t-3 -59.5t-0.5 -57v-424q-108 0 -246 -12.5t-221 -12.5zM565 -242q0 49 39.5 78t102.5 29q72 0 112.5 -37.5t40.5 -103.5
q0 -150 -233 -222l-21 31q109 44 109 86q0 22 -23.5 34.5t-51.5 17.5t-51.5 26.5t-23.5 60.5z" />
    <glyph glyph-name="uni0123" unicode="&#x123;" horiz-adv-x="1030" 
d="M514 115q-144 0 -252 51q-29 -21 -29 -37q0 -23 52 -40t239 -60q62 -14 95.5 -22.5t81 -20.5t72.5 -20.5t58 -21.5t49.5 -24.5t35.5 -27.5t27 -33t14 -38t6 -46q0 -58 -32 -101t-87 -67.5t-119 -36.5t-137 -12q-154 0 -253 38t-99 115q0 93 149 135q-184 40 -259 84.5
t-75 116.5q0 99 168 143q-182 119 -182 392q0 221 127 345t350 124q88 0 162 -21q38 84 91 137t136 86l70 -153q-95 0 -150 -19t-92 -67q126 -51 193 -161.5t67 -270.5q0 -221 -126 -344t-351 -123zM373 1300q0 150 233 222l21 -31q-109 -44 -109 -86q0 -22 23.5 -34.5
t51.5 -17.5t51.5 -26.5t23.5 -60.5q0 -49 -39.5 -78t-102.5 -29q-72 0 -112.5 37.5t-40.5 103.5zM408 582q0 -238 19 -332t87 -94q69 0 89 96t20 330t-20 331t-89 97q-67 0 -86.5 -95.5t-19.5 -332.5zM424 -281q0 -58 43 -87t119 -29q77 0 117 24t40 66q0 49 -46 71t-205 58
q-68 -36 -68 -103z" />
    <glyph glyph-name="Hbar" unicode="&#x126;" horiz-adv-x="1386" 
d="M766 0v37q45 11 64.5 45t19.5 106v514h-338v-514q0 -73 19 -106.5t65 -44.5v-37h-537v37q46 11 65 44.5t19 106.5v877h-94v41h94v139q0 73 -19 107.5t-65 46.5v35h537v-35q-46 -12 -65 -46.5t-19 -107.5v-139h338v139q0 72 -19.5 107t-64.5 47v35h534v-35
q-45 -12 -64 -46.5t-19 -107.5v-139h116v-41h-116v-877q0 -73 19 -106.5t64 -44.5v-37h-534zM512 743h338v322h-338v-322z" />
    <glyph glyph-name="hbar" unicode="&#x127;" horiz-adv-x="1234" 
d="M668 0v37q46 11 66 44.5t20 106.5v580q0 152 -99 152q-79 0 -186 -107v-625q0 -73 19.5 -106.5t66.5 -44.5v-37h-528v37q46 11 66 44.5t20 106.5v971h-86v41h86q0 71 -19.5 103.5t-66.5 44.5v36h114q129 0 197.5 13.5t110.5 60.5h20v-258h262v-41h-262v-285
q144 175 346 175q135 0 214 -75t79 -243v-543q0 -73 20 -106.5t66 -44.5v-37h-526z" />
    <glyph glyph-name="Imacron" unicode="&#x12a;" horiz-adv-x="655" 
d="M143 1245q0 73 -19 107.5t-65 46.5v35h537v-35q-46 -12 -65 -46.5t-19 -107.5v-1057q0 -73 19 -106.5t65 -44.5v-37h-537v37q46 11 65 44.5t19 106.5v1057zM51 1655v92h551v-92h-551z" />
    <glyph glyph-name="imacron" unicode="&#x12b;" horiz-adv-x="606" 
d="M125 786q0 72 -19.5 106t-66.5 46v37h115q129 0 197 13.5t110 60.5h20v-861q0 -73 19.5 -106.5t66.5 -44.5v-37h-528v37q46 11 66 44.5t20 106.5v598zM18 1262v92h551v-92h-551z" />
    <glyph glyph-name="Iogonek" unicode="&#x12e;" horiz-adv-x="655" 
d="M143 1245q0 73 -19 107.5t-65 46.5v35h537v-35q-46 -12 -65 -46.5t-19 -107.5v-1057q0 -73 19 -106.5t65 -44.5v-37h-168q-70 -58 -112 -127.5t-42 -136.5q0 -42 22 -69t64 -27q49 0 84.5 37.5t63.5 119.5l37 -18q-39 -107 -103.5 -164t-179.5 -57q-95 0 -155 45t-60 129
q0 48 25.5 89.5t72 74.5t96 57t113.5 47h-295v37q46 11 65 44.5t19 106.5v1057z" />
    <glyph glyph-name="iogonek" unicode="&#x12f;" horiz-adv-x="606" 
d="M125 786q0 72 -19.5 106t-66.5 46v37h115q129 0 197 13.5t110 60.5h20v-861q0 -73 19.5 -106.5t66.5 -44.5v-37h-184q-70 -58 -112 -127.5t-42 -136.5q0 -42 22 -69t64 -27q49 0 84.5 37.5t63.5 119.5l37 -18q-39 -107 -103.5 -164t-179.5 -57q-95 0 -155 45t-60 129
q0 48 25.5 89.5t72 74.5t96 57t113.5 47h-270v37q46 11 66 44.5t20 106.5v598zM115 1319q0 62 48 97.5t132 35.5t131 -35.5t47 -97.5q0 -63 -46.5 -98t-131.5 -35t-132.5 35t-47.5 98z" />
    <glyph glyph-name="Idotaccent" unicode="&#x130;" horiz-adv-x="655" 
d="M143 1245q0 73 -19 107.5t-65 46.5v35h537v-35q-46 -12 -65 -46.5t-19 -107.5v-1057q0 -73 19 -106.5t65 -44.5v-37h-537v37q46 11 65 44.5t19 106.5v1057zM150 1712q0 62 48 97.5t132 35.5t131 -35.5t47 -97.5q0 -63 -46.5 -98t-131.5 -35t-132.5 35t-47.5 98z" />
    <glyph glyph-name="dotlessi" unicode="&#x131;" horiz-adv-x="606" 
d="M125 786q0 72 -19.5 106t-66.5 46v37h115q129 0 197 13.5t110 60.5h20v-861q0 -73 19.5 -106.5t66.5 -44.5v-37h-528v37q46 11 66 44.5t20 106.5v598z" />
    <glyph glyph-name="Lacute" unicode="&#x139;" horiz-adv-x="1046" 
d="M59 0v37q46 11 65 44.5t19 106.5v1057q0 73 -19 107.5t-65 46.5v35h537v-35q-46 -12 -65 -46.5t-19 -107.5v-1204h207q41 0 66.5 5t52 23t43.5 51t36 91.5t34.5 141.5t33.5 204h41l-49 -557h-918zM92 1585l215 144q127 81 192.5 49.5t65.5 -158.5l-463 -61z" />
    <glyph glyph-name="lacute" unicode="&#x13a;" horiz-adv-x="581" 
d="M113 1196q0 72 -19.5 106t-66.5 46v36h114q129 0 197.5 13.5t110.5 60.5h20v-1270q0 -73 19.5 -106.5t66.5 -44.5v-37h-528v37q46 11 66 44.5t20 106.5v1008zM55 1626l215 143q128 81 193 50t65 -158l-462 -62z" />
    <glyph glyph-name="uni013B" unicode="&#x13b;" horiz-adv-x="1046" 
d="M59 0v37q46 11 65 44.5t19 106.5v1057q0 73 -19 107.5t-65 46.5v35h537v-35q-46 -12 -65 -46.5t-19 -107.5v-1204h207q41 0 66.5 5t52 23t43.5 51t36 91.5t34.5 141.5t33.5 204h41l-49 -557h-918zM293 -242q0 49 39.5 78t101.5 29q72 0 113 -37.5t41 -103.5
q0 -150 -234 -222l-20 31q65 26 86.5 46.5t21.5 39.5q0 22 -23.5 34.5t-51 17.5t-51 26.5t-23.5 60.5z" />
    <glyph glyph-name="uni013C" unicode="&#x13c;" horiz-adv-x="581" 
d="M113 1196q0 72 -19.5 106t-66.5 46v36h114q129 0 197.5 13.5t110.5 60.5h20v-1270q0 -73 19.5 -106.5t66.5 -44.5v-37h-528v37q46 11 66 44.5t20 106.5v1008zM147 -242q0 49 39.5 78t102.5 29q72 0 112.5 -37.5t40.5 -103.5q0 -150 -233 -222l-21 31q109 44 109 86
q0 22 -23.5 34.5t-51.5 17.5t-51.5 26.5t-23.5 60.5z" />
    <glyph glyph-name="Lcaron" unicode="&#x13d;" horiz-adv-x="1077" 
d="M59 0v37q46 11 65 44.5t19 106.5v1057q0 73 -19 107.5t-65 46.5v35h537v-35q-46 -12 -65 -46.5t-19 -107.5v-1204h207q41 0 66.5 5t52 23t43.5 51t36 91.5t34.5 141.5t33.5 204h41l-49 -557h-918zM745 1329q0 59 38.5 92t101.5 33q73 0 113 -40t40 -116
q0 -51 -17.5 -102.5t-53 -104.5t-71.5 -96t-89 -100l-29 29q75 100 96 138.5t21 70.5q0 25 -15.5 43t-37.5 30t-44 26t-37.5 38t-15.5 59z" />
    <glyph glyph-name="lcaron" unicode="&#x13e;" horiz-adv-x="991" 
d="M113 1196q0 72 -19.5 106t-66.5 46v36h114q129 0 197.5 13.5t110.5 60.5h20v-1270q0 -73 19.5 -106.5t66.5 -44.5v-37h-528v37q46 11 66 44.5t20 106.5v1008zM682 1333q0 59 38 92t101 33q73 0 113.5 -39.5t40.5 -115.5q0 -96 -60 -190.5t-172 -213.5l-28 29
q74 99 95 138t21 71q0 25 -15.5 43t-37.5 30t-43.5 26t-37 38t-15.5 59z" />
    <glyph glyph-name="Ldot" unicode="&#x13f;" horiz-adv-x="1103" 
d="M59 0v37q46 11 65 44.5t19 106.5v1057q0 73 -19 107.5t-65 46.5v35h537v-35q-46 -12 -65 -46.5t-19 -107.5v-1204h207q41 0 66.5 5t52 23t43.5 51t36 91.5t34.5 141.5t33.5 204h41l-49 -557h-918zM729 713q0 62 39.5 101.5t108.5 39.5q68 0 106.5 -39.5t38.5 -101.5
t-38.5 -103t-106.5 -41t-108 41t-40 103z" />
    <glyph glyph-name="ldot" unicode="&#x140;" horiz-adv-x="964" 
d="M113 1196q0 72 -19.5 106t-66.5 46v36h114q129 0 197.5 13.5t110.5 60.5h20v-1270q0 -73 19.5 -106.5t66.5 -44.5v-37h-528v37q46 11 66 44.5t20 106.5v1008zM627 528q0 62 39 102t108 40q68 0 107 -40t39 -102t-39 -102.5t-107 -40.5t-107.5 40.5t-39.5 102.5z" />
    <glyph glyph-name="Lslash" unicode="&#x141;" horiz-adv-x="1089" 
d="M100 0v37q46 11 65 44.5t19 106.5v414l-139 -63l-16 36l155 70v600q0 73 -19 107.5t-65 46.5v35h537v-35q-46 -12 -65 -46.5t-19 -107.5v-432l176 80l19 -37l-195 -88v-727h207q41 0 66.5 5t52 23t43.5 51t36 91.5t34.5 141.5t33.5 204h41l-49 -557h-918z" />
    <glyph glyph-name="lslash" unicode="&#x142;" horiz-adv-x="581" 
d="M113 1196q0 72 -19.5 106t-66.5 46v36h114q129 0 197.5 13.5t110.5 60.5h20v-616l123 65l20 -35l-143 -75v-609q0 -73 19.5 -106.5t66.5 -44.5v-37h-528v37q46 11 66 44.5t20 106.5v420l-111 -59l-20 35l131 69v543z" />
    <glyph glyph-name="Nacute" unicode="&#x143;" horiz-adv-x="1093" 
d="M946 1245q0 73 -19 107.5t-65 46.5v35h209v-35q-45 -12 -64.5 -47t-19.5 -107v-1245h-272l-531 1260l-10 22v-1094q0 -72 19.5 -106t64.5 -45v-37h-209v37q46 11 65 44.5t19 106.5v1153q-37 40 -86 58v35h500l399 -965v776zM311 1626l215 143q128 81 193 50t65 -158
l-462 -62z" />
    <glyph glyph-name="nacute" unicode="&#x144;" horiz-adv-x="1234" 
d="M113 786q0 72 -19.5 106t-66.5 46v37h114q129 0 197.5 13.5t110.5 60.5h20v-175q144 175 346 175q135 0 214 -75t79 -243v-543q0 -73 20 -106.5t66 -44.5v-37h-526v37q46 11 66 44.5t20 106.5v580q0 152 -99 152q-79 0 -186 -107v-625q0 -73 19.5 -106.5t66.5 -44.5v-37
h-528v37q46 11 66 44.5t20 106.5v598zM375 1217l215 143q128 81 193 49.5t65 -158.5l-463 -61z" />
    <glyph glyph-name="uni0145" unicode="&#x145;" horiz-adv-x="1093" 
d="M946 1245q0 73 -19 107.5t-65 46.5v35h209v-35q-45 -12 -64.5 -47t-19.5 -107v-1245h-272l-531 1260l-10 22v-1094q0 -72 19.5 -106t64.5 -45v-37h-209v37q46 11 65 44.5t19 106.5v1153q-37 40 -86 58v35h500l399 -965v776zM397 -242q0 49 39.5 78t102.5 29
q72 0 112.5 -37.5t40.5 -103.5q0 -150 -233 -222l-21 31q109 44 109 86q0 22 -23.5 34.5t-51.5 17.5t-51.5 26.5t-23.5 60.5z" />
    <glyph glyph-name="uni0146" unicode="&#x146;" horiz-adv-x="1234" 
d="M113 786q0 72 -19.5 106t-66.5 46v37h114q129 0 197.5 13.5t110.5 60.5h20v-175q144 175 346 175q135 0 214 -75t79 -243v-543q0 -73 20 -106.5t66 -44.5v-37h-526v37q46 11 66 44.5t20 106.5v580q0 152 -99 152q-79 0 -186 -107v-625q0 -73 19.5 -106.5t66.5 -44.5v-37
h-528v37q46 11 66 44.5t20 106.5v598zM461 -242q0 49 39.5 78t101.5 29q72 0 113 -37.5t41 -103.5q0 -150 -234 -222l-20 31q65 26 86.5 46.5t21.5 39.5q0 22 -23.5 34.5t-51 17.5t-51 26.5t-23.5 60.5z" />
    <glyph glyph-name="Ncaron" unicode="&#x147;" horiz-adv-x="1093" 
d="M946 1245q0 73 -19 107.5t-65 46.5v35h209v-35q-45 -12 -64.5 -47t-19.5 -107v-1245h-272l-531 1260l-10 22v-1094q0 -72 19.5 -106t64.5 -45v-37h-209v37q46 11 65 44.5t19 106.5v1153q-37 40 -86 58v35h500l399 -965v776zM260 1827l27 26l258 -104l262 104l27 -26
l-205 -205q-42 -45 -84 -45t-84 45z" />
    <glyph glyph-name="ncaron" unicode="&#x148;" horiz-adv-x="1234" 
d="M113 786q0 72 -19.5 106t-66.5 46v37h114q129 0 197.5 13.5t110.5 60.5h20v-175q144 175 346 175q135 0 214 -75t79 -243v-543q0 -73 20 -106.5t66 -44.5v-37h-526v37q46 11 66 44.5t20 106.5v580q0 152 -99 152q-79 0 -186 -107v-625q0 -73 19.5 -106.5t66.5 -44.5v-37
h-528v37q46 11 66 44.5t20 106.5v598zM324 1417l26 27l258 -105l262 105l27 -27l-205 -205q-42 -45 -84 -45t-84 45z" />
    <glyph glyph-name="Eng" unicode="&#x14a;" horiz-adv-x="1093" 
d="M946 1245q0 73 -19 107.5t-65 46.5v35h209v-35q-45 -12 -64.5 -47t-19.5 -107v-1245q0 -90 -5.5 -153t-22.5 -122t-47 -94t-80 -56t-121 -21t-134.5 18t-93.5 18l-51 498h41q27 -129 46.5 -209t37.5 -140t36 -89.5t36.5 -42.5t44.5 -13q37 0 53 37t16 117
q0 84 -22.5 173.5t-75.5 215.5l-471 1123v-3v-1069q0 -72 19.5 -106t64.5 -45v-37h-209v37q46 11 65 44.5t19 106.5v1147q-33 46 -86 64v35h500l399 -949v760z" />
    <glyph glyph-name="eng" unicode="&#x14b;" horiz-adv-x="1187" 
d="M1120 47q0 -57 -0.5 -90.5t-2 -80t-5.5 -73t-10.5 -61.5t-16.5 -54.5t-24 -42.5t-33 -35t-43.5 -23.5t-55.5 -16t-69 -4.5q-55 0 -117.5 13t-89.5 13l-49 361h41q25 -117 47 -190t41.5 -105.5t34 -41.5t35.5 -9q51 0 51 94q0 67 -22.5 142.5t-45 157.5t-22.5 163v604
q0 79 -23 115.5t-73 36.5q-82 0 -187 -105v-627q0 -73 19.5 -106.5t66.5 -44.5v-37h-528v37q46 11 66 44.5t20 106.5v598q0 72 -19.5 106t-66.5 46v37h115q129 0 197 13.5t110 60.5h20v-175q140 175 346 175q62 0 113 -16.5t92.5 -52.5t64.5 -99.5t23 -149.5v-684z" />
    <glyph glyph-name="Omacron" unicode="&#x14c;" horiz-adv-x="1277" 
d="M639 -25q-96 0 -181 25.5t-160 83t-129 142t-85 210.5t-31 281t31 280.5t85 210.5t129 142t160 82.5t181 25.5t180.5 -25t160 -82t129 -141.5t85 -210.5t31.5 -282t-31 -282t-85 -211t-129 -141.5t-160 -82t-181 -25.5zM365 1630v92h550v-92h-550zM459 717
q0 -288 17 -437.5t54.5 -206.5t108.5 -57q72 0 109.5 57t55 206t17.5 438q0 218 -8.5 351t-31 212.5t-55.5 108t-87 28.5q-71 0 -108.5 -56.5t-54.5 -206t-17 -437.5z" />
    <glyph glyph-name="omacron" unicode="&#x14d;" horiz-adv-x="1120" 
d="M559 -25q-246 0 -380 141t-134 396t134 396t380 141q247 0 381.5 -140.5t134.5 -396.5t-134.5 -396.5t-381.5 -140.5zM285 1262v92h551v-92h-551zM424 512q0 -285 26 -390.5t109 -105.5q84 0 110.5 105.5t26.5 390.5t-26.5 390.5t-110.5 105.5q-82 0 -108.5 -107
t-26.5 -389z" />
    <glyph glyph-name="Ohungarumlaut" unicode="&#x150;" horiz-adv-x="1277" 
d="M639 -25q-96 0 -181 25.5t-160 83t-129 142t-85 210.5t-31 281t31 280.5t85 210.5t129 142t160 82.5t181 25.5t180.5 -25t160 -82t129 -141.5t85 -210.5t31.5 -282t-31 -282t-85 -211t-129 -141.5t-160 -82t-181 -25.5zM459 717q0 -288 17 -437.5t54.5 -206.5t108.5 -57
q72 0 109.5 57t55 206t17.5 438q0 218 -8.5 351t-31 212.5t-55.5 108t-87 28.5q-71 0 -108.5 -56.5t-54.5 -206t-17 -437.5zM467 1536l18 190q15 157 201 76l-174 -284zM702 1536l21 190q7 59 36.5 83.5t69 20t93.5 -27.5l-174 -284z" />
    <glyph glyph-name="ohungarumlaut" unicode="&#x151;" horiz-adv-x="1120" 
d="M559 -25q-246 0 -380 141t-134 396t134 396t380 141q247 0 381.5 -140.5t134.5 -396.5t-134.5 -396.5t-381.5 -140.5zM387 1167l19 191q15 157 200 76l-174 -285zM424 512q0 -285 26 -390.5t109 -105.5q84 0 110.5 105.5t26.5 390.5t-26.5 390.5t-110.5 105.5
q-82 0 -108.5 -107t-26.5 -389zM623 1167l20 191q7 59 36.5 83.5t69 20t93.5 -27.5l-174 -285z" />
    <glyph glyph-name="OE" unicode="&#x152;" horiz-adv-x="1705" 
d="M645 -25q-129 0 -234 41.5t-186.5 128t-126.5 232t-45 340.5t45 340.5t126.5 231.5t186.5 127.5t234 41.5q68 0 231.5 -12t256.5 -12h458l49 -533h-38q-15 115 -29.5 194t-31.5 134.5t-32.5 87.5t-40 49t-47.5 22t-59 5h-219v-609h164q30 0 46 4t30 17.5t16.5 39.5t5 70
t-3.5 109h41l41 -541h-41q-6 50 -9.5 80.5t-9 61t-10 46.5t-13 31.5t-16 21.5t-21.5 11.5t-27.5 6.5t-35.5 1h-157v-702h243q34 0 56 5t46 22.5t40.5 51.5t34 91t32 142t29.5 204h43l-51 -557h-483q-93 0 -256.5 -12.5t-231.5 -12.5zM459 717q0 -378 46.5 -539.5
t153.5 -161.5q78 0 117 64v1274q-21 35 -48 49t-69 14q-107 0 -153.5 -161t-46.5 -539z" />
    <glyph glyph-name="oe" unicode="&#x153;" horiz-adv-x="1662" 
d="M559 -25q-246 0 -380 141t-134 396t134 396t380 141q198 0 326 -93q123 93 299 93q197 0 309.5 -107t112.5 -309h-535l2 -53q0 -6 1 -19.5t1 -19.5q14 -207 79.5 -315.5t178.5 -108.5q177 0 258 274l39 -8q-51 -217 -166 -312.5t-293 -95.5q-173 0 -290 88
q-130 -88 -322 -88zM424 512q0 -285 26 -390.5t109 -105.5q84 0 110.5 105.5t26.5 390.5t-26.5 390.5t-110.5 105.5q-82 0 -108.5 -107t-26.5 -389zM1071 674h221q0 185 -22 259.5t-80 74.5q-64 0 -90.5 -82t-28.5 -252z" />
    <glyph glyph-name="Racute" unicode="&#x154;" horiz-adv-x="1294" 
d="M59 0v37q46 11 65 44.5t19 106.5v1057q0 73 -19 107.5t-65 46.5v35h113q152 1 303.5 11.5t192.5 10.5q218 0 329 -74.5t111 -240.5q0 -283 -317 -344q90 -14 149.5 -40t96.5 -72.5t54.5 -107.5t24.5 -153q18 -223 28 -274.5t38 -51.5q24 0 37.5 33.5t21.5 134.5l41 -4
q-11 -156 -67 -221.5t-185 -65.5q-144 0 -207 86t-78 293q-21 246 -32 304q-21 98 -69 116q-15 6 -34 6h-4q-40 0 -94 11v-603q0 -73 19 -106.5t65 -44.5v-37h-537zM354 1585l215 144q127 81 192.5 49.5t65.5 -158.5l-462 -61zM512 831q39 -10 80 -10q153 0 153 312
q0 141 -36.5 211.5t-116.5 70.5q-47 0 -80 -10v-574z" />
    <glyph glyph-name="racute" unicode="&#x155;" horiz-adv-x="976" 
d="M739 686q-35 0 -61 11t-41 27t-26 40t-15.5 44t-10.5 44.5t-10 36.5q-5 25 -36 -7q-21 -23 -70 -87v-607q0 -73 40 -106.5t136 -44.5v-37h-618v37q46 11 66 44.5t20 106.5v598q0 72 -19.5 106t-66.5 46v37h114q129 0 197.5 13.5t110.5 60.5h20v-189q72 98 130.5 143.5
t125.5 45.5q37 0 63.5 -13.5t38.5 -29.5t28 -29.5t34 -13.5q19 0 51 28l14 -30q-39 -275 -215 -275zM246 1217l215 143q127 81 192.5 49.5t65.5 -158.5l-463 -61z" />
    <glyph glyph-name="uni0156" unicode="&#x156;" horiz-adv-x="1294" 
d="M59 0v37q46 11 65 44.5t19 106.5v1057q0 73 -19 107.5t-65 46.5v35h113q152 1 303.5 11.5t192.5 10.5q218 0 329 -74.5t111 -240.5q0 -283 -317 -344q90 -14 149.5 -40t96.5 -72.5t54.5 -107.5t24.5 -153q18 -223 28 -274.5t38 -51.5q24 0 37.5 33.5t21.5 134.5l41 -4
q-11 -156 -67 -221.5t-185 -65.5q-144 0 -207 86t-78 293q-21 246 -32 304q-21 98 -69 116q-15 6 -34 6h-4q-40 0 -94 11v-603q0 -73 19 -106.5t65 -44.5v-37h-537zM502 -242q0 49 39.5 78t101.5 29q72 0 113 -37.5t41 -103.5q0 -150 -234 -222l-20 31q65 26 86.5 46.5
t21.5 39.5q0 22 -23.5 34.5t-51 17.5t-51 26.5t-23.5 60.5zM512 831q39 -10 80 -10q153 0 153 312q0 141 -36.5 211.5t-116.5 70.5q-47 0 -80 -10v-574z" />
    <glyph glyph-name="uni0157" unicode="&#x157;" horiz-adv-x="976" 
d="M739 686q-35 0 -61 11t-41 27t-26 40t-15.5 44t-10.5 44.5t-10 36.5q-5 25 -36 -7q-21 -23 -70 -87v-607q0 -73 40 -106.5t136 -44.5v-37h-618v37q46 11 66 44.5t20 106.5v598q0 72 -19.5 106t-66.5 46v37h114q129 0 197.5 13.5t110.5 60.5h20v-189q72 98 130.5 143.5
t125.5 45.5q37 0 63.5 -13.5t38.5 -29.5t28 -29.5t34 -13.5q19 0 51 28l14 -30q-39 -275 -215 -275zM141 -242q0 49 39.5 78t102.5 29q72 0 112.5 -37.5t40.5 -103.5q0 -150 -233 -222l-21 31q109 44 109 86q0 22 -23.5 34.5t-51.5 17.5t-51.5 26.5t-23.5 60.5z" />
    <glyph glyph-name="Rcaron" unicode="&#x158;" horiz-adv-x="1294" 
d="M59 0v37q46 11 65 44.5t19 106.5v1057q0 73 -19 107.5t-65 46.5v35h113q152 1 303.5 11.5t192.5 10.5q218 0 329 -74.5t111 -240.5q0 -283 -317 -344q90 -14 149.5 -40t96.5 -72.5t54.5 -107.5t24.5 -153q18 -223 28 -274.5t38 -51.5q24 0 37.5 33.5t21.5 134.5l41 -4
q-11 -156 -67 -221.5t-185 -65.5q-144 0 -207 86t-78 293q-21 246 -32 304q-21 98 -69 116q-15 6 -34 6h-4q-40 0 -94 11v-603q0 -73 19 -106.5t65 -44.5v-37h-537zM303 1786l27 26l258 -104l262 104l27 -26l-205 -205q-42 -45 -84 -45t-84 45zM512 831q39 -10 80 -10
q153 0 153 312q0 141 -36.5 211.5t-116.5 70.5q-47 0 -80 -10v-574z" />
    <glyph glyph-name="rcaron" unicode="&#x159;" horiz-adv-x="976" 
d="M739 686q-35 0 -61 11t-41 27t-26 40t-15.5 44t-10.5 44.5t-10 36.5q-5 25 -36 -7q-21 -23 -70 -87v-607q0 -73 40 -106.5t136 -44.5v-37h-618v37q46 11 66 44.5t20 106.5v598q0 72 -19.5 106t-66.5 46v37h114q129 0 197.5 13.5t110.5 60.5h20v-189q72 98 130.5 143.5
t125.5 45.5q37 0 63.5 -13.5t38.5 -29.5t28 -29.5t34 -13.5q19 0 51 28l14 -30q-39 -275 -215 -275zM195 1417l26 27l258 -105l262 105l27 -27l-205 -205q-42 -45 -84 -45t-84 45z" />
    <glyph glyph-name="Sacute" unicode="&#x15a;" horiz-adv-x="1036" 
d="M109 557q89 -541 350 -541q76 0 113.5 45t37.5 121q0 58 -18 115t-59 121.5t-84.5 119.5t-116.5 140q-71 80 -111.5 130t-83 113.5t-61.5 120.5t-19 115q0 136 119 218.5t328 82.5q60 0 178 -13t184 -13l54 -531h-41q-21 127 -47.5 220t-55 149.5t-64 89.5t-69.5 45
t-78 12q-67 0 -103 -34t-36 -95q0 -81 59 -177.5t183 -238.5q64 -72 101.5 -116t83 -106t69 -110t40.5 -106.5t17 -116.5q0 -168 -116 -255t-337 -87q-64 0 -193.5 13.5t-213.5 13.5l-51 555h41zM268 1610l215 143q127 81 192.5 50t65.5 -158l-462 -62z" />
    <glyph glyph-name="sacute" unicode="&#x15b;" horiz-adv-x="907" 
d="M84 408q26 -100 54.5 -172t55.5 -114t59 -66t60.5 -32t65.5 -8q57 0 82.5 28.5t25.5 74.5q0 37 -14 74.5t-48 85t-62 80.5t-84 96q-107 109 -156 186.5t-49 165.5q0 124 97.5 183t266.5 59q73 0 179 -13.5t157 -13.5l55 -365h-38q-22 95 -47.5 162t-48.5 103.5
t-52.5 56.5t-51 24.5t-52.5 4.5q-43 0 -68 -21.5t-25 -56.5q0 -58 50.5 -134t152.5 -184q111 -116 160 -194t49 -168q0 -275 -397 -275q-90 0 -207.5 13.5t-159.5 13.5l-51 406h41zM221 1217l215 143q128 81 193 49.5t65 -158.5l-463 -61z" />
    <glyph glyph-name="Scedilla" unicode="&#x15e;" horiz-adv-x="1036" 
d="M109 557q89 -541 350 -541q76 0 113.5 45t37.5 121q0 58 -18 115t-59 121.5t-84.5 119.5t-116.5 140q-71 80 -111.5 130t-83 113.5t-61.5 120.5t-19 115q0 136 119 218.5t328 82.5q60 0 178 -13t184 -13l54 -531h-41q-21 127 -47.5 220t-55 149.5t-64 89.5t-69.5 45
t-78 12q-67 0 -103 -34t-36 -95q0 -81 59 -177.5t183 -238.5q64 -72 101.5 -116t83 -106t69 -110t40.5 -106.5t17 -116.5q0 -168 -116 -255t-337 -87h-37l-32 -84q295 -9 295 -167q0 -77 -67 -114.5t-173 -37.5q-36 0 -81 7t-73 7l-36 230h43q18 -88 35.5 -135t33 -61.5
t37.5 -14.5q53 0 53 78q0 61 -31.5 115t-80.5 71v20l34 88q-32 3 -95 10t-119 11t-113 4l-51 555h41z" />
    <glyph glyph-name="scedilla" unicode="&#x15f;" horiz-adv-x="907" 
d="M84 408q26 -100 54.5 -172t55.5 -114t59 -66t60.5 -32t65.5 -8q57 0 82.5 28.5t25.5 74.5q0 37 -14 74.5t-48 85t-62 80.5t-84 96q-107 109 -156 186.5t-49 165.5q0 124 97.5 183t266.5 59q73 0 179 -13.5t157 -13.5l55 -365h-38q-22 95 -47.5 162t-48.5 103.5
t-52.5 56.5t-51 24.5t-52.5 4.5q-43 0 -68 -21.5t-25 -56.5q0 -58 50.5 -134t152.5 -184q111 -116 160 -194t49 -168q0 -272 -385 -275l-33 -84q295 -9 295 -167q0 -77 -66.5 -114.5t-172.5 -37.5q-36 0 -81 7t-73 7l-37 230h43q26 -127 49.5 -169t57.5 -42q53 0 53 78
q0 61 -32 115t-81 71v20l33 86q-75 2 -182 14.5t-152 12.5l-51 406h41z" />
    <glyph glyph-name="Scaron" unicode="&#x160;" horiz-adv-x="1036" 
d="M109 557q89 -541 350 -541q76 0 113.5 45t37.5 121q0 58 -18 115t-59 121.5t-84.5 119.5t-116.5 140q-71 80 -111.5 130t-83 113.5t-61.5 120.5t-19 115q0 136 119 218.5t328 82.5q60 0 178 -13t184 -13l54 -531h-41q-21 127 -47.5 220t-55 149.5t-64 89.5t-69.5 45
t-78 12q-67 0 -103 -34t-36 -95q0 -81 59 -177.5t183 -238.5q64 -72 101.5 -116t83 -106t69 -110t40.5 -106.5t17 -116.5q0 -168 -116 -255t-337 -87q-64 0 -193.5 13.5t-213.5 13.5l-51 555h41zM219 1810l27 27l258 -104l262 104l27 -27l-205 -204q-42 -45 -84 -45t-84 45z
" />
    <glyph glyph-name="scaron" unicode="&#x161;" horiz-adv-x="907" 
d="M84 408q26 -100 54.5 -172t55.5 -114t59 -66t60.5 -32t65.5 -8q57 0 82.5 28.5t25.5 74.5q0 37 -14 74.5t-48 85t-62 80.5t-84 96q-107 109 -156 186.5t-49 165.5q0 124 97.5 183t266.5 59q73 0 179 -13.5t157 -13.5l55 -365h-38q-22 95 -47.5 162t-48.5 103.5
t-52.5 56.5t-51 24.5t-52.5 4.5q-43 0 -68 -21.5t-25 -56.5q0 -58 50.5 -134t152.5 -184q111 -116 160 -194t49 -168q0 -275 -397 -275q-90 0 -207.5 13.5t-159.5 13.5l-51 406h41zM170 1417l27 27l258 -105l262 105l26 -27l-204 -205q-42 -45 -84 -45t-84 45z" />
    <glyph glyph-name="uni0162" unicode="&#x162;" horiz-adv-x="1146" 
d="M1075 1434l49 -533h-41q-36 224 -69 329t-68.5 134t-103.5 29h-84v-1205q0 -73 19 -106.5t65 -44.5v-37h-285l-43 -109q295 -9 295 -167q0 -77 -67 -114.5t-173 -37.5q-36 0 -80.5 7t-72.5 7l-37 230h43q18 -88 35.5 -135t33 -61.5t37.5 -14.5q54 0 54 78q0 61 -32 115
t-81 71v20l43 111h-205v37q45 11 64.5 45t19.5 106v1205h-86q-51 0 -80.5 -13.5t-59 -64.5t-52.5 -148t-50 -266h-40l51 533h1001z" />
    <glyph glyph-name="uni0163" unicode="&#x163;" horiz-adv-x="733" 
d="M20 1024q117 1 197.5 21.5t130 64.5t75.5 99.5t42 138.5h33v-324h194v-41q-87 0 -127 -9t-53.5 -29.5t-13.5 -67.5v-562q0 -51 1.5 -79.5t7 -55t18 -37t32.5 -10.5q38 0 63.5 60.5t47.5 199.5l37 -14q-15 -105 -33.5 -172t-52 -123.5t-87 -82.5t-131.5 -26h-18l-33 -84
q295 -9 295 -167q0 -77 -66.5 -114.5t-172.5 -37.5q-36 0 -81 7t-73 7l-37 230h43q26 -127 49.5 -169t57.5 -42q53 0 53 78q0 61 -32 115t-81 71v20l35 91q-114 18 -155.5 106t-41.5 268v523q0 37 -2.5 54t-15.5 31t-36.5 17.5t-68.5 3.5v41z" />
    <glyph glyph-name="Tcaron" unicode="&#x164;" horiz-adv-x="1146" 
d="M1075 1434l49 -533h-41q-36 224 -69 329t-68.5 134t-103.5 29h-84v-1205q0 -73 19 -106.5t65 -44.5v-37h-535v37q45 11 64.5 45t19.5 106v1205h-86q-51 0 -80.5 -13.5t-59 -64.5t-52.5 -148t-50 -266h-40l51 533h1001zM287 1786l26 26l258 -104l263 104l26 -26l-205 -205
q-42 -45 -84 -45t-84 45z" />
    <glyph glyph-name="tcaron" unicode="&#x165;" horiz-adv-x="966" 
d="M20 1024q117 1 197.5 21.5t130 64.5t75.5 99.5t42 138.5h33v-324h194v-41q-87 0 -127 -9t-53.5 -29.5t-13.5 -67.5v-562q0 -51 1.5 -79.5t7 -55t18 -37t32.5 -10.5q38 0 63.5 60.5t47.5 199.5l37 -14q-15 -105 -33.5 -172t-52 -123.5t-87 -82.5t-131.5 -26q-79 0 -130 23
t-79 73t-38.5 116t-10.5 167v523q0 37 -2.5 54t-15.5 31t-36.5 17.5t-68.5 3.5v41zM621 1380q0 49 39 79t102 30q71 0 112 -38.5t41 -104.5q0 -81 -64.5 -135t-170.5 -85l-21 31q109 42 109 84q0 22 -23 34.5t-50.5 17.5t-50.5 26.5t-23 60.5z" />
    <glyph glyph-name="Tbar" unicode="&#x166;" horiz-adv-x="1169" 
d="M1075 1434l49 -533h-41q-36 224 -69 329t-68.5 134t-103.5 29h-84v-744h229v-41h-229v-420q0 -73 19 -106.5t65 -44.5v-37h-535v37q45 11 64.5 45t19.5 106v420h-227v41h227v744h-86q-51 0 -80.5 -13.5t-59 -64.5t-52.5 -148t-50 -266h-40l51 533h1001z" />
    <glyph glyph-name="tbar" unicode="&#x167;" horiz-adv-x="733" 
d="M20 1024q117 1 197.5 21.5t130 64.5t75.5 99.5t42 138.5h33v-324h194v-41q-87 0 -127 -9t-53.5 -29.5t-13.5 -67.5v-228h194v-41h-194v-293q0 -51 1.5 -79.5t7 -55t18 -37t32.5 -10.5q38 0 63.5 60.5t47.5 199.5l37 -14q-15 -105 -33.5 -172t-52 -123.5t-87 -82.5
t-131.5 -26q-79 0 -130 23t-79 73t-38.5 116t-10.5 167v254h-123v41h123v228q0 37 -2.5 54t-15.5 31t-36.5 17.5t-68.5 3.5v41z" />
    <glyph glyph-name="Umacron" unicode="&#x16a;" horiz-adv-x="1161" 
d="M117 1245q0 73 -19 107.5t-65 46.5v35h534v-35q-45 -12 -64.5 -47t-19.5 -107v-762q0 -374 265 -374q121 0 188.5 90t67.5 282v764q0 73 -18.5 107.5t-63.5 46.5v35h206v-35q-45 -12 -64.5 -47t-19.5 -107v-782q0 -247 -110 -367.5t-332 -120.5q-224 0 -354.5 132
t-130.5 397v741zM338 1630v92h551v-92h-551z" />
    <glyph glyph-name="umacron" unicode="&#x16b;" horiz-adv-x="1247" 
d="M461 1051h20v-795q0 -152 99 -152q81 0 188 107v575q0 73 -20 107.5t-66 46.5v35h115q127 0 195 14t110 62h20v-811q0 -73 20 -107t66 -45v-37h-114q-127 0 -195.5 -14t-110.5 -62h-20v177q-144 -179 -348 -179q-136 0 -215.5 75.5t-79.5 244.5v493q0 73 -19.5 107.5
t-66.5 46.5v35h115q129 0 197 14t110 62zM352 1262v92h551v-92h-551z" />
    <glyph glyph-name="Uring" unicode="&#x16e;" horiz-adv-x="1161" 
d="M117 1245q0 73 -19 107.5t-65 46.5v35h534v-35q-45 -12 -64.5 -47t-19.5 -107v-762q0 -374 265 -374q121 0 188.5 90t67.5 282v764q0 73 -18.5 107.5t-63.5 46.5v35h206v-35q-45 -12 -64.5 -47t-19.5 -107v-782q0 -247 -110 -367.5t-332 -120.5q-224 0 -354.5 132
t-130.5 397v741zM434 1683q0 64 50.5 107t129.5 43q78 0 129.5 -43.5t51.5 -106.5q0 -64 -51.5 -106.5t-129.5 -42.5q-79 0 -129.5 42t-50.5 107zM479 1683q0 -48 37.5 -80t97.5 -32q59 0 97.5 32t38.5 80t-38 79.5t-98 31.5q-61 0 -98 -31.5t-37 -79.5z" />
    <glyph glyph-name="uring" unicode="&#x16f;" horiz-adv-x="1247" 
d="M461 1051h20v-795q0 -152 99 -152q81 0 188 107v575q0 73 -20 107.5t-66 46.5v35h115q127 0 195 14t110 62h20v-811q0 -73 20 -107t66 -45v-37h-114q-127 0 -195.5 -14t-110.5 -62h-20v177q-144 -179 -348 -179q-136 0 -215.5 75.5t-79.5 244.5v493q0 73 -19.5 107.5
t-66.5 46.5v35h115q129 0 197 14t110 62zM446 1315q0 64 51 106.5t130 42.5q78 0 129 -43t51 -106q0 -65 -51 -107.5t-129 -42.5q-79 0 -130 42.5t-51 107.5zM492 1315q0 -48 37.5 -80.5t97.5 -32.5q59 0 97 32.5t38 80.5t-37.5 79t-97.5 31q-61 0 -98 -31t-37 -79z" />
    <glyph glyph-name="Uhungarumlaut" unicode="&#x170;" horiz-adv-x="1161" 
d="M117 1245q0 73 -19 107.5t-65 46.5v35h534v-35q-45 -12 -64.5 -47t-19.5 -107v-762q0 -374 265 -374q121 0 188.5 90t67.5 282v764q0 73 -18.5 107.5t-63.5 46.5v35h206v-35q-45 -12 -64.5 -47t-19.5 -107v-782q0 -247 -110 -367.5t-332 -120.5q-224 0 -354.5 132
t-130.5 397v741zM440 1536l19 190q15 157 200 76l-174 -284zM676 1536l20 190q7 59 36.5 83.5t69 20t93.5 -27.5l-174 -284z" />
    <glyph glyph-name="uhungarumlaut" unicode="&#x171;" horiz-adv-x="1247" 
d="M461 1051h20v-795q0 -152 99 -152q81 0 188 107v575q0 73 -20 107.5t-66 46.5v35h115q127 0 195 14t110 62h20v-811q0 -73 20 -107t66 -45v-37h-114q-127 0 -195.5 -14t-110.5 -62h-20v177q-144 -179 -348 -179q-136 0 -215.5 75.5t-79.5 244.5v493q0 73 -19.5 107.5
t-66.5 46.5v35h115q129 0 197 14t110 62zM455 1167l18 191q15 157 201 76l-174 -285zM690 1167l21 191q5 45 22.5 70t45 30.5t59 -1t71.5 -23.5l-174 -285z" />
    <glyph glyph-name="Uogonek" unicode="&#x172;" horiz-adv-x="1161" 
d="M117 1245q0 73 -19 107.5t-65 46.5v35h534v-35q-45 -12 -64.5 -47t-19.5 -107v-762q0 -374 265 -374q121 0 188.5 90t67.5 282v764q0 73 -18.5 107.5t-63.5 46.5v35h206v-35q-45 -12 -64.5 -47t-19.5 -107v-782q0 -372 -256 -461q-70 -57 -112.5 -128t-42.5 -138
q0 -42 22 -69t64 -27q49 0 84 37.5t63 119.5l37 -18q-39 -107 -103 -164t-179 -57q-95 0 -155 45t-60 129q0 144 247 245q-16 -2 -51 -2q-224 0 -354.5 132t-130.5 397v741z" />
    <glyph glyph-name="uogonek" unicode="&#x173;" horiz-adv-x="1247" 
d="M461 1051h20v-795q0 -152 99 -152q81 0 188 107v575q0 73 -20 107.5t-66 46.5v35h115q127 0 195 14t110 62h20v-811q0 -73 20 -107t66 -45v-37h-114q-176 0 -244 -31h2q-75 -59 -121.5 -132.5t-46.5 -143.5q0 -42 22 -69t64 -27q49 0 84.5 37.5t63.5 119.5l36 -18
q-39 -107 -103 -164t-179 -57q-95 0 -155 45t-60 129q0 48 26 90.5t73.5 75.5t97.5 57t114 47v142q-144 -179 -348 -179q-136 0 -215.5 75.5t-79.5 244.5v493q0 73 -19.5 107.5t-66.5 46.5v35h115q129 0 197 14t110 62z" />
    <glyph glyph-name="Wcircumflex" unicode="&#x174;" horiz-adv-x="1830" 
d="M713 -25h-156l-395 1278q-22 66 -57 99.5t-85 46.5v35h1209v-37q-54 -7 -67 -41t7 -101l234 -770l227 770q21 66 7.5 99t-72.5 43v37h245v-35q-49 -13 -82.5 -46t-54.5 -100l-370 -1278h-156l-223 725zM580 1255l233 -770l86 293l-147 477q-20 71 -47 106.5t-72 35.5
q-94 0 -53 -142zM633 1571l201 205q42 45 84 45q41 0 83 -45l205 -205l-26 -27l-262 105l-259 -105z" />
    <glyph glyph-name="wcircumflex" unicode="&#x175;" horiz-adv-x="1685" 
d="M170 848q-23 64 -60.5 95.5t-89.5 45.5v35h1192v-37q-59 -10 -69 -41.5t16 -95.5l174 -492l148 488q23 67 10.5 99t-72.5 42v37h246v-35q-105 -27 -141 -145l-275 -869h-164l-231 625l-197 -625h-163zM559 1202l201 205q42 45 84 45t84 -45l205 -205l-27 -26l-262 104
l-258 -104zM569 850l172 -492l93 299l-72 193q-25 70 -55.5 103.5t-77.5 33.5q-51 0 -66.5 -36.5t6.5 -100.5z" />
    <glyph glyph-name="Ycircumflex" unicode="&#x176;" horiz-adv-x="1214" 
d="M1001 1257q27 69 16.5 99.5t-73.5 42.5v35h250v-35q-50 -14 -87 -46t-60 -96l-224 -614v-455q0 -73 19 -106.5t65 -44.5v-37h-536v37q46 11 65 44.5t19 106.5v377l-279 695q-45 110 -156 139v35h644v-35q-64 -12 -74 -42.5t18 -99.5l197 -534zM369 1571l200 205
q42 45 84 45t84 -45l205 -205l-27 -27l-262 105l-258 -105z" />
    <glyph glyph-name="ycircumflex" unicode="&#x177;" horiz-adv-x="1071" 
d="M403 -438q-34 0 -85.5 13t-90.5 13l-61 392h41q29 -124 54.5 -201.5t50.5 -115t45.5 -49t50.5 -11.5q54 0 87.5 49t71.5 178l43 145h-141l-303 871q-39 115 -146 143v35h611v-35q-64 -12 -76.5 -43t12.5 -100l158 -481l143 479q24 70 10.5 101.5t-79.5 43.5v35h252v-35
q-50 -13 -85 -46t-55 -99l-311 -1047q-16 -52 -27.5 -83t-28.5 -63.5t-35.5 -49.5t-45 -28t-60.5 -11zM305 1202l201 205q42 45 84 45t84 -45l205 -205l-27 -26l-262 104l-258 -104z" />
    <glyph glyph-name="Ydieresis" unicode="&#x178;" horiz-adv-x="1214" 
d="M1001 1257q27 69 16.5 99.5t-73.5 42.5v35h250v-35q-50 -14 -87 -46t-60 -96l-224 -614v-455q0 -73 19 -106.5t65 -44.5v-37h-536v37q46 11 65 44.5t19 106.5v377l-279 695q-45 110 -156 139v35h644v-35q-64 -12 -74 -42.5t18 -99.5l197 -534zM307 1686q0 62 41 97.5
t113 35.5q70 0 110.5 -35.5t40.5 -97.5q0 -63 -40.5 -99.5t-110.5 -36.5q-72 0 -113 36.5t-41 99.5zM700 1686q0 62 41 97.5t113 35.5q71 0 112.5 -36t41.5 -97q0 -63 -41.5 -99.5t-112.5 -36.5q-72 0 -113 36.5t-41 99.5z" />
    <glyph glyph-name="Zacute" unicode="&#x179;" horiz-adv-x="1073" 
d="M682 41q41 0 68.5 8t58 37t52.5 84t43.5 151t39.5 236h43l-53 -557h-860v41l495 1352h-168q-45 0 -74 -8t-59 -35.5t-51 -80.5t-41.5 -143.5t-38.5 -224.5h-41l51 533h848v-41l-495 -1352h182zM332 1610l215 143q127 81 192.5 50t65.5 -158l-463 -62z" />
    <glyph glyph-name="zacute" unicode="&#x17a;" horiz-adv-x="927" 
d="M610 41q43 0 68.5 6.5t50 26t42 62t35 106.5t38.5 168h41l-54 -410h-788v41l418 942h-121q-54 0 -84 -9t-58 -44.5t-48 -97t-46 -175.5h-41l56 367h749v-41l-415 -942h157zM252 1217l215 143q127 81 192.5 49.5t65.5 -158.5l-463 -61z" />
    <glyph glyph-name="Zdotaccent" unicode="&#x17b;" horiz-adv-x="1073" 
d="M682 41q41 0 68.5 8t58 37t52.5 84t43.5 151t39.5 236h43l-53 -557h-860v41l495 1352h-168q-45 0 -74 -8t-59 -35.5t-51 -80.5t-41.5 -143.5t-38.5 -224.5h-41l51 533h848v-41l-495 -1352h182zM389 1712q0 62 48 97.5t132 35.5t131.5 -35.5t47.5 -97.5q0 -63 -47 -98
t-132 -35t-132.5 35t-47.5 98z" />
    <glyph glyph-name="zdotaccent" unicode="&#x17c;" horiz-adv-x="927" 
d="M610 41q43 0 68.5 6.5t50 26t42 62t35 106.5t38.5 168h41l-54 -410h-788v41l418 942h-121q-54 0 -84 -9t-58 -44.5t-48 -97t-46 -175.5h-41l56 367h749v-41l-415 -942h157zM309 1319q0 62 48 97.5t132 35.5t131.5 -35.5t47.5 -97.5q0 -63 -47 -98t-132 -35t-132.5 35
t-47.5 98z" />
    <glyph glyph-name="Zcaron" unicode="&#x17d;" horiz-adv-x="1073" 
d="M682 41q41 0 68.5 8t58 37t52.5 84t43.5 151t39.5 236h43l-53 -557h-860v41l495 1352h-168q-45 0 -74 -8t-59 -35.5t-51 -80.5t-41.5 -143.5t-38.5 -224.5h-41l51 533h848v-41l-495 -1352h182zM281 1810l26 27l258 -104l262 104l27 -27l-205 -204q-42 -45 -84 -45t-84 45
z" />
    <glyph glyph-name="zcaron" unicode="&#x17e;" horiz-adv-x="927" 
d="M610 41q43 0 68.5 6.5t50 26t42 62t35 106.5t38.5 168h41l-54 -410h-788v41l418 942h-121q-54 0 -84 -9t-58 -44.5t-48 -97t-46 -175.5h-41l56 367h749v-41l-415 -942h157zM201 1417l26 27l258 -105l263 105l26 -27l-205 -205q-42 -45 -84 -45t-84 45z" />
    <glyph glyph-name="uni0218" unicode="&#x218;" horiz-adv-x="1036" 
d="M109 557q89 -541 350 -541q76 0 113.5 45t37.5 121q0 58 -18 115t-59 121.5t-84.5 119.5t-116.5 140q-71 80 -111.5 130t-83 113.5t-61.5 120.5t-19 115q0 136 119 218.5t328 82.5q60 0 178 -13t184 -13l54 -531h-41q-21 127 -47.5 220t-55 149.5t-64 89.5t-69.5 45
t-78 12q-67 0 -103 -34t-36 -95q0 -81 59 -177.5t183 -238.5q64 -72 101.5 -116t83 -106t69 -110t40.5 -106.5t17 -116.5q0 -168 -116 -255t-337 -87q-64 0 -193.5 13.5t-213.5 13.5l-51 555h41zM367 -242q0 49 39.5 78t101.5 29q72 0 113 -37.5t41 -103.5q0 -150 -234 -222
l-20 31q65 26 86.5 46.5t21.5 39.5q0 22 -23.5 34.5t-51 17.5t-51 26.5t-23.5 60.5z" />
    <glyph glyph-name="uni0219" unicode="&#x219;" horiz-adv-x="907" 
d="M84 408q26 -100 54.5 -172t55.5 -114t59 -66t60.5 -32t65.5 -8q57 0 82.5 28.5t25.5 74.5q0 37 -14 74.5t-48 85t-62 80.5t-84 96q-107 109 -156 186.5t-49 165.5q0 124 97.5 183t266.5 59q73 0 179 -13.5t157 -13.5l55 -365h-38q-22 95 -47.5 162t-48.5 103.5
t-52.5 56.5t-51 24.5t-52.5 4.5q-43 0 -68 -21.5t-25 -56.5q0 -58 50.5 -134t152.5 -184q111 -116 160 -194t49 -168q0 -275 -397 -275q-90 0 -207.5 13.5t-159.5 13.5l-51 406h41zM350 -242q0 49 39.5 78t102.5 29q72 0 112.5 -37.5t40.5 -103.5q0 -150 -233 -222l-21 31
q109 44 109 86q0 22 -23.5 34.5t-51.5 17.5t-51.5 26.5t-23.5 60.5z" />
    <glyph glyph-name="uni021A" unicode="&#x21a;" horiz-adv-x="1146" 
d="M1075 1434l49 -533h-41q-36 224 -69 329t-68.5 134t-103.5 29h-84v-1205q0 -73 19 -106.5t65 -44.5v-37h-535v37q45 11 64.5 45t19.5 106v1205h-86q-51 0 -80.5 -13.5t-59 -64.5t-52.5 -148t-50 -266h-40l51 533h1001zM424 -242q0 49 39.5 78t101.5 29q72 0 113 -37.5
t41 -103.5q0 -150 -234 -222l-20 31q65 26 86.5 46.5t21.5 39.5q0 22 -23.5 34.5t-51 17.5t-51 26.5t-23.5 60.5z" />
    <glyph glyph-name="uni021B" unicode="&#x21b;" horiz-adv-x="733" 
d="M20 1024q117 1 197.5 21.5t130 64.5t75.5 99.5t42 138.5h33v-324h194v-41q-87 0 -127 -9t-53.5 -29.5t-13.5 -67.5v-562q0 -51 1.5 -79.5t7 -55t18 -37t32.5 -10.5q38 0 63.5 60.5t47.5 199.5l37 -14q-15 -105 -33.5 -172t-52 -123.5t-87 -82.5t-131.5 -26q-79 0 -130 23
t-79 73t-38.5 116t-10.5 167v523q0 37 -2.5 54t-15.5 31t-36.5 17.5t-68.5 3.5v41zM258 -242q0 49 39.5 78t101.5 29q72 0 113 -37.5t41 -103.5q0 -150 -234 -222l-20 31q109 44 109 86q0 22 -23.5 34.5t-51.5 17.5t-51.5 26.5t-23.5 60.5z" />
    <glyph glyph-name="uni0237" unicode="&#x237;" horiz-adv-x="557" 
d="M131 786q0 73 -19.5 107.5t-66.5 46.5v35h115q129 0 197 14t110 62h20v-1041q0 -68 -1.5 -113t-7.5 -96t-17.5 -83.5t-31 -64t-47.5 -49t-68 -28t-93 -10.5q-58 0 -125.5 13t-95.5 13l-49 385h39q21 -101 42 -172t37.5 -109t36.5 -58.5t33.5 -25.5t32.5 -5q61 0 61 102
q0 53 -16 106.5t-35 93t-35 101.5t-16 129v647z" />
    <glyph glyph-name="circumflex" unicode="&#x2c6;" horiz-adv-x="688" 
d="M342 1452q42 0 84 -45l205 -205l-27 -26l-262 104l-258 -104l-27 26l201 205q42 45 84 45z" />
    <glyph glyph-name="caron" unicode="&#x2c7;" horiz-adv-x="667" 
d="M342 1167q-42 0 -84 45l-201 205l27 27l258 -105l262 105l27 -27l-205 -205q-42 -45 -84 -45z" />
    <glyph glyph-name="breve" unicode="&#x2d8;" horiz-adv-x="616" 
d="M307 1167q-123 0 -185 79.5t-65 215.5h41q14 -61 67.5 -96t141.5 -35t142.5 35.5t70.5 95.5h41q-3 -135 -67 -215t-187 -80z" />
    <glyph glyph-name="dotaccent" unicode="&#x2d9;" horiz-adv-x="456" 
d="M229 1186q-85 0 -132.5 35t-47.5 98q0 62 48 97.5t132 35.5t131.5 -35.5t47.5 -97.5q0 -63 -47 -98t-132 -35z" />
    <glyph glyph-name="ring" unicode="&#x2da;" horiz-adv-x="454" 
d="M225 1165q-79 0 -129.5 42.5t-50.5 107.5q0 64 50.5 106.5t129.5 42.5q78 0 129.5 -43t51.5 -106q0 -65 -51.5 -107.5t-129.5 -42.5zM90 1315q0 -48 37.5 -80.5t97.5 -32.5q59 0 97 32.5t38 80.5t-37.5 79t-97.5 31q-61 0 -98 -31t-37 -79z" />
    <glyph glyph-name="ogonek" unicode="&#x2db;" horiz-adv-x="641" 
d="M442 8q-75 -60 -121.5 -133t-46.5 -143q0 -42 22 -69.5t64 -27.5q49 0 84.5 38t63.5 120l37 -18q-39 -107 -103.5 -164t-179.5 -57q-95 0 -155 45t-60 129q0 54 32 100t91.5 81.5t114 58.5t129.5 48z" />
    <glyph glyph-name="tilde" unicode="&#x2dc;" horiz-adv-x="704" 
d="M647 1438q-28 -99 -75 -165.5t-115 -66.5q-43 0 -88 23.5t-85 47t-71 23.5q-35 0 -61 -20t-58 -63l-37 16q77 231 195 231q44 0 89.5 -23.5t85 -47t69.5 -23.5q35 0 57.5 18.5t56.5 65.5z" />
    <glyph glyph-name="hungarumlaut" unicode="&#x2dd;" horiz-adv-x="546" 
d="M266 1434l-174 -285l-45 18l19 191q15 157 200 76zM283 1167l20 191q7 59 36.5 83.5t69 20t93.5 -27.5l-174 -285z" />
    <glyph glyph-name="gravecomb" unicode="&#x300;" 
d="M61 1251q0 127 64.5 158.5t193.5 -49.5l216 -143l-11 -27z" />
    <glyph glyph-name="acutecomb" unicode="&#x301;" 
d="M535 1251l-463 -61l-11 27l215 143q128 81 193.5 49.5t65.5 -158.5z" />
    <glyph glyph-name="uni0302" unicode="&#x302;" 
d="M342 1452q42 0 84 -45l205 -205l-27 -26l-262 104l-258 -104l-27 26l201 205q42 45 84 45z" />
    <glyph glyph-name="tildecomb" unicode="&#x303;" 
d="M647 1438q-28 -99 -75 -165.5t-115 -66.5q-43 0 -88 23.5t-85 47t-71 23.5q-35 0 -61 -20t-58 -63l-37 16q77 231 195 231q44 0 89.5 -23.5t85 -47t69.5 -23.5q35 0 57.5 18.5t56.5 65.5z" />
    <glyph glyph-name="uni0304" unicode="&#x304;" 
d="M70 1354h551v-92h-551v92z" />
    <glyph glyph-name="uni0306" unicode="&#x306;" 
d="M307 1167q-123 0 -185 79.5t-65 215.5h41q14 -61 67.5 -96t141.5 -35t142.5 35.5t70.5 95.5h41q-3 -135 -67 -215t-187 -80z" />
    <glyph glyph-name="uni0307" unicode="&#x307;" 
d="M229 1186q-85 0 -132.5 35t-47.5 98q0 62 48 97.5t132 35.5t131.5 -35.5t47.5 -97.5q0 -63 -47 -98t-132 -35z" />
    <glyph glyph-name="uni0308" unicode="&#x308;" 
d="M596 1182q-72 0 -113 36t-41 99q0 62 41 97.5t113 35.5q71 0 112.5 -36t41.5 -97q0 -63 -41.5 -99t-112.5 -36zM49 1317q0 62 41 97.5t113 35.5q70 0 110.5 -35.5t40.5 -97.5q0 -63 -40.5 -99t-110.5 -36q-72 0 -113 36t-41 99z" />
    <glyph glyph-name="uni030A" unicode="&#x30a;" 
d="M225 1165q-79 0 -129.5 42.5t-50.5 107.5q0 64 50.5 106.5t129.5 42.5q78 0 129.5 -43t51.5 -106q0 -65 -51.5 -107.5t-129.5 -42.5zM90 1315q0 -48 37.5 -80.5t97.5 -32.5q59 0 97 32.5t38 80.5t-37.5 79t-97.5 31q-61 0 -98 -31t-37 -79z" />
    <glyph glyph-name="uni030B" unicode="&#x30b;" 
d="M266 1434l-174 -285l-45 18l19 191q15 157 200 76zM283 1167l20 191q7 59 36.5 83.5t69 20t93.5 -27.5l-174 -285z" />
    <glyph glyph-name="uni030C" unicode="&#x30c;" 
d="M342 1167q-42 0 -84 45l-201 205l27 27l258 -105l262 105l27 -27l-205 -205q-42 -45 -84 -45z" />
    <glyph glyph-name="uni0312" unicode="&#x312;" 
d="M211 1159q-72 0 -113 37.5t-41 103.5q0 150 234 222l20 -31q-65 -26 -86.5 -46.5t-21.5 -39.5q0 -22 23.5 -34.5t51 -17.5t51 -26.5t23.5 -60.5q0 -49 -39.5 -78t-101.5 -29z" />
    <glyph glyph-name="uni0326" unicode="&#x326;" 
d="M197 -125q72 0 112.5 -37.5t40.5 -103.5q0 -149 -233 -221l-21 30q109 44 109 86q0 18 -15.5 29t-37.5 17t-44 14t-37.5 28t-15.5 52q0 49 39.5 77.5t102.5 28.5z" />
    <glyph glyph-name="uni0327" unicode="&#x327;" 
d="M182 -109q295 -9 295 -167q0 -77 -66.5 -114.5t-172.5 -37.5q-36 0 -81 7t-73 7l-37 230h43q26 -127 49.5 -169t57.5 -42q53 0 53 78q0 61 -32 115t-81 71v20l43 111h45z" />
    <glyph glyph-name="uni0328" unicode="&#x328;" 
d="M442 8q-75 -60 -121.5 -133t-46.5 -143q0 -42 22 -69.5t64 -27.5q49 0 84.5 38t63.5 120l37 -18q-39 -107 -103.5 -164t-179.5 -57q-95 0 -155 45t-60 129q0 54 32 100t91.5 81.5t114 58.5t129.5 48z" />
    <glyph glyph-name="uni0337" unicode="&#x337;" 
d="M80 584l610 323l21 -35l-611 -323z" />
    <glyph glyph-name="uni0338" unicode="&#x338;" 
d="M88 -205h-43l404 1434h43z" />
    <glyph glyph-name="uni0400" unicode="&#x400;" horiz-adv-x="1077" 
d="M961 1434l51 -533h-41q-17 115 -32 194t-32.5 135t-33.5 87t-40 48.5t-47 22.5t-59 5h-215v-609h164q30 0 46 4t30 17.5t16.5 39.5t5 70t-3.5 109h41l41 -541h-41q-6 57 -11 90.5t-10.5 65.5t-13 47.5t-15.5 29t-22.5 18t-29.5 7t-39 2.5h-158v-702h240q51 0 80.5 13.5
t60 65t54 155.5t48.5 282h41l-49 -557h-928v37q46 11 65 44.5t19 106.5v1057q0 73 -19 107.5t-65 46.5v35h902zM338 1620q0 127 64.5 158.5t193.5 -49.5l215 -144l-10 -26z" />
    <glyph glyph-name="uni0401" unicode="&#x401;" horiz-adv-x="1077" 
d="M961 1434l51 -533h-41q-17 115 -32 194t-32.5 135t-33.5 87t-40 48.5t-47 22.5t-59 5h-215v-609h164q30 0 46 4t30 17.5t16.5 39.5t5 70t-3.5 109h41l41 -541h-41q-6 57 -11 90.5t-10.5 65.5t-13 47.5t-15.5 29t-22.5 18t-29.5 7t-39 2.5h-158v-702h240q51 0 80.5 13.5
t60 65t54 155.5t48.5 282h41l-49 -557h-928v37q46 11 65 44.5t19 106.5v1057q0 73 -19 107.5t-65 46.5v35h902zM225 1686q0 62 41 97.5t113 35.5q70 0 110.5 -35.5t40.5 -97.5q0 -63 -40.5 -99.5t-110.5 -36.5q-72 0 -113 36.5t-41 99.5zM618 1686q0 62 41 97.5t113 35.5
q71 0 112.5 -36t41.5 -97q0 -63 -41.5 -99.5t-112.5 -36.5q-72 0 -113 36.5t-41 99.5z" />
    <glyph glyph-name="uni0402" unicode="&#x402;" horiz-adv-x="1464" 
d="M907 39q33 1 55.5 18t37 47.5t22.5 84t11 116t3 154.5q0 96 -7.5 165.5t-20.5 111.5t-34 66.5t-43.5 33t-53.5 8.5q-68 0 -119 -51v-605q0 -73 19 -106.5t65 -44.5v-37h-535v37q45 11 64.5 45t19.5 106v1205h-86q-34 0 -56 -4.5t-45 -20.5t-39.5 -45t-34 -78.5
t-33.5 -120t-34 -172.5h-40l51 482h1001l49 -482h-41q-22 122 -41.5 200.5t-38.5 128t-44.5 73.5t-50.5 31.5t-66 7.5h-84v-551q86 61 260 61q68 0 127 -16t109.5 -51t87 -86t57 -125.5t20.5 -165.5q0 -240 -127 -353.5t-383 -105.5z" />
    <glyph glyph-name="uni0403" unicode="&#x403;" horiz-adv-x="1044" 
d="M59 0v37q46 11 65 44.5t19 106.5v1057q0 73 -19 107.5t-65 46.5v35h916l49 -553h-41q-15 102 -29.5 178t-29.5 131t-33.5 92t-36 59t-42.5 33.5t-48 15t-57 3.5h-195v-1205q0 -73 22 -106.5t76 -44.5v-37h-551zM289 1626l215 143q128 81 193 50t65 -158l-463 -62z" />
    <glyph glyph-name="uni0404" unicode="&#x404;" horiz-adv-x="1150" 
d="M47 717q0 185 50 328t139.5 232.5t209 135t263.5 45.5q73 0 165.5 -13t131.5 -13l49 -531h-41q-18 129 -41 221.5t-47.5 149.5t-57 89.5t-64 44t-73.5 11.5q-131 0 -203 -161.5t-75 -471.5h419v-41h-419q3 -301 81 -462.5t218 -161.5q254 0 315 481l39 -8
q-16 -147 -47 -256t-71.5 -177.5t-97 -110t-117.5 -57.5t-140 -16q-128 0 -234 46.5t-185 136.5t-123 233t-44 326z" />
    <glyph glyph-name="uni0405" unicode="&#x405;" horiz-adv-x="1036" 
d="M109 557q89 -541 350 -541q76 0 113.5 45t37.5 121q0 58 -18 115t-59 121.5t-84.5 119.5t-116.5 140q-71 80 -111.5 130t-83 113.5t-61.5 120.5t-19 115q0 136 119 218.5t328 82.5q60 0 178 -13t184 -13l54 -531h-41q-21 127 -47.5 220t-55 149.5t-64 89.5t-69.5 45
t-78 12q-67 0 -103 -34t-36 -95q0 -81 59 -177.5t183 -238.5q64 -72 101.5 -116t83 -106t69 -110t40.5 -106.5t17 -116.5q0 -168 -116 -255t-337 -87q-64 0 -193.5 13.5t-213.5 13.5l-51 555h41z" />
    <glyph glyph-name="uni0406" unicode="&#x406;" horiz-adv-x="655" 
d="M143 1245q0 73 -19 107.5t-65 46.5v35h537v-35q-46 -12 -65 -46.5t-19 -107.5v-1057q0 -73 19 -106.5t65 -44.5v-37h-537v37q46 11 65 44.5t19 106.5v1057z" />
    <glyph glyph-name="uni0407" unicode="&#x407;" horiz-adv-x="655" 
d="M143 1245q0 73 -19 107.5t-65 46.5v35h537v-35q-46 -12 -65 -46.5t-19 -107.5v-1057q0 -73 19 -106.5t65 -44.5v-37h-537v37q46 11 65 44.5t19 106.5v1057zM-23 1710q0 62 41 97.5t113 35.5q70 0 111 -35.5t41 -97.5q0 -63 -40.5 -99t-111.5 -36q-72 0 -113 36t-41 99z
M371 1710q0 62 40.5 97.5t112.5 35.5q71 0 112.5 -36t41.5 -97q0 -63 -41.5 -99t-112.5 -36q-72 0 -112.5 36t-40.5 99z" />
    <glyph glyph-name="uni0408" unicode="&#x408;" horiz-adv-x="765" 
d="M63 569q41 -223 79 -346.5t72 -165t79 -41.5q43 0 64.5 26t21.5 71q0 40 -15.5 87t-33.5 86.5t-33.5 102.5t-15.5 129v727q0 73 -18.5 107.5t-63.5 46.5v35h534v-35q-46 -12 -65 -46.5t-19 -107.5v-860q0 -193 -84.5 -301.5t-265.5 -108.5q-57 0 -124 19.5t-99 19.5
l-53 555h40z" />
    <glyph glyph-name="uni0409" unicode="&#x409;" horiz-adv-x="1884" 
d="M154 -4l-146 338l39 14q60 -121 97.5 -162t76.5 -41q78 0 117.5 167.5t46.5 545.5l6 387q1 73 -16 107.5t-60 46.5v35h926v-35q-43 -12 -60.5 -46.5t-17.5 -107.5v-297q94 23 178 23q78 0 145.5 -14.5t131 -51.5t108.5 -94t72 -147t27 -205t-28.5 -201t-75.5 -139.5
t-117 -86t-144 -45t-166 -12.5q-39 0 -190.5 12t-282.5 13h-104v37q42 11 60 45t18 106v1205h-359l-10 -572q-3 -125 -8.5 -221t-15 -184t-23.5 -151.5t-34.5 -115.5t-47.5 -84t-62.5 -50t-80.5 -19zM1163 31q53 -15 90 -15q44 0 75.5 19t57.5 67.5t39 141t13 229.5
q0 143 -11.5 235.5t-36 140t-54 64.5t-74.5 17q-46 0 -99 -29v-870z" />
    <glyph glyph-name="uni040A" unicode="&#x40a;" horiz-adv-x="1937" 
d="M1350 -25q-40 0 -191 12t-282 13h-111v37q45 11 64.5 45t19.5 106v514h-338v-514q0 -73 19 -106.5t65 -44.5v-37h-537v37q46 11 65 44.5t19 106.5v1057q0 73 -19 107.5t-65 46.5v35h537v-35q-46 -12 -65 -46.5t-19 -107.5v-502h338v502q0 72 -19.5 107t-64.5 47v35h534
v-35q-45 -12 -64 -46.5t-19 -107.5v-297q94 23 180 23q78 0 145 -14.5t130.5 -51.5t108.5 -94t72 -147t27 -205t-28 -201t-75 -139.5t-117 -86t-144 -45t-166 -12.5zM1217 31q55 -15 92 -15q44 0 75 19t56.5 67.5t38 140.5t12.5 230q0 143 -11 235.5t-35.5 140t-53.5 64.5
t-74 17q-47 0 -100 -29v-870z" />
    <glyph glyph-name="uni040B" unicode="&#x40b;" horiz-adv-x="1540" 
d="M307 0v37q45 11 64.5 45t19.5 106v1205h-86q-41 0 -66 -7t-51 -30t-45 -69.5t-38.5 -120.5t-41.5 -189h-40l51 457h1001l49 -457h-41q-22 115 -41.5 189t-38.5 121t-44.5 69.5t-50.5 29.5t-66 7h-84v-660q145 176 348 176q309 0 309 -317v-404q0 -73 20 -106.5t66 -44.5
v-37h-540v37q47 11 66.5 44.5t19.5 106.5v439q0 81 -24.5 118t-76.5 37q-80 0 -188 -108v-486q0 -73 19 -106.5t65 -44.5v-37h-535z" />
    <glyph glyph-name="uni040C" unicode="&#x40c;" horiz-adv-x="1392" 
d="M59 0v37q46 11 65 44.5t19 106.5v1057q0 73 -19 107.5t-65 46.5v35h537v-35q-46 -12 -65 -46.5t-19 -107.5v-342q87 1 145.5 64t167.5 262q65 118 117 162.5t148 44.5q41 0 95 -6.5t70 -6.5l43 -352h-41q-30 134 -59.5 203.5t-61 94t-81.5 24.5q-49 0 -87 -34.5
t-89 -125.5q-83 -152 -136 -227.5t-104 -106.5h25q171 0 264 -46t131 -165l170 -510q22 -65 57.5 -97.5t85.5 -43.5v-37h-596v37q50 10 57.5 41.5t-16.5 101.5l-145 477q-33 106 -71 153.5t-85 47.5h-4v-670q0 -73 19 -106.5t65 -44.5v-37h-537zM469 1626l215 143
q128 81 193 50t65 -158l-463 -62z" />
    <glyph glyph-name="uni040D" unicode="&#x40d;" horiz-adv-x="1390" 
d="M59 0v37q53 11 75 44.5t22 106.5v1057q0 73 -22 107.5t-75 46.5v35h559v-35q-53 -12 -74.5 -46.5t-21.5 -107.5v-1075l346 1264h463v-35q-51 -12 -72.5 -46.5t-21.5 -107.5v-1057q0 -73 21.5 -106.5t72.5 -44.5v-37h-559v37q53 11 74.5 44.5t21.5 106.5v1074l-346 -1262
h-463zM446 1661q0 127 65 158t194 -50l215 -143l-11 -27z" />
    <glyph glyph-name="uni040F" unicode="&#x40f;" horiz-adv-x="1361" 
d="M662 -389q-8 166 -33.5 247t-77.5 111.5t-156 30.5h-336v37q46 11 65 44.5t19 106.5v1057q0 73 -19 107.5t-65 46.5v35h537v-35q-46 -12 -65 -46.5t-19 -107.5v-1204h340v1204q0 72 -19.5 107t-64.5 47v35h535v-35q-45 -12 -64.5 -47t-19.5 -107v-1057q0 -72 19.5 -106
t64.5 -45v-37h-338q-103 0 -155 -30.5t-78 -112t-34 -246.5h-36z" />
    <glyph glyph-name="uni0410" unicode="&#x410;" horiz-adv-x="1179" 
d="M188 184q-15 -74 1 -105.5t81 -41.5v-37h-250v37q49 11 80 44.5t47 102.5l252 1110l-14 66v20q148 0 218 14.5t138 63.5h21l272 -1274q14 -68 44.5 -102t78.5 -45v-37h-604v37q65 10 82 42t2 105l-43 203h-358zM244 428h342l-166 770z" />
    <glyph glyph-name="uni0411" unicode="&#x411;" horiz-adv-x="1306" 
d="M657 -20q-56 0 -205.5 9.5t-279.5 10.5h-113v37q46 11 65 44.5t19 106.5v1057q0 73 -19 107.5t-65 46.5v35h1002l47 -492h-39q-19 125 -38 206.5t-37.5 131t-45 74t-52 32t-67.5 7.5h-305v-516q74 24 183 24q100 0 182.5 -25t149 -77.5t104 -143.5t37.5 -213
q0 -105 -29 -186t-77 -132.5t-116.5 -84.5t-142 -46t-158.5 -13zM524 31q48 -11 84 -11q46 0 77.5 17t57 62.5t38 132t12.5 217.5q0 104 -9 179.5t-23 119.5t-36.5 69t-44.5 33t-53 8q-59 0 -103 -31v-796z" />
    <glyph glyph-name="uni0412" unicode="&#x412;" horiz-adv-x="1255" 
d="M143 1245q0 73 -19 107.5t-65 46.5v35h113q135 1 285.5 10.5t204.5 9.5q234 0 344 -80.5t110 -259.5q0 -149 -73 -227.5t-207 -106.5q174 -33 268 -129t94 -274q0 -199 -141 -298t-398 -99q-56 0 -203.5 9.5t-283.5 10.5h-113v37q46 11 65 44.5t19 106.5v1057zM512 31
q45 -11 86 -11q110 0 159.5 78t49.5 271q0 200 -49.5 296.5t-151.5 96.5q-32 0 -94 8v-739zM512 813q45 -10 76 -10q87 0 126.5 71.5t39.5 237.5q0 168 -39 234.5t-121 66.5q-53 0 -82 -8v-592z" />
    <glyph glyph-name="uni0413" unicode="&#x413;" horiz-adv-x="1044" 
d="M59 0v37q46 11 65 44.5t19 106.5v1057q0 73 -19 107.5t-65 46.5v35h916l49 -553h-41q-15 102 -29.5 178t-29.5 131t-33.5 92t-36 59t-42.5 33.5t-48 15t-57 3.5h-195v-1205q0 -73 22 -106.5t76 -44.5v-37h-551z" />
    <glyph glyph-name="uni0414" unicode="&#x414;" horiz-adv-x="1339" 
d="M414 0q-98 0 -162.5 -20.5t-106.5 -69t-64 -119.5t-32 -182h-39l4 432h95q112 0 167 191t64 626l6 387q1 73 -20 107.5t-74 46.5v35h969v-35q-54 -12 -76.5 -46.5t-22.5 -107.5v-1163q0 -23 11.5 -32t44.5 -9h137l4 -432h-39q-10 111 -32 182t-64.5 119.5t-107.5 69
t-163 20.5h-499zM213 41h541v1352h-363l-10 -572q-8 -337 -46.5 -525.5t-121.5 -254.5z" />
    <glyph glyph-name="uni0415" unicode="&#x415;" horiz-adv-x="1077" 
d="M961 1434l51 -533h-41q-17 115 -32 194t-32.5 135t-33.5 87t-40 48.5t-47 22.5t-59 5h-215v-609h164q30 0 46 4t30 17.5t16.5 39.5t5 70t-3.5 109h41l41 -541h-41q-6 57 -11 90.5t-10.5 65.5t-13 47.5t-15.5 29t-22.5 18t-29.5 7t-39 2.5h-158v-702h240q51 0 80.5 13.5
t60 65t54 155.5t48.5 282h41l-49 -557h-928v37q46 11 65 44.5t19 106.5v1057q0 73 -19 107.5t-65 46.5v35h902z" />
    <glyph glyph-name="uni0416" unicode="&#x416;" horiz-adv-x="2043" 
d="M756 0v37q45 11 63.5 44.5t18.5 106.5v670q-72 0 -129 -201l-136 -477q-22 -70 -16.5 -101.5t49.5 -41.5v-37h-583v37q102 24 139 143l137 447q15 49 34 86.5t50.5 73.5t73 59.5t103.5 38t140 14.5h27q-46 27 -89.5 85.5t-113.5 178.5q-82 146 -119 188t-88 42
q-49 0 -80.5 -24.5t-61 -94.5t-58.5 -203h-41l41 352q18 0 72.5 6.5t95.5 6.5q23 0 43 -3t36 -6.5t32.5 -14.5l27 -18t27 -27.5t25 -31t27 -41.5t27.5 -47t33 -57q92 -162 145.5 -220.5t129.5 -64.5v340q0 73 -18.5 107.5t-63.5 46.5v35h534v-35q-46 -12 -65 -46.5
t-19 -107.5v-340q75 6 128 63.5t147 221.5q27 48 40.5 71.5t34.5 56t34 46.5t32.5 31.5t38.5 24t43.5 11.5t54.5 5q40 0 94.5 -6.5t71.5 -6.5l43 -352h-41q-30 133 -59.5 203t-61.5 94.5t-82 24.5t-87 -42.5t-117 -187.5q-71 -120 -114.5 -178.5t-90.5 -85.5h26
q98 0 170 -20.5t116.5 -60.5t70 -84.5t45.5 -106.5l139 -447q21 -66 55 -99t84 -44v-37h-583v37q43 10 48.5 41.5t-16.5 101.5l-137 477q-28 103 -61 152t-66 49v-670q0 -73 19 -106.5t65 -44.5v-37h-534z" />
    <glyph glyph-name="uni0417" unicode="&#x417;" horiz-adv-x="1208" 
d="M526 -27q-241 0 -364.5 148t-138.5 477l43 6q19 -255 98 -374t223 -119q246 0 246 360q0 97 -16 174.5t-53.5 129.5t-92.5 52q-37 0 -75.5 -22.5t-88.5 -67.5l-24 33q74 81 118 134t88 119t64 127t20 124q0 68 -28 105.5t-99 37.5q-40 0 -72 -12t-66.5 -45.5t-62.5 -89.5
t-55.5 -148t-50.5 -217h-41l52 522q37 0 173 15.5t214 15.5q189 0 286 -57.5t97 -190.5q0 -229 -263 -323q56 -4 109 -22t103 -54t87 -85.5t59.5 -122t22.5 -159.5q0 -119 -42 -211.5t-114 -148t-162.5 -83.5t-193.5 -28z" />
    <glyph glyph-name="uni0418" unicode="&#x418;" horiz-adv-x="1390" 
d="M59 0v37q53 11 75 44.5t22 106.5v1057q0 73 -22 107.5t-75 46.5v35h559v-35q-53 -12 -74.5 -46.5t-21.5 -107.5v-1075l346 1264h463v-35q-51 -12 -72.5 -46.5t-21.5 -107.5v-1057q0 -73 21.5 -106.5t72.5 -44.5v-37h-559v37q53 11 74.5 44.5t21.5 106.5v1074l-346 -1262
h-463z" />
    <glyph glyph-name="uni0419" unicode="&#x419;" horiz-adv-x="1390" 
d="M59 0v37q53 11 75 44.5t22 106.5v1057q0 73 -22 107.5t-75 46.5v35h559v-35q-53 -12 -74.5 -46.5t-21.5 -107.5v-1075l346 1264h463v-35q-51 -12 -72.5 -46.5t-21.5 -107.5v-1057q0 -73 21.5 -106.5t72.5 -44.5v-37h-559v37q53 11 74.5 44.5t21.5 106.5v1074l-346 -1262
h-463z" />
    <glyph glyph-name="uni041A" unicode="&#x41a;" horiz-adv-x="1392" 
d="M59 0v37q46 11 65 44.5t19 106.5v1057q0 73 -19 107.5t-65 46.5v35h537v-35q-46 -12 -65 -46.5t-19 -107.5v-342q87 1 145.5 64t167.5 262q65 118 117 162.5t148 44.5q41 0 95 -6.5t70 -6.5l43 -352h-41q-30 134 -59.5 203.5t-61 94t-81.5 24.5q-49 0 -87 -34.5
t-89 -125.5q-83 -152 -136 -227.5t-104 -106.5h25q171 0 264 -46t131 -165l170 -510q22 -65 57.5 -97.5t85.5 -43.5v-37h-596v37q50 10 57.5 41.5t-16.5 101.5l-145 477q-33 106 -71 153.5t-85 47.5h-4v-670q0 -73 19 -106.5t65 -44.5v-37h-537z" />
    <glyph glyph-name="uni041B" unicode="&#x41b;" horiz-adv-x="1316" 
d="M156 -4l-148 338l39 14q60 -121 97.5 -162t76.5 -41q78 0 118 169.5t46 547.5l6 383q1 73 -20 107.5t-74 46.5v35h960v-35q-53 -12 -74.5 -46.5t-21.5 -107.5v-1057q0 -73 21.5 -106.5t74.5 -44.5v-37h-559v37q53 11 75 44.5t22 106.5v1205h-357l-12 -568
q-3 -147 -9.5 -255.5t-19 -205t-32.5 -161.5t-49 -112.5t-68.5 -70.5t-91.5 -24z" />
    <glyph glyph-name="uni041C" unicode="&#x41c;" horiz-adv-x="1527" 
d="M516 0l-268 1255l-74 -1067q-5 -74 13 -107.5t69 -43.5v-37h-219v37q47 11 69.5 45t26.5 106l72 1057q6 74 -12 108t-70 46v35h473l178 -801l164 801h463v-35q-52 -12 -69.5 -45.5t-12.5 -108.5l78 -1057q6 -72 29 -106t69 -45v-37h-551v37q50 10 67.5 43.5t12.5 107.5
l-80 1067l-250 -1255h-178z" />
    <glyph glyph-name="uni041D" unicode="&#x41d;" horiz-adv-x="1359" 
d="M766 0v37q45 11 64.5 45t19.5 106v514h-338v-514q0 -73 19 -106.5t65 -44.5v-37h-537v37q46 11 65 44.5t19 106.5v1057q0 73 -19 107.5t-65 46.5v35h537v-35q-46 -12 -65 -46.5t-19 -107.5v-502h338v502q0 72 -19.5 107t-64.5 47v35h534v-35q-45 -12 -64 -46.5
t-19 -107.5v-1057q0 -73 19 -106.5t64 -44.5v-37h-534z" />
    <glyph glyph-name="uni041E" unicode="&#x41e;" horiz-adv-x="1277" 
d="M639 -25q-96 0 -181 25.5t-160 83t-129 142t-85 210.5t-31 281t31 280.5t85 210.5t129 142t160 82.5t181 25.5t180.5 -25t160 -82t129 -141.5t85 -210.5t31.5 -282t-31 -282t-85 -211t-129 -141.5t-160 -82t-181 -25.5zM459 717q0 -288 17 -437.5t54.5 -206.5t108.5 -57
q72 0 109.5 57t55 206t17.5 438q0 218 -8.5 351t-31 212.5t-55.5 108t-87 28.5q-71 0 -108.5 -56.5t-54.5 -206t-17 -437.5z" />
    <glyph glyph-name="uni041F" unicode="&#x41f;" horiz-adv-x="1355" 
d="M762 0v37q45 11 64.5 45t19.5 106v1205h-334v-1205q0 -73 19 -106.5t65 -44.5v-37h-537v37q46 11 65 44.5t19 106.5v1057q0 73 -19 107.5t-65 46.5v35h1237v-35q-45 -12 -64.5 -47t-19.5 -107v-1057q0 -72 19.5 -106t64.5 -45v-37h-534z" />
    <glyph glyph-name="uni0420" unicode="&#x420;" horiz-adv-x="1177" 
d="M59 0v37q46 11 65 44.5t19 106.5v1057q0 73 -19 107.5t-65 46.5v35h113q132 1 277.5 12.5t193.5 11.5q90 0 162.5 -12t141.5 -45.5t115.5 -87t74.5 -141t28 -203.5q0 -133 -36 -233t-102 -162t-155 -92.5t-200 -30.5q-74 0 -160 18v-281q0 -73 25 -106.5t84 -44.5v-37
h-562zM512 516q44 -24 94 -24q42 0 70.5 17.5t52.5 64.5t35.5 140t11.5 234q0 142 -12.5 237t-38 144t-56 68.5t-73.5 19.5q-38 0 -84 -12v-889z" />
    <glyph glyph-name="uni0421" unicode="&#x421;" horiz-adv-x="1128" 
d="M47 717q0 185 50 328t139.5 232.5t209 135t263.5 45.5q73 0 165.5 -13t131.5 -13l49 -531h-41q-18 129 -41 221.5t-47.5 149.5t-57 89.5t-64 44t-73.5 11.5q-133 0 -205.5 -167.5t-72.5 -485.5q0 -311 78 -478t221 -167q254 0 315 481l39 -8q-16 -147 -47 -256
t-71.5 -177.5t-97 -110t-117.5 -57.5t-140 -16q-128 0 -234 46.5t-185 136.5t-123 233t-44 326z" />
    <glyph glyph-name="uni0422" unicode="&#x422;" horiz-adv-x="1146" 
d="M1075 1434l49 -533h-41q-36 224 -69 329t-68.5 134t-103.5 29h-84v-1205q0 -73 19 -106.5t65 -44.5v-37h-535v37q45 11 64.5 45t19.5 106v1205h-86q-51 0 -80.5 -13.5t-59 -64.5t-52.5 -148t-50 -266h-40l51 533h1001z" />
    <glyph glyph-name="uni0423" unicode="&#x423;" horiz-adv-x="1253" 
d="M434 -16q-40 0 -97.5 13t-98.5 13l-76 418h41q27 -110 53.5 -186.5t47.5 -118.5t45.5 -64.5t43.5 -28t47 -5.5q61 0 98.5 44.5t84.5 166.5l59 149h-156l-356 875q-26 63 -70 94.5t-108 44.5v35h665v-35q-62 -12 -71.5 -42t20.5 -97l213 -535l215 535q30 67 20.5 97
t-73.5 42v35h252v-35q-109 -30 -154 -139l-415 -1049q-27 -64 -45 -98.5t-44.5 -68t-60.5 -47t-80 -13.5z" />
    <glyph glyph-name="uni0424" unicode="&#x424;" horiz-adv-x="1783" 
d="M55 719q0 260 175.5 413.5t478.5 159.5q-4 57 -27 84.5t-70 38.5v37h559v-37q-47 -11 -69.5 -38.5t-26.5 -84.5q302 -6 478 -159.5t176 -413.5q0 -261 -176 -415.5t-478 -160.5q4 -58 26 -86t70 -39v-36h-559v36q47 11 70 39.5t27 85.5q-302 6 -478 160.5t-176 415.5z
M446 719q0 -237 70 -380t193 -155v1069q-123 -12 -193 -155.5t-70 -378.5zM1075 184q121 12 190.5 155t69.5 380q0 235 -69.5 378.5t-190.5 155.5v-1069z" />
    <glyph glyph-name="uni0425" unicode="&#x425;" horiz-adv-x="1239" 
d="M651 1434v-35q-63 -11 -71 -41.5t24 -97.5l184 -437l201 439q32 67 25.5 96.5t-68.5 40.5v35h250v-35q-114 -31 -162 -137l-223 -492l250 -596q48 -112 158 -137v-37h-631v37q63 10 71.5 40t-22.5 97l-186 438l-211 -442q-22 -48 -27 -71.5t10 -39t58 -22.5v-37h-250v37
q112 27 164 133l235 496l-252 594q-48 110 -158 139v35h631z" />
    <glyph glyph-name="uni0426" unicode="&#x426;" horiz-adv-x="1404" 
d="M846 1245q0 73 -19 107.5t-65 46.5v35h534v-35q-45 -12 -64.5 -47t-19.5 -107v-1163q0 -23 12 -32t46 -9h110l4 -432h-38q-9 91 -21.5 151t-35.5 109t-60 76t-91 41t-132 14h-947v37q46 11 65 44.5t19 106.5v1057q0 73 -19 107.5t-65 46.5v35h537v-35q-46 -12 -65 -46.5
t-19 -107.5v-1204h334v1204z" />
    <glyph glyph-name="uni0427" unicode="&#x427;" horiz-adv-x="1282" 
d="M664 0v37q59 11 83.5 44.5t24.5 106.5v295q-94 -24 -184 -26q-54 0 -98 2t-95.5 11.5t-91 25.5t-78 44.5t-63.5 67.5t-40.5 97t-15.5 131v409q0 73 -18.5 107.5t-64.5 46.5v35h540v-35q-45 -12 -64.5 -47t-19.5 -107v-485q0 -141 45 -199.5t131 -58.5q55 0 117 20v723
q0 72 -19.5 107t-64.5 47v35h535v-35q-46 -12 -65 -46.5t-19 -107.5v-1057q0 -73 19 -106.5t65 -44.5v-37h-559z" />
    <glyph glyph-name="uni0428" unicode="&#x428;" horiz-adv-x="1990" 
d="M59 0v37q46 11 65 44.5t19 106.5v1057q0 73 -19 107.5t-65 46.5v35h537v-35q-46 -12 -65 -46.5t-19 -107.5v-1204h299v1204q0 73 -19 107.5t-65 46.5v35h537v-35q-46 -12 -65 -46.5t-19 -107.5v-1204h301v1204q0 72 -19.5 107t-64.5 47v35h534v-35q-46 -12 -65 -46.5
t-19 -107.5v-1057q0 -73 19 -106.5t65 -44.5v-37h-1872z" />
    <glyph glyph-name="uni0429" unicode="&#x429;" horiz-adv-x="2039" 
d="M512 41h299v1204q0 73 -19 107.5t-65 46.5v35h537v-35q-46 -12 -65 -46.5t-19 -107.5v-1204h301v1204q0 72 -19.5 107t-64.5 47v35h534v-35q-46 -12 -65 -46.5t-19 -107.5v-1163q0 -23 12 -32t46 -9h110l4 -430h-39q-9 90 -21.5 149.5t-35.5 109t-60 76t-91 40.5t-132 14
h-1581v37q46 11 65 44.5t19 106.5v1057q0 73 -19 107.5t-65 46.5v35h537v-35q-46 -12 -65 -46.5t-19 -107.5v-1204z" />
    <glyph glyph-name="uni042A" unicode="&#x42a;" horiz-adv-x="1396" 
d="M856 -25q-39 0 -189.5 12t-283.5 13h-104v37q43 11 60 44.5t17 106.5v1205h-55q-40 0 -64.5 -7.5t-50.5 -33.5t-45 -77.5t-39 -136.5t-41 -214h-41l52 510h751v-35q-54 -12 -76 -46.5t-22 -107.5v-297q94 23 178 23q78 0 145 -14.5t130.5 -51.5t108.5 -94t72 -147
t27 -205t-28 -201t-75 -139.5t-117 -86t-144 -45t-166 -12.5zM725 31q53 -15 90 -15q44 0 75 19t56.5 67.5t38 140.5t12.5 230q0 143 -11 235.5t-35.5 140t-53.5 64.5t-74 17t-98 -29v-870z" />
    <glyph glyph-name="uni042B" unicode="&#x42b;" horiz-adv-x="1839" 
d="M635 -25q-38 0 -189 12t-282 13h-105v37q42 11 60 45t18 106v1057q0 72 -18 107t-60 47v35h525v-35q-43 -12 -60.5 -46.5t-17.5 -107.5v-297q94 23 176 23q78 0 145.5 -15t130.5 -51.5t107.5 -93.5t71 -147t26.5 -205t-28 -201t-74.5 -139.5t-116 -86t-143.5 -45
t-166 -12.5zM506 31q52 -15 90 -15q42 0 72.5 18.5t56 66.5t38.5 141t13 231q0 143 -11.5 235.5t-35.5 140t-53 64.5t-72 17q-48 0 -98 -29v-870zM1243 0v37q46 11 65 44.5t19 106.5v1057q0 73 -19 107.5t-65 46.5v35h537v-35q-46 -12 -65 -46.5t-19 -107.5v-1057
q0 -73 19 -106.5t65 -44.5v-37h-537z" />
    <glyph glyph-name="uni042C" unicode="&#x42c;" horiz-adv-x="1222" 
d="M635 -25q-38 0 -189 12t-282 13h-105v37q42 11 60 45t18 106v1057q0 72 -18 107t-60 47v35h525v-35q-43 -12 -60.5 -46.5t-17.5 -107.5v-297q94 23 176 23q78 0 145.5 -15t130.5 -51.5t107.5 -93.5t71 -147t26.5 -205t-28 -201t-74.5 -139.5t-116 -86t-143.5 -45
t-166 -12.5zM506 31q52 -15 90 -15q42 0 72.5 18.5t56 66.5t38.5 141t13 231q0 143 -11.5 235.5t-35.5 140t-53 64.5t-72 17q-48 0 -98 -29v-870z" />
    <glyph glyph-name="uni042D" unicode="&#x42d;" horiz-adv-x="1150" 
d="M1104 717q0 -183 -44 -326t-123 -233t-185 -136.5t-234 -46.5q-79 0 -140 16t-117.5 57.5t-97 110t-71.5 177.5t-47 256l39 8q61 -481 315 -481q140 0 218 161.5t81 462.5h-422v41h422q-3 310 -75 471.5t-203 161.5q-42 0 -73.5 -11.5t-64 -44t-57 -89.5t-47.5 -149.5
t-41 -221.5h-41l49 531q39 0 131.5 13t165.5 13q144 0 263.5 -45.5t209 -135t139.5 -232.5t50 -328z" />
    <glyph glyph-name="uni042E" unicode="&#x42e;" horiz-adv-x="1861" 
d="M1237 -25q-118 0 -217.5 41t-179.5 125.5t-126.5 228t-47.5 332.5h-154v-514q0 -73 19 -106.5t65 -44.5v-37h-537v37q46 11 65 44.5t19 106.5v1057q0 73 -19 107.5t-65 46.5v35h537v-35q-46 -12 -65 -46.5t-19 -107.5v-502h154q2 150 33.5 271t84.5 202.5t125.5 137
t154 80t173.5 24.5q94 0 177 -25t156.5 -82t126 -141.5t83 -210.5t30.5 -282t-30.5 -282t-83 -211t-125.5 -141.5t-156 -82t-178 -25.5zM1065 717q0 -288 16.5 -437.5t52 -206.5t103.5 -57q70 0 106 57.5t52 205.5t16 438t-16 438t-52 205t-106 57q-68 0 -103.5 -56.5
t-52 -206t-16.5 -437.5z" />
    <glyph glyph-name="uni042F" unicode="&#x42f;" horiz-adv-x="1259" 
d="M655 0v37q50 11 71.5 44.5t21.5 106.5v496q-64 -8 -95 -10q-59 0 -78 -55t-30 -224q-15 -227 -86.5 -323.5t-222.5 -96.5q-127 0 -172 61.5t-54 225.5l39 4q10 -101 23 -134.5t37 -33.5q28 0 38 40t21 179q15 130 55.5 209t99.5 114t152 48q-150 33 -231.5 133t-81.5 262
q0 375 426 375q48 0 205 -11.5t294 -12.5h111v-35q-45 -12 -64.5 -47t-19.5 -107v-1057q0 -72 19.5 -106t64.5 -45v-37h-543zM518 1077q0 -172 37.5 -267t112.5 -95q34 0 80 12v678q-40 12 -78 12q-152 0 -152 -340z" />
    <glyph glyph-name="uni0430" unicode="&#x430;" horiz-adv-x="1185" 
d="M805 -25q-62 0 -89.5 29t-27.5 96v62q-75 -187 -280 -187q-72 0 -133.5 24t-111 72.5t-78 130.5t-28.5 189t28.5 189t78 130.5t111 72.5t133.5 24q206 0 280 -184v73q0 171 -49.5 241.5t-157.5 70.5q-200 0 -319 -205h-43l88 213q38 0 156 16.5t190 16.5q76 0 144 -11
t133.5 -38.5t112.5 -69.5t75.5 -108.5t28.5 -151.5v-447q0 -75 19 -98.5t83 -11.5l12 -33l-153 -60q-125 -45 -203 -45zM406 391q0 -280 143 -280q139 0 139 280q0 281 -139 281q-143 0 -143 -281z" />
    <glyph glyph-name="uni0431" unicode="&#x431;" horiz-adv-x="1148" 
d="M573 -27q-259 0 -386.5 157t-127.5 495q0 88 3.5 161t16 160t34.5 154.5t60 134t90 110t128 70.5t170 27q51 0 194 -13.5t165 -13.5q70 0 105 21t54 84l39 -13q-20 -106 -54 -176t-85 -108.5t-110.5 -54t-141.5 -15.5q-39 0 -143 10.5t-156 10.5q-65 0 -110.5 -9.5
t-86.5 -38t-66.5 -79t-42 -132.5t-20.5 -198q51 127 171 197.5t300 70.5q250 0 382 -133t132 -373t-132 -373t-382 -133zM438 479q0 -262 29.5 -363.5t105.5 -101.5q75 0 104.5 102t29.5 363t-29.5 363t-104.5 102q-76 0 -105.5 -101.5t-29.5 -363.5z" />
    <glyph glyph-name="uni0432" unicode="&#x432;" horiz-adv-x="1234" 
d="M612 -16q-76 0 -205.5 7.5t-254.5 8.5h-113v37q46 11 65 44.5t19 106.5v648q0 73 -19 107t-65 46v35h113q123 1 257.5 8.5t194.5 7.5q223 0 329.5 -58t106.5 -183q0 -113 -88 -173.5t-243 -68.5q204 -17 305.5 -89.5t101.5 -205.5q0 -66 -25.5 -115t-68.5 -80t-109 -50
t-138 -26t-163 -7zM479 29q47 -9 74 -9q107 0 152 54t45 186q0 143 -45.5 212t-141.5 69q-41 0 -84 6v-518zM479 584q6 -1 31 -3.5t37 -2.5q84 0 123 50.5t39 164.5q0 119 -38.5 165t-123.5 46q-40 0 -68 -7v-413z" />
    <glyph glyph-name="uni0433" unicode="&#x433;" horiz-adv-x="944" 
d="M39 0v37q46 11 65 44.5t19 106.5v648q0 73 -19 107t-65 46v35h817l49 -524h-41q-21 135 -40.5 222t-38 140.5t-44.5 79.5t-50 33.5t-64 7.5h-148v-795q0 -73 19 -106.5t65 -44.5v-37h-524z" />
    <glyph glyph-name="uni0434" unicode="&#x434;" horiz-adv-x="1243" 
d="M113 41q108 0 162.5 176.5t66.5 540.5l2 78q1 73 -19 107t-73 46v35h897v-35q-46 -12 -66 -46.5t-20 -106.5v-754q0 -21 11.5 -31t43.5 -10h113l4 -430h-39q-10 110 -32 181t-64 119t-107 68.5t-162 20.5h-393q-97 0 -161.5 -20.5t-107 -68.5t-64 -119t-31.5 -181h-39
l4 430h74zM217 41h492v942h-316l-12 -260q-11 -288 -47.5 -454t-116.5 -228z" />
    <glyph glyph-name="uni0435" unicode="&#x435;" horiz-adv-x="1024" 
d="M57 512q0 249 130.5 393t357.5 144q197 0 309.5 -107t112.5 -309h-535q3 -251 69.5 -383.5t192.5 -132.5q177 0 258 274l39 -8q-51 -217 -166 -312.5t-293 -95.5q-224 0 -349.5 143t-125.5 394zM432 674h221q0 185 -22 259.5t-80 74.5q-64 0 -90.5 -82t-28.5 -252z" />
    <glyph glyph-name="uni0436" unicode="&#x436;" horiz-adv-x="1818" 
d="M653 0v37q43 11 60.5 44.5t17.5 106.5v383q-69 0 -123 -178l-67 -213q-23 -70 -17.5 -101.5t51.5 -41.5v-37h-565v37q103 25 144 139l96 258q36 99 122.5 137t243.5 41q-44 31 -116 146q-13 20 -33.5 53.5t-29.5 48t-25 39t-24 34.5t-21.5 25.5t-22.5 21t-21.5 13
t-25 9.5t-27.5 2q-44 0 -74 -35t-55 -120.5t-51 -242.5h-41l51 432q16 0 58 5.5t80 5.5q35 0 63 -5t52 -20t40.5 -28.5t38.5 -44t35 -51t40.5 -66t45.5 -74.5q57 -93 87.5 -118t90.5 -26v220q0 73 -17.5 107t-60.5 46v35h514v-35q-43 -12 -61.5 -46t-18.5 -107v-220
q60 1 91 26t90 118q18 28 45 74t40 66.5t34.5 51t38 44t40.5 28.5t52 20t63 5q39 0 81 -5.5t56 -5.5l51 -432h-40q-26 157 -51 242.5t-55.5 120.5t-74.5 35q-15 0 -27.5 -2t-25 -9.5t-21.5 -13.5t-22 -21t-21.5 -25.5t-23.5 -34t-24.5 -39t-30 -48t-33.5 -53.5
q-71 -113 -117 -146q154 -3 243.5 -41.5t125.5 -136.5l94 -258q41 -114 143 -139v-37h-565v37q47 10 53 41.5t-18 101.5l-66 213q-57 178 -125 178v-383q0 -73 18.5 -106.5t61.5 -44.5v-37h-514z" />
    <glyph glyph-name="uni0437" unicode="&#x437;" horiz-adv-x="997" 
d="M496 -25q-227 0 -339.5 101.5t-142.5 306.5l39 12q14 -75 37.5 -130.5t51 -88t62.5 -52t67 -26t69 -6.5q128 0 186 69.5t58 186.5q0 104 -43 172t-129 68q-56 0 -142 -47l-24 24q130 99 199 183.5t69 169.5q0 96 -113 96q-43 0 -77 -15.5t-69.5 -57t-66.5 -122.5
t-59 -203h-41l51 408q37 0 155 11.5t202 11.5q180 0 277 -45.5t97 -153.5q0 -80 -56 -133t-150 -80q140 -20 225.5 -100t85.5 -216q0 -75 -28 -134.5t-74 -98t-109 -64.5t-129.5 -36.5t-138.5 -10.5z" />
    <glyph glyph-name="uni0438" unicode="&#x438;" horiz-adv-x="1234" 
d="M39 0v37q46 11 65 44.5t19 106.5v648q0 73 -19 107t-65 46v35h524v-35q-46 -12 -65 -46t-19 -107v-695l277 883h440v-35q-46 -12 -65 -46t-19 -107v-648q0 -73 19 -106.5t65 -44.5v-37h-522v37q45 11 63.5 44.5t18.5 106.5v693l-277 -881h-440z" />
    <glyph glyph-name="uni0439" unicode="&#x439;" horiz-adv-x="1234" 
d="M39 0v37q46 11 65 44.5t19 106.5v648q0 73 -19 107t-65 46v35h524v-35q-46 -12 -65 -46t-19 -107v-695l277 883h440v-35q-46 -12 -65 -46t-19 -107v-648q0 -73 19 -106.5t65 -44.5v-37h-522v37q45 11 63.5 44.5t18.5 106.5v693l-277 -881h-440zM156 1417l342 21
q0 -135 29 -188.5t87 -53.5t89.5 54t31.5 188l342 -21q0 -112 -124 -182t-339 -70q-219 0 -338.5 69t-119.5 183z" />
    <glyph glyph-name="uni043A" unicode="&#x43a;" horiz-adv-x="1232" 
d="M39 0v37q43 11 61.5 44.5t18.5 106.5v648q0 73 -18.5 107t-61.5 46v35h514v-35q-43 -12 -61.5 -46t-18.5 -107v-220q82 0 115 22t94 120q17 28 40.5 66.5t36 59.5t31.5 49t32.5 42.5t33 31t39.5 24t45.5 13t56.5 5.5q38 0 79.5 -5.5t56.5 -5.5l51 -432h-41
q-25 157 -49.5 242.5t-54.5 120.5t-74 35q-15 0 -27.5 -2t-25 -9.5t-21.5 -13t-22.5 -21t-21.5 -25.5t-24 -34.5t-25 -39t-29.5 -48t-33.5 -53.5q-66 -110 -117 -146q142 -3 228 -41t125 -137l104 -260q43 -111 148 -137v-37h-566v37q47 10 51.5 41t-22.5 100l-74 213
q-31 88 -62.5 129.5t-76.5 48.5v-381q0 -73 18.5 -106.5t61.5 -44.5v-37h-514z" />
    <glyph glyph-name="uni043B" unicode="&#x43b;" horiz-adv-x="1247" 
d="M174 -4l-164 328l39 14q73 -115 113.5 -154t79.5 -39q77 0 117 165.5t47 537.5q-1 66 -20.5 97.5t-63.5 43.5v35h886v-35q-46 -12 -66 -46.5t-20 -106.5v-648q0 -73 20 -106.5t66 -44.5v-37h-526v37q46 11 66 44.5t20 106.5v795h-319l-3 -166q-3 -124 -8 -219.5
t-14.5 -183t-23.5 -150.5t-34.5 -115.5t-47.5 -84t-63 -49.5t-81 -19z" />
    <glyph glyph-name="uni043C" unicode="&#x43c;" horiz-adv-x="1249" 
d="M39 0v37q46 11 65 44.5t19 106.5v648q0 73 -19 107t-65 46v35h391l197 -518l198 518h385v-35q-45 -12 -64.5 -46.5t-19.5 -106.5v-648q0 -72 19.5 -106t64.5 -45v-37h-522v37q45 11 64.5 45t19.5 106v562l-283 -727h-55l-270 727v-562q0 -73 19 -106.5t65 -44.5v-37h-209
z" />
    <glyph glyph-name="uni043D" unicode="&#x43d;" horiz-adv-x="1253" 
d="M690 0v37q46 11 65 44.5t19 106.5v316h-295v-316q0 -73 19 -106.5t65 -44.5v-37h-524v37q46 11 65 44.5t19 106.5v648q0 73 -19 107t-65 46v35h524v-35q-46 -12 -65 -46t-19 -107v-291h295v291q0 73 -19 107t-65 46v35h524v-35q-46 -12 -65 -46t-19 -107v-648
q0 -73 19 -106.5t65 -44.5v-37h-524z" />
    <glyph glyph-name="uni043E" unicode="&#x43e;" horiz-adv-x="1120" 
d="M559 -25q-246 0 -380 141t-134 396t134 396t380 141q247 0 381.5 -140.5t134.5 -396.5t-134.5 -396.5t-381.5 -140.5zM424 512q0 -285 26 -390.5t109 -105.5q84 0 110.5 105.5t26.5 390.5t-26.5 390.5t-110.5 105.5q-82 0 -108.5 -107t-26.5 -389z" />
    <glyph glyph-name="uni043F" unicode="&#x43f;" horiz-adv-x="1251" 
d="M1212 1024v-35q-45 -12 -64.5 -46.5t-19.5 -106.5v-648q0 -72 19.5 -106t64.5 -45v-37h-522v37q45 11 64.5 45t19.5 106v795h-295v-795q0 -73 19 -106.5t65 -44.5v-37h-524v37q46 11 65 44.5t19 106.5v648q0 73 -19 107t-65 46v35h1173z" />
    <glyph glyph-name="uni0440" unicode="&#x440;" horiz-adv-x="1181" 
d="M113 786q0 72 -19.5 106t-66.5 46v37h114q129 0 197.5 13.5t110.5 60.5h20v-144q61 70 131 107t168 37q154 0 255 -134t101 -374q0 -257 -112.5 -411.5t-282.5 -154.5q-184 0 -260 146v-342q0 -73 19.5 -107.5t66.5 -46.5v-35h-528v35q46 12 66 46.5t20 107.5v1007z
M469 383q0 -143 36 -217t95 -74q76 0 109.5 95t33.5 325q0 165 -11.5 256t-37.5 130.5t-73 39.5q-33 0 -66 -20t-86 -74v-461z" />
    <glyph glyph-name="uni0441" unicode="&#x441;" horiz-adv-x="997" 
d="M57 504q0 251 144.5 398t394.5 147q63 0 143 -13.5t117 -13.5l49 -365h-41q-20 109 -46.5 182t-56 108t-56.5 48t-60 13q-105 0 -157 -107.5t-52 -292.5q0 -141 27.5 -251t84.5 -175t136 -65q165 0 236 274l41 -8q-49 -217 -159 -312.5t-278 -95.5q-215 0 -341 142
t-126 387z" />
    <glyph glyph-name="uni0442" unicode="&#x442;" horiz-adv-x="1112" 
d="M-2 524l76 500h964l76 -500h-41q-26 107 -47 180.5t-42.5 125.5t-40 81.5t-43 46t-47.5 21t-58 4.5h-64v-795q0 -73 22.5 -106.5t75.5 -44.5v-37h-550v37q54 11 76 44.5t22 106.5v795h-58q-36 0 -59 -4.5t-48 -21t-43.5 -46t-40 -81.5t-42.5 -125.5t-47 -180.5h-41z" />
    <glyph glyph-name="uni0443" unicode="&#x443;" horiz-adv-x="1071" 
d="M403 -438q-34 0 -85.5 13t-90.5 13l-61 392h41q29 -124 54.5 -201.5t50.5 -115t45.5 -49t50.5 -11.5q54 0 87.5 49t71.5 178l43 145h-141l-303 871q-39 115 -146 143v35h611v-35q-64 -12 -76.5 -43t12.5 -100l158 -481l143 479q24 70 10.5 101.5t-79.5 43.5v35h252v-35
q-50 -13 -85 -46t-55 -99l-311 -1047q-16 -52 -27.5 -83t-28.5 -63.5t-35.5 -49.5t-45 -28t-60.5 -11z" />
    <glyph glyph-name="uni0444" unicode="&#x444;" horiz-adv-x="1626" 
d="M635 1245q0 73 -20 107.5t-66 46.5v35h526v-35q-46 -12 -66 -46.5t-20 -107.5v-196q287 0 439.5 -141.5t152.5 -395.5t-152.5 -395.5t-439.5 -141.5v-196q0 -73 20 -107.5t66 -46.5v-35h-526v35q46 12 66 46.5t20 107.5v196q-286 1 -438 143.5t-152 393.5t152 393.5
t438 143.5v196zM410 512q0 -234 60 -364.5t165 -133.5v996q-105 -3 -165 -133.5t-60 -364.5zM989 14q104 2 164.5 132.5t60.5 365.5t-60.5 365.5t-164.5 132.5v-996z" />
    <glyph glyph-name="uni0445" unicode="&#x445;" horiz-adv-x="1034" 
d="M627 1024v-35q-64 -12 -73 -42t21 -97l105 -252l106 254q32 65 24 95.5t-73 41.5v35h252v-35q-111 -30 -158 -137l-129 -307l154 -371q45 -110 150 -137v-37h-600v37q63 10 72 40t-21 97l-107 258l-110 -258q-32 -67 -23.5 -97t72.5 -40v-37h-252v37q112 26 158 135
l133 311l-152 367q-45 110 -149 139v35h600z" />
    <glyph glyph-name="uni0446" unicode="&#x446;" horiz-adv-x="1308" 
d="M39 0v37q46 11 65 44.5t19 106.5v648q0 73 -19 107t-65 46v35h524v-35q-46 -12 -65 -46t-19 -107v-795h295v795q0 72 -19.5 106.5t-64.5 46.5v35h522v-35q-45 -12 -64.5 -46.5t-19.5 -106.5v-754q0 -23 11.5 -32t44.5 -9h112l4 -430h-38q-9 90 -21.5 149.5t-35.5 109
t-60 76t-91 40.5t-132 14h-883z" />
    <glyph glyph-name="uni0447" unicode="&#x447;" horiz-adv-x="1214" 
d="M469 350q-80 0 -142 14.5t-116 49t-83.5 101t-29.5 161.5v160q0 73 -19 107t-65 46v35h523v-35q-45 -12 -64.5 -46.5t-19.5 -106.5v-179q0 -256 147 -256q72 0 135 39v396q0 73 -19 107t-65 46v35h525v-35q-46 -12 -65 -46t-19 -107v-648q0 -73 19 -106.5t65 -44.5v-37
h-527v37q47 11 66.5 44.5t19.5 106.5v209q-103 -47 -266 -47z" />
    <glyph glyph-name="uni0448" unicode="&#x448;" horiz-adv-x="1853" 
d="M39 0v37q46 11 65 44.5t19 106.5v648q0 73 -19 107t-65 46v35h524v-35q-46 -12 -65 -46t-19 -107v-795h271v795q0 72 -19.5 106.5t-64.5 46.5v35h522v-35q-45 -12 -64.5 -46.5t-19.5 -106.5v-795h270v795q0 73 -19 107t-65 46v35h525v-35q-46 -12 -65 -46t-19 -107v-648
q0 -73 19 -106.5t65 -44.5v-37h-1776z" />
    <glyph glyph-name="uni0449" unicode="&#x449;" horiz-adv-x="1908" 
d="M94 0v16q29 9 29 66v860q0 57 -29 66v16h414v-16q-29 -9 -29 -66v-901h271v901q0 57 -29 66v16h412v-16q-29 -9 -29 -66v-901h270v901q0 58 -28 66v16h413v-16q-28 -8 -28 -66v-860q0 -23 11 -32t44 -9h112l5 -430h-39q-9 90 -21.5 149.5t-35.5 109t-60 76t-91 40.5
t-132 14h-1430z" />
    <glyph glyph-name="uni044A" unicode="&#x44a;" horiz-adv-x="1325" 
d="M811 -23q-43 0 -191.5 11.5t-291.5 11.5h-39v16q28 8 28 66v901h-26q-72 -1 -111 -35t-70 -126.5t-71 -297.5h-41l61 500h646v-16q-17 -5 -24 -19.5t-7 -46.5v-268q94 24 176 24q98 0 180 -21t147 -63.5t101.5 -114.5t36.5 -167q0 -355 -504 -355zM674 31q57 -13 88 -13
q41 0 71 14t55.5 49t38.5 101.5t13 163.5q0 73 -7.5 127t-20.5 89t-33.5 56t-44 29t-54.5 8q-55 0 -106 -28v-596z" />
    <glyph glyph-name="uni044B" unicode="&#x44b;" horiz-adv-x="1720" 
d="M616 -23q-43 0 -192.5 11.5t-290.5 11.5h-39v16q29 9 29 66v860q0 57 -29 66v16h416v-16q-17 -5 -24 -19.5t-7 -46.5v-268q78 24 176 24t180 -21t146.5 -63.5t100.5 -114.5t36 -167q0 -355 -502 -355zM479 31q57 -13 88 -13q41 0 71 14t55.5 49t38.5 101.5t13 163.5
q0 91 -11.5 152.5t-34.5 95.5t-52.5 47.5t-71.5 13.5q-48 0 -96 -28v-596zM1153 0v37q46 11 66 44.5t20 106.5v598q0 72 -19.5 106t-66.5 46v37h115q129 0 197 13.5t110 60.5h20v-861q0 -73 19.5 -106.5t66.5 -44.5v-37h-528z" />
    <glyph glyph-name="uni044C" unicode="&#x44c;" horiz-adv-x="1130" 
d="M616 -23q-43 0 -192.5 11.5t-290.5 11.5h-39v16q29 9 29 66v860q0 57 -29 66v16h416v-16q-17 -5 -24 -19.5t-7 -46.5v-268q78 24 176 24t180 -21t146.5 -63.5t100.5 -114.5t36 -167q0 -355 -502 -355zM479 31q57 -13 88 -13q41 0 71 14t55.5 49t38.5 101.5t13 163.5
q0 91 -11.5 152.5t-34.5 95.5t-52.5 47.5t-71.5 13.5q-48 0 -96 -28v-596z" />
    <glyph glyph-name="uni044D" unicode="&#x44d;" horiz-adv-x="997" 
d="M940 504q0 -245 -126 -387t-341 -142q-168 0 -277.5 95.5t-158.5 312.5l41 8q71 -274 235 -274q107 0 171 115t75 303h-346v40h348v33q0 185 -52 292.5t-157 107.5q-33 0 -60 -13t-56.5 -48t-56 -108t-46.5 -182h-41l49 365q37 0 117 13.5t143 13.5q250 0 394.5 -147
t144.5 -398z" />
    <glyph glyph-name="uni044E" unicode="&#x44e;" horiz-adv-x="1687" 
d="M1137 -25q-239 0 -372 138.5t-134 390.5h-139v-316q0 -73 22.5 -106.5t75.5 -44.5v-37h-551v37q53 11 75.5 44.5t22.5 106.5v648q0 73 -22.5 107t-75.5 46v35h551v-35q-53 -12 -75.5 -46t-22.5 -107v-291h139q9 240 141 372t365 132q241 0 373 -141t132 -396t-132 -396
t-373 -141zM1010 512q0 -283 25 -389.5t102 -106.5t102 106.5t25 389.5t-25 389.5t-102 106.5q-76 0 -101.5 -108t-25.5 -388z" />
    <glyph glyph-name="uni044F" unicode="&#x44f;" horiz-adv-x="1193" 
d="M631 0v37q46 11 65 44.5t19 106.5v285q-46 -12 -133 -14q-39 -8 -54 -45t-22 -109q-19 -170 -85.5 -250t-199.5 -80q-125 0 -175.5 64.5t-59.5 222.5l41 4q8 -99 22.5 -133.5t38.5 -34.5q23 0 34.5 28t20.5 99q20 114 78.5 169t165.5 75q-128 27 -200 104t-72 195
q0 281 448 281q62 0 206.5 -12t272.5 -13h113v-35q-46 -12 -65 -46t-19 -107v-648q0 -73 19 -106.5t65 -44.5v-37h-524zM471 756q0 -132 38.5 -194t123.5 -62q41 0 82 16v479q-43 13 -80 13q-83 0 -123.5 -61t-40.5 -191z" />
    <glyph glyph-name="uni0450" unicode="&#x450;" horiz-adv-x="1024" 
d="M57 512q0 249 130.5 393t357.5 144q197 0 309.5 -107t112.5 -309h-535q3 -251 69.5 -383.5t192.5 -132.5q177 0 258 274l39 -8q-51 -217 -166 -312.5t-293 -95.5q-224 0 -349.5 143t-125.5 394zM313 1251q0 127 64.5 158.5t193.5 -49.5l215 -143l-10 -27zM432 674h221
q0 185 -22 259.5t-80 74.5q-64 0 -90.5 -82t-28.5 -252z" />
    <glyph glyph-name="uni0451" unicode="&#x451;" horiz-adv-x="1024" 
d="M57 512q0 249 130.5 393t357.5 144q197 0 309.5 -107t112.5 -309h-535q3 -251 69.5 -383.5t192.5 -132.5q177 0 258 274l39 -8q-51 -217 -166 -312.5t-293 -95.5q-224 0 -349.5 143t-125.5 394zM199 1317q0 62 40.5 97.5t112.5 35.5q70 0 111 -35.5t41 -97.5
q0 -63 -40.5 -99t-111.5 -36q-72 0 -112.5 36t-40.5 99zM432 674h221q0 185 -22 259.5t-80 74.5q-64 0 -90.5 -82t-28.5 -252zM592 1317q0 62 40.5 97.5t112.5 35.5q71 0 112.5 -36t41.5 -97q0 -63 -41.5 -99t-112.5 -36q-72 0 -112.5 36t-40.5 99z" />
    <glyph glyph-name="uni0452" unicode="&#x452;" horiz-adv-x="1179" 
d="M754 768q0 152 -99 152q-79 0 -186 -107v-625q0 -73 19.5 -106.5t66.5 -44.5v-37h-528v37q46 11 66 44.5t20 106.5v971h-86v41h86q0 71 -19.5 103.5t-66.5 44.5v36h114q129 0 197.5 13.5t110.5 60.5h20v-258h262v-41h-262v-285q144 175 346 175q135 0 214 -75t79 -243
v-684q0 -97 -1.5 -146.5t-9 -116t-23.5 -98t-44 -64t-72.5 -44.5t-107.5 -12q-55 0 -118 13t-89 13l-51 361h43q25 -117 47 -190t41.5 -105.5t34 -41.5t35.5 -9q51 0 51 94q0 67 -22.5 142.5t-45 157.5t-22.5 163v604z" />
    <glyph glyph-name="uni0453" unicode="&#x453;" horiz-adv-x="944" 
d="M39 0v37q46 11 65 44.5t19 106.5v648q0 73 -19 107t-65 46v35h817l49 -524h-41q-21 135 -40.5 222t-38 140.5t-44.5 79.5t-50 33.5t-64 7.5h-148v-795q0 -73 19 -106.5t65 -44.5v-37h-524zM236 1217l215 143q127 81 192.5 49.5t65.5 -158.5l-463 -61z" />
    <glyph glyph-name="uni0454" unicode="&#x454;" horiz-adv-x="997" 
d="M57 504q0 251 144.5 398t394.5 147q63 0 143 -13.5t117 -13.5l49 -365h-41q-20 109 -46.5 182t-56 108t-56.5 48t-60 13q-105 0 -157 -107.5t-52 -292.5v-33h348v-40h-346q11 -188 75 -303t171 -115q165 0 236 274l41 -8q-49 -217 -159 -312.5t-278 -95.5
q-215 0 -341 142t-126 387z" />
    <glyph glyph-name="uni0455" unicode="&#x455;" horiz-adv-x="907" 
d="M84 408q26 -100 54.5 -172t55.5 -114t59 -66t60.5 -32t65.5 -8q57 0 82.5 28.5t25.5 74.5q0 37 -14 74.5t-48 85t-62 80.5t-84 96q-107 109 -156 186.5t-49 165.5q0 124 97.5 183t266.5 59q73 0 179 -13.5t157 -13.5l55 -365h-38q-22 95 -47.5 162t-48.5 103.5
t-52.5 56.5t-51 24.5t-52.5 4.5q-43 0 -68 -21.5t-25 -56.5q0 -58 50.5 -134t152.5 -184q111 -116 160 -194t49 -168q0 -275 -397 -275q-90 0 -207.5 13.5t-159.5 13.5l-51 406h41z" />
    <glyph glyph-name="uni0456" unicode="&#x456;" horiz-adv-x="606" 
d="M125 786q0 72 -19.5 106t-66.5 46v37h115q129 0 197 13.5t110 60.5h20v-861q0 -73 19.5 -106.5t66.5 -44.5v-37h-528v37q46 11 66 44.5t20 106.5v598zM86 1296q0 75 56.5 118.5t154.5 43.5t153.5 -43.5t55.5 -118.5q0 -74 -55.5 -117.5t-153.5 -43.5t-154.5 43.5
t-56.5 117.5z" />
    <glyph glyph-name="uni0457" unicode="&#x457;" horiz-adv-x="606" 
d="M125 786q0 72 -19.5 106t-66.5 46v37h115q129 0 197 13.5t110 60.5h20v-861q0 -73 19.5 -106.5t66.5 -44.5v-37h-528v37q46 11 66 44.5t20 106.5v598zM-55 1317q0 62 40.5 97.5t112.5 35.5q70 0 111 -35.5t41 -97.5q0 -63 -40.5 -99t-111.5 -36q-72 0 -112.5 36t-40.5 99
zM338 1317q0 62 41 97.5t113 35.5q71 0 112 -36t41 -97q0 -63 -41 -99t-112 -36q-72 0 -113 36t-41 99z" />
    <glyph glyph-name="uni0458" unicode="&#x458;" horiz-adv-x="575" 
d="M131 786q0 73 -19.5 107.5t-66.5 46.5v35h115q129 0 197 14t110 62h20v-1041q0 -68 -1.5 -113t-7.5 -96t-17.5 -83.5t-31 -64t-47.5 -49t-68 -28t-93 -10.5q-58 0 -125.5 13t-95.5 13l-49 385h39q21 -101 42 -172t37.5 -109t36.5 -58.5t33.5 -25.5t32.5 -5q61 0 61 102
q0 53 -16 106.5t-35 93t-35 101.5t-16 129v647zM82 1296q0 75 56.5 118.5t154.5 43.5t153.5 -43.5t55.5 -118.5q0 -74 -55.5 -117.5t-153.5 -43.5t-154.5 43.5t-56.5 117.5z" />
    <glyph glyph-name="uni0459" unicode="&#x459;" horiz-adv-x="1773" 
d="M1260 -23q-44 0 -194 11.5t-292 11.5h-37v16q29 9 29 66v901h-317l-5 -166q-3 -145 -9.5 -252.5t-19 -203t-32.5 -160t-49 -112t-68.5 -70t-91.5 -23.5l-164 328l39 14q74 -116 113.5 -154.5t77.5 -38.5q78 0 117 165.5t46 541.5v-16q1 73 -20 107t-74 46v35h842v-16
q-17 -5 -24 -19.5t-7 -46.5v-268q94 24 178 24q98 0 180 -21t146.5 -63.5t100.5 -114.5t36 -167q0 -355 -501 -355zM1120 31q60 -13 90 -13q41 0 71.5 14t56 49t38.5 101.5t13 163.5q0 91 -11.5 152.5t-34.5 95.5t-52.5 47.5t-71.5 13.5q-48 0 -99 -28v-596z" />
    <glyph glyph-name="uni045A" unicode="&#x45a;" horiz-adv-x="1787" 
d="M1274 -23q-47 0 -191 11t-276 12h-113v37q46 11 65 44.5t19 106.5v316h-299v-316q0 -73 19 -106.5t65 -44.5v-37h-524v37q46 11 65 44.5t19 106.5v648q0 73 -19 107t-65 46v35h524v-35q-46 -12 -65 -46t-19 -107v-291h299v291q0 73 -19 107t-65 46v35h525v-35
q-46 -12 -65 -46t-19 -107v-162q94 24 178 24q98 0 180 -21t146.5 -63.5t100.5 -114.5t36 -167q0 -355 -502 -355zM1135 31q57 -13 90 -13q40 0 70.5 14t55.5 49t38.5 101.5t13.5 163.5q0 91 -11.5 152.5t-34.5 95.5t-52.5 47.5t-71.5 13.5q-47 0 -98 -28v-596z" />
    <glyph glyph-name="uni045B" unicode="&#x45b;" horiz-adv-x="1234" 
d="M668 0v37q46 11 66 44.5t20 106.5v580q0 152 -99 152q-79 0 -186 -107v-625q0 -73 19.5 -106.5t66.5 -44.5v-37h-528v37q46 11 66 44.5t20 106.5v971h-86v41h86q0 71 -19.5 103.5t-66.5 44.5v36h114q129 0 197.5 13.5t110.5 60.5h20v-258h262v-41h-262v-285
q144 175 346 175q135 0 214 -75t79 -243v-543q0 -73 20 -106.5t66 -44.5v-37h-526z" />
    <glyph glyph-name="uni045C" unicode="&#x45c;" horiz-adv-x="1232" 
d="M39 0v37q43 11 61.5 44.5t18.5 106.5v648q0 73 -18.5 107t-61.5 46v35h514v-35q-43 -12 -61.5 -46t-18.5 -107v-220q82 0 115 22t94 120q17 28 40.5 66.5t36 59.5t31.5 49t32.5 42.5t33 31t39.5 24t45.5 13t56.5 5.5q38 0 79.5 -5.5t56.5 -5.5l51 -432h-41
q-25 157 -49.5 242.5t-54.5 120.5t-74 35q-15 0 -27.5 -2t-25 -9.5t-21.5 -13t-22.5 -21t-21.5 -25.5t-24 -34.5t-25 -39t-29.5 -48t-33.5 -53.5q-66 -110 -117 -146q142 -3 228 -41t125 -137l104 -260q43 -111 148 -137v-37h-566v37q47 10 51.5 41t-22.5 100l-74 213
q-31 88 -62.5 129.5t-76.5 48.5v-381q0 -73 18.5 -106.5t61.5 -44.5v-37h-514zM383 1217l215 143q128 81 193 49.5t65 -158.5l-463 -61z" />
    <glyph glyph-name="uni045D" unicode="&#x45d;" horiz-adv-x="1234" 
d="M39 0v37q46 11 65 44.5t19 106.5v648q0 73 -19 107t-65 46v35h524v-35q-46 -12 -65 -46t-19 -107v-695l277 883h440v-35q-46 -12 -65 -46t-19 -107v-648q0 -73 19 -106.5t65 -44.5v-37h-522v37q45 11 63.5 44.5t18.5 106.5v693l-277 -881h-440zM381 1251
q0 127 64.5 158.5t193.5 -49.5l215 -143l-10 -27z" />
    <glyph glyph-name="uni045F" unicode="&#x45f;" horiz-adv-x="1255" 
d="M39 0v37q46 12 65 45t19 106v648q0 73 -19 107t-65 46v35h524v-35q-46 -12 -65 -46t-19 -107v-795h299v795q0 72 -19.5 106.5t-64.5 46.5v35h523v-35q-45 -12 -64.5 -46.5t-19.5 -106.5v-648q0 -72 19.5 -105.5t64.5 -45.5v-37h-304q-77 0 -122.5 -14.5t-77 -59
t-45 -117.5t-19.5 -198h-39q-6 125 -19.5 198t-45 117.5t-77 59t-122.5 14.5h-307z" />
    <glyph glyph-name="uni0490" unicode="&#x490;" horiz-adv-x="1007" 
d="M63 0v37q45 11 63.5 44.5t18.5 106.5v1057q0 73 -19.5 107.5t-66.5 46.5v35h662q39 0 64.5 4t52 18.5t45.5 38t40.5 65.5t42 98.5t46.5 139.5h41l-78 -405h-461v-1205q0 -73 22 -106.5t76 -44.5v-37h-549z" />
    <glyph glyph-name="uni0491" unicode="&#x491;" horiz-adv-x="915" 
d="M39 0v37q46 11 65 44.5t19 106.5v648q0 73 -19 107t-65 46v35h561q50 0 80 7.5t58 27.5t50.5 65.5t44.5 110t52 172.5h41l-68 -424h-379v-795q0 -73 19 -106.5t65 -44.5v-37h-524z" />
    <glyph glyph-name="uni0E3F" unicode="&#xe3f;" horiz-adv-x="1255" 
d="M143 1245q0 73 -19 107.5t-65 46.5v35h113q124 1 275 9.5t155 8.5v104h41v-102h19q234 0 344 -80.5t110 -259.5q0 -149 -73 -227.5t-207 -106.5q174 -33 268 -129t94 -274q0 -199 -141 -298t-398 -99h-16v-103h-41v105q-38 1 -174 9t-256 9h-113v37q46 11 65 44.5
t19 106.5v1057zM512 31q45 -11 86 -11h4v742q-32 0 -90 8v-739zM512 813q45 -10 76 -10h14v610h-8q-53 0 -82 -8v-592zM643 25q86 12 125 91t39 253q0 359 -164 389v-733zM643 811q57 20 84 92t27 209q0 141 -27.5 209t-83.5 86v-596z" />
    <glyph glyph-name="Wgrave" unicode="&#x1e80;" horiz-adv-x="1830" 
d="M713 -25h-156l-395 1278q-22 66 -57 99.5t-85 46.5v35h1209v-37q-54 -7 -67 -41t7 -101l234 -770l227 770q21 66 7.5 99t-72.5 43v37h245v-35q-49 -13 -82.5 -46t-54.5 -100l-370 -1278h-156l-223 725zM580 1255l233 -770l86 293l-147 477q-20 71 -47 106.5t-72 35.5
q-94 0 -53 -142zM684 1620q0 127 64.5 158.5t193.5 -49.5l215 -144l-10 -26z" />
    <glyph glyph-name="wgrave" unicode="&#x1e81;" horiz-adv-x="1685" 
d="M170 848q-23 64 -60.5 95.5t-89.5 45.5v35h1192v-37q-59 -10 -69 -41.5t16 -95.5l174 -492l148 488q23 67 10.5 99t-72.5 42v37h246v-35q-105 -27 -141 -145l-275 -869h-164l-231 625l-197 -625h-163zM569 850l172 -492l93 299l-72 193q-25 70 -55.5 103.5t-77.5 33.5
q-51 0 -66.5 -36.5t6.5 -100.5zM610 1251q0 127 64.5 158.5t193.5 -49.5l215 -143l-10 -27z" />
    <glyph glyph-name="Wacute" unicode="&#x1e82;" horiz-adv-x="1830" 
d="M713 -25h-156l-395 1278q-22 66 -57 99.5t-85 46.5v35h1209v-37q-54 -7 -67 -41t7 -101l234 -770l227 770q21 66 7.5 99t-72.5 43v37h245v-35q-49 -13 -82.5 -46t-54.5 -100l-370 -1278h-156l-223 725zM580 1255l233 -770l86 293l-147 477q-20 71 -47 106.5t-72 35.5
q-94 0 -53 -142zM684 1585l215 144q127 81 192.5 49.5t65.5 -158.5l-463 -61z" />
    <glyph glyph-name="wacute" unicode="&#x1e83;" horiz-adv-x="1685" 
d="M170 848q-23 64 -60.5 95.5t-89.5 45.5v35h1192v-37q-59 -10 -69 -41.5t16 -95.5l174 -492l148 488q23 67 10.5 99t-72.5 42v37h246v-35q-105 -27 -141 -145l-275 -869h-164l-231 625l-197 -625h-163zM569 850l172 -492l93 299l-72 193q-25 70 -55.5 103.5t-77.5 33.5
q-51 0 -66.5 -36.5t6.5 -100.5zM610 1217l215 143q127 81 192.5 49.5t65.5 -158.5l-462 -61z" />
    <glyph glyph-name="Wdieresis" unicode="&#x1e84;" horiz-adv-x="1830" 
d="M713 -25h-156l-395 1278q-22 66 -57 99.5t-85 46.5v35h1209v-37q-54 -7 -67 -41t7 -101l234 -770l227 770q21 66 7.5 99t-72.5 43v37h245v-35q-49 -13 -82.5 -46t-54.5 -100l-370 -1278h-156l-223 725zM571 1686q0 62 41 97.5t113 35.5q70 0 111 -35.5t41 -97.5
q0 -63 -41 -99.5t-111 -36.5q-72 0 -113 36.5t-41 99.5zM580 1255l233 -770l86 293l-147 477q-20 71 -47 106.5t-72 35.5q-94 0 -53 -142zM965 1686q0 62 40.5 97.5t112.5 35.5q71 0 112.5 -36t41.5 -97q0 -63 -41.5 -99.5t-112.5 -36.5q-72 0 -112.5 36.5t-40.5 99.5z" />
    <glyph glyph-name="wdieresis" unicode="&#x1e85;" horiz-adv-x="1685" 
d="M170 848q-23 64 -60.5 95.5t-89.5 45.5v35h1192v-37q-59 -10 -69 -41.5t16 -95.5l174 -492l148 488q23 67 10.5 99t-72.5 42v37h246v-35q-105 -27 -141 -145l-275 -869h-164l-231 625l-197 -625h-163zM498 1317q0 62 40.5 97.5t112.5 35.5q70 0 111 -35.5t41 -97.5
q0 -63 -40.5 -99t-111.5 -36q-72 0 -112.5 36t-40.5 99zM569 850l172 -492l93 299l-72 193q-25 70 -55.5 103.5t-77.5 33.5q-51 0 -66.5 -36.5t6.5 -100.5zM891 1317q0 62 40.5 97.5t112.5 35.5q71 0 112.5 -36t41.5 -97q0 -63 -41.5 -99t-112.5 -36q-72 0 -112.5 36
t-40.5 99z" />
    <glyph glyph-name="uni1E9E" unicode="&#x1e9e;" horiz-adv-x="1439" 
d="M31 0v37q45 11 64.5 45t19.5 106v842q0 97 26.5 171t73 122.5t115 79t146.5 43t173 12.5t210 -13t163 -13v-41l-356 -404q93 -19 175.5 -49.5t159.5 -81t132.5 -115t88.5 -154.5t33 -196q0 -90 -24.5 -163t-64.5 -119t-93 -77t-107 -44t-110 -13q-86 0 -152 13.5
t-92 13.5l-45 551h41q34 -226 61 -341t49 -149t54 -34q42 0 61 72.5t19 222.5q0 253 -59.5 412.5t-167.5 217.5v50l305 356q-95 57 -217 57q-53 0 -92 -10.5t-64 -34t-40.5 -50t-23 -69t-10 -80.5t-2.5 -94v-1079h-450z" />
    <glyph glyph-name="Ygrave" unicode="&#x1ef2;" horiz-adv-x="1214" 
d="M1001 1257q27 69 16.5 99.5t-73.5 42.5v35h250v-35q-50 -14 -87 -46t-60 -96l-224 -614v-455q0 -73 19 -106.5t65 -44.5v-37h-536v37q46 11 65 44.5t19 106.5v377l-279 695q-45 110 -156 139v35h644v-35q-64 -12 -74 -42.5t18 -99.5l197 -534zM420 1620q0 127 64.5 158.5
t193.5 -49.5l215 -144l-10 -26z" />
    <glyph glyph-name="ygrave" unicode="&#x1ef3;" horiz-adv-x="1071" 
d="M403 -438q-34 0 -85.5 13t-90.5 13l-61 392h41q29 -124 54.5 -201.5t50.5 -115t45.5 -49t50.5 -11.5q54 0 87.5 49t71.5 178l43 145h-141l-303 871q-39 115 -146 143v35h611v-35q-64 -12 -76.5 -43t12.5 -100l158 -481l143 479q24 70 10.5 101.5t-79.5 43.5v35h252v-35
q-50 -13 -85 -46t-55 -99l-311 -1047q-16 -52 -27.5 -83t-28.5 -63.5t-35.5 -49.5t-45 -28t-60.5 -11zM356 1251q0 127 64.5 158.5t193.5 -49.5l215 -143l-10 -27z" />
    <glyph glyph-name="endash" unicode="&#x2013;" horiz-adv-x="909" 
d="M61 532h787v-40h-787v40z" />
    <glyph glyph-name="emdash" unicode="&#x2014;" horiz-adv-x="1406" 
d="M61 532h1313v-40h-1313v40z" />
    <glyph glyph-name="quoteleft" unicode="&#x2018;" horiz-adv-x="380" 
d="M303 1436q-75 -100 -96 -138.5t-21 -70.5q0 -25 15.5 -43t37.5 -30.5t44 -26t37.5 -38t15.5 -59.5q0 -59 -38 -92t-101 -33q-73 0 -113.5 40t-40.5 116q0 51 17.5 102.5t53 104.5t71.5 96t89 100z" />
    <glyph glyph-name="quoteright" unicode="&#x2019;" horiz-adv-x="380" 
d="M78 930q75 100 96 138.5t21 70.5q0 25 -15.5 43t-37.5 30t-44 26t-37.5 38t-15.5 59q0 59 38 92t101 33q73 0 113.5 -39.5t40.5 -115.5q0 -96 -60 -190.5t-172 -213.5z" />
    <glyph glyph-name="quotesinglbase" unicode="&#x201a;" horiz-adv-x="380" 
d="M78 -268q75 100 96 138.5t21 70.5q0 25 -15.5 43t-37.5 30t-44 26t-37.5 38t-15.5 59q0 59 38 92t101 33q73 0 113.5 -40t40.5 -116q0 -96 -60 -190t-172 -213z" />
    <glyph glyph-name="quotedblleft" unicode="&#x201c;" horiz-adv-x="751" 
d="M303 1436q-75 -100 -96 -138.5t-21 -70.5q0 -25 15.5 -43t37.5 -30.5t44 -26t37.5 -38t15.5 -59.5q0 -59 -38 -92t-101 -33q-73 0 -113.5 40t-40.5 116q0 51 17.5 102.5t53 104.5t71.5 96t89 100zM414 1061q0 51 17.5 102.5t53 104.5t71.5 96t89 100l29 -28
q-75 -100 -96 -138.5t-21 -70.5q0 -25 15.5 -43t37.5 -30.5t44 -26t37.5 -38t15.5 -59.5q0 -59 -38.5 -92t-101.5 -33q-73 0 -113 40t-40 116z" />
    <glyph glyph-name="quotedblright" unicode="&#x201d;" horiz-adv-x="753" 
d="M78 930q75 100 96 138.5t21 70.5q0 25 -15.5 43t-37.5 30t-44 26t-37.5 38t-15.5 59q0 59 38 92t101 33q73 0 113.5 -39.5t40.5 -115.5q0 -96 -60 -190.5t-172 -213.5zM416 1335q0 59 38 92t101 33q73 0 113.5 -39.5t40.5 -115.5q0 -96 -60 -190.5t-172 -213.5l-28 29
q74 99 95 138t21 71q0 25 -15.5 43t-37.5 30t-43.5 26t-37 38t-15.5 59z" />
    <glyph glyph-name="quotedblbase" unicode="&#x201e;" horiz-adv-x="759" 
d="M78 -268q75 100 96 138.5t21 70.5q0 25 -15.5 43t-37.5 30t-44 26t-37.5 38t-15.5 59q0 59 38 92t101 33q73 0 113.5 -40t40.5 -116q0 -96 -60 -190t-172 -213zM424 137q0 59 38 92t101 33q73 0 113.5 -40t40.5 -116q0 -96 -60 -190t-172 -213l-28 29q74 99 95 138t21 71
q0 25 -15.5 43t-37.5 30t-43.5 26t-37 38t-15.5 59z" />
    <glyph glyph-name="dagger" unicode="&#x2020;" horiz-adv-x="647" 
d="M324 1460q31 0 54 -20t23 -54q0 -26 -16.5 -59.5t-33.5 -77.5t-17 -96q51 0 105.5 33t82.5 33q34 0 54 -22.5t20 -53.5t-20 -54.5t-54 -23.5q-28 0 -82.5 34t-105.5 34v-1338h-21v1338q-51 0 -105.5 -34t-82.5 -34q-34 0 -54 23.5t-20 54.5t20 53.5t54 22.5
q28 0 82.5 -33t105.5 -33q0 52 -16.5 96t-32.5 77.5t-16 59.5q0 34 22.5 54t53.5 20z" />
    <glyph glyph-name="daggerdbl" unicode="&#x2021;" horiz-adv-x="647" 
d="M324 1460q31 0 54 -20t23 -54q0 -26 -16.5 -59.5t-33.5 -77.5t-17 -96q51 0 105.5 33t82.5 33q34 0 54 -22.5t20 -53.5t-20 -54.5t-54 -23.5q-28 0 -82.5 34t-105.5 34v-412q0 -31 1.5 -44.5t9.5 -28t25.5 -19t49.5 -4.5v-21q-32 0 -49.5 -4.5t-25.5 -19t-9.5 -27.5
t-1.5 -45v-412q51 0 105.5 34t82.5 34q34 0 54 -23.5t20 -54.5t-20 -53.5t-54 -22.5q-28 0 -82.5 33t-105.5 33q0 -52 17 -96.5t33.5 -78t16.5 -59.5q0 -34 -23 -53.5t-54 -19.5t-53.5 19.5t-22.5 53.5q0 26 16 59.5t32.5 78t16.5 96.5q-51 0 -105.5 -33t-82.5 -33
q-34 0 -54 22.5t-20 53.5t20 54.5t54 23.5q28 0 82.5 -34t105.5 -34v412q0 32 -1.5 45t-9.5 27.5t-25.5 19t-49.5 4.5v21q32 0 49.5 4.5t25.5 19t9.5 28t1.5 44.5v412q-51 0 -105.5 -34t-82.5 -34q-34 0 -54 23.5t-20 54.5t20 53.5t54 22.5q28 0 82.5 -33t105.5 -33
q0 52 -16.5 96t-32.5 77.5t-16 59.5q0 34 22.5 54t53.5 20z" />
    <glyph glyph-name="bullet" unicode="&#x2022;" horiz-adv-x="700" 
d="M348 266q-127 0 -200.5 76.5t-73.5 192.5q0 114 73.5 188t200.5 74q128 0 199 -73.5t71 -188.5q0 -117 -71 -193t-199 -76z" />
    <glyph glyph-name="ellipsis" unicode="&#x2026;" horiz-adv-x="1187" 
d="M584 -25q-68 0 -108 41t-40 103t39.5 101.5t108.5 39.5q68 0 106.5 -39.5t38.5 -101.5t-38.5 -103t-106.5 -41zM43 119q0 62 39 101.5t108 39.5t107.5 -39.5t38.5 -101.5t-39 -103t-107 -41t-107.5 41t-39.5 103zM831 119q0 62 39.5 101.5t108.5 39.5q68 0 106.5 -39.5
t38.5 -101.5t-38.5 -103t-106.5 -41t-108 41t-40 103z" />
    <glyph glyph-name="perthousand" unicode="&#x2030;" horiz-adv-x="2238" 
d="M1853 -25q-147 0 -240 92t-93 255q0 161 93 251.5t240 90.5q148 0 242 -90.5t94 -251.5q0 -164 -94 -255.5t-242 -91.5zM49 1114q0 162 93.5 253t240.5 91q148 0 242 -91t94 -253t-94 -253t-242 -91q-147 0 -240.5 91.5t-93.5 252.5zM305 1114q0 -170 15 -236.5t63 -66.5
q50 0 65 66.5t15 236.5q0 169 -15 236t-65 67q-48 0 -63 -67t-15 -236zM397 0l641 1434h47l-641 -1434h-47zM764 322q0 161 94 251.5t242 90.5q146 0 240 -90.5t94 -251.5q0 -164 -94 -255.5t-240 -91.5q-147 0 -241.5 92t-94.5 255zM1020 322q0 -172 15 -239t65 -67
q48 0 63 67t15 239q0 168 -15 234.5t-63 66.5q-50 0 -65 -66.5t-15 -234.5zM1776 322q0 -173 14.5 -239.5t62.5 -66.5q50 0 65 67t15 239q0 168 -15 234.5t-65 66.5q-48 0 -62.5 -66.5t-14.5 -234.5z" />
    <glyph glyph-name="guilsinglleft" unicode="&#x2039;" horiz-adv-x="419" 
d="M49 514q0 61 60 113l249 209l27 -19l-145 -303l145 -303l-27 -18l-249 208q-60 52 -60 113z" />
    <glyph glyph-name="guilsinglright" unicode="&#x203a;" horiz-adv-x="419" 
d="M371 514q0 -61 -60 -113l-250 -208l-26 18l145 303l-145 303l26 19l250 -209q60 -52 60 -113z" />
    <glyph glyph-name="fraction" unicode="&#x2044;" horiz-adv-x="192" 
d="M-190 0h-46l619 1434h45z" />
    <glyph glyph-name="uni2070" unicode="&#x2070;" horiz-adv-x="665" 
d="M334 909q-135 0 -220 91.5t-85 279.5q0 190 85 280.5t220 90.5q134 0 219.5 -91.5t85.5 -279.5q0 -190 -85 -280.5t-220 -90.5zM254 1280q0 -142 8 -217.5t24.5 -104t47.5 -28.5q30 0 46 28.5t24 104.5t8 217t-8 217t-24 104.5t-46 28.5q-31 0 -47.5 -29t-24.5 -104.5
t-8 -216.5z" />
    <glyph glyph-name="uni2074" unicode="&#x2074;" horiz-adv-x="581" 
d="M287 1659q55 -26 97 -33.5t105 -7.5v-393h80v-146h-80v-63q0 -63 50 -74v-20h-312v20q49 11 49 74v63h-264v21l264 559h11zM94 1225h182v385z" />
    <glyph glyph-name="uni2075" unicode="&#x2075;" horiz-adv-x="548" 
d="M43 1208q30 -156 62.5 -217t80.5 -61q53 0 81 59t28 205q0 115 -23 166t-73 51q-79 0 -142 -129h-20l45 356h371v-143h-367l-12 -92q7 0 62.5 18.5t117.5 18.5q125 0 199.5 -64.5t74.5 -191.5q0 -75 -22.5 -130t-63 -85.5t-90 -45t-110.5 -14.5q-57 0 -115 5.5t-78 5.5
l-26 288h20z" />
    <glyph glyph-name="uni2076" unicode="&#x2076;" horiz-adv-x="659" 
d="M20 1253q0 183 100.5 290.5t280.5 107.5q40 0 92 -5.5t70 -5.5l25 -206h-23q-24 196 -149 196q-138 0 -158 -284q67 59 170 59q91 0 152 -56t61 -171q0 -132 -81.5 -200.5t-217.5 -68.5q-66 0 -121 18t-101.5 56t-73 107t-26.5 163zM254 1206q0 -117 9 -177.5t25 -79.5
t46 -19q41 0 58.5 44.5t17.5 174.5q0 118 -16.5 162.5t-51.5 44.5q-40 0 -86 -39q-2 -39 -2 -111z" />
    <glyph glyph-name="uni2077" unicode="&#x2077;" horiz-adv-x="559" 
d="M563 1618q-96 -120 -140 -210t-59.5 -194.5t-15.5 -291.5h-235q0 187 73 319.5t263 251.5h-302q-31 0 -45.5 -3t-29.5 -16.5t-23 -39t-18 -74.5h-21l27 278h526v-20z" />
    <glyph glyph-name="uni2078" unicode="&#x2078;" horiz-adv-x="681" 
d="M383 1321l43 12q-2 1 -7 3t-7 3q-22 9 -39 23q-32 -36 -86 -51l-39 -11q3 -1 8 -4t8 -4q28 -14 37 -20q30 34 82 49zM27 1096q0 -93 83.5 -140t225.5 -47t229.5 49.5t87.5 145.5q0 77 -57 127.5t-170 101.5q94 26 143 63.5t49 104.5q0 74 -74.5 112t-195.5 38
q-134 0 -211.5 -42t-77.5 -118q0 -57 42 -96.5t147 -94.5q-221 -66 -221 -204zM244 1081q0 131 57 191q109 -69 109 -207q0 -135 -80 -135q-86 0 -86 151zM289 1534q0 96 65 96q66 0 66 -108q0 -105 -47 -160q-84 61 -84 172z" />
    <glyph glyph-name="uni2079" unicode="&#x2079;" horiz-adv-x="659" 
d="M639 1307q0 -183 -100.5 -290.5t-280.5 -107.5q-40 0 -92 5.5t-70 5.5l-24 206h22q24 -196 150 -196q137 0 157 284q-67 -59 -170 -59q-91 0 -152 56t-61 171q0 132 81.5 200.5t217.5 68.5q66 0 121 -18t101.5 -56t73 -107t26.5 -163zM250 1411q0 -81 8 -127.5t22 -63
t37 -16.5q40 0 86 39q3 59 3 111q0 117 -9 177.5t-25 79.5t-46 19q-41 0 -58.5 -44.5t-17.5 -174.5z" />
    <glyph glyph-name="uni2080" unicode="&#x2080;" horiz-adv-x="665" 
d="M334 -217q-135 0 -220 91.5t-85 279.5q0 97 24 170t66.5 116t96.5 63.5t118 20.5q134 0 219.5 -91t85.5 -279q0 -190 -85 -280.5t-220 -90.5zM254 154q0 -142 8 -217.5t24.5 -104.5t47.5 -29q30 0 46 29t24 104.5t8 217.5q0 141 -8 217t-24 104.5t-46 28.5
q-31 0 -47.5 -29t-24.5 -104.5t-8 -216.5z" />
    <glyph glyph-name="uni2081" unicode="&#x2081;" horiz-adv-x="380" 
d="M25 399q171 11 276 125h10v-635q0 -32 11 -49.5t38 -23.5v-21h-303v21q47 11 47 73v412q0 42 -16 60t-63 18v20z" />
    <glyph glyph-name="uni2082" unicode="&#x2082;" horiz-adv-x="540" 
d="M12 -184q67 97 106.5 158t85.5 144t67.5 153t21.5 132q0 101 -74 101q-48 0 -82.5 -55t-66.5 -207h-21l27 272q19 0 72.5 5t97.5 5q274 0 274 -194q0 -69 -31 -128t-91.5 -106.5t-123 -82.5t-153.5 -74h205q78 0 108.5 26.5t48.5 116.5h21l-27 -287h-465v21z" />
    <glyph glyph-name="uni2083" unicode="&#x2083;" horiz-adv-x="559" 
d="M41 82q29 -165 61.5 -222t85.5 -57q57 0 87 61.5t30 164.5q0 79 -21 132.5t-63 53.5q-32 0 -82 -47l-14 16q72 83 105.5 139t33.5 115q0 66 -57 66q-50 0 -83.5 -55t-62.5 -207h-20l27 272q20 0 82.5 5t111.5 5q207 0 207 -127q0 -62 -37.5 -96.5t-101.5 -54.5
q81 -7 145 -64.5t64 -158.5q0 -126 -91.5 -183t-238.5 -57q-46 0 -95.5 5t-66.5 5l-27 289h21z" />
    <glyph glyph-name="uni2084" unicode="&#x2084;" horiz-adv-x="581" 
d="M287 532q54 -26 95.5 -33t106.5 -7v-394h80v-145h-80v-64q0 -62 50 -73v-21h-312v21q49 11 49 73v64h-264v20l264 559h11zM94 98h182v385z" />
    <glyph glyph-name="uni2085" unicode="&#x2085;" horiz-adv-x="548" 
d="M43 82q30 -156 62.5 -217.5t80.5 -61.5q53 0 81 59.5t28 205.5q0 115 -23 166t-73 51q-79 0 -142 -129h-20l45 356h371v-143h-367l-12 -93q7 0 62.5 18.5t117.5 18.5q125 0 199.5 -64.5t74.5 -191.5q0 -75 -22.5 -129.5t-63 -85.5t-90 -45t-110.5 -14q-57 0 -115 5t-78 5
l-26 289h20z" />
    <glyph glyph-name="uni2086" unicode="&#x2086;" horiz-adv-x="659" 
d="M20 127q0 183 100.5 290t280.5 107q40 0 92 -5t70 -5l25 -207h-23q-24 197 -149 197q-138 0 -158 -285q68 60 170 60q90 0 151.5 -56.5t61.5 -171.5q0 -132 -81.5 -200t-217.5 -68q-66 0 -121 18t-101.5 56t-73 107t-26.5 163zM254 80q0 -117 9 -178t25 -80t46 -19
q41 0 58.5 45t17.5 175q0 118 -16.5 162t-51.5 44q-40 0 -86 -39q-2 -39 -2 -110z" />
    <glyph glyph-name="uni2087" unicode="&#x2087;" horiz-adv-x="559" 
d="M563 492q-96 -120 -140 -210t-59.5 -195t-15.5 -292h-235q0 187 73 320t263 252h-302q-40 0 -58 -7t-31.5 -35t-26.5 -92h-21l27 279h526v-20z" />
    <glyph glyph-name="uni2088" unicode="&#x2088;" horiz-adv-x="681" 
d="M383 195l43 12q-2 1 -7 3t-7 3q-22 9 -39 23q-33 -38 -86 -52l-39 -10q3 -1 8 -4t8 -4q22 -11 37 -21q31 35 82 50zM27 -31q0 -93 83 -139.5t226 -46.5q142 0 229.5 49t87.5 145q0 77 -57 128t-170 102q94 26 143 63.5t49 104.5q0 74 -74.5 111.5t-195.5 37.5
q-134 0 -211.5 -41.5t-77.5 -117.5q0 -57 42 -96.5t147 -94.5q-221 -66 -221 -205zM244 -45q0 130 57 190q109 -69 109 -206q0 -136 -80 -136q-86 0 -86 152zM289 408q0 96 65 96q66 0 66 -109q0 -104 -47 -159q-84 61 -84 172z" />
    <glyph glyph-name="uni2089" unicode="&#x2089;" horiz-adv-x="659" 
d="M639 180q0 -183 -100.5 -290t-280.5 -107q-40 0 -92 5t-70 5l-24 207h22q24 -197 150 -197q137 0 157 285q-67 -59 -170 -59q-91 0 -152 56t-61 171q0 132 81.5 200t217.5 68q66 0 121 -18t101.5 -56t73 -107t26.5 -163zM250 285q0 -81 8 -127.5t22 -63t37 -16.5
q40 0 86 39q3 59 3 110q0 117 -9 178t-25 80t-46 19q-41 0 -58.5 -44.5t-17.5 -174.5z" />
    <glyph glyph-name="colonmonetary" unicode="&#x20a1;" horiz-adv-x="1273" 
d="M43 717q0 185 50 328t139.5 232.5t209 135t263.5 45.5h26l35 182h41l-35 -184q37 -2 94 -10l37 194h41l-37 -200q62 -8 94 -8l50 -531h-41q-46 319 -123 432l-223 -1198q43 -16 84 -16q254 0 315 481l39 -8q-16 -146 -46.5 -254t-71 -177t-96.5 -110.5t-116.5 -58
t-138.5 -17.5l-33 -178h-43l33 180q-35 0 -92 11l-35 -191h-43l37 201q-192 56 -303 238.5t-111 480.5zM449 764q0 -293 67 -455l209 1108q-133 -2 -204.5 -169t-71.5 -484zM547 248q36 -61 78 -90l227 1216q-37 32 -88 41z" />
    <glyph glyph-name="franc" unicode="&#x20a3;" horiz-adv-x="1054" 
d="M680 743q28 0 45 2t31.5 11.5t20.5 24t9.5 43.5t3 65t-3.5 94h41l43 -541h-43q-5 50 -9 80.5t-9.5 61t-10 46.5t-13.5 31.5t-18 22t-24.5 11.5t-31 6t-39.5 1h-160v-378h369v-41h-369v-95q0 -73 19 -106.5t65 -44.5v-37h-537v37q46 11 65 44.5t19 106.5v95h-112v41h112
v921q0 73 -19 107.5t-65 46.5v35h930l49 -557h-41q-18 121 -33.5 204t-34.5 141.5t-36 91.5t-43.5 51t-52 23t-66.5 5h-219v-650h168z" />
    <glyph glyph-name="uni20A6" unicode="&#x20a6;" horiz-adv-x="1122" 
d="M946 1245q0 73 -19 107.5t-65 46.5v35h209v-35q-45 -12 -64.5 -47t-19.5 -107v-399h156v-41h-156v-94h156v-41h-156v-670h-272l-283 670h-258v-482q0 -72 19.5 -106t64.5 -45v-37h-209v37q46 11 65 44.5t19 106.5v482h-151v41h151v94h-151v41h151v495q-37 40 -86 58v35
h500l244 -588h155v399zM174 711h242l-41 94h-201v-94zM174 846h184l-174 414l-10 22v-436zM807 805l39 -94h100v94h-139zM864 670l82 -201v201h-82z" />
    <glyph glyph-name="peseta" unicode="&#x20a7;" horiz-adv-x="1204" 
d="M59 0v37q46 11 65 44.5t19 106.5v787h-110v41h110v229q0 73 -19 107.5t-65 46.5v35h113q132 1 277.5 12.5t193.5 11.5q85 0 155 -11.5t137 -41.5t114 -78.5t78 -127.5t36 -183h185v-41h-183v-6q0 -133 -36 -233t-102 -162t-155 -92.5t-200 -30.5q-74 0 -160 18v-281
q0 -73 25 -106.5t84 -44.5v-37h-562zM512 516q44 -24 94 -24q42 0 70.5 17.5t52.5 64.5t35.5 140t11.5 234v27h-264v-459zM512 1016h264q-3 121 -17 202t-39 123.5t-54 59t-70 16.5q-38 0 -84 -12v-389z" />
    <glyph glyph-name="uni20A8" unicode="&#x20a8;" horiz-adv-x="2082" 
d="M59 0v37q46 11 65 44.5t19 106.5v1057q0 73 -19 107t-65 45v37h113q152 1 303.5 11.5t192.5 10.5q213 0 324.5 -75t111.5 -240q0 -284 -324 -346q111 -22 182.5 -83t117.5 -185.5t65 -325.5q9 -108 15.5 -175t13.5 -121t12 -80t13.5 -43.5t16 -21.5t19.5 -4q32 0 50 29.5
t28 114.5l39 -4q-11 -142 -71.5 -203.5t-193.5 -61.5q-105 0 -165 47t-95 166t-53 344q-5 50 -11 114t-9.5 105.5t-9 92.5t-10.5 83t-13 67.5t-18 56.5t-23 39t-30.5 26t-39.5 8h-4q-40 0 -94 11v-603q0 -73 19 -106.5t65 -44.5v-37h-537zM512 831q39 -10 80 -10
q147 0 147 309q0 285 -147 285q-47 0 -80 -10v-574zM1221 408h47q26 -100 53.5 -172t53.5 -114t57 -66t58.5 -32t63.5 -8q58 0 84.5 29t26.5 74q0 37 -14.5 75t-48.5 84.5t-63 80.5t-85 96q-107 109 -156 186.5t-49 165.5q0 124 95.5 183t259.5 59q74 0 184 -13.5t164 -13.5
l55 -365h-47q-21 95 -46 162t-47.5 103.5t-51.5 56.5t-50 24.5t-51 4.5q-42 0 -66 -21t-24 -57q0 -58 50 -134.5t151 -183.5q111 -116 160 -194t49 -168q0 -275 -398 -275q-90 0 -206.5 13.5t-157.5 13.5z" />
    <glyph glyph-name="uni20A9" unicode="&#x20a9;" horiz-adv-x="1867" 
d="M713 -25h-156l-250 811h-280v41h266l-29 93h-237v41h225l-90 292q-22 66 -57 99.5t-85 46.5v35h1209v-37q-54 -7 -67 -41t7 -101l91 -294h282l88 294q21 66 7.5 99t-72.5 43v37h245v-35q-49 -13 -82.5 -46t-54.5 -100l-84 -292h215v-41h-227l-27 -93h254v-41h-266
l-235 -811h-156l-223 725zM580 1255l90 -294h172l-90 294q-20 71 -47 106.5t-72 35.5q-94 0 -53 -142zM682 920l27 -93h176l-29 93h-174zM721 786l92 -301l86 293l-2 8h-176zM1272 920l26 -93h205l29 93h-260zM1311 786l92 -301l88 301h-180z" />
    <glyph glyph-name="Euro" unicode="&#x20ac;" horiz-adv-x="1112" 
d="M653 -25q-233 0 -379.5 165t-167.5 485h-120v41h118v55v39h-118v41h120q20 326 186 491.5t435 165.5q66 0 152 -13t127 -13l51 -525h-41q-23 157 -51.5 261t-64.5 157t-71.5 72.5t-83.5 19.5q-231 0 -237 -616h313v-41h-313l2 -94h311v-41h-309q25 -508 254 -508
q233 0 283 479l41 -6q-14 -146 -41.5 -254t-64.5 -177t-89.5 -110.5t-109.5 -57.5t-132 -16z" />
    <glyph glyph-name="uni20B1" unicode="&#x20b1;" horiz-adv-x="1204" 
d="M59 0v37q46 11 65 44.5t19 106.5v627h-100v41h100v135h-100v41h100v213q0 73 -19 107.5t-65 46.5v35h113q132 1 277.5 12.5t193.5 11.5q84 0 153 -11t135.5 -40t113.5 -75.5t79 -122.5t39 -177h174v-41h-172v-22q0 -66 -8 -113h180v-41h-186q-37 -185 -162 -274.5
t-317 -89.5q-74 0 -160 18v-281q0 -73 25 -106.5t84 -44.5v-37h-562zM512 516q44 -24 94 -24q37 0 62.5 13t48.5 47t36.5 99t18.5 164h-260v-299zM512 856h262q2 29 2 92v43h-264v-135zM512 1032h262q-4 116 -18 193.5t-38.5 118.5t-53 57t-68.5 16q-38 0 -84 -12v-373z" />
    <glyph glyph-name="uni20B4" unicode="&#x20b4;" horiz-adv-x="1067" 
d="M508 -25q-210 0 -323 88t-113 261q0 138 92 309h-103v41h951v-41h-332q-130 -158 -182 -255t-52 -190q0 -81 36.5 -126.5t111.5 -45.5q41 0 78 15t75 52.5t69.5 96.5t58.5 153t45 216h45l-47 -543q-80 0 -206 -15.5t-204 -15.5zM61 776v41h248q131 111 212 247.5
t81 221.5q0 60 -35.5 95.5t-101.5 35.5q-52 0 -91 -20.5t-76.5 -74t-67.5 -157t-52 -258.5h-47l51 520q61 0 173.5 15.5t193.5 15.5q88 0 164 -18.5t135.5 -55.5t94 -96.5t34.5 -136.5q0 -86 -33 -164t-100 -170h168v-41h-951z" />
    <glyph glyph-name="uni20B8" unicode="&#x20b8;" horiz-adv-x="1146" 
d="M307 0v37q45 11 64.5 45t19.5 106v1061h-86q-51 0 -80.5 -13.5t-59 -64t-52.5 -147.5t-50 -266h-40l51 532h1001l49 -532h-41q-18 114 -34 192.5t-33.5 134t-33.5 87.5t-39 49.5t-45 22.5t-56 5h-84v-1061q0 -73 19 -106.5t65 -44.5v-37h-535zM88 1393l4 41h973l4 -41
h-981z" />
    <glyph glyph-name="uni20B9" unicode="&#x20b9;" horiz-adv-x="813" 
d="M45 1434h719v-41h-414q279 -55 279 -297q0 -41 -8 -72h143v-41h-156q-64 -152 -342 -192q139 -29 211 -118t111 -270l51 -219q14 -68 46 -102t83 -45v-37h-141q-53 0 -95 4t-75 15t-57.5 24t-44 37t-32 46.5t-24.5 60.5t-19.5 72t-17.5 87q-47 260 -54 288
q-24 96 -62 123q-31 21 -101 21v41q160 0 197 164h-197v41h205q4 54 4 78q0 140 -39 215.5t-131 75.5h-39v41z" />
    <glyph glyph-name="uni20BD" unicode="&#x20bd;" horiz-adv-x="1169" 
d="M57 0v37q46 11 65 44.5t19 106.5v183h-96v41h96v143h-96v41h96v649q0 73 -19 107t-65 45v37h113q133 1 279.5 12.5t183.5 11.5q91 0 164 -11.5t142 -42t115.5 -80t74.5 -130t28 -186.5q0 -129 -41 -219.5t-120 -140.5t-178 -71.5t-232 -21.5h-76v-143h303v-41h-303v-183
q0 -73 23.5 -106.5t82.5 -44.5v-37h-559zM510 596h57q58 0 93.5 15t62 58.5t37 123t10.5 208.5q0 126 -12.5 210.5t-37.5 128t-55 60.5t-73 17q-33 0 -82 -12v-809z" />
    <glyph glyph-name="uni2116" unicode="&#x2116;" horiz-adv-x="1822" 
d="M1444 770q-146 0 -240 91.5t-94 252.5q0 162 94 253t240 91q148 0 242 -91t94 -253t-94 -253t-242 -91zM47 1399v35h500l399 -965v776q0 73 -19 107.5t-65 46.5v35h209v-35q-45 -12 -64.5 -47t-19.5 -107v-1245h-272l-531 1260l-10 22v-1094q0 -72 19.5 -106t64.5 -45
v-37h-209v37q46 11 65 44.5t19 106.5v1153q-37 40 -86 58zM1151 621v41h588v-41h-588zM1366 1114q0 -172 14.5 -237.5t63.5 -65.5q51 0 64.5 64.5t13.5 238.5q0 173 -13.5 238t-64.5 65q-49 0 -63.5 -66t-14.5 -237z" />
    <glyph glyph-name="trademark" unicode="&#x2122;" horiz-adv-x="1282" 
d="M41 1208l20 226h443l22 -226h-18q-15 90 -29.5 132t-29 52.5t-43.5 10.5h-27v-451q0 -35 12.5 -51t42.5 -22v-17h-301v17q30 6 42.5 22t12.5 51v451h-28q-29 0 -43.5 -10.5t-29 -52.5t-28.5 -132h-18zM518 862v17q30 6 44.5 22.5t15.5 50.5l26 389q3 37 -6 53.5t-37 20.5
v19h252l70 -299l61 299h250v-19q-28 -4 -37 -20.5t-6 -53.5l27 -389q3 -34 17 -50.5t44 -22.5v-17h-303v17q31 6 41.5 22t7.5 51l-29 410l-102 -500h-113l-110 500l-27 -410q-3 -35 7.5 -51t41.5 -22v-17h-135z" />
    <glyph glyph-name="uni2126" unicode="&#x2126;" horiz-adv-x="1476" 
d="M51 862q0 272 187.5 441.5t500.5 169.5q312 0 499 -169t187 -442q0 -240 -116 -389t-367 -256h389v-217h-514v217q110 153 156.5 314.5t46.5 365.5q0 535 -281 535q-282 0 -282 -531q0 -207 46 -369.5t156 -314.5v-217h-514v217h390q-168 72 -271.5 156.5t-158 205
t-54.5 283.5z" />
    <glyph glyph-name="oneeighth" unicode="&#x215b;" horiz-adv-x="1171" 
d="M25 1321q171 11 276 125h10v-635q0 -63 49 -74v-20h-303v20q47 11 47 74v412q0 42 -16 59.5t-63 17.5v21zM125 0l618 1434h45l-618 -1434h-45zM518 174q0 -93 83 -139.5t226 -46.5q142 0 230 49t88 145q0 77 -57 128t-170 102q94 26 143 63.5t49 104.5q0 74 -74.5 111.5
t-195.5 37.5q-134 0 -211.5 -42t-77.5 -118q0 -57 41.5 -96t146.5 -94q-221 -66 -221 -205zM735 160q0 129 58 190q108 -68 108 -207q0 -135 -80 -135q-86 0 -86 152zM739 379l17 -8q22 -11 37 -21q30 34 81 49l44 13q-2 1 -7.5 3t-7.5 3q-25 11 -39 22q-84 61 -84 172
q0 44 16.5 70.5t49.5 26.5q65 0 65 -109q0 -105 -47 -160q-32 -36 -86 -51q-6 -2 -19.5 -5t-19.5 -5z" />
    <glyph glyph-name="threeeighths" unicode="&#x215c;" horiz-adv-x="1323" 
d="M41 1004q29 -165 61.5 -222t85.5 -57q57 0 87 61t30 164q0 79 -21 133t-63 54q-32 0 -82 -47l-14 16q72 83 105.5 139t33.5 115q0 65 -57 65q-50 0 -83.5 -55t-62.5 -207h-20l27 273q20 0 82.5 5t111.5 5q207 0 207 -127q0 -108 -139 -152q81 -7 145 -64.5t64 -158.5
q0 -65 -26 -113t-73 -74.5t-104 -39t-127 -12.5q-46 0 -95.5 5t-66.5 5l-27 289h21zM276 0l619 1434h45l-618 -1434h-46zM668 174q0 -93 83 -139.5t226 -46.5q142 0 229.5 49t87.5 145q0 77 -57 128t-170 102q94 26 143.5 63.5t49.5 104.5q0 73 -75 111t-196 38
q-134 0 -211.5 -42t-77.5 -118q0 -57 41.5 -96t147.5 -94q-221 -66 -221 -205zM885 160q0 130 57 190q109 -69 109 -207q0 -135 -80 -135q-86 0 -86 152zM889 379l16 -8q22 -11 37 -21q30 34 82 49l43 13q-2 1 -7 3t-7 3q-25 11 -39 22q-84 61 -84 172q0 97 65 97
q66 0 66 -109q0 -105 -47 -160q-32 -36 -86 -51q-6 -2 -19.5 -5t-19.5 -5z" />
    <glyph glyph-name="fiveeighths" unicode="&#x215d;" horiz-adv-x="1312" 
d="M43 1004q30 -156 62.5 -217.5t80.5 -61.5q53 0 81 59t28 205q0 115 -23 166t-73 51q-79 0 -142 -129h-20l45 357h371v-144h-367l-12 -92q7 0 62.5 18.5t117.5 18.5q125 0 199.5 -64.5t74.5 -191.5q0 -75 -22.5 -129.5t-63 -85.5t-90 -45t-110.5 -14q-57 0 -115 5t-78 5
l-26 289h20zM266 0l619 1434h45l-619 -1434h-45zM659 174q0 -93 83.5 -139.5t226.5 -46.5q142 0 229.5 49t87.5 145q0 77 -57 128t-170 102q94 26 143 63.5t49 104.5q0 74 -74.5 111.5t-195.5 37.5q-134 0 -211.5 -42t-77.5 -118q0 -57 41.5 -96t147.5 -94
q-222 -66 -222 -205zM877 160q0 130 57 190q108 -68 108 -207q0 -135 -79 -135q-86 0 -86 152zM881 379l16 -8q22 -11 37 -21q30 34 82 49l43 13q-2 1 -7.5 3t-7.5 3q-23 10 -38 22q-84 61 -84 172q0 97 65 97q66 0 66 -109q0 -105 -47 -160q-32 -36 -86 -51q-6 -2 -19.5 -5
t-19.5 -5z" />
    </font>
</defs>
</svg>
