<?xml version="1.0" standalone="no"?>
<!DOCTYPE svg PUBLIC "-//W3C//DTD SVG 1.1//EN" "http://www.w3.org/Graphics/SVG/1.1/DTD/svg11.dtd" >
<svg xmlns="http://www.w3.org/2000/svg" xmlns:xlink="http://www.w3.org/1999/xlink" version="1.1">
<metadata>
Created by FontForge 20170731 at Mon Dec  5 03:57:12 2022
 By Aleksey,,,
Copyright (c) 2020 by Mathieu Desjardins. All rights reserved.
</metadata>
<defs>
<font id="PPNeueWorld-CondensedRegular" horiz-adv-x="0" >
  <font-face 
    font-family="PP Neue World Condensed"
    font-weight="400"
    font-stretch="condensed"
    units-per-em="2048"
    panose-1="0 0 0 0 0 0 0 0 0 0"
    ascent="1434"
    descent="-614"
    x-height="1024"
    cap-height="1434"
    bbox="-221 -614 1798 1868"
    underline-thickness="20"
    underline-position="-153"
    unicode-range="U+0020-25CF"
  />
<missing-glyph horiz-adv-x="1024" 
d="M840 1434v-2048h-650v2048h650zM342 -473h340v67h-209l143 97h66v67h-340v-67h143l-143 -97v-67zM342 -195h340v232h-340v-232zM342 160h340v231h-205v-115h70v48h67v-97h-204v164h-68v-231zM342 436h340v205h-68v-135h-272v-70zM342 553h205v143h135v68h-340v-68h135
v-75h-135v-68zM342 819h340v70h-135v143h-205v-213zM342 1085h340v68h-135v76h135v67h-338v-67h133v-76h-135v-68zM410 -127v96h204v-96h-204zM410 889v74h67v-74h-67z" />
    <glyph glyph-name="f_f" unicode="ff" horiz-adv-x="899" 
d="M248 1434q54 0 96.5 -8t81 -20.5t57.5 -16.5q51 63 164 63q51 0 103.5 -14.5t78.5 -14.5l50 -327h-41q-28 132 -54.5 202.5t-51 91.5t-60.5 21t-58 -32.5t-22 -100.5q0 -97 53.5 -175.5t132.5 -78.5h68v-41q-81 0 -102 -16.5t-21 -77.5v-703q0 -67 11 -98.5t34.5 -44.5
t77.5 -23v-20h-391v20q40 10 57 23t25 44.5t8 98.5v703q0 62 -18.5 78t-94.5 16q-81 0 -102 -16.5t-21 -77.5v-703q0 -67 9.5 -98.5t31 -44.5t72.5 -23v-20h-383v20q59 14 75.5 42t16.5 124v703q0 62 -18.5 78t-94.5 16v41h177q-162 89 -162 233q0 86 59.5 131.5t155.5 45.5
zM172 1251q0 -93 52.5 -156.5t142.5 -70.5h239q-160 87 -160 252q0 33 9 57q-41 29 -76 43.5t-80 14.5q-58 0 -92.5 -33.5t-34.5 -106.5z" />
    <glyph glyph-name="f_f_i" unicode="ffi" horiz-adv-x="1255" 
d="M248 1434q56 0 99.5 -8t82 -20.5t57.5 -16.5q60 63 220 63q68 0 154.5 -14.5t129.5 -14.5l68 -321h-78q-37 177 -92.5 243t-149.5 66q-69 0 -108 -38.5t-39 -108.5q0 -90 56.5 -165t142.5 -75h51q145 0 192.5 2.5t79.5 15.5h21v-856q0 -67 8 -98.5t25 -44.5t57 -23v-20
h-359v20q40 10 57 23t25 44.5t8 98.5v703q0 60 -20.5 77t-93.5 17q-77 0 -98 -17t-21 -77v-703q0 -67 10 -98.5t31.5 -44.5t71.5 -23v-20h-381v20q40 10 57 23t25 44.5t8 98.5v703q0 62 -18.5 78t-94.5 16q-81 0 -102 -16.5t-21 -77.5v-703q0 -67 9.5 -98.5t31 -44.5
t72.5 -23v-20h-383v20q59 14 75.5 42t16.5 124v703q0 62 -18.5 78t-94.5 16v41h177q-162 89 -162 233q0 86 59.5 131.5t155.5 45.5zM172 1251q0 -93 52.5 -156.5t142.5 -70.5h239q-160 87 -160 250q0 32 9 59q-41 29 -76 43.5t-80 14.5q-58 0 -92.5 -33.5t-34.5 -106.5z" />
    <glyph glyph-name="f_i" unicode="fi" horiz-adv-x="841" 
d="M293 1452q68 0 155 -14.5t130 -14.5l67 -321h-78q-37 177 -92 243t-149 66q-69 0 -108.5 -38.5t-39.5 -108.5q0 -90 56.5 -165t142.5 -75h51q145 0 192.5 2.5t79.5 15.5h21v-856q0 -67 8 -98.5t25 -44.5t57 -23v-20h-358v20q40 10 57 23t25 44.5t8 98.5v703q0 60 -21 77
t-94 17q-77 0 -98 -17t-21 -77v-703q0 -67 10 -98.5t31.5 -44.5t71.5 -23v-20h-381v20q40 10 57 23t25 44.5t8 98.5v703q0 62 -18.5 78t-94.5 16v41h175q-160 87 -160 250q0 178 260 178z" />
    <glyph glyph-name="f_l" unicode="fl" horiz-adv-x="833" 
d="M18 983v41h175q-160 100 -160 244q0 184 239 184q64 0 156 -14.5t137 -14.5q29 0 46 1t42 10t43 26h21v-1274q0 -67 8 -98.5t25 -44.5t57 -23v-20h-358v20q40 10 57 23t25 44.5t8 98.5v1006q0 63 -17.5 107.5t-48.5 68t-66.5 33.5t-78.5 10q-75 0 -112.5 -39.5
t-37.5 -111.5q0 -85 54.5 -160.5t132.5 -75.5h88v-41q-98 0 -123 -16.5t-25 -77.5v-703q0 -67 10 -98.5t31.5 -44.5t71.5 -23v-20h-381v20q40 10 57 23t25 44.5t8 98.5v703q0 61 -18 77.5t-91 16.5z" />
    <glyph glyph-name=".notdef" horiz-adv-x="1024" 
d="M840 1434v-2048h-650v2048h650zM342 -473h340v67h-209l143 97h66v67h-340v-67h143l-143 -97v-67zM342 -195h340v232h-340v-232zM342 160h340v231h-205v-115h70v48h67v-97h-204v164h-68v-231zM342 436h340v205h-68v-135h-272v-70zM342 553h205v143h135v68h-340v-68h135
v-75h-135v-68zM342 819h340v70h-135v143h-205v-213zM342 1085h340v68h-135v76h135v67h-338v-67h133v-76h-135v-68zM410 -127v96h204v-96h-204zM410 889v74h67v-74h-67z" />
    <glyph glyph-name=".null" 
 />
    <glyph glyph-name="nonmarkingreturn" horiz-adv-x="682" 
 />
    <glyph glyph-name="space" unicode=" " horiz-adv-x="301" 
 />
    <glyph glyph-name="space" unicode="&#xa0;" horiz-adv-x="301" 
 />
    <glyph glyph-name="exclam" unicode="!" horiz-adv-x="309" 
d="M156 1468q92 0 92 -120q0 -54 -17.5 -184.5t-35 -333t-17.5 -431.5h-41q0 229 -19 431.5t-38 333t-19 184.5q0 55 23.5 87.5t71.5 32.5zM57 92q0 47 27 79t72 32q43 0 69.5 -32t26.5 -79q0 -48 -26 -79t-70 -31q-45 0 -72 31t-27 79z" />
    <glyph glyph-name="quotedbl" unicode="&#x22;" horiz-adv-x="501" 
d="M133 1458q38 0 59 -30.5t21 -73.5q0 -41 -28.5 -166t-28.5 -234h-41q0 109 -30 234t-30 166q0 43 20 73.5t58 30.5zM291 1354q0 43 20 73.5t58 30.5t59 -30.5t21 -73.5q0 -41 -29 -166t-29 -234h-41q0 109 -29.5 234t-29.5 166z" />
    <glyph glyph-name="numbersign" unicode="#" horiz-adv-x="901" 
d="M113 1049h231l62 385h43l-62 -385h236l61 385h43l-61 -385h174v-189h-205l-47 -287h203v-188h-234l-61 -385h-41l61 385h-237l-62 -385h-41l62 385h-177v188h207l45 287h-200v189zM309 573h238l45 287h-236z" />
    <glyph glyph-name="dollar" unicode="$" horiz-adv-x="712" 
d="M137 516q21 -170 49 -274.5t59 -148.5t72 -52v577l-67 127q-47 82 -69.5 124.5t-51.5 106.5t-41 117.5t-12 108.5q0 103 63.5 168.5t179.5 65.5l35 -2v118h41v-122q112 -19 152 -19l41 -465h-45q-28 224 -63 323t-85 120v-498l29 -57q104 -176 156.5 -302t52.5 -258
q0 -135 -67.5 -205.5t-180.5 -70.5h-27v-133h-41v137q-14 2 -42 6.5t-46.5 7t-46 5t-53.5 2.5l-37 493h45zM262 1262q0 -59 22.5 -123.5t69.5 -165.5v422q-43 -1 -67.5 -38t-24.5 -95zM358 41q91 12 91 170q0 138 -91 328v-498z" />
    <glyph glyph-name="percent" unicode="%" horiz-adv-x="1155" 
d="M295 0h-45l610 1434h45zM55 1112q0 165 59 252.5t173 87.5q113 0 172 -87.5t59 -252.5q0 -168 -58.5 -256t-172.5 -88q-113 0 -172.5 88.5t-59.5 255.5zM209 1112q0 -174 14 -238.5t64 -64.5t64 64.5t14 238.5q0 170 -14 234.5t-64 64.5t-64 -64.5t-14 -234.5zM635 324
q0 166 59.5 254t173.5 88q112 0 172 -88t60 -254t-60 -254t-172 -88q-113 0 -173 88.5t-60 253.5zM791 324q0 -174 14 -237.5t63 -63.5q48 0 62 64.5t14 236.5q0 171 -14 236t-62 65q-49 0 -63 -64t-14 -237z" />
    <glyph glyph-name="ampersand" unicode="&#x26;" horiz-adv-x="899" 
d="M666 0l-21 123q-104 -141 -266 -141q-150 0 -240 106.5t-90 302.5q0 111 30 209t80.5 168.5t106.5 120.5t119 84q-102 221 -235 420v41h593l37 -486h-41q-12 110 -21 180.5t-21.5 122.5t-22.5 78.5t-28.5 42t-35.5 18.5t-47 3h-360q326 -360 532 -949q43 155 66 355
l41 -4q-31 -246 -82 -420q60 -182 106 -375h-200zM250 420q0 -172 51 -267.5t148 -95.5q104 0 184 127q-84 416 -225 742q-73 -94 -115.5 -213t-42.5 -293z" />
    <glyph glyph-name="quotesingle" unicode="'" horiz-adv-x="268" 
d="M133 1458q38 0 59 -30.5t21 -73.5q0 -41 -28.5 -166t-28.5 -234h-41q0 109 -30 234t-30 166q0 43 20 73.5t58 30.5z" />
    <glyph glyph-name="parenleft" unicode="(" horiz-adv-x="538" 
d="M477 -311q-416 330 -416 925q0 169 33.5 316t94 259.5t131 197t157.5 153.5l21 -20q-248 -392 -248 -906q0 -513 248 -905z" />
    <glyph glyph-name="parenright" unicode=")" horiz-adv-x="538" 
d="M41 -291q248 392 248 905q0 514 -248 906l20 20q87 -69 157.5 -153.5t131 -197t94 -259.5t33.5 -316q0 -595 -416 -925z" />
    <glyph glyph-name="asterisk" unicode="*" horiz-adv-x="600" 
d="M301 1458q24 0 38.5 -17t14.5 -44q0 -17 -21.5 -89t-21.5 -141q37 25 64.5 56t46 55.5t33.5 34.5q17 15 39 12t36 -25q13 -21 7.5 -40.5t-23.5 -32.5q-15 -10 -79 -27.5t-113 -48.5q49 -31 113 -48.5t79 -27.5q18 -13 23.5 -33t-7.5 -41q-14 -22 -36 -24.5t-39 12.5
q-15 10 -33.5 34.5t-46 55.5t-64.5 56q0 -69 21.5 -141t21.5 -89q0 -27 -14.5 -44t-38.5 -17q-25 0 -39 17t-14 44q0 17 21.5 89t21.5 141q-37 -25 -64.5 -56t-46 -55.5t-33.5 -34.5q-18 -15 -40.5 -12.5t-36.5 24.5q-13 21 -7 41.5t25 32.5q14 11 78.5 28t112.5 48
q-48 31 -112.5 48t-78.5 28q-20 12 -25.5 32t7.5 41q14 22 36.5 25t40.5 -12q15 -10 33.5 -34.5t46 -55.5t64.5 -56q0 69 -21.5 141t-21.5 89q0 27 14 44t39 17z" />
    <glyph glyph-name="plus" unicode="+" horiz-adv-x="595" 
d="M102 532h174v175h41v-175h175v-40h-175v-175h-41v175h-174v40z" />
    <glyph glyph-name="comma" unicode="," horiz-adv-x="305" 
d="M72 -209q52 70 68 103.5t16 62.5q0 24 -16 42t-34.5 28t-34.5 31.5t-16 52.5q0 43 26.5 67.5t65.5 24.5q47 0 75 -30t28 -89q0 -140 -150 -322z" />
    <glyph glyph-name="hyphen" unicode="-" horiz-adv-x="610" 
d="M61 532h488v-40h-488v40z" />
    <glyph glyph-name="period" unicode="." horiz-adv-x="299" 
d="M150 -18q-44 0 -71.5 31t-27.5 79q0 47 28 79t71 32q45 0 71.5 -32t26.5 -79q0 -48 -26.5 -79t-71.5 -31z" />
    <glyph glyph-name="slash" unicode="/" horiz-adv-x="409" 
d="M61 -410h-41l328 1844h41z" />
    <glyph glyph-name="zero" unicode="0" horiz-adv-x="808" 
d="M403 -18q-78 0 -138 37.5t-107 121t-72 228.5t-25 348q0 164 16.5 290t46 209.5t73 137t94 76t112.5 22.5q78 0 138.5 -37t108 -119.5t73 -228.5t25.5 -350q0 -203 -25 -348.5t-72.5 -228.5t-108 -120.5t-139.5 -37.5zM264 717q0 -276 14 -426t43 -209t82 -59t83 58.5
t45.5 210t15.5 425.5t-15.5 425.5t-45.5 210t-83 58.5q-52 0 -81 -59t-43.5 -210t-14.5 -425z" />
    <glyph glyph-name="one" unicode="1" horiz-adv-x="477" 
d="M16 1204q137 6 201.5 57.5t110.5 190.5h20v-1266q0 -96 17 -124t79 -42v-20h-370v20q42 10 60 23t26 44.5t8 98.5v856q0 75 -27 98t-125 23v41z" />
    <glyph glyph-name="two" unicode="2" horiz-adv-x="681" 
d="M25 41q14 30 42 89q184 385 251 564q116 308 116 529q0 99 -25.5 143.5t-89.5 44.5q-37 0 -62.5 -15.5t-52.5 -62t-49.5 -141.5t-41.5 -244h-41l39 475q32 0 101.5 14.5t125.5 14.5q297 0 297 -289q0 -77 -16 -156.5t-37.5 -146.5t-64.5 -150t-76.5 -140t-94.5 -144
t-97.5 -135t-105.5 -139h236q36 0 56 3t42.5 16t35 37t26.5 68.5t24.5 107.5t22.5 157h41l-49 -541h-553v41z" />
    <glyph glyph-name="three" unicode="3" horiz-adv-x="694" 
d="M82 541q20 -167 42 -273t48.5 -158t51.5 -69.5t61 -17.5q77 0 116 113.5t39 312.5q0 350 -121 350q-31 0 -58.5 -18t-67.5 -56l-27 33q113 141 167 256.5t54 261.5q0 135 -88 135q-33 0 -57 -16.5t-49 -63.5t-47 -141.5t-42 -241.5h-41l37 475q36 0 112 14.5t130 14.5
q233 0 233 -205q0 -256 -227 -399q60 14 113 -3t95.5 -64t67.5 -133.5t25 -203.5q0 -228 -100 -345t-258 -117q-55 0 -117.5 14t-93.5 14l-39 531h41z" />
    <glyph glyph-name="four" unicode="4" horiz-adv-x="786" 
d="M436 1464q37 -39 76.5 -53.5t97.5 -17.5v-887h138v-148h-138v-172q0 -67 7.5 -98.5t24 -44.5t54.5 -23v-20h-356v20q39 10 55.5 23t23.5 44.5t7 98.5v172h-387v41l377 1065h20zM133 506h293v856z" />
    <glyph glyph-name="five" unicode="5" horiz-adv-x="688" 
d="M86 541q27 -219 56 -334t58.5 -149.5t75.5 -34.5q38 0 65.5 23.5t50.5 80t34.5 163t11.5 261.5q0 170 -17.5 269t-47.5 135t-78 36q-56 0 -102 -55t-93 -182h-41l64 680h446v-148h-422l-30 -330q5 3 34 23.5t47 30.5t57 21t83 11q65 0 119 -27.5t97 -85t67 -156.5
t24 -232q0 -124 -18.5 -221.5t-49.5 -160t-74 -103t-90 -57.5t-100 -17q-63 0 -132 14t-97 14l-39 531h41z" />
    <glyph glyph-name="six" unicode="6" horiz-adv-x="772" 
d="M45 682q0 367 102.5 568.5t286.5 201.5q46 0 107 -14.5t94 -14.5l33 -399h-43q-8 100 -22.5 172.5t-31 113.5t-38.5 64.5t-40.5 30t-43.5 6.5q-52 0 -89 -44t-58 -126t-31.5 -176.5t-14.5 -218.5q97 100 215 100q110 0 183 -112.5t73 -337.5q0 -264 -89 -389t-243 -125
q-350 0 -350 700zM254 633q0 -248 15 -382t43 -181t79 -47q46 0 72.5 37t40.5 135.5t14 275.5q0 156 -13.5 245t-38.5 122.5t-67 33.5q-61 0 -143 -71q-2 -55 -2 -168z" />
    <glyph glyph-name="seven" unicode="7" horiz-adv-x="729" 
d="M715 1393q-88 -143 -142 -261t-96.5 -279t-60 -365t-17.5 -488h-202q0 398 88.5 710t306.5 578h-328q-26 0 -39.5 -1t-31.5 -5.5t-26.5 -13t-20.5 -26t-18.5 -41t-15 -60.5t-14.5 -83t-14 -110h-41l43 486h629v-41z" />
    <glyph glyph-name="eight" unicode="8" horiz-adv-x="796" 
d="M428 780l47 41q0 2 -4 6q-16 16 -43 52q-39 -56 -76 -88l-30 -29q2 -2 6 -7t6 -7l31 -39q32 40 63 71zM49 285q0 -142 90 -226t254 -84q165 0 260 87.5t95 238.5q0 68 -14 124.5t-51.5 118.5t-69.5 105t-102 128q-24 29 -36 44q109 97 167 188.5t58 194.5
q0 115 -79 184.5t-213 69.5q-152 0 -237 -73.5t-85 -194.5q0 -62 15 -115.5t51 -108t71.5 -96.5t98.5 -108q-132 -123 -202.5 -235.5t-70.5 -241.5zM229 281q0 243 136 428q167 -216 167 -447q0 -246 -147 -246q-75 0 -115.5 74.5t-40.5 190.5zM295 1231q0 88 31 137t90 49
q58 0 86 -55.5t28 -142.5q0 -78 -27 -172t-75 -168q-133 170 -133 352z" />
    <glyph glyph-name="nine" unicode="9" horiz-adv-x="772" 
d="M727 752q0 -367 -102.5 -568.5t-286.5 -201.5q-46 0 -107 14t-94 14l-33 400h43q8 -100 22.5 -172.5t31 -113.5t38.5 -64.5t41 -30t44 -6.5q52 0 88.5 43.5t57.5 126t31.5 176.5t14.5 219q-98 -101 -215 -101q-110 0 -183 113t-73 338q0 264 89 389t243 125
q350 0 350 -700zM254 963q0 -156 13.5 -245t38.5 -123t67 -34q60 0 143 72q2 55 2 168q0 248 -15 382t-43 181t-79 47q-46 0 -72.5 -37t-40.5 -135.5t-14 -275.5z" />
    <glyph glyph-name="colon" unicode=":" horiz-adv-x="299" 
d="M150 768q-44 0 -71.5 31.5t-27.5 79.5q0 47 27.5 78.5t71.5 31.5q45 0 71.5 -31.5t26.5 -78.5q0 -48 -26.5 -79.5t-71.5 -31.5zM51 92q0 47 28 79t71 32q45 0 71.5 -32t26.5 -79q0 -48 -26.5 -79t-71.5 -31q-44 0 -71.5 31t-27.5 79z" />
    <glyph glyph-name="semicolon" unicode=";" horiz-adv-x="389" 
d="M150 768q-44 0 -71.5 31.5t-27.5 79.5q0 47 27.5 78.5t71.5 31.5q45 0 71.5 -31.5t26.5 -78.5q0 -48 -26.5 -79.5t-71.5 -31.5zM59 111q0 42 27 67t66 25q46 0 74 -30t28 -89q0 -140 -150 -322l-28 29q52 70 68 103.5t16 62.5q0 24 -16 42t-34.5 28t-34.5 31.5t-16 52.5z
" />
    <glyph glyph-name="less" unicode="&#x3c;" horiz-adv-x="595" 
d="M494 733l-371 -221l371 -219v-49l-392 231v74l392 233v-49z" />
    <glyph glyph-name="equal" unicode="=" horiz-adv-x="661" 
d="M102 639h469v-41h-469v41zM102 385v41h469v-41h-469z" />
    <glyph glyph-name="greater" unicode="&#x3e;" horiz-adv-x="595" 
d="M102 733v49l392 -233v-74l-392 -231v49l371 219z" />
    <glyph glyph-name="question" unicode="?" horiz-adv-x="600" 
d="M207 399q0 277 10 382t49 202q29 82 39 111t21.5 86.5t11.5 111.5q0 60 -15 89.5t-49 29.5q-29 0 -50.5 -16t-45 -63t-44 -148t-38.5 -258h-41l37 497q43 0 107 14.5t118 14.5q228 0 228 -199q0 -53 -14.5 -102.5t-43.5 -94t-51 -71.5t-57 -65q-82 -89 -106.5 -186.5
t-24.5 -334.5h-41zM127 88q0 46 28 77.5t72 31.5t71.5 -31.5t27.5 -77.5q0 -48 -27.5 -80.5t-71.5 -32.5t-72 32.5t-28 80.5z" />
    <glyph glyph-name="at" unicode="@" horiz-adv-x="1396" 
d="M1010 326q0 -118 18 -175t70 -57q78 0 136 145t58 371q0 116 -17 217.5t-57 192.5t-100 156t-150.5 103t-203.5 38q-146 0 -268.5 -69.5t-204 -188t-127 -274.5t-45.5 -330q0 -186 45.5 -331.5t128 -238t194 -140.5t246.5 -48q104 0 187.5 22t146.5 66t107.5 91.5
t91.5 115.5l32 -21q-41 -72 -89 -128.5t-115.5 -105.5t-159 -75.5t-201.5 -26.5q-144 0 -264 49.5t-212 147t-144 257t-52 366.5q0 184 51 348.5t141 287t223 194.5t288 73q144 1 255 -57t179 -161t102.5 -237t34.5 -293q0 -282 -81 -447t-203 -165q-79 0 -127.5 49
t-57.5 133q-83 -145 -229 -145q-50 0 -92 14t-80.5 48.5t-64 88t-39 138.5t-9.5 194q10 231 109 368.5t235 137.5q80 0 131 -42t88 -136q54 65 54 178h41v-698zM512 545q-11 -212 31 -329.5t137 -117.5q53 0 93.5 32t90.5 106v387q0 84 -9 148t-23.5 102.5t-35 62.5
t-40.5 32.5t-43 8.5q-176 0 -201 -432z" />
    <glyph glyph-name="A" unicode="A" horiz-adv-x="876" 
d="M176 182q-9 -51 -10.5 -77t8.5 -44.5t29 -26t59 -14.5v-20h-242v20q54 14 75.5 42.5t39.5 119.5l203 1145l-10 59v21q65 0 98 8t66 37h20l229 -1270q18 -91 40 -119.5t75 -42.5v-20h-397v20q39 7 58 14.5t29.5 26t9 45t-10.5 76.5l-37 201h-297zM219 424h283l-144 790z
" />
    <glyph glyph-name="B" unicode="B" horiz-adv-x="821" 
d="M133 1247q0 67 -7 98.5t-22.5 44.5t-52.5 23v21h109q72 1 153.5 9.5t120.5 8.5q141 0 215 -81t74 -259q0 -263 -186 -330q237 -71 237 -405q0 -395 -338 -395q-42 0 -122.5 8.5t-153.5 9.5h-109v20q37 10 52.5 23t22.5 44.5t7 98.5v1061zM317 35q43 -12 78 -12
q90 0 134 78t44 272q0 389 -170 389q-38 0 -86 10v-737zM317 813q38 -10 68 -10q74 0 110.5 71t36.5 238q0 117 -17.5 184.5t-47 91t-76.5 23.5q-32 0 -74 -10v-588z" />
    <glyph glyph-name="C" unicode="C" horiz-adv-x="792" 
d="M51 748q0 187 31.5 325t90 219.5t135 120.5t173.5 39q50 0 111 -11t92 -11l37 -494h-41q-16 152 -35 247.5t-44.5 145t-52.5 66t-67 16.5q-104 0 -162.5 -157t-58.5 -486q0 -319 64 -501.5t168 -182.5q43 0 75.5 21.5t63.5 75t53.5 154t36.5 249.5l41 -4
q-16 -180 -43.5 -298.5t-69 -183.5t-91 -90.5t-118.5 -25.5q-179 0 -284 199t-105 567z" />
    <glyph glyph-name="D" unicode="D" horiz-adv-x="858" 
d="M160 0h-109v20q37 10 52.5 23t22.5 44.5t7 98.5v1061q0 67 -7 98.5t-22.5 44.5t-52.5 23v21h109q47 1 130 9.5t120 8.5q397 0 397 -745q0 -174 -23 -306t-59.5 -210t-90 -126.5t-107 -65.5t-117.5 -17q-37 0 -120 8.5t-130 9.5zM317 35q47 -12 78 -12q36 0 64 15.5
t55.5 60.5t45.5 119t29 198t11 291q0 209 -16 352.5t-45.5 217.5t-64 104t-79.5 30q-31 0 -78 -12v-1364z" />
    <glyph glyph-name="E" unicode="E" horiz-adv-x="757" 
d="M668 1434l39 -498h-41q-13 112 -23 185.5t-22.5 126.5t-23 80.5t-29.5 43t-36 18.5t-47 3h-168v-613h113q40 0 54 12.5t18.5 61t-4.5 145.5h41l39 -503h-41q-19 165 -29 196q-12 37 -42 44q-16 3 -42 3h-107v-698h183q29 0 45.5 3.5t35 19t29.5 44.5t24 82.5t23 129.5
t23 190h41l-37 -510h-633v20q37 10 52.5 23t22.5 44.5t7 98.5v1061q0 67 -7 98.5t-22.5 44.5t-52.5 23v21h617z" />
    <glyph glyph-name="F" unicode="F" horiz-adv-x="745" 
d="M442 745q34 0 49.5 6.5t25.5 29t7.5 67t-4.5 119.5h41l41 -504h-43v1v2q-18 160 -32 194q-14 37 -52 43q-14 2 -39 2h-119v-519q0 -67 7 -98.5t22 -44.5t51 -23v-20h-346v20q37 10 52.5 23t22.5 44.5t7 98.5v1061q0 67 -7 98.5t-22.5 44.5t-52.5 23v21h633l37 -510h-41
q-13 116 -23.5 191t-24 130t-24.5 82.5t-31.5 43.5t-38.5 19t-51 3h-170v-648h125z" />
    <glyph glyph-name="G" unicode="G" horiz-adv-x="866" 
d="M465 -18q-414 0 -414 761q0 191 32 331t91 221t133.5 119t167.5 38q48 0 118.5 -11t106.5 -11l37 -494h-39q-29 203 -60 307t-65 136t-90 32q-71 0 -119 -61t-76 -206.5t-28 -375.5q0 -212 15.5 -358t46.5 -227t70.5 -115.5t94.5 -34.5q50 0 86 8v477q0 66 -5.5 102.5
t-25.5 61t-50 34.5t-86 17v41l419 -35v-41q-26 0 -42 -15t-22.5 -48.5t-7.5 -56.5t-1 -70v-508q-64 0 -150.5 -9t-136.5 -9z" />
    <glyph glyph-name="H" unicode="H" horiz-adv-x="931" 
d="M535 0v20q37 10 52.5 23t22 44.5t6.5 98.5v516h-299v-516q0 -67 7 -98.5t22 -44.5t51 -23v-20h-346v20q37 10 52.5 23t22.5 44.5t7 98.5v1061q0 67 -7 98.5t-22.5 44.5t-52.5 23v21h346v-21q-36 -10 -51 -23t-22 -44.5t-7 -98.5v-504h299v504q0 67 -6.5 98.5t-22 44.5
t-52.5 23v21h346v-21q-36 -10 -51 -23t-22 -44.5t-7 -98.5v-1061q0 -67 7 -98.5t22 -44.5t51 -23v-20h-346z" />
    <glyph glyph-name="I" unicode="I" horiz-adv-x="448" 
d="M133 1247q0 67 -7 98.5t-22.5 44.5t-52.5 23v21h346v-21q-36 -10 -51 -23t-22 -44.5t-7 -98.5v-1061q0 -67 7 -98.5t22 -44.5t51 -23v-20h-346v20q37 10 52.5 23t22.5 44.5t7 98.5v1061z" />
    <glyph glyph-name="J" unicode="J" horiz-adv-x="532" 
d="M72 516q29 -207 55.5 -317t49.5 -143t56 -33q64 0 64 110q0 48 -28.5 164.5t-28.5 202.5v747q0 67 -7 98.5t-22 44.5t-51 23v21h344v-21q-36 -10 -51 -23t-22 -44.5t-7 -98.5v-958q0 -75 -7 -126t-26.5 -94.5t-57 -65t-95.5 -21.5q-43 0 -92 17t-76 17l-39 500h41z" />
    <glyph glyph-name="K" unicode="K" horiz-adv-x="960" 
d="M795 174q31 -85 59.5 -112t85.5 -42v-20h-412v20q73 13 81.5 37.5t-25.5 116.5l-203 547l-64 -125v-410q0 -67 7 -98.5t22 -44.5t51 -23v-20h-346v20q37 10 52.5 23t22.5 44.5t7 98.5v1061q0 67 -7 98.5t-22.5 44.5t-52.5 23v21h346v-21q-36 -10 -51 -23t-22 -44.5
t-7 -98.5v-542l322 612q31 49 23 69.5t-72 20.5v27h254v-27q-66 0 -97.5 -20.5t-62.5 -75.5l-182 -355z" />
    <glyph glyph-name="L" unicode="L" horiz-adv-x="735" 
d="M51 0v20q37 10 52.5 23t22.5 44.5t7 98.5v1061q0 67 -7 98.5t-22.5 44.5t-52.5 23v21h346v-21q-36 -10 -51 -23t-22 -44.5t-7 -98.5v-1206h162q33 0 51.5 3.5t39 19.5t31.5 43.5t24.5 83t24 129.5t24.5 190h41l-37 -510h-627z" />
    <glyph glyph-name="M" unicode="M" horiz-adv-x="1193" 
d="M483 0l-243 1255l-66 -1069q-4 -68 1 -98.5t21.5 -44t57.5 -23.5v-20h-213v20q53 14 69.5 42.5t22.5 123.5l64 1061q4 68 -1 98.5t-20.5 44t-54.5 23.5v21h278l203 -1031l191 1031h272v-21q-39 -10 -54.5 -23.5t-20.5 -44t-1 -98.5l70 -1061q7 -95 24 -123.5t70 -42.5
v-20h-358v20q40 10 55 22t22 46.5t0 97.5l-69 1069l-234 -1255h-86z" />
    <glyph glyph-name="N" unicode="N" horiz-adv-x="829" 
d="M688 1247q0 67 -7 98.5t-22.5 44.5t-52.5 23v21h203v-21q-36 -10 -51 -23t-22 -44.5t-7 -98.5v-1247h-123l-436 1251v-1065q0 -67 7 -98.5t22 -44.5t51 -23v-20h-201v20q36 10 51 23t22 44.5t7 98.5v1162q-12 21 -26 33.5t-25.5 18.5t-32.5 13v21h279l364 -1100v913z" />
    <glyph glyph-name="O" unicode="O" horiz-adv-x="864" 
d="M432 -18q-177 0 -279 179.5t-102 555.5t102 555.5t279 179.5q176 0 278.5 -179t102.5 -556q0 -378 -102 -556.5t-279 -178.5zM260 717q0 -266 19 -419t55 -214t98 -61q63 0 99 61.5t54.5 213.5t18.5 419q0 268 -18.5 420t-54.5 213t-99 61q-62 0 -98 -61t-55 -214
t-19 -419z" />
    <glyph glyph-name="P" unicode="P" horiz-adv-x="798" 
d="M51 0v20q37 10 52.5 23t22.5 44.5t7 98.5v1061q0 67 -7 98.5t-22.5 44.5t-52.5 23v21h109q72 1 148 9.5t112 8.5q57 0 103 -10.5t94 -41.5t80 -82.5t52.5 -139.5t20.5 -205q0 -111 -18 -200t-49 -148.5t-74 -99t-91 -57t-102 -17.5q-55 0 -119 20v-285q0 -67 9 -98.5
t28.5 -44.5t65.5 -23v-20h-369zM317 516q39 -24 80 -24q36 0 63.5 17.5t53 64t39.5 142.5t14 238q0 114 -10 197.5t-25.5 132.5t-39 78.5t-47.5 39t-54 9.5q-32 0 -74 -10v-885z" />
    <glyph glyph-name="Q" unicode="Q" horiz-adv-x="864" 
d="M432 -18h-14l39 -39t45.5 -42.5t44 -24.5t61.5 -13q86 0 135 114l29 -10q-11 -45 -24.5 -79.5t-35.5 -69t-56 -53.5t-78 -19q-45 0 -82 19.5t-60 49t-46 63.5t-42 63.5t-47.5 49t-62.5 19.5q-82 0 -144 -112l-22 16q74 127 166 139q-187 159 -187 664q0 376 102 555.5
t279 179.5q176 0 278.5 -179t102.5 -556q0 -378 -102 -556.5t-279 -178.5zM260 717q0 -266 19 -419t55 -214t98 -61q63 0 99 61.5t54.5 213.5t18.5 419q0 268 -18.5 420t-54.5 213t-99 61q-62 0 -98 -61t-55 -214t-19 -419z" />
    <glyph glyph-name="R" unicode="R" horiz-adv-x="854" 
d="M51 0v20q37 10 52.5 23t22.5 44.5t7 98.5v1061q0 67 -7 98.5t-22.5 44.5t-52.5 23v21h109q77 1 158.5 9.5t113.5 8.5q135 0 210 -72t75 -239q0 -130 -54 -216.5t-149 -119.5q102 -24 144 -108.5t51 -272.5q9 -235 17.5 -295.5t35.5 -60.5q21 0 29 25t14 114l41 -4
q-5 -117 -38.5 -169t-109.5 -52q-93 0 -128 79t-46 291q-3 64 -5.5 106t-6 89.5t-7.5 76.5t-10.5 59.5t-14.5 47t-18.5 31t-24.5 20.5t-31 6h-3q-33 0 -86 9v-611q0 -67 7 -98.5t22 -44.5t51 -23v-20h-346zM317 840q37 -11 72 -11q137 0 137 308q0 143 -33.5 208.5
t-101.5 65.5q-40 0 -74 -10v-561z" />
    <glyph glyph-name="S" unicode="S" horiz-adv-x="684" 
d="M94 510q17 -146 41 -244t55.5 -150t64.5 -72.5t77 -20.5q125 0 125 176q0 26 -3.5 53.5t-7.5 49.5t-15 53.5t-16.5 49.5t-23.5 55t-24.5 51.5t-29.5 57t-29.5 53.5t-34 60t-33.5 59q-15 27 -48.5 85.5t-48 85.5t-38.5 75.5t-34.5 80t-19 72.5t-8.5 79q0 103 71.5 168
t202.5 65q46 0 125 -11t125 -11l39 -494h-41q-23 195 -53.5 299.5t-67.5 140t-96 35.5q-57 0 -87 -38.5t-30 -102.5q0 -25 4.5 -51.5t16 -58.5t21 -55.5t30.5 -65t33 -63.5t40.5 -73t41.5 -74q53 -87 83 -141.5t68 -134.5t56 -152.5t18 -142.5q0 -141 -72 -208.5t-202 -67.5
q-51 0 -140 11t-139 11l-37 506h41z" />
    <glyph glyph-name="T" unicode="T" horiz-adv-x="804" 
d="M737 1434l37 -498h-41q-12 108 -22 178t-21.5 124t-22.5 82.5t-28 46t-34.5 22t-45.5 4.5h-63v-1207q0 -67 6.5 -98.5t21.5 -44.5t51 -23v-20h-346v20q37 10 52.5 23t22.5 44.5t7 98.5v1207h-65q-55 0 -81.5 -29.5t-47 -121.5t-45.5 -306h-41l39 498h667z" />
    <glyph glyph-name="U" unicode="U" horiz-adv-x="847" 
d="M109 1247q0 67 -7 98.5t-22 44.5t-51 23v21h346v-21q-37 -10 -52.5 -23t-22.5 -44.5t-7 -98.5v-837q0 -181 48.5 -262.5t152.5 -81.5t154 82t50 255v844q0 67 -7 98.5t-22 44.5t-51 23v21h201v-21q-36 -10 -51 -23t-22 -44.5t-7 -98.5v-866q0 -197 -73 -298t-230 -101
q-159 0 -243 105.5t-84 322.5v837z" />
    <glyph glyph-name="V" unicode="V" horiz-adv-x="913" 
d="M498 -18h-80l-277 1269q-21 92 -43.5 120t-77.5 42v21h394v-21q-37 -7 -54 -14t-25.5 -25.5t-6 -44.5t13.5 -78l193 -929l196 929q11 52 13.5 78t-6 44.5t-25.5 25.5t-54 14v21h234v-21q-55 -14 -77.5 -42t-43.5 -120z" />
    <glyph glyph-name="W" unicode="W" horiz-adv-x="1271" 
d="M506 -18h-92l-273 1269q-21 92 -43.5 120t-77.5 42v21h861v-27q-43 -6 -66.5 -39.5t-40.5 -114.5l-35 -168l156 -774l195 942q19 82 8 115t-64 39v27h217v-21q-37 -10 -55 -22t-34 -44t-29 -96l-269 -1269h-90l-135 628zM344 1253l193 -942l81 396l-118 546
q-18 83 -41 118.5t-62 35.5q-45 0 -56.5 -38.5t3.5 -115.5zM705 1253l12 -61l12 61q14 64 12 97.5t-22 46.5q-22 -12 -25 -45t11 -99z" />
    <glyph glyph-name="X" unicode="X" horiz-adv-x="876" 
d="M416 1434v-21q-67 -13 -74.5 -38.5t23.5 -117.5l143 -442l154 442q33 92 25 117.5t-75 38.5v21h234v-21q-55 -15 -83 -42.5t-58 -113.5l-177 -505l189 -576q29 -86 56.5 -113.5t82.5 -42.5v-20h-395v20q67 13 74.5 38.5t-23.5 117.5l-145 445l-158 -445
q-34 -94 -27 -118.5t74 -37.5v-20h-236v20q58 15 86 42t58 114l182 510l-186 571q-20 60 -40.5 91.5t-40.5 43t-59 21.5v21h396z" />
    <glyph glyph-name="Y" unicode="Y" horiz-adv-x="860" 
d="M670 1253q17 67 17.5 95.5t-16 41.5t-63.5 23v21h232v-21q-38 -10 -57 -22t-36.5 -43.5t-33.5 -94.5l-172 -663v-404q0 -67 7 -98.5t22 -44.5t51 -23v-20h-347v20q36 10 51 23t22 44.5t7 98.5v377l-200 692q-18 61 -37.5 93t-38.5 43.5t-58 21.5v21h402v-21
q-29 -6 -44 -12t-25.5 -15t-10.5 -27.5t4.5 -41t15.5 -64.5l156 -565z" />
    <glyph glyph-name="Z" unicode="Z" horiz-adv-x="772" 
d="M457 41q31 0 49 4t38.5 20t32.5 45.5t25.5 82.5t25 129t23.5 188h41l-41 -510h-579v41l409 1352h-159q-32 0 -50.5 -4t-38.5 -20t-32 -44t-25.5 -80.5t-24.5 -125.5t-24 -183h-41l43 498h561v-41l-409 -1352h176z" />
    <glyph glyph-name="bracketleft" unicode="[" horiz-adv-x="462" 
d="M68 1540h352v-41h-170v-1769h170v-41h-352v1851z" />
    <glyph glyph-name="backslash" unicode="\" horiz-adv-x="409" 
d="M348 -410l-328 1844h41l328 -1844h-41z" />
    <glyph glyph-name="bracketright" unicode="]" horiz-adv-x="462" 
d="M395 1540v-1851h-352v41h170v1769h-170v41h352z" />
    <glyph glyph-name="asciicircum" unicode="^" horiz-adv-x="593" 
d="M106 954h-45l203 480h64l204 -480h-45l-190 449z" />
    <glyph glyph-name="underscore" unicode="_" horiz-adv-x="681" 
d="M61 -123h560v-41h-560v41z" />
    <glyph glyph-name="grave" unicode="`" horiz-adv-x="569" 
d="M131 1253q0 31 12 54.5t35.5 37t66 5.5t97.5 -39l158 -92l-6 -27z" />
    <glyph glyph-name="a" unicode="a" horiz-adv-x="841" 
d="M590 -16q-58 0 -58 71v88q-63 -161 -204 -161q-116 0 -191.5 100.5t-75.5 304.5q0 206 75.5 306t193.5 100q143 0 202 -160v63q0 171 -33.5 238t-113.5 67q-151 0 -240 -194h-43l74 205q36 0 116.5 15t129.5 15q137 0 213 -83t76 -257v-489q0 -101 12 -119t78 0l10 -18
l-133 -66q-53 -26 -88 -26zM250 387q0 -156 35.5 -237.5t103.5 -81.5q65 0 104 80.5t39 238.5q0 159 -39 239.5t-102 80.5q-69 0 -105 -81.5t-36 -238.5z" />
    <glyph glyph-name="b" unicode="b" horiz-adv-x="821" 
d="M115 1229q0 67 -8 98t-25 44t-57 24v20h120q89 3 127 49h21v-544q43 61 93 91.5t118 30.5q119 0 187.5 -129.5t68.5 -375.5q0 -260 -81 -407.5t-218 -147.5q-94 0 -144.5 63.5t-80.5 210.5q-28 -49 -45 -108.5t-35 -165.5h-41v1247zM293 350q3 -142 40.5 -221.5
t92.5 -79.5q48 0 78 44t45.5 147.5t15.5 275.5q0 244 -31.5 344.5t-103.5 100.5q-35 0 -66.5 -22.5t-70.5 -74.5v-514z" />
    <glyph glyph-name="c" unicode="c" horiz-adv-x="716" 
d="M61 524q0 242 93 380t258 138q45 0 104 -14t88 -14l37 -348h-41q-15 106 -33.5 176t-41.5 103t-44 44.5t-49 11.5q-59 0 -99 -56t-58.5 -151t-18.5 -225q0 -103 10 -188.5t31.5 -155.5t59.5 -109.5t89 -39.5q145 0 189 317l41 -4q-16 -115 -44.5 -195.5t-67.5 -126
t-83.5 -65.5t-99.5 -20q-156 0 -238 138.5t-82 403.5z" />
    <glyph glyph-name="d" unicode="d" horiz-adv-x="823" 
d="M530 1221q0 67 -8 98t-25 44t-57 23v21l121 2q89 3 127 49h21v-1247q0 -67 8 -98.5t25 -44.5t57 -23v-20h-121q-91 -7 -127 -52h-21v129q-85 -120 -211 -120q-118 0 -188 130.5t-70 374.5q0 257 79.5 406t209.5 149q64 0 107.5 -28t72.5 -88v295zM256 508q0 -243 33 -344
t104 -101q34 0 65.5 22t71.5 71v518q-1 142 -39.5 221.5t-93.5 79.5q-73 0 -107 -106.5t-34 -360.5z" />
    <glyph glyph-name="e" unicode="e" horiz-adv-x="731" 
d="M61 524q0 245 88 381.5t242 136.5q131 0 205 -104t74 -289h-414v-45q0 -115 11 -209t34.5 -166.5t62.5 -112.5t91 -40q64 0 116.5 72.5t79.5 244.5l41 -4q-16 -117 -45.5 -199t-70.5 -126t-86.5 -63t-100.5 -19q-159 0 -243.5 140.5t-84.5 401.5zM258 690h236
q0 163 -26.5 237t-78.5 74q-62 0 -93.5 -79t-37.5 -232z" />
    <glyph glyph-name="f" unicode="f" horiz-adv-x="485" 
d="M233 1452q51 0 104 -14.5t79 -14.5l49 -327h-41q-28 132 -54.5 202.5t-51 91.5t-60.5 21t-58 -32.5t-22 -100.5q0 -97 54 -175.5t133 -78.5h67v-41q-81 0 -102 -16.5t-21 -77.5v-703q0 -67 11 -98.5t34.5 -44.5t77.5 -23v-20h-391v20q40 10 57 23t25 44.5t8 98.5v703
q0 62 -18.5 78t-94.5 16v41h175q-160 87 -160 252q0 86 53.5 131t146.5 45z" />
    <glyph glyph-name="g" unicode="g" horiz-adv-x="745" 
d="M369 106q-97 0 -168 50q-33 -26 -33 -50q0 -28 41.5 -51t173.5 -73q170 -64 219 -94q80 -48 90 -122q2 -13 2 -28q0 -89 -76 -136.5t-184 -47.5q-119 0 -185.5 41t-66.5 116q0 56 38 97.5t102 64.5q-147 50 -206 88t-59 92q0 46 30 75.5t83 51.5q-121 121 -121 398
q0 222 81.5 346.5t238.5 124.5q56 0 108 -19q29 65 69.5 106.5t100.5 69.5l60 -106q-78 -8 -121.5 -26.5t-73.5 -59.5q174 -98 174 -436q0 -224 -80.5 -348t-236.5 -124zM240 578q0 -226 28 -328.5t101 -102.5q72 0 99.5 103t27.5 328t-27.5 327.5t-99.5 102.5
q-74 0 -101.5 -102t-27.5 -328zM287 -283q0 -123 147 -123q68 0 104.5 28.5t36.5 74.5q0 53 -37 79.5t-159 73.5q-92 -45 -92 -133z" />
    <glyph glyph-name="h" unicode="h" horiz-adv-x="864" 
d="M115 1217q0 67 -8 98t-25 44t-57 23v21h120q84 6 127 49h21v-551q119 141 252 141q98 0 147 -59t49 -188v-609q0 -67 8 -98.5t25 -44.5t57 -23v-20h-356v20q40 10 57 23t25 44.5t8 98.5v637q0 142 -88 142q-44 0 -87 -30.5t-97 -88.5v-660q0 -67 8 -98.5t25 -44.5t57 -23
v-20h-358v20q40 10 57 23t25 44.5t8 98.5v1031z" />
    <glyph glyph-name="i" unicode="i" horiz-adv-x="419" 
d="M121 807q0 67 -8 98.5t-25 44.5t-57 23v20h121q87 7 127 49h20v-856q0 -67 8 -98.5t25 -44.5t57 -23v-20h-358v20q40 10 57 23t25 44.5t8 98.5v621zM70 1321q0 57 39 95t96 38t96 -38t39 -95t-39 -95t-96 -38t-96 38t-39 95z" />
    <glyph glyph-name="j" unicode="j" horiz-adv-x="415" 
d="M121 811q0 67 -8 98.5t-25 44.5t-57 23v20l121 2q82 3 124 50h21v-1117q0 -62 -1.5 -101t-6.5 -85.5t-15.5 -73.5t-28.5 -52.5t-46 -36.5t-66 -11q-37 0 -84 14.5t-74 14.5l-36 368h41q17 -121 34.5 -196.5t36 -108.5t33.5 -42t37 -9q34 0 46.5 37t12.5 110
q0 72 -29.5 179t-29.5 184v688zM63 1321q0 57 39.5 95t96.5 38t96 -38t39 -95t-39 -95t-96 -38t-96.5 38t-39.5 95z" />
    <glyph glyph-name="k" unicode="k" horiz-adv-x="925" 
d="M741 172q35 -84 67 -110.5t95 -41.5v-20h-411v20q25 5 39.5 8.5t24 12.5t12 16t-1.5 26t-10.5 36.5t-20.5 52.5l-152 375l-90 -137v-224q0 -67 8 -98.5t25 -44.5t57 -23v-20h-358v20q40 10 57 23t25 44.5t8 98.5v1031q0 67 -8 98t-25 44t-57 23v21h120q84 6 127 49h21
v-963l278 422q38 54 28.5 70t-83.5 16v27h283v-27q-69 0 -108 -19t-75 -75l-110 -170z" />
    <glyph glyph-name="l" unicode="l" horiz-adv-x="407" 
d="M115 1217q0 67 -8 98t-25 44t-57 23v21h120q84 6 127 49h21v-1266q0 -67 8 -98.5t25 -44.5t57 -23v-20h-358v20q40 10 57 23t25 44.5t8 98.5v1031z" />
    <glyph glyph-name="m" unicode="m" horiz-adv-x="1245" 
d="M854 0v20q40 10 57 23t25 44.5t8 98.5v641q0 72 -16 105t-51 33q-70 0 -172 -117q2 -14 2 -49v-613q0 -67 8 -98.5t25 -44.5t57 -23v-20h-357v20q40 10 57 23t25 44.5t8 98.5v641q0 138 -69 138q-75 0 -168 -117v-662q0 -67 8 -98.5t25 -44.5t57 -23v-20h-358v20
q40 10 57 23t25 44.5t8 98.5v621q0 67 -8 98.5t-25 44.5t-57 23v20h120q84 6 127 49h21v-141q108 141 235 141q142 0 170 -151q119 151 246 151q88 0 133 -58t45 -185v-613q0 -67 8 -98.5t25 -44.5t57 -23v-20h-358z" />
    <glyph glyph-name="n" unicode="n" horiz-adv-x="864" 
d="M115 807q0 67 -8 98.5t-25 44.5t-57 23v20h120q84 6 127 49h21v-141q119 141 252 141q98 0 147 -59t49 -188v-609q0 -67 8 -98.5t25 -44.5t57 -23v-20h-356v20q40 10 57 23t25 44.5t8 98.5v637q0 142 -88 142q-44 0 -87 -30.5t-97 -88.5v-660q0 -67 8 -98.5t25 -44.5
t57 -23v-20h-358v20q40 10 57 23t25 44.5t8 98.5v621z" />
    <glyph glyph-name="o" unicode="o" horiz-adv-x="802" 
d="M401 -18q-346 0 -346 530t346 530q347 0 347 -530t-347 -530zM250 512q0 -186 15.5 -292.5t47.5 -151.5t88 -45t88.5 45t48 151.5t15.5 292.5q0 187 -15.5 293.5t-48 151t-88.5 44.5q-54 0 -86.5 -45t-48.5 -152t-16 -292z" />
    <glyph glyph-name="p" unicode="p" horiz-adv-x="821" 
d="M115 807q0 67 -8 98.5t-25 44.5t-57 23v20h120q84 6 127 49h21v-122q43 61 93 91.5t118 30.5q118 0 187 -130t69 -375q0 -256 -79 -405.5t-208 -149.5q-64 0 -107.5 28t-72.5 88v-321q0 -67 8 -98.5t25 -44.5t57 -23v-21h-358v21q40 10 57 23t25 44.5t8 98.5v1030z
M293 350q3 -142 40.5 -221.5t92.5 -79.5q48 0 78 44t45.5 147.5t15.5 275.5q0 245 -31.5 345t-103.5 100q-35 0 -67 -22t-70 -73v-516z" />
    <glyph glyph-name="q" unicode="q" horiz-adv-x="817" 
d="M709 -223q0 -67 8 -98.5t25 -44.5t57 -23v-21h-359v21q40 10 57 23t25 44.5t8 98.5v327q-43 -61 -93 -91.5t-118 -30.5q-120 0 -189 130t-69 375q0 259 82 407t219 148q94 0 145 -63t81 -207q55 104 80 266h41v-1261zM256 508q0 -241 33 -341.5t104 -100.5q35 0 66.5 22
t70.5 72v514q-1 142 -39.5 221.5t-93.5 79.5q-73 0 -107 -106.5t-34 -360.5z" />
    <glyph glyph-name="r" unicode="r" horiz-adv-x="671" 
d="M510 795q-38 0 -59 25t-33 62t-19 46q-10 11 -33 -13t-73 -90v-639q0 -51 5.5 -79t25.5 -46t46.5 -26t78.5 -15v-20h-424v20q40 10 57 23t25 44.5t8 98.5v621q0 67 -8 98.5t-25 44.5t-57 23v20h120q84 6 127 49h21v-155q60 77 103 116t85 39q26 0 43.5 -14.5t25 -31.5
t18.5 -31.5t24 -14.5q14 0 39 19l12 -23q-35 -151 -133 -151z" />
    <glyph glyph-name="s" unicode="s" horiz-adv-x="645" 
d="M94 406q21 -122 44 -200t51 -117t55.5 -52.5t66.5 -13.5q99 0 99 114q0 70 -35 140.5t-112 188.5q-15 22 -23 34q-48 63 -70 94t-50 79t-39 90t-11 89q0 95 64 142.5t167 47.5q46 0 116 -14t109 -14l41 -348h-39q-18 111 -39 182t-47 102.5t-48 41t-54 9.5
q-41 0 -64.5 -22.5t-23.5 -67.5q0 -43 25 -100.5t49.5 -95.5t89.5 -133q85 -115 129.5 -203.5t44.5 -181.5q0 -109 -64.5 -162t-181.5 -53q-59 0 -138.5 14t-115.5 14l-37 396h41z" />
    <glyph glyph-name="t" unicode="t" horiz-adv-x="524" 
d="M20 1024q140 3 191.5 64t73.5 241h24v-305h172v-41q-81 0 -116 -7.5t-45.5 -25.5t-10.5 -61v-637q0 -95 9 -129.5t38 -34.5q33 0 55.5 74t41.5 237l36 -8q-24 -226 -66 -317.5t-136 -91.5q-85 0 -120.5 59t-35.5 205v643q0 34 -2 49t-14 27t-33 15t-62 3v41z" />
    <glyph glyph-name="u" unicode="u" horiz-adv-x="870" 
d="M281 1049h20v-852q0 -142 88 -142q79 0 184 115v641q0 67 -8 98.5t-25 44.5t-57 23v20l121 2q84 3 125 50h21v-826q0 -67 8 -98t25 -44t57 -24v-20h-121q-86 -7 -125 -51h-21v133q-118 -144 -251 -144q-199 0 -199 250v586q0 67 -8 98.5t-25 44.5t-57 23v20l121 2
q83 3 127 50z" />
    <glyph glyph-name="v" unicode="v" horiz-adv-x="831" 
d="M475 -18h-104l-224 862q-16 63 -33.5 94.5t-36.5 43.5t-57 22v20h398v-20q-40 -7 -58.5 -14t-27.5 -25.5t-5.5 -44t15.5 -76.5l154 -633l149 633q10 40 13 64t1.5 41.5t-13.5 27t-28.5 15.5t-48.5 12v20h242v-20q-38 -10 -57 -22t-36 -43.5t-32 -94.5z" />
    <glyph glyph-name="w" unicode="w" horiz-adv-x="1157" 
d="M147 844q-16 63 -33.5 94.5t-36.5 43.5t-57 22v20h768v-27q-40 -6 -63.5 -37t-44.5 -116l-4 -21l145 -610l150 631q20 89 9.5 118t-62.5 35v27h217v-20q-37 -10 -55.5 -22t-35.5 -43.5t-32 -94.5l-211 -862h-99l-120 464l-113 -464h-98zM338 846l154 -633l71 307l-84 326
q-20 84 -43 117.5t-59 33.5q-38 0 -48 -33t9 -118z" />
    <glyph glyph-name="x" unicode="x" horiz-adv-x="772" 
d="M416 1024v-20q-73 -13 -81.5 -37.5t25.5 -116.5l93 -254l96 254q16 41 22 62t8 39.5t-8.5 26.5t-26 14t-46.5 12v20h243v-20q-57 -15 -85.5 -41.5t-61.5 -112.5l-121 -311l133 -365q30 -85 58 -112t84 -42v-20h-394v20q73 13 81.5 37.5t-25.5 116.5l-95 258l-96 -258
q-36 -92 -28 -116.5t81 -37.5v-20h-243v20q56 15 84 41.5t61 112.5l121 318l-129 358q-31 85 -59 112t-82 42v20h391z" />
    <glyph glyph-name="y" unicode="y" horiz-adv-x="837" 
d="M293 -444q-30 0 -69.5 15t-67.5 15l-43 387h41q19 -128 37 -208t36.5 -114.5t32.5 -44t35 -9.5q36 0 60.5 49.5t54.5 179.5l36 156h-69l-227 862q-17 63 -35.5 94.5t-37.5 43.5t-57 22v20h398v-20q-40 -7 -58.5 -14t-27.5 -25.5t-5.5 -44t15.5 -76.5l158 -635l151 635
q12 51 15.5 76.5t-5.5 44t-27.5 25.5t-58.5 14v20h242v-20q-38 -10 -57 -22t-36 -43.5t-32 -94.5l-243 -1024q-15 -60 -24 -93t-23 -71t-28 -56.5t-34.5 -31t-46.5 -12.5z" />
    <glyph glyph-name="z" unicode="z" horiz-adv-x="655" 
d="M391 41q35 0 55 6.5t38 24.5t30 62.5t23.5 107t25.5 170.5h41l-41 -412h-512v41l346 942h-116q-29 0 -46.5 -3t-35 -15.5t-27.5 -31.5t-21.5 -57t-20.5 -86t-21 -124h-41l43 358h485v-41l-346 -942h141z" />
    <glyph glyph-name="braceleft" unicode="{" horiz-adv-x="534" 
d="M43 635q87 0 129.5 50.5t45.5 148t-17 239.5q-12 73 -12.5 132t14.5 117.5t48 100.5t94 73t147 44v-20q-79 -36 -100 -131.5t3 -266.5q52 -427 -205 -508q257 -81 205 -505q-24 -172 -3 -268t100 -132v-20q-86 13 -147 44t-94 73t-48 100.5t-14.5 117.5t12.5 132
q21 142 17.5 239.5t-46 148t-129.5 50.5v41z" />
    <glyph glyph-name="bar" unicode="|" horiz-adv-x="163" 
d="M61 1556h41v-1679h-41v1679z" />
    <glyph glyph-name="braceright" unicode="}" horiz-adv-x="534" 
d="M492 594q-87 0 -129.5 -50.5t-46 -148t17.5 -239.5q12 -73 12.5 -132t-14.5 -117.5t-48 -100.5t-94 -73t-147 -44v20q79 36 99.5 132t-3.5 268q-52 424 205 505q-257 81 -205 508q25 171 4 266.5t-100 131.5v20q86 -13 147 -44t94 -73t48 -100.5t14.5 -117.5t-12.5 -132
q-20 -142 -17 -239.5t45.5 -148t129.5 -50.5v-41z" />
    <glyph glyph-name="asciitilde" unicode="~" horiz-adv-x="673" 
d="M571 557q-25 -60 -54 -88.5t-77 -28.5q-34 0 -61.5 16.5t-43.5 37t-39 37t-48 16.5q-34 0 -53.5 -19t-55.5 -75l-37 16q36 63 67 91t79 28q28 0 50.5 -11t38 -27t30.5 -31.5t33.5 -26.5t39.5 -11q34 0 53.5 20.5t41.5 71.5z" />
    <glyph glyph-name="exclamdown" unicode="&#xa1;" horiz-adv-x="397" 
d="M242 -444q-92 0 -92 120q0 54 17 184.5t34.5 333t17.5 431.5h41q0 -229 19 -431.5t38 -333t19 -184.5q0 -55 -23 -87.5t-71 -32.5zM145 932q0 48 26.5 79t70.5 31q45 0 71.5 -31t26.5 -79q0 -47 -26.5 -79t-71.5 -32q-43 0 -70 32t-27 79z" />
    <glyph glyph-name="cent" unicode="&#xa2;" horiz-adv-x="716" 
d="M61 729q0 239 90 377t252 141v309h41v-311q28 -3 79 -14.5t81 -11.5l37 -349h-41q-14 100 -31.5 167.5t-38.5 102.5t-41 49.5t-45 16.5v-925h2q145 0 189 317l41 -4q-28 -190 -86 -284t-146 -115v-318h-41v309h-22q-156 0 -238 139t-82 404zM256 774q0 -191 35 -323
t112 -162v913q-73 -20 -110 -133.5t-37 -294.5z" />
    <glyph glyph-name="sterling" unicode="&#xa3;" horiz-adv-x="831" 
d="M262 -18q-79 0 -134.5 53.5t-55.5 159.5q0 97 48.5 167t133.5 70t158 -84q-2 21 -5.5 41.5t-10 44t-11 39.5t-15.5 42.5t-15.5 38.5t-19 42.5t-18.5 38.5t-21 42.5t-20 39.5h-178v41h158q-53 106 -82 199t-29 194q0 148 81 224.5t220 76.5q50 0 119 -14.5t111 -14.5
l39 -467h-43q-28 194 -57 296t-56.5 130.5t-69.5 28.5q-124 0 -124 -283q0 -179 36 -370h242v-41h-233q5 -26 17 -82.5t17.5 -85.5t13 -73.5t10.5 -82t3 -74.5l-2 -51l14 -21t14 -20.5t13 -18.5t13.5 -18.5t13 -16t14.5 -15t14.5 -11t15.5 -9.5t15.5 -5t17.5 -2
q42 0 67.5 55.5t35.5 186.5h43q-5 -99 -15 -170.5t-22.5 -113.5t-30.5 -66.5t-35.5 -32.5t-40.5 -8t-44.5 10.5t-35.5 22t-32.5 39t-26.5 41.5t-28 50q-25 -77 -73.5 -120t-113.5 -43zM145 176q0 -71 31.5 -112t87.5 -41q59 0 95 52.5t49 139.5q-67 96 -148 96
q-51 0 -83 -35.5t-32 -99.5z" />
    <glyph glyph-name="currency" unicode="&#xa4;" horiz-adv-x="923" 
d="M461 287q-127 0 -211 90l-166 -166l-29 29l168 168q-92 122 -92 309q0 184 92 309l-168 168l29 29l164 -166q90 90 213 90q127 0 211 -90l166 166l28 -29l-168 -168q93 -123 93 -309t-93 -309l168 -168l-28 -29l-166 166q-84 -90 -211 -90zM172 717q0 -167 78 -278
t211 -111t211 111t78 278t-78 278t-211 111t-211 -111t-78 -278z" />
    <glyph glyph-name="yen" unicode="&#xa5;" horiz-adv-x="860" 
d="M670 1253q17 67 17.5 95.5t-16 41.5t-63.5 23v21h232v-21q-38 -10 -57 -22t-36.5 -43.5t-33.5 -94.5l-107 -407h230v-41h-240l-31 -123h271v-41h-283l-12 -51v-404q0 -67 7 -98.5t22 -44.5t51 -23v-20h-347v20q36 10 51 23t22 44.5t7 98.5v377l-22 78h-285v41h272
l-34 123h-238v41h225l-118 409q-18 61 -37.5 93t-38.5 43.5t-58 21.5v21h402v-21q-29 -6 -44 -12t-25.5 -15t-10.5 -27.5t4.5 -41t15.5 -64.5l113 -407h86zM485 805l33 -117l31 117h-64z" />
    <glyph glyph-name="brokenbar" unicode="&#xa6;" horiz-adv-x="163" 
d="M61 1556h41v-655h-41v655zM61 -123v655h41v-655h-41z" />
    <glyph glyph-name="section" unicode="&#xa7;" horiz-adv-x="712" 
d="M66 655q0 182 178 222q-62 83 -90.5 143t-28.5 137q0 92 62.5 136t158.5 44q55 0 122 -14t103 -14l37 -342h-41q-12 90 -26.5 153t-28.5 97t-33 52.5t-33.5 22.5t-37.5 4q-82 0 -82 -96q0 -27 6 -54.5t12 -46.5t25 -52t29 -48t40 -60.5t43 -64.5q42 -63 61.5 -93.5
t48.5 -85t41.5 -102.5t12.5 -97q0 -179 -176 -222q61 -81 90 -141.5t29 -136.5q0 -92 -61.5 -137t-157.5 -45q-57 0 -125 15t-103 15l-37 340h41q12 -90 26.5 -152.5t28 -97t32.5 -52.5t34.5 -22.5t38.5 -4.5q40 0 61 25.5t21 72.5q0 27 -6 53.5t-13 46t-25 50.5t-29 48.5
t-39.5 59.5t-43.5 65q-43 63 -62 93.5t-48.5 85.5t-42 103t-12.5 97zM231 700q0 -48 21 -100.5t42 -85t84 -120.5q16 -24 25 -36l27 -34q51 39 51 129q0 23 -3 44.5t-13.5 46.5t-17 40t-27.5 47t-30 45.5t-39.5 56t-41.5 58.5l-26 36q-52 -39 -52 -127z" />
    <glyph glyph-name="dieresis" unicode="&#xa8;" horiz-adv-x="677" 
d="M449 1204q-41 0 -68 26.5t-27 65.5q0 41 27 69t68 28t68.5 -28t27.5 -69q0 -39 -27.5 -65.5t-68.5 -26.5zM41 1296q0 41 27 69t67 28q41 0 68.5 -28t27.5 -69q0 -39 -27.5 -65.5t-68.5 -26.5q-40 0 -67 27t-27 65z" />
    <glyph glyph-name="copyright" unicode="&#xa9;" horiz-adv-x="1505" 
d="M754 -25q-182 0 -324.5 93.5t-221.5 262.5t-79 386q0 216 79 385t221.5 262.5t324.5 93.5t324 -93.5t221 -262.5t79 -385q0 -328 -174.5 -535t-449.5 -207zM170 717q0 -313 162 -507t422 -194q258 0 420.5 195.5t162.5 505.5t-162.5 505t-420.5 195q-259 0 -421.5 -194.5
t-162.5 -505.5zM475 705q0 203 93 322.5t225 119.5q35 0 81 -10.5t74 -10.5l39 -280h-33q-38 160 -71 214t-76 54q-59 0 -87 -77.5t-28 -254.5q0 -411 146 -411q46 0 88.5 54.5t70.5 190.5l33 -8q-33 -173 -95.5 -246t-164.5 -73q-141 0 -218 109.5t-77 306.5z" />
    <glyph glyph-name="ordfeminine" unicode="&#xaa;" horiz-adv-x="602" 
d="M422 705q-43 0 -43 53v61q-44 -117 -146 -117q-83 0 -136.5 71t-53.5 216q0 144 54 213.5t139 69.5q100 0 143 -115v47q0 120 -24.5 167.5t-80.5 47.5q-110 0 -172 -139h-30l53 145q25 0 82.5 11.5t93.5 11.5q98 0 154.5 -59.5t56.5 -180.5v-286q0 -100 13 -118t81 -3
l8 -21l-137 -61q-35 -14 -55 -14zM182 989q0 -108 25.5 -165.5t73.5 -57.5q44 0 71 56.5t27 166.5q0 109 -27 164t-69 55q-101 0 -101 -219z" />
    <glyph glyph-name="guillemotleft" unicode="&#xab;" horiz-adv-x="677" 
d="M102 514q0 25 14 51t48 66l184 205l29 -19l-144 -303l144 -303l-29 -18l-184 204q-34 40 -48 66t-14 51zM342 514q0 45 61 117l185 205l28 -19l-143 -303l143 -303l-28 -18l-185 204q-61 72 -61 117z" />
    <glyph glyph-name="logicalnot" unicode="&#xac;" horiz-adv-x="595" 
d="M102 592h392v-195h-41v154h-351v41z" />
    <glyph glyph-name="registered" unicode="&#xae;" horiz-adv-x="782" 
d="M391 713q-150 0 -243 102t-93 270t93 270.5t243 102.5t242 -102.5t92 -270.5t-92 -270t-242 -102zM96 1085q0 -153 81 -243t214 -90q132 0 212.5 90.5t80.5 242.5q0 153 -80 243.5t-213 90.5t-214 -90.5t-81 -243.5zM260 877v8q18 5 23.5 15.5t5.5 47.5v295q0 37 -5.5 48
t-23.5 16v8h37q21 1 50.5 4.5t47.5 3.5q109 0 109 -111q0 -40 -20 -68.5t-52 -39.5q39 -10 54 -37.5t18 -77.5q6 -63 13.5 -78.5t29.5 -15.5v-18q-39 0 -58.5 3t-32 16t-16.5 31t-6 56q-6 64 -15.5 88.5t-29.5 24.5q-17 0 -29 2v-150q0 -38 4.5 -48t22.5 -15v-8h-127z
M360 1118q12 -4 25 -4q43 0 43 98q0 93 -41 93q-2 0 -27 -5v-182z" />
    <glyph glyph-name="macron" unicode="&#xaf;" horiz-adv-x="620" 
d="M102 1319h416v-82h-416v82z" />
    <glyph glyph-name="degree" unicode="&#xb0;" horiz-adv-x="514" 
d="M256 911q-88 0 -141.5 76t-53.5 195t53.5 194.5t141.5 75.5q89 0 143 -75.5t54 -194.5t-54 -195t-143 -76zM102 1182q0 -102 41.5 -166t112.5 -64q72 0 114 64.5t42 165.5q0 102 -42 165.5t-114 63.5q-71 0 -112.5 -63.5t-41.5 -165.5z" />
    <glyph glyph-name="plusminus" unicode="&#xb1;" horiz-adv-x="595" 
d="M102 594h174v174h41v-174h175v-41h-175v-174h-41v174h-174v41zM102 250v41h390v-41h-390z" />
    <glyph glyph-name="uni00B2" unicode="&#xb2;" horiz-adv-x="409" 
d="M12 942q45 84 58.5 110t50 98t50 107t34 91t28 99.5t7.5 84.5q0 48 -14 71t-48 23q-42 0 -68.5 -50t-48.5 -194h-20l20 252q17 0 58.5 7.5t73.5 7.5q194 0 194 -164q0 -55 -18.5 -109.5t-42.5 -95t-71 -93t-77.5 -81.5t-89.5 -82h148q25 0 37.5 2t27.5 10.5t23 27.5
t16 51.5t16 84.5h21l-25 -278h-340v20z" />
    <glyph glyph-name="uni00B3" unicode="&#xb3;" horiz-adv-x="419" 
d="M41 1200q15 -112 33.5 -172t37 -78t46.5 -18q44 0 66 58t22 159q0 80 -16.5 130t-49.5 50q-18 0 -31.5 -9.5t-35.5 -31.5l-15 17q61 77 89 135.5t28 122.5q0 65 -47 65q-25 0 -42.5 -16.5t-36 -72.5t-34.5 -157h-20l20 252q19 0 66.5 7.5t81.5 7.5q147 0 147 -113
q0 -118 -131 -180q70 10 125 -44.5t55 -166.5q0 -118 -65.5 -176t-169.5 -58q-32 0 -69 7.5t-54 7.5l-21 274h21z" />
    <glyph glyph-name="acute" unicode="&#xb4;" horiz-adv-x="507" 
d="M438 1253l-362 -61l-6 27l157 92q55 31 97.5 39t66 -5.5t35.5 -37t12 -54.5z" />
    <glyph glyph-name="paragraph" unicode="&#xb6;" horiz-adv-x="839" 
d="M403 788q-162 0 -257 95.5t-95 228.5q0 132 95.5 227t256.5 95h381v-1534h-41v1493h-217v-1493h-41v888h-82z" />
    <glyph glyph-name="periodcentered" unicode="&#xb7;" horiz-adv-x="307" 
d="M154 391q-44 0 -71.5 31.5t-27.5 79.5q0 47 27.5 78.5t71.5 31.5q45 0 71.5 -31.5t26.5 -78.5q0 -48 -26.5 -79.5t-71.5 -31.5z" />
    <glyph glyph-name="cedilla" unicode="&#xb8;" horiz-adv-x="428" 
d="M180 -90q185 -38 185 -178q0 -63 -43.5 -96t-112.5 -33q-24 0 -59.5 8t-57.5 8l-29 201h39q20 -110 39.5 -145t46.5 -35q45 0 45 67q0 121 -96 187v20l33 86h43z" />
    <glyph glyph-name="uni00B9" unicode="&#xb9;" horiz-adv-x="296" 
d="M20 1524q78 6 121.5 33.5t77.5 91.5h10v-633q0 -41 10.5 -57.5t39.5 -22.5v-14h-228v14q27 6 36 21t9 59v422q0 38 -14 51.5t-62 13.5v21z" />
    <glyph glyph-name="ordmasculine" unicode="&#xba;" horiz-adv-x="575" 
d="M287 702q-248 0 -248 373t248 373q250 0 250 -373t-250 -373zM182 1075q0 -189 24.5 -266.5t80.5 -77.5q58 0 81 75.5t23 268.5t-23 268.5t-81 75.5q-56 0 -80.5 -77.5t-24.5 -266.5z" />
    <glyph glyph-name="guillemotright" unicode="&#xbb;" horiz-adv-x="677" 
d="M575 514q0 -45 -61 -117l-184 -204l-29 18l143 303l-143 303l29 19l184 -205q61 -72 61 -117zM61 211l144 303l-144 303l29 19l184 -205q34 -40 48 -66t14 -51t-14 -51t-48 -66l-184 -204z" />
    <glyph glyph-name="onequarter" unicode="&#xbc;" horiz-adv-x="837" 
d="M20 1319q78 6 121.5 33.5t77.5 91.5h10v-633q0 -41 10.5 -57.5t39.5 -22.5v-14h-228v14q27 6 36 21t9 59v422q0 38 -14 51.5t-62 13.5v21zM98 0l508 1434h39l-504 -1434h-43zM397 172v21l213 540h11q32 -21 59.5 -28t69.5 -9v-424h69v-100h-69v-78q0 -41 9.5 -57.5
t35.5 -22.5v-14h-226v14q26 6 35.5 22.5t9.5 57.5v78h-217zM457 272h157v410z" />
    <glyph glyph-name="onehalf" unicode="&#xbd;" horiz-adv-x="845" 
d="M20 1319q78 6 121.5 33.5t77.5 91.5h10v-633q0 -41 10.5 -57.5t39.5 -22.5v-14h-228v14q27 6 36 21t9 59v422q0 38 -14 51.5t-62 13.5v21zM98 0l508 1434h39l-504 -1434h-43zM451 0v20q61 113 87 165t66.5 141t57 156t16.5 128q0 48 -14 71.5t-48 23.5q-42 0 -68 -50
t-48 -194h-21l21 252q17 0 58 7t73 7q194 0 194 -164q0 -55 -18.5 -109.5t-42.5 -95t-71 -93t-77.5 -81.5t-89.5 -82h148q25 0 37.5 2t27.5 10.5t23.5 28t16.5 52t16 84.5h20l-24 -279h-340z" />
    <glyph glyph-name="threequarters" unicode="&#xbe;" horiz-adv-x="950" 
d="M41 995q15 -112 33.5 -172t37 -78t46.5 -18q44 0 66 58t22 159q0 80 -16.5 130t-49.5 50q-18 0 -31.5 -9.5t-35.5 -31.5l-15 17q61 77 89 135.5t28 122.5q0 65 -47 65q-25 0 -42.5 -16t-36 -72t-34.5 -157h-20l20 252q19 0 66.5 7t81.5 7q147 0 147 -113
q0 -118 -131 -180q70 10 125 -44.5t55 -166.5q0 -118 -65.5 -175.5t-169.5 -57.5q-32 0 -69 7t-54 7l-21 274h21zM213 0l508 1434h39l-504 -1434h-43zM512 172v21l213 540h10q32 -21 59.5 -28t69.5 -9v-424h70v-100h-70v-78q0 -41 9.5 -57.5t35.5 -22.5v-14h-225v14
q26 6 35.5 22.5t9.5 57.5v78h-217zM571 272h158v410z" />
    <glyph glyph-name="questiondown" unicode="&#xbf;" horiz-adv-x="600" 
d="M393 625q0 -277 -10 -382t-49 -202q-29 -82 -39 -111t-21.5 -86.5t-11.5 -111.5q0 -60 15 -89.5t49 -29.5q29 0 50.5 16t45 63t44 148t38.5 258h41l-37 -497q-43 0 -107 -14.5t-118 -14.5q-228 0 -228 199q0 53 14.5 102.5t43.5 94t51 71.5t57 65q82 89 106.5 186.5
t24.5 334.5h41zM274 936q0 48 27.5 80.5t71.5 32.5t72 -32.5t28 -80.5q0 -46 -28 -77.5t-72 -31.5t-71.5 31.5t-27.5 77.5z" />
    <glyph glyph-name="Agrave" unicode="&#xc0;" horiz-adv-x="876" 
d="M176 182q-9 -51 -10.5 -77t8.5 -44.5t29 -26t59 -14.5v-20h-242v20q54 14 75.5 42.5t39.5 119.5l203 1145l-10 59v21q65 0 98 8t66 37h20l229 -1270q18 -91 40 -119.5t75 -42.5v-20h-397v20q39 7 58 14.5t29.5 26t9 45t-10.5 76.5l-37 201h-297zM219 424h283l-144 790z
M246 1622q0 31 11.5 54t35.5 36.5t66 5.5t96 -39l159 -92l-8 -26z" />
    <glyph glyph-name="Aacute" unicode="&#xc1;" horiz-adv-x="876" 
d="M176 182q-9 -51 -10.5 -77t8.5 -44.5t29 -26t59 -14.5v-20h-242v20q54 14 75.5 42.5t39.5 119.5l203 1145l-10 59v21q65 0 98 8t66 37h20l229 -1270q18 -91 40 -119.5t75 -42.5v-20h-397v20q39 7 58 14.5t29.5 26t9 45t-10.5 76.5l-37 201h-297zM219 424h283l-144 790z
M246 1587l157 92q44 25 80.5 35t60.5 5.5t40 -18.5t23 -34.5t7 -44.5l-362 -61z" />
    <glyph glyph-name="Acircumflex" unicode="&#xc2;" horiz-adv-x="876" 
d="M176 182q-9 -51 -10.5 -77t8.5 -44.5t29 -26t59 -14.5v-20h-242v20q54 14 75.5 42.5t39.5 119.5l203 1145l-10 59v21q65 0 98 8t66 37h20l229 -1270q18 -91 40 -119.5t75 -42.5v-20h-397v20q39 7 58 14.5t29.5 26t9 45t-10.5 76.5l-37 201h-297zM203 1575l139 174
q39 45 84 45t84 -45l143 -174l-26 -27l-201 127l-197 -127zM219 424h283l-144 790z" />
    <glyph glyph-name="Atilde" unicode="&#xc3;" horiz-adv-x="876" 
d="M176 182q-9 -51 -10.5 -77t8.5 -44.5t29 -26t59 -14.5v-20h-242v20q54 14 75.5 42.5t39.5 119.5l203 1145l-10 59v21q65 0 98 8t66 37h20l229 -1270q18 -91 40 -119.5t75 -42.5v-20h-397v20q39 7 58 14.5t29.5 26t9 45t-10.5 76.5l-37 201h-297zM168 1622q13 36 22.5 59
t26 54t33.5 48.5t41.5 30.5t52.5 13q32 0 62.5 -18t50.5 -39.5t45 -39.5t47 -18q30 0 52 21.5t50 72.5l37 -16q-13 -42 -26 -73.5t-33.5 -64t-49 -50t-63.5 -17.5q-32 0 -63 18t-51 39.5t-44.5 39.5t-46.5 18q-31 0 -54.5 -22t-51.5 -72zM219 424h283l-144 790z" />
    <glyph glyph-name="Adieresis" unicode="&#xc4;" horiz-adv-x="876" 
d="M176 182q-9 -51 -10.5 -77t8.5 -44.5t29 -26t59 -14.5v-20h-242v20q54 14 75.5 42.5t39.5 119.5l203 1145l-10 59v21q65 0 98 8t66 37h20l229 -1270q18 -91 40 -119.5t75 -42.5v-20h-397v20q39 7 58 14.5t29.5 26t9 45t-10.5 76.5l-37 201h-297zM160 1677q0 48 31.5 79.5
t80.5 31.5t82 -32t33 -79q0 -49 -32.5 -80.5t-82.5 -31.5t-81 31.5t-31 80.5zM219 424h283l-144 790zM471 1677q0 47 33 79t82 32q47 0 79.5 -32t32.5 -79q0 -49 -32 -80.5t-80 -31.5q-50 0 -82.5 31.5t-32.5 80.5z" />
    <glyph glyph-name="Aring" unicode="&#xc5;" horiz-adv-x="876" 
d="M176 182q-9 -51 -10.5 -77t8.5 -44.5t29 -26t59 -14.5v-20h-242v20q54 14 75.5 42.5t39.5 119.5l203 1145l-10 59v21q65 0 98 8t66 37h20l229 -1270q18 -91 40 -119.5t75 -42.5v-20h-397v20q39 7 58 14.5t29.5 26t9 45t-10.5 76.5l-37 201h-297zM219 424h283l-144 790z
M281 1665q0 57 41.5 97t107.5 40q65 0 106.5 -40t41.5 -97q0 -60 -41.5 -100.5t-106.5 -40.5q-66 0 -107.5 40.5t-41.5 100.5zM324 1665q0 -43 28.5 -73.5t77.5 -30.5q48 0 77.5 30.5t29.5 73.5q0 42 -29.5 72t-77.5 30q-49 0 -77.5 -30t-28.5 -72z" />
    <glyph glyph-name="AE" unicode="&#xc6;" horiz-adv-x="1155" 
d="M207 178q-28 -94 -15 -119.5t97 -38.5v-20h-275v20q34 8 52.5 15t37.5 23.5t32 44.5t28 75l352 1190q-7 19 -21.5 28t-45.5 17v21h616l39 -498h-41q-13 113 -23 185.5t-22.5 126t-23 80.5t-29 43t-35.5 19t-47 3h-168v-613h112q40 0 54 12.5t18.5 61t-4.5 145.5h41
l39 -503h-41q-19 165 -29 196q-12 37 -42 44q-16 3 -42 3h-106v-698h182q29 0 45.5 3.5t35 19t29.5 44.5t24 82.5t23 129.5t23 190h41l-37 -510h-632v20q37 10 52.5 23t22 44.5t6.5 98.5v201h-262zM281 428h249v819v19z" />
    <glyph glyph-name="Ccedilla" unicode="&#xc7;" horiz-adv-x="792" 
d="M51 748q0 187 31.5 325t90 219.5t135 120.5t173.5 39q50 0 111 -11t92 -11l37 -494h-41q-16 152 -35 247.5t-44.5 145t-52.5 66t-67 16.5q-104 0 -162.5 -157t-58.5 -486q0 -319 64 -501.5t168 -182.5q43 0 75.5 21.5t63.5 75t53.5 154t36.5 249.5l41 -4
q-16 -180 -43.5 -298.5t-69 -183.5t-91 -90.5t-118.5 -25.5l-26 -72q184 -37 184 -178q0 -63 -43.5 -96t-112.5 -33q-24 0 -59 8t-57 8l-29 201h39q20 -110 39.5 -145t46.5 -35q45 0 45 67q0 121 -96 187v20l26 72q-160 24 -253 220.5t-93 541.5z" />
    <glyph glyph-name="Egrave" unicode="&#xc8;" horiz-adv-x="757" 
d="M668 1434l39 -498h-41q-13 112 -23 185.5t-22.5 126.5t-23 80.5t-29.5 43t-36 18.5t-47 3h-168v-613h113q40 0 54 12.5t18.5 61t-4.5 145.5h41l39 -503h-41q-19 165 -29 196q-12 37 -42 44q-16 3 -42 3h-107v-698h183q29 0 45.5 3.5t35 19t29.5 44.5t24 82.5t23 129.5
t23 190h41l-37 -510h-633v20q37 10 52.5 23t22.5 44.5t7 98.5v1061q0 67 -7 98.5t-22.5 44.5t-52.5 23v21h617zM209 1622q0 31 11.5 54t35.5 36.5t66 5.5t96 -39l160 -92l-9 -26z" />
    <glyph glyph-name="Eacute" unicode="&#xc9;" horiz-adv-x="757" 
d="M668 1434l39 -498h-41q-13 112 -23 185.5t-22.5 126.5t-23 80.5t-29.5 43t-36 18.5t-47 3h-168v-613h113q40 0 54 12.5t18.5 61t-4.5 145.5h41l39 -503h-41q-19 165 -29 196q-12 37 -42 44q-16 3 -42 3h-107v-698h183q29 0 45.5 3.5t35 19t29.5 44.5t24 82.5t23 129.5
t23 190h41l-37 -510h-633v20q37 10 52.5 23t22.5 44.5t7 98.5v1061q0 67 -7 98.5t-22.5 44.5t-52.5 23v21h617zM211 1587l158 92q44 25 80.5 35t60.5 5.5t40 -18.5t23 -34.5t7 -44.5l-363 -61z" />
    <glyph glyph-name="Ecircumflex" unicode="&#xca;" horiz-adv-x="757" 
d="M668 1434l39 -498h-41q-13 112 -23 185.5t-22.5 126.5t-23 80.5t-29.5 43t-36 18.5t-47 3h-168v-613h113q40 0 54 12.5t18.5 61t-4.5 145.5h41l39 -503h-41q-19 165 -29 196q-12 37 -42 44q-16 3 -42 3h-107v-698h183q29 0 45.5 3.5t35 19t29.5 44.5t24 82.5t23 129.5
t23 190h41l-37 -510h-633v20q37 10 52.5 23t22.5 44.5t7 98.5v1061q0 67 -7 98.5t-22.5 44.5t-52.5 23v21h617zM168 1575l139 174q39 45 84 45t84 -45l143 -174l-26 -27l-201 127l-196 -127z" />
    <glyph glyph-name="Edieresis" unicode="&#xcb;" horiz-adv-x="757" 
d="M668 1434l39 -498h-41q-13 112 -23 185.5t-22.5 126.5t-23 80.5t-29.5 43t-36 18.5t-47 3h-168v-613h113q40 0 54 12.5t18.5 61t-4.5 145.5h41l39 -503h-41q-19 165 -29 196q-12 37 -42 44q-16 3 -42 3h-107v-698h183q29 0 45.5 3.5t35 19t29.5 44.5t24 82.5t23 129.5
t23 190h41l-37 -510h-633v20q37 10 52.5 23t22.5 44.5t7 98.5v1061q0 67 -7 98.5t-22.5 44.5t-52.5 23v21h617zM125 1677q0 48 32 79.5t81 31.5t81.5 -32t32.5 -79q0 -49 -32 -80.5t-82 -31.5t-81.5 31.5t-31.5 80.5zM436 1677q0 47 33 79t82 32q47 0 80 -32t33 -79
q0 -49 -32.5 -80.5t-80.5 -31.5q-50 0 -82.5 31.5t-32.5 80.5z" />
    <glyph glyph-name="Igrave" unicode="&#xcc;" horiz-adv-x="448" 
d="M133 1247q0 67 -7 98.5t-22.5 44.5t-52.5 23v21h346v-21q-36 -10 -51 -23t-22 -44.5t-7 -98.5v-1061q0 -67 7 -98.5t22 -44.5t51 -23v-20h-346v20q37 10 52.5 23t22.5 44.5t7 98.5v1061zM41 1636q0 31 11.5 54.5t35.5 37t66 5.5t96 -39l160 -92l-9 -27z" />
    <glyph glyph-name="Iacute" unicode="&#xcd;" horiz-adv-x="448" 
d="M133 1247q0 67 -7 98.5t-22.5 44.5t-52.5 23v21h346v-21q-36 -10 -51 -23t-22 -44.5t-7 -98.5v-1061q0 -67 7 -98.5t22 -44.5t51 -23v-20h-346v20q37 10 52.5 23t22.5 44.5t7 98.5v1061zM43 1602l158 92q55 31 97.5 39t66 -5.5t35.5 -37t12 -54.5l-363 -61z" />
    <glyph glyph-name="Icircumflex" unicode="&#xce;" horiz-adv-x="448" 
d="M133 1247q0 67 -7 98.5t-22.5 44.5t-52.5 23v21h346v-21q-36 -10 -51 -23t-22 -44.5t-7 -98.5v-1061q0 -67 7 -98.5t22 -44.5t51 -23v-20h-346v20q37 10 52.5 23t22.5 44.5t7 98.5v1061zM0 1589l139 174q39 45 84 45t84 -45l144 -174l-27 -26l-201 127l-196 -127z" />
    <glyph glyph-name="Idieresis" unicode="&#xcf;" horiz-adv-x="448" 
d="M133 1247q0 67 -7 98.5t-22.5 44.5t-52.5 23v21h346v-21q-36 -10 -51 -23t-22 -44.5t-7 -98.5v-1061q0 -67 7 -98.5t22 -44.5t51 -23v-20h-346v20q37 10 52.5 23t22.5 44.5t7 98.5v1061zM-43 1692q0 47 32 78.5t81 31.5t81.5 -31.5t32.5 -78.5q0 -49 -32 -81t-82 -32
t-81.5 31.5t-31.5 81.5zM268 1692q0 47 33 78.5t82 31.5q48 0 80.5 -31.5t32.5 -78.5q0 -49 -32.5 -81t-80.5 -32q-50 0 -82.5 32t-32.5 81z" />
    <glyph glyph-name="Eth" unicode="&#xd0;" horiz-adv-x="980" 
d="M160 0h-109v20q37 10 52.5 23t22.5 44.5t7 98.5v510h-82v41h82v510q0 67 -7 98.5t-22.5 44.5t-52.5 23v21h109q47 1 130 9.5t120 8.5q397 0 397 -745q0 -174 -23 -306t-59.5 -210t-90 -126.5t-107 -65.5t-117.5 -17q-37 0 -120 8.5t-130 9.5zM317 35q47 -12 78 -12
q36 0 64 15.5t55.5 60.5t45.5 119t29 198t11 291q0 209 -16 352.5t-45.5 217.5t-64 104t-79.5 30q-31 0 -78 -12v-662h158v-41h-158v-661z" />
    <glyph glyph-name="Ntilde" unicode="&#xd1;" horiz-adv-x="829" 
d="M688 1247q0 67 -7 98.5t-22.5 44.5t-52.5 23v21h203v-21q-36 -10 -51 -23t-22 -44.5t-7 -98.5v-1247h-123l-436 1251v-1065q0 -67 7 -98.5t22 -44.5t51 -23v-20h-201v20q36 10 51 23t22 44.5t7 98.5v1162q-12 21 -26 33.5t-25.5 18.5t-32.5 13v21h279l364 -1100v913z
M156 1663q13 36 22.5 59t26 54t33.5 48.5t41.5 30.5t52.5 13q32 0 62.5 -18t50.5 -39.5t45 -39.5t47 -18q30 0 52 21.5t50 72.5l37 -16q-13 -42 -26 -73.5t-33.5 -64t-49 -50t-63.5 -17.5q-32 0 -63 18t-51 39.5t-44.5 39.5t-46.5 18q-31 0 -54.5 -22t-51.5 -72z" />
    <glyph glyph-name="Ograve" unicode="&#xd2;" horiz-adv-x="864" 
d="M432 -18q-177 0 -279 179.5t-102 555.5t102 555.5t279 179.5q176 0 278.5 -179t102.5 -556q0 -378 -102 -556.5t-279 -178.5zM248 1622q0 31 11.5 54t35.5 36.5t66 5.5t96 -39l159 -92l-8 -26zM260 717q0 -266 19 -419t55 -214t98 -61q63 0 99 61.5t54.5 213.5t18.5 419
q0 268 -18.5 420t-54.5 213t-99 61q-62 0 -98 -61t-55 -214t-19 -419z" />
    <glyph glyph-name="Oacute" unicode="&#xd3;" horiz-adv-x="864" 
d="M432 -18q-177 0 -279 179.5t-102 555.5t102 555.5t279 179.5q176 0 278.5 -179t102.5 -556q0 -378 -102 -556.5t-279 -178.5zM248 1587l158 92q55 31 97.5 39t66 -5.5t35 -36.5t11.5 -54l-362 -61zM260 717q0 -266 19 -419t55 -214t98 -61q63 0 99 61.5t54.5 213.5
t18.5 419q0 268 -18.5 420t-54.5 213t-99 61q-62 0 -98 -61t-55 -214t-19 -419z" />
    <glyph glyph-name="Ocircumflex" unicode="&#xd4;" horiz-adv-x="864" 
d="M432 -18q-177 0 -279 179.5t-102 555.5t102 555.5t279 179.5q176 0 278.5 -179t102.5 -556q0 -378 -102 -556.5t-279 -178.5zM207 1575l139 174q39 45 84 45t84 -45l143 -174l-26 -27l-201 127l-197 -127zM260 717q0 -266 19 -419t55 -214t98 -61q63 0 99 61.5
t54.5 213.5t18.5 419q0 268 -18.5 420t-54.5 213t-99 61q-62 0 -98 -61t-55 -214t-19 -419z" />
    <glyph glyph-name="Otilde" unicode="&#xd5;" horiz-adv-x="864" 
d="M432 -18q-177 0 -279 179.5t-102 555.5t102 555.5t279 179.5q176 0 278.5 -179t102.5 -556q0 -378 -102 -556.5t-279 -178.5zM172 1622q13 36 22.5 59t26 54t33.5 48.5t41.5 30.5t52.5 13q32 0 62.5 -18t50.5 -39.5t45 -39.5t47 -18q30 0 52 21.5t50 72.5l37 -16
q-13 -42 -26 -73.5t-33.5 -64t-49 -50t-63.5 -17.5q-32 0 -63 18t-51 39.5t-44.5 39.5t-46.5 18q-31 0 -54.5 -22t-51.5 -72zM260 717q0 -266 19 -419t55 -214t98 -61q63 0 99 61.5t54.5 213.5t18.5 419q0 268 -18.5 420t-54.5 213t-99 61q-62 0 -98 -61t-55 -214t-19 -419z
" />
    <glyph glyph-name="Odieresis" unicode="&#xd6;" horiz-adv-x="864" 
d="M432 -18q-177 0 -279 179.5t-102 555.5t102 555.5t279 179.5q176 0 278.5 -179t102.5 -556q0 -378 -102 -556.5t-279 -178.5zM162 1677q0 48 31.5 79.5t80.5 31.5t82 -32t33 -79q0 -49 -32.5 -80.5t-82.5 -31.5t-81 31.5t-31 80.5zM260 717q0 -266 19 -419t55 -214
t98 -61q63 0 99 61.5t54.5 213.5t18.5 419q0 268 -18.5 420t-54.5 213t-99 61q-62 0 -98 -61t-55 -214t-19 -419zM473 1677q0 47 33 79t82 32q47 0 79.5 -32t32.5 -79q0 -49 -32 -80.5t-80 -31.5q-50 0 -82.5 31.5t-32.5 80.5z" />
    <glyph glyph-name="multiply" unicode="&#xd7;" horiz-adv-x="509" 
d="M152 317h-50l129 197l-127 195h50l102 -158l102 158h50l-127 -195l127 -197h-50l-102 158z" />
    <glyph glyph-name="Oslash" unicode="&#xd8;" horiz-adv-x="864" 
d="M432 -18q-51 0 -92 14l-31 -201h-41l33 215q-250 122 -250 707q0 376 102 555.5t279 179.5q46 0 90 -12l31 198h41l-33 -215q252 -119 252 -706q0 -378 -102 -556.5t-279 -178.5zM260 717q0 -457 57 -600l195 1259q-32 35 -80 35q-62 0 -98 -61t-55 -214t-19 -419z
M350 61q32 -38 82 -38q63 0 99 61.5t54.5 213.5t18.5 419q0 466 -59 604z" />
    <glyph glyph-name="Ugrave" unicode="&#xd9;" horiz-adv-x="847" 
d="M109 1247q0 67 -7 98.5t-22 44.5t-51 23v21h346v-21q-37 -10 -52.5 -23t-22.5 -44.5t-7 -98.5v-837q0 -181 48.5 -262.5t152.5 -81.5t154 82t50 255v844q0 67 -7 98.5t-22 44.5t-51 23v21h201v-21q-36 -10 -51 -23t-22 -44.5t-7 -98.5v-866q0 -197 -73 -298t-230 -101
q-159 0 -243 105.5t-84 322.5v837zM256 1622q0 31 11.5 54t35.5 36.5t66 5.5t96 -39l160 -92l-9 -26z" />
    <glyph glyph-name="Uacute" unicode="&#xda;" horiz-adv-x="847" 
d="M109 1247q0 67 -7 98.5t-22 44.5t-51 23v21h346v-21q-37 -10 -52.5 -23t-22.5 -44.5t-7 -98.5v-837q0 -181 48.5 -262.5t152.5 -81.5t154 82t50 255v844q0 67 -7 98.5t-22 44.5t-51 23v21h201v-21q-36 -10 -51 -23t-22 -44.5t-7 -98.5v-866q0 -197 -73 -298t-230 -101
q-159 0 -243 105.5t-84 322.5v837zM256 1587l158 92q44 25 80.5 35t60.5 5.5t40 -18.5t23 -34.5t7 -44.5l-363 -61z" />
    <glyph glyph-name="Ucircumflex" unicode="&#xdb;" horiz-adv-x="847" 
d="M109 1247q0 67 -7 98.5t-22 44.5t-51 23v21h346v-21q-37 -10 -52.5 -23t-22.5 -44.5t-7 -98.5v-837q0 -181 48.5 -262.5t152.5 -81.5t154 82t50 255v844q0 67 -7 98.5t-22 44.5t-51 23v21h201v-21q-36 -10 -51 -23t-22 -44.5t-7 -98.5v-866q0 -197 -73 -298t-230 -101
q-159 0 -243 105.5t-84 322.5v837zM213 1575l139 174q39 45 84 45t84 -45l144 -174l-27 -27l-201 127l-196 -127z" />
    <glyph glyph-name="Udieresis" unicode="&#xdc;" horiz-adv-x="847" 
d="M109 1247q0 67 -7 98.5t-22 44.5t-51 23v21h346v-21q-37 -10 -52.5 -23t-22.5 -44.5t-7 -98.5v-837q0 -181 48.5 -262.5t152.5 -81.5t154 82t50 255v844q0 67 -7 98.5t-22 44.5t-51 23v21h201v-21q-36 -10 -51 -23t-22 -44.5t-7 -98.5v-866q0 -197 -73 -298t-230 -101
q-159 0 -243 105.5t-84 322.5v837zM170 1677q0 48 32 79.5t81 31.5t81.5 -32t32.5 -79q0 -49 -32 -80.5t-82 -31.5t-81.5 31.5t-31.5 80.5zM481 1677q0 47 33 79t82 32q47 0 80 -32t33 -79q0 -49 -32.5 -80.5t-80.5 -31.5q-50 0 -82.5 31.5t-32.5 80.5z" />
    <glyph glyph-name="Yacute" unicode="&#xdd;" horiz-adv-x="860" 
d="M670 1253q17 67 17.5 95.5t-16 41.5t-63.5 23v21h232v-21q-38 -10 -57 -22t-36.5 -43.5t-33.5 -94.5l-172 -663v-404q0 -67 7 -98.5t22 -44.5t51 -23v-20h-347v20q36 10 51 23t22 44.5t7 98.5v377l-200 692q-18 61 -37.5 93t-38.5 43.5t-58 21.5v21h402v-21
q-29 -6 -44 -12t-25.5 -15t-10.5 -27.5t4.5 -41t15.5 -64.5l156 -565zM289 1587l157 92q44 25 80.5 35t60.5 5.5t40 -18.5t23 -34.5t7 -44.5l-362 -61z" />
    <glyph glyph-name="Thorn" unicode="&#xde;" horiz-adv-x="780" 
d="M317 313q39 -24 78 -24q34 0 59.5 18t47 63t32.5 132t11 215q0 103 -7.5 180t-20.5 124t-33 75t-41 38.5t-48 10.5q-37 0 -78 -25v-807zM51 0v20q37 10 52.5 23t22.5 44.5t7 98.5v1061q0 67 -7 98.5t-22.5 44.5t-52.5 23v21h346v-21q-36 -10 -51 -23t-22 -44.5t-7 -98.5
v-82q86 21 129 21q60 0 112 -25.5t95 -78.5t67.5 -146.5t24.5 -218.5t-24.5 -218.5t-67.5 -146.5t-95 -78.5t-112 -25.5q-47 0 -129 20v-82q0 -67 7 -98.5t22 -44.5t51 -23v-20h-346z" />
    <glyph glyph-name="germandbls" unicode="&#xdf;" horiz-adv-x="872" 
d="M29 0v20q36 10 51 23t22 44.5t7 98.5v707q0 104 -80 104v27h80q0 428 315 428q262 0 262 -350q-115 -29 -166 -79.5t-51 -131.5q0 -46 20 -89.5t52 -80.5t70.5 -75.5t77 -81.5t70.5 -90t52 -111t20 -136q0 -128 -62 -186.5t-159 -58.5q-55 0 -107.5 14t-82.5 14l-33 418
h41q16 -131 32.5 -214t35.5 -122t36 -51t41 -12q70 0 70 149q0 90 -24.5 172t-60 144.5t-71 120.5t-60 123.5t-24.5 129.5q0 94 45.5 151t118.5 97q0 149 -32 223t-103 74q-44 0 -73.5 -24t-44.5 -70.5t-21 -101.5t-6 -132v-1085h-258z" />
    <glyph glyph-name="agrave" unicode="&#xe0;" horiz-adv-x="841" 
d="M590 -16q-58 0 -58 71v88q-63 -161 -204 -161q-116 0 -191.5 100.5t-75.5 304.5q0 206 75.5 306t193.5 100q143 0 202 -160v63q0 171 -33.5 238t-113.5 67q-151 0 -240 -194h-43l74 205q36 0 116.5 15t129.5 15q137 0 213 -83t76 -257v-489q0 -101 12 -119t78 0l10 -18
l-133 -66q-53 -26 -88 -26zM238 1253q0 31 11.5 54.5t35 37t65.5 5.5t96 -39l160 -92l-8 -27zM250 387q0 -156 35.5 -237.5t103.5 -81.5q65 0 104 80.5t39 238.5q0 159 -39 239.5t-102 80.5q-69 0 -105 -81.5t-36 -238.5z" />
    <glyph glyph-name="aacute" unicode="&#xe1;" horiz-adv-x="841" 
d="M590 -16q-58 0 -58 71v88q-63 -161 -204 -161q-116 0 -191.5 100.5t-75.5 304.5q0 206 75.5 306t193.5 100q143 0 202 -160v63q0 171 -33.5 238t-113.5 67q-151 0 -240 -194h-43l74 205q36 0 116.5 15t129.5 15q137 0 213 -83t76 -257v-489q0 -101 12 -119t78 0l10 -18
l-133 -66q-53 -26 -88 -26zM240 1219l157 92q55 31 97.5 39t66 -5.5t35.5 -37t12 -54.5l-362 -61zM250 387q0 -156 35.5 -237.5t103.5 -81.5q65 0 104 80.5t39 238.5q0 159 -39 239.5t-102 80.5q-69 0 -105 -81.5t-36 -238.5z" />
    <glyph glyph-name="acircumflex" unicode="&#xe2;" horiz-adv-x="841" 
d="M590 -16q-58 0 -58 71v88q-63 -161 -204 -161q-116 0 -191.5 100.5t-75.5 304.5q0 206 75.5 306t193.5 100q143 0 202 -160v63q0 171 -33.5 238t-113.5 67q-151 0 -240 -194h-43l74 205q36 0 116.5 15t129.5 15q137 0 213 -83t76 -257v-489q0 -101 12 -119t78 0l10 -18
l-133 -66q-53 -26 -88 -26zM197 1206l139 174q39 45 84 45t84 -45l143 -174l-26 -26l-201 127l-197 -127zM250 387q0 -156 35.5 -237.5t103.5 -81.5q65 0 104 80.5t39 238.5q0 159 -39 239.5t-102 80.5q-69 0 -105 -81.5t-36 -238.5z" />
    <glyph glyph-name="atilde" unicode="&#xe3;" horiz-adv-x="841" 
d="M590 -16q-58 0 -58 71v88q-63 -161 -204 -161q-116 0 -191.5 100.5t-75.5 304.5q0 206 75.5 306t193.5 100q143 0 202 -160v63q0 171 -33.5 238t-113.5 67q-151 0 -240 -194h-43l74 205q36 0 116.5 15t129.5 15q137 0 213 -83t76 -257v-489q0 -101 12 -119t78 0l10 -18
l-133 -66q-53 -26 -88 -26zM162 1253q13 36 22.5 59t26 54t33.5 48.5t41.5 30.5t52.5 13q32 0 62.5 -18t50.5 -39.5t45 -39.5t47 -18q30 0 51.5 21.5t50.5 73.5l37 -17q-13 -42 -26 -73.5t-33.5 -63.5t-49 -49.5t-63.5 -17.5q-32 0 -63 18t-51 39t-44.5 39t-46.5 18
q-31 0 -54.5 -22t-51.5 -72zM250 387q0 -156 35.5 -237.5t103.5 -81.5q65 0 104 80.5t39 238.5q0 159 -39 239.5t-102 80.5q-69 0 -105 -81.5t-36 -238.5z" />
    <glyph glyph-name="adieresis" unicode="&#xe4;" horiz-adv-x="841" 
d="M590 -16q-58 0 -58 71v88q-63 -161 -204 -161q-116 0 -191.5 100.5t-75.5 304.5q0 206 75.5 306t193.5 100q143 0 202 -160v63q0 171 -33.5 238t-113.5 67q-151 0 -240 -194h-43l74 205q36 0 116.5 15t129.5 15q137 0 213 -83t76 -257v-489q0 -101 12 -119t78 0l10 -18
l-133 -66q-53 -26 -88 -26zM154 1309q0 48 31.5 79t80.5 31t82 -31.5t33 -78.5q0 -49 -32.5 -81t-82.5 -32q-49 0 -80.5 31.5t-31.5 81.5zM250 387q0 -156 35.5 -237.5t103.5 -81.5q65 0 104 80.5t39 238.5q0 159 -39 239.5t-102 80.5q-69 0 -105 -81.5t-36 -238.5z
M465 1309q0 47 33 78.5t82 31.5q47 0 79.5 -31.5t32.5 -78.5q0 -49 -32 -81t-80 -32q-50 0 -82.5 32t-32.5 81z" />
    <glyph glyph-name="aring" unicode="&#xe5;" horiz-adv-x="841" 
d="M590 -16q-58 0 -58 71v88q-63 -161 -204 -161q-116 0 -191.5 100.5t-75.5 304.5q0 206 75.5 306t193.5 100q143 0 202 -160v63q0 171 -33.5 238t-113.5 67q-151 0 -240 -194h-43l74 205q36 0 116.5 15t129.5 15q137 0 213 -83t76 -257v-489q0 -101 12 -119t78 0l10 -18
l-133 -66q-53 -26 -88 -26zM250 387q0 -156 35.5 -237.5t103.5 -81.5q65 0 104 80.5t39 238.5q0 159 -39 239.5t-102 80.5q-69 0 -105 -81.5t-36 -238.5zM272 1296q0 57 42 97.5t108 40.5q64 0 105.5 -40.5t41.5 -97.5q0 -60 -41 -100.5t-106 -40.5q-66 0 -108 40.5
t-42 100.5zM315 1296q0 -43 29 -73.5t78 -30.5q48 0 77 30.5t29 73.5q0 42 -29 72.5t-77 30.5q-49 0 -78 -30.5t-29 -72.5z" />
    <glyph glyph-name="ae" unicode="&#xe6;" horiz-adv-x="1189" 
d="M338 -18q-124 0 -200.5 95.5t-76.5 303.5q0 211 79.5 313.5t199.5 102.5q126 0 180 -133v32q0 172 -32 238.5t-109 66.5q-63 0 -124 -40t-122 -150h-41l92 201q34 0 110 15t128 15q146 0 213 -100q83 100 215 100q131 0 204.5 -103.5t73.5 -289.5h-413v-45
q0 -116 11 -209.5t34 -166t62 -112.5t91 -40q64 0 117 72.5t80 244.5l41 -4q-16 -117 -45.5 -199t-70.5 -126t-86.5 -63t-100.5 -19q-176 0 -260 170q-75 -170 -250 -170zM248 395q0 -323 151 -323q110 0 166 137q-42 122 -45 287q0 105 -36.5 162t-94.5 57q-79 0 -110 -79
t-31 -241zM717 690h235q0 164 -26 237.5t-78 73.5q-62 0 -93.5 -79t-37.5 -232z" />
    <glyph glyph-name="ccedilla" unicode="&#xe7;" horiz-adv-x="716" 
d="M61 524q0 242 93 380t258 138q45 0 104 -14t88 -14l37 -348h-41q-15 106 -33.5 176t-41.5 103t-44 44.5t-49 11.5q-59 0 -99 -56t-58.5 -151t-18.5 -225q0 -103 10 -188.5t31.5 -155.5t59.5 -109.5t89 -39.5q145 0 189 317l41 -4q-32 -220 -105 -312.5t-184 -94.5
l-27 -72q185 -38 185 -178q0 -63 -43.5 -96t-112.5 -33q-24 0 -59.5 8t-57.5 8l-28 201h39q20 -110 39.5 -145t46.5 -35q45 0 45 67q0 56 -25 105.5t-72 81.5v20l27 70q-138 17 -210.5 154.5t-72.5 385.5z" />
    <glyph glyph-name="egrave" unicode="&#xe8;" horiz-adv-x="731" 
d="M61 524q0 245 88 381.5t242 136.5q131 0 205 -104t74 -289h-414v-45q0 -115 11 -209t34.5 -166.5t62.5 -112.5t91 -40q64 0 116.5 72.5t79.5 244.5l41 -4q-16 -117 -45.5 -199t-70.5 -126t-86.5 -63t-100.5 -19q-159 0 -243.5 140.5t-84.5 401.5zM211 1253
q0 31 11.5 54.5t35.5 37t66 5.5t96 -39l160 -92l-9 -27zM258 690h236q0 163 -26.5 237t-78.5 74q-62 0 -93.5 -79t-37.5 -232z" />
    <glyph glyph-name="eacute" unicode="&#xe9;" horiz-adv-x="731" 
d="M61 524q0 245 88 381.5t242 136.5q131 0 205 -104t74 -289h-414v-45q0 -115 11 -209t34.5 -166.5t62.5 -112.5t91 -40q64 0 116.5 72.5t79.5 244.5l41 -4q-16 -117 -45.5 -199t-70.5 -126t-86.5 -63t-100.5 -19q-159 0 -243.5 140.5t-84.5 401.5zM211 1219l158 92
q55 31 97.5 39t66 -5.5t35.5 -37t12 -54.5l-363 -61zM258 690h236q0 163 -26.5 237t-78.5 74q-62 0 -93.5 -79t-37.5 -232z" />
    <glyph glyph-name="ecircumflex" unicode="&#xea;" horiz-adv-x="731" 
d="M61 524q0 245 88 381.5t242 136.5q131 0 205 -104t74 -289h-414v-45q0 -115 11 -209t34.5 -166.5t62.5 -112.5t91 -40q64 0 116.5 72.5t79.5 244.5l41 -4q-16 -117 -45.5 -199t-70.5 -126t-86.5 -63t-100.5 -19q-159 0 -243.5 140.5t-84.5 401.5zM170 1206l139 174
q39 45 84 45t84 -45l144 -174l-27 -26l-201 127l-196 -127zM258 690h236q0 163 -26.5 237t-78.5 74q-62 0 -93.5 -79t-37.5 -232z" />
    <glyph glyph-name="edieresis" unicode="&#xeb;" horiz-adv-x="731" 
d="M61 524q0 245 88 381.5t242 136.5q131 0 205 -104t74 -289h-414v-45q0 -115 11 -209t34.5 -166.5t62.5 -112.5t91 -40q64 0 116.5 72.5t79.5 244.5l41 -4q-16 -117 -45.5 -199t-70.5 -126t-86.5 -63t-100.5 -19q-159 0 -243.5 140.5t-84.5 401.5zM125 1309q0 47 32 78.5
t81 31.5t81.5 -31.5t32.5 -78.5q0 -49 -32 -81t-82 -32t-81.5 32t-31.5 81zM258 690h236q0 163 -26.5 237t-78.5 74q-62 0 -93.5 -79t-37.5 -232zM436 1309q0 47 33 78.5t82 31.5q48 0 80.5 -31.5t32.5 -78.5q0 -49 -32.5 -81t-80.5 -32q-50 0 -82.5 32t-32.5 81z" />
    <glyph glyph-name="igrave" unicode="&#xec;" horiz-adv-x="419" 
d="M121 807q0 67 -8 98.5t-25 44.5t-57 23v20h121q87 7 127 49h20v-856q0 -67 8 -98.5t25 -44.5t57 -23v-20h-358v20q40 10 57 23t25 44.5t8 98.5v621zM12 1253q0 31 11.5 54.5t35.5 37t66 5.5t96 -39l160 -92l-8 -27z" />
    <glyph glyph-name="iacute" unicode="&#xed;" horiz-adv-x="419" 
d="M121 807q0 67 -8 98.5t-25 44.5t-57 23v20h121q87 7 127 49h20v-856q0 -67 8 -98.5t25 -44.5t57 -23v-20h-358v20q40 10 57 23t25 44.5t8 98.5v621zM14 1219l158 92q55 31 97.5 39t66 -5.5t35.5 -37t12 -54.5l-363 -61z" />
    <glyph glyph-name="icircumflex" unicode="&#xee;" horiz-adv-x="419" 
d="M121 807q0 67 -8 98.5t-25 44.5t-57 23v20h121q87 7 127 49h20v-856q0 -67 8 -98.5t25 -44.5t57 -23v-20h-358v20q40 10 57 23t25 44.5t8 98.5v621zM-29 1206l140 174q39 45 84 45t84 -45l143 -174l-27 -26l-200 127l-197 -127z" />
    <glyph glyph-name="idieresis" unicode="&#xef;" horiz-adv-x="419" 
d="M121 807q0 67 -8 98.5t-25 44.5t-57 23v20h121q87 7 127 49h20v-856q0 -67 8 -98.5t25 -44.5t57 -23v-20h-358v20q40 10 57 23t25 44.5t8 98.5v621zM-72 1309q0 47 32 78.5t81 31.5t82 -31.5t33 -78.5q0 -49 -32.5 -81t-82.5 -32q-49 0 -81 32t-32 81zM240 1309
q0 47 32.5 78.5t81.5 31.5q48 0 80.5 -31.5t32.5 -78.5q0 -49 -32.5 -81t-80.5 -32q-50 0 -82 32t-32 81z" />
    <glyph glyph-name="eth" unicode="&#xf0;" horiz-adv-x="761" 
d="M702 612q0 -143 -19.5 -255t-51.5 -181t-75.5 -114t-87.5 -62.5t-93 -17.5q-147 0 -233.5 132.5t-86.5 409.5q0 114 17 204.5t44 148t64.5 96t76 54t79.5 15.5q96 0 151 -79q-32 209 -120 354l-123 -113l-27 31l129 117q-58 88 -147 168l12 36q106 -72 190 -153l146 131
l26 -29l-143 -131q140 -143 206 -325t66 -437zM250 498q0 -475 127 -475q131 0 131 575q0 181 -12 289q-28 51 -52 71.5t-55 20.5q-139 0 -139 -481z" />
    <glyph glyph-name="ntilde" unicode="&#xf1;" horiz-adv-x="864" 
d="M115 807q0 67 -8 98.5t-25 44.5t-57 23v20h120q84 6 127 49h21v-141q119 141 252 141q98 0 147 -59t49 -188v-609q0 -67 8 -98.5t25 -44.5t57 -23v-20h-356v20q40 10 57 23t25 44.5t8 98.5v637q0 142 -88 142q-44 0 -87 -30.5t-97 -88.5v-660q0 -67 8 -98.5t25 -44.5
t57 -23v-20h-358v20q40 10 57 23t25 44.5t8 98.5v621zM168 1253q13 36 22.5 59t26 54t33.5 48.5t41.5 30.5t52.5 13q32 0 62.5 -18t50.5 -39.5t45 -39.5t47 -18q30 0 51.5 21.5t50.5 73.5l37 -17q-13 -42 -26 -73.5t-33.5 -63.5t-49 -49.5t-63.5 -17.5q-32 0 -63 18t-51 39
t-44.5 39t-46.5 18q-31 0 -54.5 -22t-51.5 -72z" />
    <glyph glyph-name="ograve" unicode="&#xf2;" horiz-adv-x="802" 
d="M401 -18q-346 0 -346 530t346 530q347 0 347 -530t-347 -530zM217 1253q0 31 11.5 54.5t35.5 37t66 5.5t96 -39l160 -92l-8 -27zM250 512q0 -186 15.5 -292.5t47.5 -151.5t88 -45t88.5 45t48 151.5t15.5 292.5q0 187 -15.5 293.5t-48 151t-88.5 44.5q-54 0 -86.5 -45
t-48.5 -152t-16 -292z" />
    <glyph glyph-name="oacute" unicode="&#xf3;" horiz-adv-x="802" 
d="M401 -18q-346 0 -346 530t346 530q347 0 347 -530t-347 -530zM217 1219l158 92q55 31 97.5 39t66 -5.5t35.5 -37t12 -54.5l-363 -61zM250 512q0 -186 15.5 -292.5t47.5 -151.5t88 -45t88.5 45t48 151.5t15.5 292.5q0 187 -15.5 293.5t-48 151t-88.5 44.5q-54 0 -86.5 -45
t-48.5 -152t-16 -292z" />
    <glyph glyph-name="ocircumflex" unicode="&#xf4;" horiz-adv-x="802" 
d="M401 -18q-346 0 -346 530t346 530q347 0 347 -530t-347 -530zM174 1206l139 174q39 45 84 45t84 -45l144 -174l-27 -26l-201 127l-196 -127zM250 512q0 -186 15.5 -292.5t47.5 -151.5t88 -45t88.5 45t48 151.5t15.5 292.5q0 187 -15.5 293.5t-48 151t-88.5 44.5
q-54 0 -86.5 -45t-48.5 -152t-16 -292z" />
    <glyph glyph-name="otilde" unicode="&#xf5;" horiz-adv-x="802" 
d="M401 -18q-346 0 -346 530t346 530q347 0 347 -530t-347 -530zM139 1253q13 36 22.5 59t26 54t33.5 48.5t41.5 30.5t52.5 13q32 0 62.5 -18t50.5 -39.5t45 -39.5t47 -18q30 0 52.5 22t50.5 73l36 -17q-13 -42 -26 -73.5t-33.5 -63.5t-49 -49.5t-63.5 -17.5q-32 0 -63 18
t-50.5 39t-44 39t-46.5 18q-31 0 -55.5 -22.5t-51.5 -71.5zM250 512q0 -186 15.5 -292.5t47.5 -151.5t88 -45t88.5 45t48 151.5t15.5 292.5q0 187 -15.5 293.5t-48 151t-88.5 44.5q-54 0 -86.5 -45t-48.5 -152t-16 -292z" />
    <glyph glyph-name="odieresis" unicode="&#xf6;" horiz-adv-x="802" 
d="M401 -18q-346 0 -346 530t346 530q347 0 347 -530t-347 -530zM131 1309q0 47 32 78.5t81 31.5t81.5 -31.5t32.5 -78.5q0 -49 -32 -81t-82 -32t-81.5 32t-31.5 81zM250 512q0 -186 15.5 -292.5t47.5 -151.5t88 -45t88.5 45t48 151.5t15.5 292.5q0 187 -15.5 293.5t-48 151
t-88.5 44.5q-54 0 -86.5 -45t-48.5 -152t-16 -292zM442 1309q0 47 33 78.5t82 31.5q48 0 80.5 -31.5t32.5 -78.5q0 -49 -32.5 -81t-80.5 -32q-50 0 -82.5 32t-32.5 81z" />
    <glyph glyph-name="divide" unicode="&#xf7;" horiz-adv-x="661" 
d="M332 647q-24 0 -41 19.5t-17 46.5q0 25 17.5 44t40.5 19t40 -19t17 -44q0 -28 -17 -47t-40 -19zM102 492v40h469v-40h-469zM274 313q0 25 17.5 44.5t40.5 19.5t40 -19.5t17 -44.5q0 -27 -16.5 -46t-40.5 -19t-41 19t-17 46z" />
    <glyph glyph-name="oslash" unicode="&#xf8;" horiz-adv-x="802" 
d="M401 -18q-59 0 -102 14l-47 -201h-43l51 215q-205 92 -205 502q0 530 346 530q53 0 99 -12l47 199h43l-51 -213q209 -91 209 -504q0 -530 -347 -530zM250 512q0 -285 37 -389l196 840q-28 38 -82 38t-86.5 -45t-48.5 -152t-16 -292zM315 66q32 -43 86 -43q56 0 88.5 45
t48 151.5t15.5 292.5q0 288 -39 395z" />
    <glyph glyph-name="ugrave" unicode="&#xf9;" horiz-adv-x="870" 
d="M281 1049h20v-852q0 -142 88 -142q79 0 184 115v641q0 67 -8 98.5t-25 44.5t-57 23v20l121 2q84 3 125 50h21v-826q0 -67 8 -98t25 -44t57 -24v-20h-121q-86 -7 -125 -51h-21v133q-118 -144 -251 -144q-199 0 -199 250v586q0 67 -8 98.5t-25 44.5t-57 23v20l121 2
q83 3 127 50zM244 1253q0 31 11.5 54.5t35.5 37t66 5.5t96 -39l159 -92l-8 -27z" />
    <glyph glyph-name="uacute" unicode="&#xfa;" horiz-adv-x="870" 
d="M281 1049h20v-852q0 -142 88 -142q79 0 184 115v641q0 67 -8 98.5t-25 44.5t-57 23v20l121 2q84 3 125 50h21v-826q0 -67 8 -98t25 -44t57 -24v-20h-121q-86 -7 -125 -51h-21v133q-118 -144 -251 -144q-199 0 -199 250v586q0 67 -8 98.5t-25 44.5t-57 23v20l121 2
q83 3 127 50zM244 1219l157 92q55 31 97.5 39t66 -5.5t35.5 -37t12 -54.5l-362 -61z" />
    <glyph glyph-name="ucircumflex" unicode="&#xfb;" horiz-adv-x="870" 
d="M281 1049h20v-852q0 -142 88 -142q79 0 184 115v641q0 67 -8 98.5t-25 44.5t-57 23v20l121 2q84 3 125 50h21v-826q0 -67 8 -98t25 -44t57 -24v-20h-121q-86 -7 -125 -51h-21v133q-118 -144 -251 -144q-199 0 -199 250v586q0 67 -8 98.5t-25 44.5t-57 23v20l121 2
q83 3 127 50zM201 1206l139 174q39 45 84 45t84 -45l143 -174l-26 -26l-201 127l-197 -127z" />
    <glyph glyph-name="udieresis" unicode="&#xfc;" horiz-adv-x="870" 
d="M281 1049h20v-852q0 -142 88 -142q79 0 184 115v641q0 67 -8 98.5t-25 44.5t-57 23v20l121 2q84 3 125 50h21v-826q0 -67 8 -98t25 -44t57 -24v-20h-121q-86 -7 -125 -51h-21v133q-118 -144 -251 -144q-199 0 -199 250v586q0 67 -8 98.5t-25 44.5t-57 23v20l121 2
q83 3 127 50zM158 1309q0 48 31.5 79t80.5 31t82 -31.5t33 -78.5q0 -49 -32.5 -81t-82.5 -32q-49 0 -80.5 31.5t-31.5 81.5zM469 1309q0 47 33 78.5t82 31.5q47 0 79.5 -31.5t32.5 -78.5q0 -49 -32 -81t-80 -32q-50 0 -82.5 32t-32.5 81z" />
    <glyph glyph-name="yacute" unicode="&#xfd;" horiz-adv-x="837" 
d="M293 -444q-30 0 -69.5 15t-67.5 15l-43 387h41q19 -128 37 -208t36.5 -114.5t32.5 -44t35 -9.5q36 0 60.5 49.5t54.5 179.5l36 156h-69l-227 862q-17 63 -35.5 94.5t-37.5 43.5t-57 22v20h398v-20q-40 -7 -58.5 -14t-27.5 -25.5t-5.5 -44t15.5 -76.5l158 -635l151 635
q12 51 15.5 76.5t-5.5 44t-27.5 25.5t-58.5 14v20h242v-20q-38 -10 -57 -22t-36 -43.5t-32 -94.5l-243 -1024q-15 -60 -24 -93t-23 -71t-28 -56.5t-34.5 -31t-46.5 -12.5zM276 1219l158 92q55 31 97.5 39t66 -5.5t35.5 -37t12 -54.5l-362 -61z" />
    <glyph glyph-name="thorn" unicode="&#xfe;" horiz-adv-x="821" 
d="M25 -410v21q40 10 57 23t25 44.5t8 98.5v1444q0 67 -8 98t-25 44t-57 23v21l120 2q89 3 127 49h21v-538q43 61 93 91.5t118 30.5q118 0 187 -130t69 -375q0 -256 -79 -405.5t-208 -149.5q-64 0 -107.5 28t-72.5 88v-321q0 -67 8 -98.5t25 -44.5t57 -23v-21h-358zM293 350
q3 -142 40.5 -221.5t92.5 -79.5q48 0 78 44t45.5 147.5t15.5 275.5q0 245 -31.5 345t-103.5 100q-35 0 -67 -22t-70 -73v-516z" />
    <glyph glyph-name="ydieresis" unicode="&#xff;" horiz-adv-x="837" 
d="M293 -444q-30 0 -69.5 15t-67.5 15l-43 387h41q19 -128 37 -208t36.5 -114.5t32.5 -44t35 -9.5q36 0 60.5 49.5t54.5 179.5l36 156h-69l-227 862q-17 63 -35.5 94.5t-37.5 43.5t-57 22v20h398v-20q-40 -7 -58.5 -14t-27.5 -25.5t-5.5 -44t15.5 -76.5l158 -635l151 635
q12 51 15.5 76.5t-5.5 44t-27.5 25.5t-58.5 14v20h242v-20q-38 -10 -57 -22t-36 -43.5t-32 -94.5l-243 -1024q-15 -60 -24 -93t-23 -71t-28 -56.5t-34.5 -31t-46.5 -12.5zM190 1309q0 47 32 78.5t81 31.5t82 -31.5t33 -78.5q0 -49 -32.5 -81t-82.5 -32q-49 0 -81 32t-32 81z
M502 1309q0 47 32.5 78.5t81.5 31.5q48 0 80.5 -31.5t32.5 -78.5q0 -49 -32.5 -81t-80.5 -32q-50 0 -82 32t-32 81z" />
    <glyph glyph-name="Amacron" unicode="&#x100;" horiz-adv-x="876" 
d="M176 182q-9 -51 -10.5 -77t8.5 -44.5t29 -26t59 -14.5v-20h-242v20q54 14 75.5 42.5t39.5 119.5l203 1145l-10 59v21q65 0 98 8t66 37h20l229 -1270q18 -91 40 -119.5t75 -42.5v-20h-397v20q39 7 58 14.5t29.5 26t9 45t-10.5 76.5l-37 201h-297zM219 424h283l-144 790z
M221 1606v82h416v-82h-416z" />
    <glyph glyph-name="amacron" unicode="&#x101;" horiz-adv-x="841" 
d="M590 -16q-58 0 -58 71v88q-63 -161 -204 -161q-116 0 -191.5 100.5t-75.5 304.5q0 206 75.5 306t193.5 100q143 0 202 -160v63q0 171 -33.5 238t-113.5 67q-151 0 -240 -194h-43l74 205q36 0 116.5 15t129.5 15q137 0 213 -83t76 -257v-489q0 -101 12 -119t78 0l10 -18
l-133 -66q-53 -26 -88 -26zM215 1237v82h416v-82h-416zM250 387q0 -156 35.5 -237.5t103.5 -81.5q65 0 104 80.5t39 238.5q0 159 -39 239.5t-102 80.5q-69 0 -105 -81.5t-36 -238.5z" />
    <glyph glyph-name="Abreve" unicode="&#x102;" horiz-adv-x="876" 
d="M176 182q-9 -51 -10.5 -77t8.5 -44.5t29 -26t59 -14.5v-20h-242v20q54 14 75.5 42.5t39.5 119.5l203 1145l-10 59v21q65 0 98 8t66 37h20l229 -1270q18 -91 40 -119.5t75 -42.5v-20h-397v20q39 7 58 14.5t29.5 26t9 45t-10.5 76.5l-37 201h-297zM217 1815h41
q0 -152 170 -152q87 0 129.5 39.5t42.5 112.5h41q0 -128 -52 -203.5t-161 -75.5t-160 75.5t-51 203.5zM219 424h283l-144 790z" />
    <glyph glyph-name="abreve" unicode="&#x103;" horiz-adv-x="841" 
d="M590 -16q-58 0 -58 71v88q-63 -161 -204 -161q-116 0 -191.5 100.5t-75.5 304.5q0 206 75.5 306t193.5 100q143 0 202 -160v63q0 171 -33.5 238t-113.5 67q-151 0 -240 -194h-43l74 205q36 0 116.5 15t129.5 15q137 0 213 -83t76 -257v-489q0 -101 12 -119t78 0l10 -18
l-133 -66q-53 -26 -88 -26zM211 1446h41q0 -152 170 -152q87 0 129.5 39.5t42.5 112.5h41q0 -128 -52 -203.5t-161 -75.5t-160 75.5t-51 203.5zM250 387q0 -156 35.5 -237.5t103.5 -81.5q65 0 104 80.5t39 238.5q0 159 -39 239.5t-102 80.5q-69 0 -105 -81.5t-36 -238.5z
" />
    <glyph glyph-name="Aogonek" unicode="&#x104;" horiz-adv-x="876" 
d="M176 182q-9 -51 -10.5 -77t8.5 -44.5t29 -26t59 -14.5v-20h-242v20q54 14 75.5 42.5t39.5 119.5l203 1145l-10 59v21q65 0 98 8t66 37h20l229 -1270q18 -91 40 -119.5t75 -42.5v-20h-141q-62 -84 -92.5 -143.5t-30.5 -124.5q0 -39 18.5 -65.5t48.5 -26.5q38 0 63.5 36.5
t45.5 118.5l37 -14q-24 -105 -68 -155t-121 -50q-70 0 -114.5 39t-44.5 111q0 79 57 143t156 131h-211v20q39 7 58 14.5t29.5 26t9 45t-10.5 76.5l-37 201h-297zM219 424h283l-144 790z" />
    <glyph glyph-name="aogonek" unicode="&#x105;" horiz-adv-x="841" 
d="M590 -16q-58 0 -58 71v88q-63 -161 -204 -161q-116 0 -191.5 100.5t-75.5 304.5q0 206 75.5 306t193.5 100q143 0 202 -160v63q0 171 -33.5 238t-113.5 67q-151 0 -240 -194h-43l74 205q36 0 116.5 15t129.5 15q137 0 213 -83t76 -257v-489q0 -101 12 -119t78 0l10 -18
l-133 -66l-12 -6q-63 -81 -95 -143t-32 -129q0 -39 18.5 -65.5t48.5 -26.5q38 0 63.5 36.5t45.5 118.5l37 -14q-24 -105 -68 -155t-121 -50q-71 0 -115.5 39t-44.5 111q0 74 50.5 135.5t138.5 122.5h-2zM250 387q0 -156 35.5 -237.5t103.5 -81.5q65 0 104 80.5t39 238.5
q0 159 -39 239.5t-102 80.5q-69 0 -105 -81.5t-36 -238.5z" />
    <glyph glyph-name="Cacute" unicode="&#x106;" horiz-adv-x="792" 
d="M51 748q0 187 31.5 325t90 219.5t135 120.5t173.5 39q50 0 111 -11t92 -11l37 -494h-41q-16 152 -35 247.5t-44.5 145t-52.5 66t-67 16.5q-104 0 -162.5 -157t-58.5 -486q0 -319 64 -501.5t168 -182.5q43 0 75.5 21.5t63.5 75t53.5 154t36.5 249.5l41 -4
q-16 -180 -43.5 -298.5t-69 -183.5t-91 -90.5t-118.5 -25.5q-179 0 -284 199t-105 567zM256 1593l158 93q55 31 97.5 39t66 -5.5t35.5 -37t12 -54.5l-363 -61z" />
    <glyph glyph-name="cacute" unicode="&#x107;" horiz-adv-x="716" 
d="M61 524q0 242 93 380t258 138q45 0 104 -14t88 -14l37 -348h-41q-15 106 -33.5 176t-41.5 103t-44 44.5t-49 11.5q-59 0 -99 -56t-58.5 -151t-18.5 -225q0 -103 10 -188.5t31.5 -155.5t59.5 -109.5t89 -39.5q145 0 189 317l41 -4q-16 -115 -44.5 -195.5t-67.5 -126
t-83.5 -65.5t-99.5 -20q-156 0 -238 138.5t-82 403.5zM190 1219l158 92q55 31 97.5 39t66 -5.5t35.5 -37t12 -54.5l-362 -61z" />
    <glyph glyph-name="Cdotaccent" unicode="&#x10a;" horiz-adv-x="792" 
d="M51 748q0 187 31.5 325t90 219.5t135 120.5t173.5 39q50 0 111 -11t92 -11l37 -494h-41q-16 152 -35 247.5t-44.5 145t-52.5 66t-67 16.5q-104 0 -162.5 -157t-58.5 -486q0 -319 64 -501.5t168 -182.5q43 0 75.5 21.5t63.5 75t53.5 154t36.5 249.5l41 -4
q-16 -180 -43.5 -298.5t-69 -183.5t-91 -90.5t-118.5 -25.5q-179 0 -284 199t-105 567zM328 1683q0 50 31.5 81.5t80.5 31.5q50 0 82.5 -32t32.5 -81q0 -47 -33 -78.5t-82 -31.5t-80.5 31t-31.5 79z" />
    <glyph glyph-name="cdotaccent" unicode="&#x10b;" horiz-adv-x="716" 
d="M61 524q0 242 93 380t258 138q45 0 104 -14t88 -14l37 -348h-41q-15 106 -33.5 176t-41.5 103t-44 44.5t-49 11.5q-59 0 -99 -56t-58.5 -151t-18.5 -225q0 -103 10 -188.5t31.5 -155.5t59.5 -109.5t89 -39.5q145 0 189 317l41 -4q-16 -115 -44.5 -195.5t-67.5 -126
t-83.5 -65.5t-99.5 -20q-156 0 -238 138.5t-82 403.5zM260 1309q0 49 31.5 80.5t81.5 31.5t82 -31.5t32 -80.5q0 -47 -32.5 -79t-81.5 -32t-81 31.5t-32 79.5z" />
    <glyph glyph-name="Ccaron" unicode="&#x10c;" horiz-adv-x="792" 
d="M51 748q0 187 31.5 325t90 219.5t135 120.5t173.5 39q50 0 111 -11t92 -11l37 -494h-41q-16 152 -35 247.5t-44.5 145t-52.5 66t-67 16.5q-104 0 -162.5 -157t-58.5 -486q0 -319 64 -501.5t168 -182.5q43 0 75.5 21.5t63.5 75t53.5 154t36.5 249.5l41 -4
q-16 -180 -43.5 -298.5t-69 -183.5t-91 -90.5t-118.5 -25.5q-179 0 -284 199t-105 567zM213 1759l27 27l196 -125l201 125l27 -27l-144 -172q-37 -45 -84 -45t-84 45z" />
    <glyph glyph-name="ccaron" unicode="&#x10d;" horiz-adv-x="716" 
d="M61 524q0 242 93 380t258 138q45 0 104 -14t88 -14l37 -348h-41q-15 106 -33.5 176t-41.5 103t-44 44.5t-49 11.5q-59 0 -99 -56t-58.5 -151t-18.5 -225q0 -103 10 -188.5t31.5 -155.5t59.5 -109.5t89 -39.5q145 0 189 317l41 -4q-16 -115 -44.5 -195.5t-67.5 -126
t-83.5 -65.5t-99.5 -20q-156 0 -238 138.5t-82 403.5zM147 1384l27 27l197 -125l200 125l27 -27l-143 -172q-37 -45 -84 -45t-84 45z" />
    <glyph glyph-name="Dcaron" unicode="&#x10e;" horiz-adv-x="858" 
d="M160 0h-109v20q37 10 52.5 23t22.5 44.5t7 98.5v1061q0 67 -7 98.5t-22.5 44.5t-52.5 23v21h109q47 1 130 9.5t120 8.5q397 0 397 -745q0 -174 -23 -306t-59.5 -210t-90 -126.5t-107 -65.5t-117.5 -17q-37 0 -120 8.5t-130 9.5zM164 1753l26 27l197 -125l201 125l26 -27
l-143 -172q-37 -45 -84 -45t-84 45zM317 35q47 -12 78 -12q36 0 64 15.5t55.5 60.5t45.5 119t29 198t11 291q0 209 -16 352.5t-45.5 217.5t-64 104t-79.5 30q-31 0 -78 -12v-1364z" />
    <glyph glyph-name="dcaron" unicode="&#x10f;" horiz-adv-x="1161" 
d="M530 1221q0 67 -8 98t-25 44t-57 23v21l121 2q89 3 127 49h21v-1247q0 -67 8 -98.5t25 -44.5t57 -23v-20h-121q-91 -7 -127 -52h-21v129q-85 -120 -211 -120q-118 0 -188 130.5t-70 374.5q0 257 79.5 406t209.5 149q64 0 107.5 -28t72.5 -88v295zM256 508q0 -243 33 -344
t104 -101q34 0 65.5 22t71.5 71v518q-1 142 -39.5 221.5t-93.5 79.5q-73 0 -107 -106.5t-34 -360.5zM821 1362q0 43 26.5 67.5t65.5 24.5q47 0 75 -30t28 -89q0 -80 -39 -157t-111 -164l-28 28q52 70 68 103.5t16 62.5q0 24 -16 42t-34.5 28t-34.5 31.5t-16 52.5z" />
    <glyph glyph-name="Dcroat" unicode="&#x110;" horiz-adv-x="980" 
d="M160 0h-109v20q37 10 52.5 23t22.5 44.5t7 98.5v510h-82v41h82v510q0 67 -7 98.5t-22.5 44.5t-52.5 23v21h109q47 1 130 9.5t120 8.5q397 0 397 -745q0 -174 -23 -306t-59.5 -210t-90 -126.5t-107 -65.5t-117.5 -17q-37 0 -120 8.5t-130 9.5zM317 35q47 -12 78 -12
q36 0 64 15.5t55.5 60.5t45.5 119t29 198t11 291q0 209 -16 352.5t-45.5 217.5t-64 104t-79.5 30q-31 0 -78 -12v-662h158v-41h-158v-661z" />
    <glyph glyph-name="dcroat" unicode="&#x111;" horiz-adv-x="935" 
d="M530 1221q0 67 -8 98t-25 44t-57 23v21l121 2q89 3 127 49h21v-241h86v-41h-86v-965q0 -67 8 -98.5t25 -44.5t57 -23v-20h-121q-91 -7 -127 -52h-21v129q-85 -120 -211 -120q-118 0 -188 130.5t-70 374.5q0 257 79.5 406t209.5 149q64 0 107.5 -28t72.5 -88v250h-215v41
h215v4zM256 508q0 -243 33 -344t104 -101q34 0 65.5 22t71.5 71v518q-1 142 -39.5 221.5t-93.5 79.5q-73 0 -107 -106.5t-34 -360.5z" />
    <glyph glyph-name="Emacron" unicode="&#x112;" horiz-adv-x="757" 
d="M668 1434l39 -498h-41q-13 112 -23 185.5t-22.5 126.5t-23 80.5t-29.5 43t-36 18.5t-47 3h-168v-613h113q40 0 54 12.5t18.5 61t-4.5 145.5h41l39 -503h-41q-19 165 -29 196q-12 37 -42 44q-16 3 -42 3h-107v-698h183q29 0 45.5 3.5t35 19t29.5 44.5t24 82.5t23 129.5
t23 190h41l-37 -510h-633v20q37 10 52.5 23t22.5 44.5t7 98.5v1061q0 67 -7 98.5t-22.5 44.5t-52.5 23v21h617zM186 1606v82h416v-82h-416z" />
    <glyph glyph-name="emacron" unicode="&#x113;" horiz-adv-x="731" 
d="M61 524q0 245 88 381.5t242 136.5q131 0 205 -104t74 -289h-414v-45q0 -115 11 -209t34.5 -166.5t62.5 -112.5t91 -40q64 0 116.5 72.5t79.5 244.5l41 -4q-16 -117 -45.5 -199t-70.5 -126t-86.5 -63t-100.5 -19q-159 0 -243.5 140.5t-84.5 401.5zM188 1237v82h416v-82
h-416zM258 690h236q0 163 -26.5 237t-78.5 74q-62 0 -93.5 -79t-37.5 -232z" />
    <glyph glyph-name="Edotaccent" unicode="&#x116;" horiz-adv-x="757" 
d="M668 1434l39 -498h-41q-13 112 -23 185.5t-22.5 126.5t-23 80.5t-29.5 43t-36 18.5t-47 3h-168v-613h113q40 0 54 12.5t18.5 61t-4.5 145.5h41l39 -503h-41q-19 165 -29 196q-12 37 -42 44q-16 3 -42 3h-107v-698h183q29 0 45.5 3.5t35 19t29.5 44.5t24 82.5t23 129.5
t23 190h41l-37 -510h-633v20q37 10 52.5 23t22.5 44.5t7 98.5v1061q0 67 -7 98.5t-22.5 44.5t-52.5 23v21h617zM281 1677q0 50 31.5 81.5t80.5 31.5q50 0 82.5 -32t32.5 -81q0 -47 -33 -78.5t-82 -31.5t-80.5 31t-31.5 79z" />
    <glyph glyph-name="edotaccent" unicode="&#x117;" horiz-adv-x="731" 
d="M61 524q0 245 88 381.5t242 136.5q131 0 205 -104t74 -289h-414v-45q0 -115 11 -209t34.5 -166.5t62.5 -112.5t91 -40q64 0 116.5 72.5t79.5 244.5l41 -4q-16 -117 -45.5 -199t-70.5 -126t-86.5 -63t-100.5 -19q-159 0 -243.5 140.5t-84.5 401.5zM258 690h236
q0 163 -26.5 237t-78.5 74q-62 0 -93.5 -79t-37.5 -232zM283 1309q0 49 31.5 80.5t80.5 31.5q50 0 82.5 -31.5t32.5 -80.5q0 -47 -33 -79t-82 -32t-80.5 31.5t-31.5 79.5z" />
    <glyph glyph-name="Eogonek" unicode="&#x118;" horiz-adv-x="757" 
d="M668 1434l39 -498h-41q-13 112 -23 185.5t-22.5 126.5t-23 80.5t-29.5 43t-36 18.5t-47 3h-168v-613h113q40 0 54 12.5t18.5 61t-4.5 145.5h41l39 -503h-41q-19 165 -29 196q-12 37 -42 44q-16 3 -42 3h-107v-698h183q29 0 45.5 3.5t35 19t29.5 44.5t24 82.5t23 129.5
t23 190h41l-37 -510h-141q-62 -84 -92.5 -143.5t-30.5 -124.5q0 -39 18.5 -65.5t48.5 -26.5q38 0 63.5 36.5t45.5 118.5l37 -14q-24 -105 -68 -155t-121 -50q-70 0 -114.5 39t-44.5 111q0 79 57 143t156 131h-447v20q37 10 52.5 23t22.5 44.5t7 98.5v1061q0 67 -7 98.5
t-22.5 44.5t-52.5 23v21h617z" />
    <glyph glyph-name="eogonek" unicode="&#x119;" horiz-adv-x="731" 
d="M61 524q0 245 88 381.5t242 136.5q131 0 205 -104t74 -289h-414v-45q0 -115 11 -209t34.5 -166.5t62.5 -112.5t91 -40q64 0 116.5 72.5t79.5 244.5l41 -4q-42 -316 -194 -385q-64 -84 -95.5 -144.5t-31.5 -127.5q0 -39 18.5 -65.5t48.5 -26.5q38 0 63.5 36.5t45.5 118.5
l37 -14q-24 -105 -68 -155t-121 -50q-71 0 -115 39t-44 111q0 75 50.5 136.5t137.5 121.5q-12 -2 -35 -2q-159 0 -243.5 140.5t-84.5 401.5zM258 690h236q0 163 -26.5 237t-78.5 74q-62 0 -93.5 -79t-37.5 -232z" />
    <glyph glyph-name="Ecaron" unicode="&#x11a;" horiz-adv-x="757" 
d="M668 1434l39 -498h-41q-13 112 -23 185.5t-22.5 126.5t-23 80.5t-29.5 43t-36 18.5t-47 3h-168v-613h113q40 0 54 12.5t18.5 61t-4.5 145.5h41l39 -503h-41q-19 165 -29 196q-12 37 -42 44q-16 3 -42 3h-107v-698h183q29 0 45.5 3.5t35 19t29.5 44.5t24 82.5t23 129.5
t23 190h41l-37 -510h-633v20q37 10 52.5 23t22.5 44.5t7 98.5v1061q0 67 -7 98.5t-22.5 44.5t-52.5 23v21h617zM168 1753l27 27l196 -125l201 125l26 -27l-143 -172q-37 -45 -84 -45t-84 45z" />
    <glyph glyph-name="ecaron" unicode="&#x11b;" horiz-adv-x="731" 
d="M61 524q0 245 88 381.5t242 136.5q131 0 205 -104t74 -289h-414v-45q0 -115 11 -209t34.5 -166.5t62.5 -112.5t91 -40q64 0 116.5 72.5t79.5 244.5l41 -4q-16 -117 -45.5 -199t-70.5 -126t-86.5 -63t-100.5 -19q-159 0 -243.5 140.5t-84.5 401.5zM170 1384l27 27
l196 -125l201 125l27 -27l-144 -172q-37 -45 -84 -45t-84 45zM258 690h236q0 163 -26.5 237t-78.5 74q-62 0 -93.5 -79t-37.5 -232z" />
    <glyph glyph-name="Gbreve" unicode="&#x11e;" horiz-adv-x="866" 
d="M465 -18q-414 0 -414 761q0 191 32 331t91 221t133.5 119t167.5 38q48 0 118.5 -11t106.5 -11l37 -494h-39q-29 203 -60 307t-65 136t-90 32q-71 0 -119 -61t-76 -206.5t-28 -375.5q0 -212 15.5 -358t46.5 -227t70.5 -115.5t94.5 -34.5q50 0 86 8v477q0 66 -5.5 102.5
t-25.5 61t-50 34.5t-86 17v41l419 -35v-41q-26 0 -42 -15t-22.5 -48.5t-7.5 -56.5t-1 -70v-508q-64 0 -150.5 -9t-136.5 -9zM256 1823h41q0 -152 170 -152q87 0 129.5 39.5t42.5 112.5h41q0 -128 -52 -203.5t-161 -75.5t-160 75.5t-51 203.5z" />
    <glyph glyph-name="gbreve" unicode="&#x11f;" horiz-adv-x="745" 
d="M369 106q-97 0 -168 50q-33 -26 -33 -50q0 -28 41.5 -51t173.5 -73q170 -64 219 -94q80 -48 90 -122q2 -13 2 -28q0 -89 -76 -136.5t-184 -47.5q-119 0 -185.5 41t-66.5 116q0 56 38 97.5t102 64.5q-147 50 -206 88t-59 92q0 46 30 75.5t83 51.5q-121 121 -121 398
q0 222 81.5 346.5t238.5 124.5q56 0 108 -19q29 65 69.5 106.5t100.5 69.5l60 -106q-78 -8 -121.5 -26.5t-73.5 -59.5q174 -98 174 -436q0 -224 -80.5 -348t-236.5 -124zM158 1446h41q0 -152 170 -152q87 0 129.5 39.5t42.5 112.5h41q0 -128 -52 -203.5t-161 -75.5
t-160 75.5t-51 203.5zM240 578q0 -226 28 -328.5t101 -102.5q72 0 99.5 103t27.5 328t-27.5 327.5t-99.5 102.5q-74 0 -101.5 -102t-27.5 -328zM287 -283q0 -123 147 -123q68 0 104.5 28.5t36.5 74.5q0 53 -37 79.5t-159 73.5q-92 -45 -92 -133z" />
    <glyph glyph-name="Gdotaccent" unicode="&#x120;" horiz-adv-x="866" 
d="M465 -18q-414 0 -414 761q0 191 32 331t91 221t133.5 119t167.5 38q48 0 118.5 -11t106.5 -11l37 -494h-39q-29 203 -60 307t-65 136t-90 32q-71 0 -119 -61t-76 -206.5t-28 -375.5q0 -212 15.5 -358t46.5 -227t70.5 -115.5t94.5 -34.5q50 0 86 8v477q0 66 -5.5 102.5
t-25.5 61t-50 34.5t-86 17v41l419 -35v-41q-26 0 -42 -15t-22.5 -48.5t-7.5 -56.5t-1 -70v-508q-64 0 -150.5 -9t-136.5 -9zM354 1686q0 49 31.5 80.5t81.5 31.5t82.5 -31.5t32.5 -80.5q0 -47 -33 -79t-82 -32t-81 31.5t-32 79.5z" />
    <glyph glyph-name="gdotaccent" unicode="&#x121;" horiz-adv-x="745" 
d="M369 106q-97 0 -168 50q-33 -26 -33 -50q0 -28 41.5 -51t173.5 -73q170 -64 219 -94q80 -48 90 -122q2 -13 2 -28q0 -89 -76 -136.5t-184 -47.5q-119 0 -185.5 41t-66.5 116q0 56 38 97.5t102 64.5q-147 50 -206 88t-59 92q0 46 30 75.5t83 51.5q-121 121 -121 398
q0 222 81.5 346.5t238.5 124.5q56 0 108 -19q29 65 69.5 106.5t100.5 69.5l60 -106q-78 -8 -121.5 -26.5t-73.5 -59.5q174 -98 174 -436q0 -224 -80.5 -348t-236.5 -124zM240 578q0 -226 28 -328.5t101 -102.5q72 0 99.5 103t27.5 328t-27.5 327.5t-99.5 102.5
q-74 0 -101.5 -102t-27.5 -328zM256 1309q0 49 31.5 80.5t81.5 31.5t82 -31.5t32 -80.5q0 -47 -32.5 -79t-81.5 -32t-81 31.5t-32 79.5zM287 -283q0 -123 147 -123q68 0 104.5 28.5t36.5 74.5q0 53 -37 79.5t-159 73.5q-92 -45 -92 -133z" />
    <glyph glyph-name="uni0122" unicode="&#x122;" horiz-adv-x="866" 
d="M465 -18q-414 0 -414 761q0 191 32 331t91 221t133.5 119t167.5 38q48 0 118.5 -11t106.5 -11l37 -494h-39q-29 203 -60 307t-65 136t-90 32q-71 0 -119 -61t-76 -206.5t-28 -375.5q0 -212 15.5 -358t46.5 -227t70.5 -115.5t94.5 -34.5q50 0 86 8v477q0 66 -5.5 102.5
t-25.5 61t-50 34.5t-86 17v41l419 -35v-41q-26 0 -42 -15t-22.5 -48.5t-7.5 -56.5t-1 -70v-508q-64 0 -150.5 -9t-136.5 -9zM385 -219q0 40 27 63t67 23q47 0 83 -35t36 -98q0 -139 -178 -201l-17 37q89 36 89 82q0 20 -16.5 34.5t-37 22t-37 26t-16.5 46.5z" />
    <glyph glyph-name="uni0123" unicode="&#x123;" horiz-adv-x="745" 
d="M369 106q-97 0 -168 50q-33 -26 -33 -50q0 -28 41.5 -51t173.5 -73q170 -64 219 -94q80 -48 90 -122q2 -13 2 -28q0 -89 -76 -136.5t-184 -47.5q-119 0 -185.5 41t-66.5 116q0 56 38 97.5t102 64.5q-147 50 -206 88t-59 92q0 46 30 75.5t83 51.5q-121 121 -121 398
q0 222 81.5 346.5t238.5 124.5q56 0 108 -19q29 65 69.5 106.5t100.5 69.5l60 -106q-78 -8 -121.5 -26.5t-73.5 -59.5q174 -98 174 -436q0 -224 -80.5 -348t-236.5 -124zM240 578q0 -226 28 -328.5t101 -102.5q72 0 99.5 103t27.5 328t-27.5 327.5t-99.5 102.5
q-74 0 -101.5 -102t-27.5 -328zM264 1290q0 139 178 201l17 -37q-88 -36 -88 -82q0 -20 16.5 -34.5t36.5 -22t36.5 -26t16.5 -46.5q0 -40 -27 -63t-67 -23q-47 0 -83 35t-36 98zM287 -283q0 -123 147 -123q68 0 104.5 28.5t36.5 74.5q0 53 -37 79.5t-159 73.5
q-92 -45 -92 -133z" />
    <glyph glyph-name="Hbar" unicode="&#x126;" horiz-adv-x="1046" 
d="M535 0v20q37 10 52.5 23t22 44.5t6.5 98.5v516h-299v-516q0 -67 7 -98.5t22 -44.5t51 -23v-20h-346v20q37 10 52.5 23t22.5 44.5t7 98.5v879h-123v41h123v141q0 67 -7 98.5t-22.5 44.5t-52.5 23v21h346v-21q-36 -10 -51 -23t-22 -44.5t-7 -98.5v-141h299v141
q0 67 -6.5 98.5t-22 44.5t-52.5 23v21h346v-21q-36 -10 -51 -23t-22 -44.5t-7 -98.5v-141h133v-41h-133v-879q0 -67 7 -98.5t22 -44.5t51 -23v-20h-346zM317 743h299v322h-299v-322z" />
    <glyph glyph-name="hbar" unicode="&#x127;" horiz-adv-x="864" 
d="M115 1217q0 67 -8 98t-25 44t-57 23v21h120q84 6 127 49h21v-235h211v-41h-211v-275q119 141 252 141q98 0 147 -59t49 -188v-609q0 -67 8 -98.5t25 -44.5t57 -23v-20h-356v20q40 10 57 23t25 44.5t8 98.5v637q0 142 -88 142q-44 0 -87 -30.5t-97 -88.5v-660
q0 -67 8 -98.5t25 -44.5t57 -23v-20h-358v20q40 10 57 23t25 44.5t8 98.5v990h-90v41h90z" />
    <glyph glyph-name="Imacron" unicode="&#x12a;" horiz-adv-x="448" 
d="M133 1247q0 67 -7 98.5t-22.5 44.5t-52.5 23v21h346v-21q-36 -10 -51 -23t-22 -44.5t-7 -98.5v-1061q0 -67 7 -98.5t22 -44.5t51 -23v-20h-346v20q37 10 52.5 23t22.5 44.5t7 98.5v1061zM18 1620v82h416v-82h-416z" />
    <glyph glyph-name="imacron" unicode="&#x12b;" horiz-adv-x="419" 
d="M121 807q0 67 -8 98.5t-25 44.5t-57 23v20h121q87 7 127 49h20v-856q0 -67 8 -98.5t25 -44.5t57 -23v-20h-358v20q40 10 57 23t25 44.5t8 98.5v621zM-10 1237v82h416v-82h-416z" />
    <glyph glyph-name="Iogonek" unicode="&#x12e;" horiz-adv-x="448" 
d="M133 1247q0 67 -7 98.5t-22.5 44.5t-52.5 23v21h346v-21q-36 -10 -51 -23t-22 -44.5t-7 -98.5v-1061q0 -67 7 -98.5t22 -44.5t51 -23v-20h-123q-62 -84 -92 -143.5t-30 -124.5q0 -39 18.5 -65.5t48.5 -26.5q38 0 63.5 36.5t45.5 118.5l37 -14q-24 -105 -68 -155t-121 -50
q-71 0 -115.5 39t-44.5 111q0 79 57 143t156 131h-178v20q37 10 52.5 23t22.5 44.5t7 98.5v1061z" />
    <glyph glyph-name="iogonek" unicode="&#x12f;" horiz-adv-x="419" 
d="M121 807q0 67 -8 98.5t-25 44.5t-57 23v20h121q87 7 127 49h20v-856q0 -67 8 -98.5t25 -44.5t57 -23v-20h-143q-62 -84 -92.5 -143.5t-30.5 -124.5q0 -39 18.5 -65.5t48.5 -26.5q38 0 63.5 36.5t45.5 118.5l37 -14q-24 -105 -68 -155t-121 -50q-70 0 -114.5 39t-44.5 111
q0 79 57 143t156 131h-170v20q40 10 57 23t25 44.5t8 98.5v621zM84 1309q0 49 31.5 80.5t81.5 31.5t82 -31.5t32 -80.5q0 -47 -32.5 -79t-81.5 -32t-81 31.5t-32 79.5z" />
    <glyph glyph-name="Idotaccent" unicode="&#x130;" horiz-adv-x="448" 
d="M133 1247q0 67 -7 98.5t-22.5 44.5t-52.5 23v21h346v-21q-36 -10 -51 -23t-22 -44.5t-7 -98.5v-1061q0 -67 7 -98.5t22 -44.5t51 -23v-20h-346v20q37 10 52.5 23t22.5 44.5t7 98.5v1061zM113 1692q0 50 31.5 81t80.5 31q50 0 82.5 -31.5t32.5 -80.5q0 -47 -33 -79
t-82 -32t-80.5 31.5t-31.5 79.5z" />
    <glyph glyph-name="dotlessi" unicode="&#x131;" horiz-adv-x="419" 
d="M121 807q0 67 -8 98.5t-25 44.5t-57 23v20h121q87 7 127 49h20v-856q0 -67 8 -98.5t25 -44.5t57 -23v-20h-358v20q40 10 57 23t25 44.5t8 98.5v621z" />
    <glyph glyph-name="Lacute" unicode="&#x139;" horiz-adv-x="735" 
d="M51 0v20q37 10 52.5 23t22.5 44.5t7 98.5v1061q0 67 -7 98.5t-22.5 44.5t-52.5 23v21h346v-21q-36 -10 -51 -23t-22 -44.5t-7 -98.5v-1206h162q33 0 51.5 3.5t39 19.5t31.5 43.5t24.5 83t24 129.5t24.5 190h41l-37 -510h-627zM43 1587l158 92q44 25 80.5 35t60.5 5.5
t40 -18.5t23 -34.5t7 -44.5l-363 -61z" />
    <glyph glyph-name="lacute" unicode="&#x13a;" horiz-adv-x="407" 
d="M115 1217q0 67 -8 98t-25 44t-57 23v21h120q84 6 127 49h21v-1266q0 -67 8 -98.5t25 -44.5t57 -23v-20h-358v20q40 10 57 23t25 44.5t8 98.5v1031zM4 1628l158 92q44 25 80.5 35t60.5 5.5t40 -18.5t23 -34.5t7 -44.5l-363 -61z" />
    <glyph glyph-name="uni013B" unicode="&#x13b;" horiz-adv-x="735" 
d="M51 0v20q37 10 52.5 23t22.5 44.5t7 98.5v1061q0 67 -7 98.5t-22.5 44.5t-52.5 23v21h346v-21q-36 -10 -51 -23t-22 -44.5t-7 -98.5v-1206h162q33 0 51.5 3.5t39 19.5t31.5 43.5t24.5 83t24 129.5t24.5 190h41l-37 -510h-627zM238 -219q0 40 27 63t67 23q47 0 83 -35
t36 -98q0 -71 -48 -121.5t-131 -79.5l-16 37q88 36 88 82q0 20 -16.5 34.5t-36.5 22t-36.5 26t-16.5 46.5z" />
    <glyph glyph-name="uni013C" unicode="&#x13c;" horiz-adv-x="407" 
d="M115 1217q0 67 -8 98t-25 44t-57 23v21h120q84 6 127 49h21v-1266q0 -67 8 -98.5t25 -44.5t57 -23v-20h-358v20q40 10 57 23t25 44.5t8 98.5v1031zM102 -219q0 40 27.5 63t67.5 23q47 0 82.5 -35t35.5 -98q0 -139 -178 -201l-16 37q88 36 88 82q0 20 -16.5 34.5t-37 22
t-37 26t-16.5 46.5z" />
    <glyph glyph-name="Lcaron" unicode="&#x13d;" horiz-adv-x="849" 
d="M51 0v20q37 10 52.5 23t22.5 44.5t7 98.5v1061q0 67 -7 98.5t-22.5 44.5t-52.5 23v21h346v-21q-36 -10 -51 -23t-22 -44.5t-7 -98.5v-1206h162q33 0 51.5 3.5t39 19.5t31.5 43.5t24.5 83t24 129.5t24.5 190h41l-37 -510h-627zM526 1362q0 43 26.5 67.5t65.5 24.5
q47 0 75 -30t28 -89q0 -80 -39 -157t-111 -164l-28 28q52 70 68 103.5t16 62.5q0 24 -16 42t-34.5 28t-34.5 31.5t-16 52.5z" />
    <glyph glyph-name="lcaron" unicode="&#x13e;" horiz-adv-x="649" 
d="M115 1217q0 67 -8 98t-25 44t-57 23v21h120q84 6 127 49h21v-1266q0 -67 8 -98.5t25 -44.5t57 -23v-20h-358v20q40 10 57 23t25 44.5t8 98.5v1031zM442 1362q0 42 27 67t66 25q46 0 74 -30t28 -89q0 -80 -39 -157t-111 -164l-28 28q52 70 68 103.5t16 62.5q0 24 -16 42
t-34.5 28t-34.5 31.5t-16 52.5z" />
    <glyph glyph-name="Ldot" unicode="&#x13f;" horiz-adv-x="798" 
d="M51 0v20q37 10 52.5 23t22.5 44.5t7 98.5v1061q0 67 -7 98.5t-22.5 44.5t-52.5 23v21h346v-21q-36 -10 -51 -23t-22 -44.5t-7 -98.5v-1206h162q33 0 51.5 3.5t39 19.5t31.5 43.5t24.5 83t24 129.5t24.5 190h41l-37 -510h-627zM516 690q0 47 27.5 79t70.5 32q45 0 72 -32
t27 -79q0 -48 -27 -79t-72 -31q-44 0 -71 31t-27 79z" />
    <glyph glyph-name="ldot" unicode="&#x140;" horiz-adv-x="714" 
d="M115 1217q0 67 -8 98t-25 44t-57 23v21h120q84 6 127 49h21v-1266q0 -67 8 -98.5t25 -44.5t57 -23v-20h-358v20q40 10 57 23t25 44.5t8 98.5v1031zM463 502q0 47 27.5 78.5t70.5 31.5q45 0 71.5 -31.5t26.5 -78.5q0 -48 -26.5 -79.5t-71.5 -31.5q-44 0 -71 31.5t-27 79.5
z" />
    <glyph glyph-name="Lslash" unicode="&#x141;" horiz-adv-x="735" 
d="M51 0v20q37 10 52.5 23t22.5 44.5t7 98.5v459l-139 -67l-19 34l158 78v557q0 67 -7 98.5t-22.5 44.5t-52.5 23v21h346v-21q-36 -10 -51 -23t-22 -44.5t-7 -98.5v-467l150 74l18 -35l-168 -82v-696h162q33 0 51.5 3.5t39 19.5t31.5 43.5t24.5 83t24 129.5t24.5 190h41
l-37 -510h-627z" />
    <glyph glyph-name="lslash" unicode="&#x142;" horiz-adv-x="407" 
d="M115 1217q0 67 -8 98t-25 44t-57 23v21h120q84 6 127 49h21v-676l98 53l21 -34l-119 -64v-545q0 -67 8 -98.5t25 -44.5t57 -23v-20h-358v20q40 10 57 23t25 44.5t8 98.5v449l-88 -47l-21 35l109 57v537z" />
    <glyph glyph-name="Nacute" unicode="&#x143;" horiz-adv-x="829" 
d="M688 1247q0 67 -7 98.5t-22.5 44.5t-52.5 23v21h203v-21q-36 -10 -51 -23t-22 -44.5t-7 -98.5v-1247h-123l-436 1251v-1065q0 -67 7 -98.5t22 -44.5t51 -23v-20h-201v20q36 10 51 23t22 44.5t7 98.5v1162q-12 21 -26 33.5t-25.5 18.5t-32.5 13v21h279l364 -1100v913z
M233 1628l158 92q44 25 80.5 35t60.5 5.5t40 -18.5t23 -34.5t7 -44.5l-362 -61z" />
    <glyph glyph-name="nacute" unicode="&#x144;" horiz-adv-x="864" 
d="M115 807q0 67 -8 98.5t-25 44.5t-57 23v20h120q84 6 127 49h21v-141q119 141 252 141q98 0 147 -59t49 -188v-609q0 -67 8 -98.5t25 -44.5t57 -23v-20h-356v20q40 10 57 23t25 44.5t8 98.5v637q0 142 -88 142q-44 0 -87 -30.5t-97 -88.5v-660q0 -67 8 -98.5t25 -44.5
t57 -23v-20h-358v20q40 10 57 23t25 44.5t8 98.5v621zM246 1219l157 92q55 31 97.5 39t66 -5.5t35.5 -37t12 -54.5l-362 -61z" />
    <glyph glyph-name="uni0145" unicode="&#x145;" horiz-adv-x="829" 
d="M688 1247q0 67 -7 98.5t-22.5 44.5t-52.5 23v21h203v-21q-36 -10 -51 -23t-22 -44.5t-7 -98.5v-1247h-123l-436 1251v-1065q0 -67 7 -98.5t22 -44.5t51 -23v-20h-201v20q36 10 51 23t22 44.5t7 98.5v1162q-12 21 -26 33.5t-25.5 18.5t-32.5 13v21h279l364 -1100v913z
M309 -219q0 40 27 63t67 23q47 0 83 -35t36 -98q0 -139 -178 -201l-16 37q88 36 88 82q0 20 -16.5 34.5t-37 22t-37 26t-16.5 46.5z" />
    <glyph glyph-name="uni0146" unicode="&#x146;" horiz-adv-x="864" 
d="M115 807q0 67 -8 98.5t-25 44.5t-57 23v20h120q84 6 127 49h21v-141q119 141 252 141q98 0 147 -59t49 -188v-609q0 -67 8 -98.5t25 -44.5t57 -23v-20h-356v20q40 10 57 23t25 44.5t8 98.5v637q0 142 -88 142q-44 0 -87 -30.5t-97 -88.5v-660q0 -67 8 -98.5t25 -44.5
t57 -23v-20h-358v20q40 10 57 23t25 44.5t8 98.5v621zM322 -219q0 40 27 63t67 23q47 0 83 -35t36 -98q0 -71 -48 -121.5t-131 -79.5l-16 37q88 36 88 82q0 20 -16.5 34.5t-36.5 22t-36.5 26t-16.5 46.5z" />
    <glyph glyph-name="Ncaron" unicode="&#x147;" horiz-adv-x="829" 
d="M688 1247q0 67 -7 98.5t-22.5 44.5t-52.5 23v21h203v-21q-36 -10 -51 -23t-22 -44.5t-7 -98.5v-1247h-123l-436 1251v-1065q0 -67 7 -98.5t22 -44.5t51 -23v-20h-201v20q36 10 51 23t22 44.5t7 98.5v1162q-12 21 -26 33.5t-25.5 18.5t-32.5 13v21h279l364 -1100v913z
M190 1794l27 27l197 -125l200 125l27 -27l-143 -172q-37 -45 -84 -45t-84 45z" />
    <glyph glyph-name="ncaron" unicode="&#x148;" horiz-adv-x="864" 
d="M115 807q0 67 -8 98.5t-25 44.5t-57 23v20h120q84 6 127 49h21v-141q119 141 252 141q98 0 147 -59t49 -188v-609q0 -67 8 -98.5t25 -44.5t57 -23v-20h-356v20q40 10 57 23t25 44.5t8 98.5v637q0 142 -88 142q-44 0 -87 -30.5t-97 -88.5v-660q0 -67 8 -98.5t25 -44.5
t57 -23v-20h-358v20q40 10 57 23t25 44.5t8 98.5v621zM203 1384l26 27l197 -125l201 125l26 -27l-143 -172q-37 -45 -84 -45t-84 45z" />
    <glyph glyph-name="Eng" unicode="&#x14a;" horiz-adv-x="829" 
d="M688 1247q0 67 -7 98.5t-22.5 44.5t-52.5 23v21h203v-21q-36 -10 -51 -23t-22 -44.5t-7 -98.5v-1247q0 -77 -1.5 -127t-7 -105t-17 -88t-29.5 -62t-46.5 -41.5t-66.5 -12.5q-40 0 -81.5 13t-65.5 13l-37 416h41q15 -91 25 -149.5t21 -106.5t19.5 -74t20 -43t23 -22.5
t28.5 -5.5q40 0 54 48.5t14 143.5q0 136 -62 309l-391 1102v-1022q0 -67 7 -98.5t22 -44.5t51 -23v-20h-201v20q36 10 51 23t22 44.5t7 98.5v1149q-17 37 -34.5 51.5t-49.5 26.5v21h279l364 -1072v885z" />
    <glyph glyph-name="eng" unicode="&#x14b;" horiz-adv-x="815" 
d="M745 -47v-74.5t-1.5 -66t-4.5 -61.5t-8 -51t-13 -45.5t-20 -34.5t-27.5 -27.5t-36 -14.5t-46.5 -6q-31 0 -76 14.5t-72 14.5l-37 354h43q14 -93 27.5 -158.5t24.5 -101t24.5 -54.5t23 -23.5t23.5 -4.5q30 0 41 36t11 105q0 74 -26 191t-26 190v692q0 138 -86 138
q-83 0 -184 -115v-664q0 -67 8 -98.5t25 -44.5t57 -23v-20h-358v20q40 10 57 23t25 44.5t8 98.5v621q0 67 -8 98.5t-25 44.5t-57 23v20h121q87 7 127 49h20v-139q110 139 252 139q194 0 194 -247v-842z" />
    <glyph glyph-name="Omacron" unicode="&#x14c;" horiz-adv-x="864" 
d="M432 -18q-177 0 -279 179.5t-102 555.5t102 555.5t279 179.5q176 0 278.5 -179t102.5 -556q0 -378 -102 -556.5t-279 -178.5zM225 1606v82h416v-82h-416zM260 717q0 -266 19 -419t55 -214t98 -61q63 0 99 61.5t54.5 213.5t18.5 419q0 268 -18.5 420t-54.5 213t-99 61
q-62 0 -98 -61t-55 -214t-19 -419z" />
    <glyph glyph-name="omacron" unicode="&#x14d;" horiz-adv-x="802" 
d="M401 -18q-346 0 -346 530t346 530q347 0 347 -530t-347 -530zM193 1237v82h415v-82h-415zM250 512q0 -186 15.5 -292.5t47.5 -151.5t88 -45t88.5 45t48 151.5t15.5 292.5q0 187 -15.5 293.5t-48 151t-88.5 44.5q-54 0 -86.5 -45t-48.5 -152t-16 -292z" />
    <glyph glyph-name="Ohungarumlaut" unicode="&#x150;" horiz-adv-x="864" 
d="M432 -18q-177 0 -279 179.5t-102 555.5t102 555.5t279 179.5q176 0 278.5 -179t102.5 -556q0 -378 -102 -556.5t-279 -178.5zM260 717q0 -266 19 -419t55 -214t98 -61q63 0 99 61.5t54.5 213.5t18.5 419q0 268 -18.5 420t-54.5 213t-99 61q-62 0 -98 -61t-55 -214
t-19 -419zM301 1528l33 203q7 39 31 54t52 10.5t58 -21.5l-147 -256zM485 1528l33 203q7 39 30.5 54t51 10.5t57.5 -21.5l-145 -256z" />
    <glyph glyph-name="ohungarumlaut" unicode="&#x151;" horiz-adv-x="802" 
d="M401 -18q-346 0 -346 530t346 530q347 0 347 -530t-347 -530zM250 512q0 -186 15.5 -292.5t47.5 -151.5t88 -45t88.5 45t48 151.5t15.5 292.5q0 187 -15.5 293.5t-48 151t-88.5 44.5q-54 0 -86.5 -45t-48.5 -152t-16 -292zM270 1159l33 203q7 39 31 54t52 10.5t58 -21.5
l-147 -256zM455 1159l32 203q7 39 30.5 54t51.5 10.5t58 -21.5l-146 -256z" />
    <glyph glyph-name="OE" unicode="&#x152;" horiz-adv-x="1148" 
d="M440 -18q-92 0 -162 40t-121.5 126t-78.5 229t-27 340t27 340t78.5 229t121.5 126t162 40q48 0 135.5 -9t149.5 -9h332l39 -498h-41q-12 113 -21.5 186t-22 126t-22.5 80.5t-28.5 43t-35 18.5t-46.5 3h-162v-613h112q56 0 66 33.5t2 185.5h41l39 -503h-43
q-17 165 -29 198q-12 36 -45 42q-14 3 -39 3h-104v-698h176q29 0 45 3.5t34.5 19t29.5 44.5t23.5 82.5t22.5 130t21 189.5h43l-39 -510h-348q-62 0 -149.5 -9t-135.5 -9zM260 717q0 -260 17.5 -409t57.5 -217t109 -68q57 0 88 36v1315q-29 37 -88 37q-69 0 -109 -68
t-57.5 -217t-17.5 -409z" />
    <glyph glyph-name="oe" unicode="&#x153;" horiz-adv-x="1224" 
d="M401 -18q-346 0 -346 530t346 530q166 0 252 -120q88 120 232 120q131 0 204.5 -103.5t73.5 -289.5h-413v-45q0 -116 11 -209.5t34 -166t62 -112.5t91 -40q64 0 117 72.5t80 244.5l41 -4q-16 -117 -45.5 -199t-70.5 -126t-86.5 -63t-100.5 -19q-147 0 -230 120
q-84 -120 -252 -120zM250 512q0 -186 15.5 -292.5t47.5 -151.5t88 -45t88.5 45t48 151.5t15.5 292.5q0 187 -15.5 293.5t-48 151t-88.5 44.5q-54 0 -86.5 -45t-48.5 -152t-16 -292zM752 690h235q0 164 -26 237.5t-78 73.5q-62 0 -93.5 -79t-37.5 -232z" />
    <glyph glyph-name="Racute" unicode="&#x154;" horiz-adv-x="854" 
d="M51 0v20q37 10 52.5 23t22.5 44.5t7 98.5v1061q0 67 -7 98.5t-22.5 44.5t-52.5 23v21h109q77 1 158.5 9.5t113.5 8.5q135 0 210 -72t75 -239q0 -130 -54 -216.5t-149 -119.5q102 -24 144 -108.5t51 -272.5q9 -235 17.5 -295.5t35.5 -60.5q21 0 29 25t14 114l41 -4
q-5 -117 -38.5 -169t-109.5 -52q-93 0 -128 79t-46 291q-3 64 -5.5 106t-6 89.5t-7.5 76.5t-10.5 59.5t-14.5 47t-18.5 31t-24.5 20.5t-31 6h-3q-33 0 -86 9v-611q0 -67 7 -98.5t22 -44.5t51 -23v-20h-346zM213 1587l158 92q44 25 80.5 35t60.5 5.5t40 -18.5t23 -34.5
t7 -44.5l-363 -61zM317 840q37 -11 72 -11q137 0 137 308q0 143 -33.5 208.5t-101.5 65.5q-40 0 -74 -10v-561z" />
    <glyph glyph-name="racute" unicode="&#x155;" horiz-adv-x="671" 
d="M510 795q-38 0 -59 25t-33 62t-19 46q-10 11 -33 -13t-73 -90v-639q0 -51 5.5 -79t25.5 -46t46.5 -26t78.5 -15v-20h-424v20q40 10 57 23t25 44.5t8 98.5v621q0 67 -8 98.5t-25 44.5t-57 23v20h120q84 6 127 49h21v-155q60 77 103 116t85 39q26 0 43.5 -14.5t25 -31.5
t18.5 -31.5t24 -14.5q14 0 39 19l12 -23q-35 -151 -133 -151zM137 1219l158 92q55 31 97.5 39t66 -5.5t35.5 -37t12 -54.5l-363 -61z" />
    <glyph glyph-name="uni0156" unicode="&#x156;" horiz-adv-x="854" 
d="M51 0v20q37 10 52.5 23t22.5 44.5t7 98.5v1061q0 67 -7 98.5t-22.5 44.5t-52.5 23v21h109q77 1 158.5 9.5t113.5 8.5q135 0 210 -72t75 -239q0 -130 -54 -216.5t-149 -119.5q102 -24 144 -108.5t51 -272.5q9 -235 17.5 -295.5t35.5 -60.5q21 0 29 25t14 114l41 -4
q-5 -117 -38.5 -169t-109.5 -52q-93 0 -128 79t-46 291q-3 64 -5.5 106t-6 89.5t-7.5 76.5t-10.5 59.5t-14.5 47t-18.5 31t-24.5 20.5t-31 6h-3q-33 0 -86 9v-611q0 -67 7 -98.5t22 -44.5t51 -23v-20h-346zM317 840q37 -11 72 -11q137 0 137 308q0 143 -33.5 208.5
t-101.5 65.5q-40 0 -74 -10v-561zM332 -219q0 40 27 63t67 23q47 0 83 -35t36 -98q0 -139 -178 -201l-17 37q88 36 88 82q0 20 -16.5 34.5t-36.5 22t-36.5 26t-16.5 46.5z" />
    <glyph glyph-name="uni0157" unicode="&#x157;" horiz-adv-x="671" 
d="M510 795q-38 0 -59 25t-33 62t-19 46q-10 11 -33 -13t-73 -90v-639q0 -51 5.5 -79t25.5 -46t46.5 -26t78.5 -15v-20h-424v20q40 10 57 23t25 44.5t8 98.5v621q0 67 -8 98.5t-25 44.5t-57 23v20h120q84 6 127 49h21v-155q60 77 103 116t85 39q26 0 43.5 -14.5t25 -31.5
t18.5 -31.5t24 -14.5q14 0 39 19l12 -23q-35 -151 -133 -151zM98 -219q0 40 27.5 63t67.5 23q47 0 82.5 -35t35.5 -98q0 -139 -178 -201l-16 37q88 36 88 82q0 20 -16.5 34.5t-37 22t-37 26t-16.5 46.5z" />
    <glyph glyph-name="Rcaron" unicode="&#x158;" horiz-adv-x="854" 
d="M51 0v20q37 10 52.5 23t22.5 44.5t7 98.5v1061q0 67 -7 98.5t-22.5 44.5t-52.5 23v21h109q77 1 158.5 9.5t113.5 8.5q135 0 210 -72t75 -239q0 -130 -54 -216.5t-149 -119.5q102 -24 144 -108.5t51 -272.5q9 -235 17.5 -295.5t35.5 -60.5q21 0 29 25t14 114l41 -4
q-5 -117 -38.5 -169t-109.5 -52q-93 0 -128 79t-46 291q-3 64 -5.5 106t-6 89.5t-7.5 76.5t-10.5 59.5t-14.5 47t-18.5 31t-24.5 20.5t-31 6h-3q-33 0 -86 9v-611q0 -67 7 -98.5t22 -44.5t51 -23v-20h-346zM170 1753l27 27l196 -125l201 125l27 -27l-144 -172
q-37 -45 -84 -45t-84 45zM317 840q37 -11 72 -11q137 0 137 308q0 143 -33.5 208.5t-101.5 65.5q-40 0 -74 -10v-561z" />
    <glyph glyph-name="rcaron" unicode="&#x159;" horiz-adv-x="671" 
d="M510 795q-38 0 -59 25t-33 62t-19 46q-10 11 -33 -13t-73 -90v-639q0 -51 5.5 -79t25.5 -46t46.5 -26t78.5 -15v-20h-424v20q40 10 57 23t25 44.5t8 98.5v621q0 67 -8 98.5t-25 44.5t-57 23v20h120q84 6 127 49h21v-155q60 77 103 116t85 39q26 0 43.5 -14.5t25 -31.5
t18.5 -31.5t24 -14.5q14 0 39 19l12 -23q-35 -151 -133 -151zM94 1384l27 27l196 -125l201 125l27 -27l-144 -172q-37 -45 -84 -45t-84 45z" />
    <glyph glyph-name="Sacute" unicode="&#x15a;" horiz-adv-x="684" 
d="M94 510q17 -146 41 -244t55.5 -150t64.5 -72.5t77 -20.5q125 0 125 176q0 26 -3.5 53.5t-7.5 49.5t-15 53.5t-16.5 49.5t-23.5 55t-24.5 51.5t-29.5 57t-29.5 53.5t-34 60t-33.5 59q-15 27 -48.5 85.5t-48 85.5t-38.5 75.5t-34.5 80t-19 72.5t-8.5 79q0 103 71.5 168
t202.5 65q46 0 125 -11t125 -11l39 -494h-41q-23 195 -53.5 299.5t-67.5 140t-96 35.5q-57 0 -87 -38.5t-30 -102.5q0 -25 4.5 -51.5t16 -58.5t21 -55.5t30.5 -65t33 -63.5t40.5 -73t41.5 -74q53 -87 83 -141.5t68 -134.5t56 -152.5t18 -142.5q0 -141 -72 -208.5t-202 -67.5
q-51 0 -140 11t-139 11l-37 506h41zM133 1602l158 92q55 31 97.5 39t66 -5.5t35.5 -37t12 -54.5l-363 -61z" />
    <glyph glyph-name="sacute" unicode="&#x15b;" horiz-adv-x="645" 
d="M94 406q21 -122 44 -200t51 -117t55.5 -52.5t66.5 -13.5q99 0 99 114q0 70 -35 140.5t-112 188.5q-15 22 -23 34q-48 63 -70 94t-50 79t-39 90t-11 89q0 95 64 142.5t167 47.5q46 0 116 -14t109 -14l41 -348h-39q-18 111 -39 182t-47 102.5t-48 41t-54 9.5
q-41 0 -64.5 -22.5t-23.5 -67.5q0 -43 25 -100.5t49.5 -95.5t89.5 -133q85 -115 129.5 -203.5t44.5 -181.5q0 -109 -64.5 -162t-181.5 -53q-59 0 -138.5 14t-115.5 14l-37 396h41zM141 1219l158 92q55 31 97.5 39t66 -5.5t35.5 -37t12 -54.5l-363 -61z" />
    <glyph glyph-name="Scedilla" unicode="&#x15e;" horiz-adv-x="684" 
d="M94 510q17 -146 41 -244t55.5 -150t64.5 -72.5t77 -20.5q125 0 125 176q0 26 -3.5 53.5t-7.5 49.5t-15 53.5t-16.5 49.5t-23.5 55t-24.5 51.5t-29.5 57t-29.5 53.5t-34 60t-33.5 59q-15 27 -48.5 85.5t-48 85.5t-38.5 75.5t-34.5 80t-19 72.5t-8.5 79q0 103 71.5 168
t202.5 65q46 0 125 -11t125 -11l39 -494h-41q-23 195 -53.5 299.5t-67.5 140t-96 35.5q-57 0 -87 -38.5t-30 -102.5q0 -25 4.5 -51.5t16 -58.5t21 -55.5t30.5 -65t33 -63.5t40.5 -73t41.5 -74q53 -87 83 -141.5t68 -134.5t56 -152.5t18 -142.5q0 -141 -72 -208.5t-202 -67.5
h-25l-27 -72q185 -38 185 -178q0 -63 -43.5 -96t-112.5 -33q-24 0 -59.5 8t-57.5 8l-28 201h39q20 -110 39.5 -145t46.5 -35q45 0 45 67q0 56 -25 105.5t-72 81.5v20l27 70q-16 1 -90.5 10.5t-120.5 9.5l-37 506h41z" />
    <glyph glyph-name="scedilla" unicode="&#x15f;" horiz-adv-x="645" 
d="M94 406q21 -122 44 -200t51 -117t55.5 -52.5t66.5 -13.5q99 0 99 114q0 70 -35 140.5t-112 188.5q-15 22 -23 34q-48 63 -70 94t-50 79t-39 90t-11 89q0 95 64 142.5t167 47.5q46 0 116 -14t109 -14l41 -348h-39q-18 111 -39 182t-47 102.5t-48 41t-54 9.5
q-41 0 -64.5 -22.5t-23.5 -67.5q0 -43 25 -100.5t49.5 -95.5t89.5 -133q85 -115 129.5 -203.5t44.5 -181.5q0 -109 -64.5 -162t-181.5 -53h-8l-27 -72q185 -38 185 -178q0 -63 -43.5 -96t-112.5 -33q-24 0 -59.5 8t-57.5 8l-28 201h38q20 -110 39.5 -145t46.5 -35
q45 0 45 67q0 121 -96 187v20l27 70q-35 3 -100.5 14.5t-102.5 11.5l-37 396h41z" />
    <glyph glyph-name="Scaron" unicode="&#x160;" horiz-adv-x="684" 
d="M94 510q17 -146 41 -244t55.5 -150t64.5 -72.5t77 -20.5q125 0 125 176q0 26 -3.5 53.5t-7.5 49.5t-15 53.5t-16.5 49.5t-23.5 55t-24.5 51.5t-29.5 57t-29.5 53.5t-34 60t-33.5 59q-15 27 -48.5 85.5t-48 85.5t-38.5 75.5t-34.5 80t-19 72.5t-8.5 79q0 103 71.5 168
t202.5 65q46 0 125 -11t125 -11l39 -494h-41q-23 195 -53.5 299.5t-67.5 140t-96 35.5q-57 0 -87 -38.5t-30 -102.5q0 -25 4.5 -51.5t16 -58.5t21 -55.5t30.5 -65t33 -63.5t40.5 -73t41.5 -74q53 -87 83 -141.5t68 -134.5t56 -152.5t18 -142.5q0 -141 -72 -208.5t-202 -67.5
q-51 0 -140 11t-139 11l-37 506h41zM92 1767l27 27l196 -125l201 125l27 -27l-144 -172q-37 -45 -84 -45t-84 45z" />
    <glyph glyph-name="scaron" unicode="&#x161;" horiz-adv-x="645" 
d="M94 406q21 -122 44 -200t51 -117t55.5 -52.5t66.5 -13.5q99 0 99 114q0 70 -35 140.5t-112 188.5q-15 22 -23 34q-48 63 -70 94t-50 79t-39 90t-11 89q0 95 64 142.5t167 47.5q46 0 116 -14t109 -14l41 -348h-39q-18 111 -39 182t-47 102.5t-48 41t-54 9.5
q-41 0 -64.5 -22.5t-23.5 -67.5q0 -43 25 -100.5t49.5 -95.5t89.5 -133q85 -115 129.5 -203.5t44.5 -181.5q0 -109 -64.5 -162t-181.5 -53q-59 0 -138.5 14t-115.5 14l-37 396h41zM98 1384l27 27l197 -125l200 125l27 -27l-143 -172q-37 -45 -84 -45t-84 45z" />
    <glyph glyph-name="uni0162" unicode="&#x162;" horiz-adv-x="804" 
d="M737 1434l37 -498h-41q-12 108 -22 178t-21.5 124t-22.5 82.5t-28 46t-34.5 22t-45.5 4.5h-63v-1207q0 -67 6.5 -98.5t21.5 -44.5t51 -23v-20h-169l-33 -90q184 -37 184 -178q0 -63 -43.5 -96t-112.5 -33q-24 0 -59 8t-57 8l-29 201h39q20 -110 39.5 -145t46.5 -35
q45 0 45 67q0 121 -96 187v20l32 86h-133v20q37 10 52.5 23t22.5 44.5t7 98.5v1207h-65q-55 0 -81.5 -29.5t-47 -121.5t-45.5 -306h-41l39 498h667z" />
    <glyph glyph-name="uni0163" unicode="&#x163;" horiz-adv-x="524" 
d="M20 1024q140 3 191.5 64t73.5 241h24v-305h172v-41q-81 0 -116 -7.5t-45.5 -25.5t-10.5 -61v-637q0 -95 9 -129.5t38 -34.5q33 0 55.5 74t41.5 237l36 -8q-25 -223 -64.5 -314.5t-129.5 -94.5l-27 -72q185 -38 185 -178q0 -63 -43.5 -96t-112.5 -33q-24 0 -59.5 8
t-57.5 8l-28 201h38q20 -110 39.5 -145t46.5 -35q46 0 46 67q0 56 -25 105.5t-72 81.5v20l27 70q-65 11 -93 71.5t-28 190.5v643q0 34 -2 49t-14 27t-33 15t-62 3v41z" />
    <glyph glyph-name="Tcaron" unicode="&#x164;" horiz-adv-x="804" 
d="M737 1434l37 -498h-41q-12 108 -22 178t-21.5 124t-22.5 82.5t-28 46t-34.5 22t-45.5 4.5h-63v-1207q0 -67 6.5 -98.5t21.5 -44.5t51 -23v-20h-346v20q37 10 52.5 23t22.5 44.5t7 98.5v1207h-65q-55 0 -81.5 -29.5t-47 -121.5t-45.5 -306h-41l39 498h667zM178 1753l27 27
l196 -125l201 125l27 -27l-144 -172q-37 -45 -84 -45t-84 45z" />
    <glyph glyph-name="tcaron" unicode="&#x165;" horiz-adv-x="575" 
d="M20 1024q140 3 191.5 64t73.5 241h24v-305h172v-41q-81 0 -116 -7.5t-45.5 -25.5t-10.5 -61v-637q0 -95 9 -129.5t38 -34.5q33 0 55.5 74t41.5 237l36 -8q-24 -226 -66 -317.5t-136 -91.5q-85 0 -120.5 59t-35.5 205v643q0 34 -2 49t-14 27t-33 15t-62 3v41zM424 1384
q0 38 27 61t67 23q47 0 83 -34t36 -97q0 -138 -178 -200l-17 37q88 34 88 81q0 20 -16.5 34t-36.5 21.5t-36.5 26.5t-16.5 47z" />
    <glyph glyph-name="Tbar" unicode="&#x166;" horiz-adv-x="903" 
d="M737 1434l37 -498h-41q-12 108 -22 178t-21.5 124t-22.5 82.5t-28 46t-34.5 22t-45.5 4.5h-63v-744h202v-41h-202v-422q0 -67 6.5 -98.5t21.5 -44.5t51 -23v-20h-346v20q37 10 52.5 23t22.5 44.5t7 98.5v422h-202v41h202v744h-65q-55 0 -81.5 -29.5t-47 -121.5
t-45.5 -306h-41l39 498h667z" />
    <glyph glyph-name="tbar" unicode="&#x167;" horiz-adv-x="524" 
d="M20 1024q140 3 191.5 64t73.5 241h24v-305h172v-41q-81 0 -116 -7.5t-45.5 -25.5t-10.5 -61v-240h172v-41h-172v-356q0 -95 9 -129.5t38 -34.5q33 0 55.5 74t41.5 237l36 -8q-24 -226 -66 -317.5t-136 -91.5q-85 0 -120.5 59t-35.5 205v362h-111v41h111v240q0 34 -2 49
t-14 27t-33 15t-62 3v41z" />
    <glyph glyph-name="Umacron" unicode="&#x16a;" horiz-adv-x="847" 
d="M109 1247q0 67 -7 98.5t-22 44.5t-51 23v21h346v-21q-37 -10 -52.5 -23t-22.5 -44.5t-7 -98.5v-837q0 -181 48.5 -262.5t152.5 -81.5t154 82t50 255v844q0 67 -7 98.5t-22 44.5t-51 23v21h201v-21q-36 -10 -51 -23t-22 -44.5t-7 -98.5v-866q0 -197 -73 -298t-230 -101
q-159 0 -243 105.5t-84 322.5v837zM231 1606v82h416v-82h-416z" />
    <glyph glyph-name="umacron" unicode="&#x16b;" horiz-adv-x="870" 
d="M281 1049h20v-852q0 -142 88 -142q79 0 184 115v641q0 67 -8 98.5t-25 44.5t-57 23v20l121 2q84 3 125 50h21v-826q0 -67 8 -98t25 -44t57 -24v-20h-121q-86 -7 -125 -51h-21v133q-118 -144 -251 -144q-199 0 -199 250v586q0 67 -8 98.5t-25 44.5t-57 23v20l121 2
q83 3 127 50zM219 1237v82h416v-82h-416z" />
    <glyph glyph-name="Uring" unicode="&#x16e;" horiz-adv-x="847" 
d="M109 1247q0 67 -7 98.5t-22 44.5t-51 23v21h346v-21q-37 -10 -52.5 -23t-22.5 -44.5t-7 -98.5v-837q0 -181 48.5 -262.5t152.5 -81.5t154 82t50 255v844q0 67 -7 98.5t-22 44.5t-51 23v21h201v-21q-36 -10 -51 -23t-22 -44.5t-7 -98.5v-866q0 -197 -73 -298t-230 -101
q-159 0 -243 105.5t-84 322.5v837zM289 1665q0 57 41.5 97t107.5 40q65 0 106.5 -40t41.5 -97q0 -60 -41.5 -100.5t-106.5 -40.5q-66 0 -107.5 40.5t-41.5 100.5zM332 1665q0 -43 28.5 -73.5t77.5 -30.5q48 0 77.5 30.5t29.5 73.5q0 42 -29.5 72t-77.5 30q-49 0 -77.5 -30
t-28.5 -72z" />
    <glyph glyph-name="uring" unicode="&#x16f;" horiz-adv-x="870" 
d="M281 1049h20v-852q0 -142 88 -142q79 0 184 115v641q0 67 -8 98.5t-25 44.5t-57 23v20l121 2q84 3 125 50h21v-826q0 -67 8 -98t25 -44t57 -24v-20h-121q-86 -7 -125 -51h-21v133q-118 -144 -251 -144q-199 0 -199 250v586q0 67 -8 98.5t-25 44.5t-57 23v20l121 2
q83 3 127 50zM279 1296q0 57 41.5 97.5t107.5 40.5q64 0 105.5 -40.5t41.5 -97.5q0 -60 -41 -100.5t-106 -40.5q-66 0 -107.5 40.5t-41.5 100.5zM322 1296q0 -43 28.5 -73.5t77.5 -30.5q48 0 77.5 30.5t29.5 73.5q0 42 -29.5 72.5t-77.5 30.5q-49 0 -77.5 -30.5t-28.5 -72.5
z" />
    <glyph glyph-name="Uhungarumlaut" unicode="&#x170;" horiz-adv-x="847" 
d="M109 1247q0 67 -7 98.5t-22 44.5t-51 23v21h346v-21q-37 -10 -52.5 -23t-22.5 -44.5t-7 -98.5v-837q0 -181 48.5 -262.5t152.5 -81.5t154 82t50 255v844q0 67 -7 98.5t-22 44.5t-51 23v21h201v-21q-36 -10 -51 -23t-22 -44.5t-7 -98.5v-866q0 -197 -73 -298t-230 -101
q-159 0 -243 105.5t-84 322.5v837zM309 1528l33 203q7 39 31 54t52 10.5t58 -21.5l-147 -256zM494 1528l32 203q7 39 30.5 54t51.5 10.5t58 -21.5l-146 -256z" />
    <glyph glyph-name="uhungarumlaut" unicode="&#x171;" horiz-adv-x="870" 
d="M281 1049h20v-852q0 -142 88 -142q79 0 184 115v641q0 67 -8 98.5t-25 44.5t-57 23v20l121 2q84 3 125 50h21v-826q0 -67 8 -98t25 -44t57 -24v-20h-121q-86 -7 -125 -51h-21v133q-118 -144 -251 -144q-199 0 -199 250v586q0 67 -8 98.5t-25 44.5t-57 23v20l121 2
q83 3 127 50zM297 1159l33 203q7 39 31 54t52 10.5t58 -21.5l-147 -256zM481 1159l33 203q7 39 30.5 54t51 10.5t57.5 -21.5l-145 -256z" />
    <glyph glyph-name="Uogonek" unicode="&#x172;" horiz-adv-x="847" 
d="M109 1247q0 67 -7 98.5t-22 44.5t-51 23v21h346v-21q-37 -10 -52.5 -23t-22.5 -44.5t-7 -98.5v-837q0 -181 48.5 -262.5t152.5 -81.5t154 82t50 255v844q0 67 -7 98.5t-22 44.5t-51 23v21h201v-21q-36 -10 -51 -23t-22 -44.5t-7 -98.5v-866q0 -302 -168 -375
q-65 -85 -97 -146t-32 -128q0 -39 19 -65.5t49 -26.5q38 0 63 36t45 119l37 -14q-24 -105 -67.5 -155t-120.5 -50q-71 0 -115.5 39t-44.5 111q0 76 51.5 137.5t141.5 122.5q-40 -4 -64 -4q-159 0 -243 105.5t-84 322.5v837z" />
    <glyph glyph-name="uogonek" unicode="&#x173;" horiz-adv-x="870" 
d="M281 1049h20v-852q0 -142 88 -142q79 0 184 115v641q0 67 -8 98.5t-25 44.5t-57 23v20l121 2q84 3 125 50h21v-826q0 -67 8 -98t25 -44t57 -24v-20h-121q-54 -3 -90 -23q-62 -82 -93.5 -143t-31.5 -127q0 -39 18.5 -65.5t48.5 -26.5q38 0 63.5 36.5t45.5 118.5l37 -14
q-24 -105 -68 -155t-121 -50q-71 0 -115 39t-44 111q0 78 54.5 141t149.5 127v113q-118 -144 -251 -144q-199 0 -199 250v586q0 67 -8 98.5t-25 44.5t-57 23v20l121 2q83 3 127 50z" />
    <glyph glyph-name="Wcircumflex" unicode="&#x174;" horiz-adv-x="1271" 
d="M506 -18h-92l-273 1269q-21 92 -43.5 120t-77.5 42v21h861v-27q-43 -6 -66.5 -39.5t-40.5 -114.5l-35 -168l156 -774l195 942q19 82 8 115t-64 39v27h217v-21q-37 -10 -55 -22t-34 -44t-29 -96l-269 -1269h-90l-135 628zM344 1253l193 -942l81 396l-118 546
q-18 83 -41 118.5t-62 35.5q-45 0 -56.5 -38.5t3.5 -115.5zM430 1575l139 174q39 45 84 45t84 -45l144 -174l-27 -27l-201 127l-196 -127zM705 1253l12 -61l12 61q14 64 12 97.5t-22 46.5q-22 -12 -25 -45t11 -99z" />
    <glyph glyph-name="wcircumflex" unicode="&#x175;" horiz-adv-x="1157" 
d="M147 844q-16 63 -33.5 94.5t-36.5 43.5t-57 22v20h768v-27q-40 -6 -63.5 -37t-44.5 -116l-4 -21l145 -610l150 631q20 89 9.5 118t-62.5 35v27h217v-20q-37 -10 -55.5 -22t-35.5 -43.5t-32 -94.5l-211 -862h-99l-120 464l-113 -464h-98zM338 846l154 -633l71 307l-84 326
q-20 84 -43 117.5t-59 33.5q-38 0 -48 -33t9 -118zM362 1206l140 174q39 45 84 45t84 -45l143 -174l-27 -26l-200 127l-197 -127z" />
    <glyph glyph-name="Ycircumflex" unicode="&#x176;" horiz-adv-x="860" 
d="M670 1253q17 67 17.5 95.5t-16 41.5t-63.5 23v21h232v-21q-38 -10 -57 -22t-36.5 -43.5t-33.5 -94.5l-172 -663v-404q0 -67 7 -98.5t22 -44.5t51 -23v-20h-347v20q36 10 51 23t22 44.5t7 98.5v377l-200 692q-18 61 -37.5 93t-38.5 43.5t-58 21.5v21h402v-21
q-29 -6 -44 -12t-25.5 -15t-10.5 -27.5t4.5 -41t15.5 -64.5l156 -565zM246 1575l139 174q39 45 84 45t84 -45l143 -174l-26 -27l-201 127l-197 -127z" />
    <glyph glyph-name="ycircumflex" unicode="&#x177;" horiz-adv-x="837" 
d="M293 -444q-30 0 -69.5 15t-67.5 15l-43 387h41q19 -128 37 -208t36.5 -114.5t32.5 -44t35 -9.5q36 0 60.5 49.5t54.5 179.5l36 156h-69l-227 862q-17 63 -35.5 94.5t-37.5 43.5t-57 22v20h398v-20q-40 -7 -58.5 -14t-27.5 -25.5t-5.5 -44t15.5 -76.5l158 -635l151 635
q12 51 15.5 76.5t-5.5 44t-27.5 25.5t-58.5 14v20h242v-20q-38 -10 -57 -22t-36 -43.5t-32 -94.5l-243 -1024q-15 -60 -24 -93t-23 -71t-28 -56.5t-34.5 -31t-46.5 -12.5zM233 1206l140 174q39 45 84 45t84 -45l143 -174l-27 -26l-200 127l-197 -127z" />
    <glyph glyph-name="Ydieresis" unicode="&#x178;" horiz-adv-x="860" 
d="M670 1253q17 67 17.5 95.5t-16 41.5t-63.5 23v21h232v-21q-38 -10 -57 -22t-36.5 -43.5t-33.5 -94.5l-172 -663v-404q0 -67 7 -98.5t22 -44.5t51 -23v-20h-347v20q36 10 51 23t22 44.5t7 98.5v377l-200 692q-18 61 -37.5 93t-38.5 43.5t-58 21.5v21h402v-21
q-29 -6 -44 -12t-25.5 -15t-10.5 -27.5t4.5 -41t15.5 -64.5l156 -565zM203 1677q0 48 31.5 79.5t80.5 31.5t82 -32t33 -79q0 -49 -32.5 -80.5t-82.5 -31.5q-49 0 -80.5 31.5t-31.5 80.5zM514 1677q0 47 33 79t82 32q47 0 79.5 -32t32.5 -79q0 -49 -32 -80.5t-80 -31.5
q-50 0 -82.5 31.5t-32.5 80.5z" />
    <glyph glyph-name="Zacute" unicode="&#x179;" horiz-adv-x="772" 
d="M457 41q31 0 49 4t38.5 20t32.5 45.5t25.5 82.5t25 129t23.5 188h41l-41 -510h-579v41l409 1352h-159q-32 0 -50.5 -4t-38.5 -20t-32 -44t-25.5 -80.5t-24.5 -125.5t-24 -183h-41l43 498h561v-41l-409 -1352h176zM219 1602l158 92q55 31 97.5 39t66 -5.5t35.5 -37
t12 -54.5l-363 -61z" />
    <glyph glyph-name="zacute" unicode="&#x17a;" horiz-adv-x="655" 
d="M391 41q35 0 55 6.5t38 24.5t30 62.5t23.5 107t25.5 170.5h41l-41 -412h-512v41l346 942h-116q-29 0 -46.5 -3t-35 -15.5t-27.5 -31.5t-21.5 -57t-20.5 -86t-21 -124h-41l43 358h485v-41l-346 -942h141zM162 1219l157 92q55 31 97.5 39t66 -5.5t35.5 -37t12 -54.5
l-362 -61z" />
    <glyph glyph-name="Zdotaccent" unicode="&#x17b;" horiz-adv-x="772" 
d="M457 41q31 0 49 4t38.5 20t32.5 45.5t25.5 82.5t25 129t23.5 188h41l-41 -510h-579v41l409 1352h-159q-32 0 -50.5 -4t-38.5 -20t-32 -44t-25.5 -80.5t-24.5 -125.5t-24 -183h-41l43 498h561v-41l-409 -1352h176zM289 1692q0 50 31.5 81t80.5 31q50 0 82.5 -31.5
t32.5 -80.5q0 -47 -33 -79t-82 -32t-80.5 31.5t-31.5 79.5z" />
    <glyph glyph-name="zdotaccent" unicode="&#x17c;" horiz-adv-x="655" 
d="M391 41q35 0 55 6.5t38 24.5t30 62.5t23.5 107t25.5 170.5h41l-41 -412h-512v41l346 942h-116q-29 0 -46.5 -3t-35 -15.5t-27.5 -31.5t-21.5 -57t-20.5 -86t-21 -124h-41l43 358h485v-41l-346 -942h141zM231 1309q0 49 31.5 80.5t81.5 31.5t82.5 -31.5t32.5 -80.5
q0 -47 -33 -79t-82 -32t-81 31.5t-32 79.5z" />
    <glyph glyph-name="Zcaron" unicode="&#x17d;" horiz-adv-x="772" 
d="M457 41q31 0 49 4t38.5 20t32.5 45.5t25.5 82.5t25 129t23.5 188h41l-41 -510h-579v41l409 1352h-159q-32 0 -50.5 -4t-38.5 -20t-32 -44t-25.5 -80.5t-24.5 -125.5t-24 -183h-41l43 498h561v-41l-409 -1352h176zM176 1767l27 27l196 -125l201 125l27 -27l-144 -172
q-37 -45 -84 -45t-84 45z" />
    <glyph glyph-name="zcaron" unicode="&#x17e;" horiz-adv-x="655" 
d="M391 41q35 0 55 6.5t38 24.5t30 62.5t23.5 107t25.5 170.5h41l-41 -412h-512v41l346 942h-116q-29 0 -46.5 -3t-35 -15.5t-27.5 -31.5t-21.5 -57t-20.5 -86t-21 -124h-41l43 358h485v-41l-346 -942h141zM119 1384l26 27l197 -125l201 125l26 -27l-143 -172
q-37 -45 -84 -45t-84 45z" />
    <glyph glyph-name="uni0218" unicode="&#x218;" horiz-adv-x="684" 
d="M94 510q17 -146 41 -244t55.5 -150t64.5 -72.5t77 -20.5q125 0 125 176q0 26 -3.5 53.5t-7.5 49.5t-15 53.5t-16.5 49.5t-23.5 55t-24.5 51.5t-29.5 57t-29.5 53.5t-34 60t-33.5 59q-15 27 -48.5 85.5t-48 85.5t-38.5 75.5t-34.5 80t-19 72.5t-8.5 79q0 103 71.5 168
t202.5 65q46 0 125 -11t125 -11l39 -494h-41q-23 195 -53.5 299.5t-67.5 140t-96 35.5q-57 0 -87 -38.5t-30 -102.5q0 -25 4.5 -51.5t16 -58.5t21 -55.5t30.5 -65t33 -63.5t40.5 -73t41.5 -74q53 -87 83 -141.5t68 -134.5t56 -152.5t18 -142.5q0 -141 -72 -208.5t-202 -67.5
q-51 0 -140 11t-139 11l-37 506h41zM242 -219q0 40 27 63t67 23q47 0 83 -35t36 -98q0 -71 -48 -121.5t-131 -79.5l-16 37q88 36 88 82q0 20 -16.5 34.5t-36.5 22t-36.5 26t-16.5 46.5z" />
    <glyph glyph-name="uni0219" unicode="&#x219;" horiz-adv-x="645" 
d="M94 406q21 -122 44 -200t51 -117t55.5 -52.5t66.5 -13.5q99 0 99 114q0 70 -35 140.5t-112 188.5q-15 22 -23 34q-48 63 -70 94t-50 79t-39 90t-11 89q0 95 64 142.5t167 47.5q46 0 116 -14t109 -14l41 -348h-39q-18 111 -39 182t-47 102.5t-48 41t-54 9.5
q-41 0 -64.5 -22.5t-23.5 -67.5q0 -43 25 -100.5t49.5 -95.5t89.5 -133q85 -115 129.5 -203.5t44.5 -181.5q0 -109 -64.5 -162t-181.5 -53q-59 0 -138.5 14t-115.5 14l-37 396h41zM233 -219q0 40 27.5 63t67.5 23q47 0 82.5 -35t35.5 -98q0 -139 -178 -201l-16 37
q88 36 88 82q0 20 -16.5 34.5t-37 22t-37 26t-16.5 46.5z" />
    <glyph glyph-name="uni021A" unicode="&#x21a;" horiz-adv-x="804" 
d="M737 1434l37 -498h-41q-12 108 -22 178t-21.5 124t-22.5 82.5t-28 46t-34.5 22t-45.5 4.5h-63v-1207q0 -67 6.5 -98.5t21.5 -44.5t51 -23v-20h-346v20q37 10 52.5 23t22.5 44.5t7 98.5v1207h-65q-55 0 -81.5 -29.5t-47 -121.5t-45.5 -306h-41l39 498h667zM297 -219
q0 40 27 63t67 23q47 0 83 -35t36 -98q0 -139 -178 -201l-17 37q88 36 88 82q0 20 -16.5 34.5t-36.5 22t-36.5 26t-16.5 46.5z" />
    <glyph glyph-name="uni021B" unicode="&#x21b;" horiz-adv-x="524" 
d="M20 1024q140 3 191.5 64t73.5 241h24v-305h172v-41q-81 0 -116 -7.5t-45.5 -25.5t-10.5 -61v-637q0 -95 9 -129.5t38 -34.5q33 0 55.5 74t41.5 237l36 -8q-24 -226 -66 -317.5t-136 -91.5q-85 0 -120.5 59t-35.5 205v643q0 34 -2 49t-14 27t-33 15t-62 3v41zM193 -219
q0 40 27 63t67 23q47 0 83 -35t36 -98q0 -71 -48 -121.5t-131 -79.5l-16 37q88 36 88 82q0 20 -16.5 34.5t-36.5 22t-36.5 26t-16.5 46.5z" />
    <glyph glyph-name="uni0237" unicode="&#x237;" horiz-adv-x="380" 
d="M121 811q0 67 -8 98.5t-25 44.5t-57 23v20l121 2q82 3 124 50h21v-1117q0 -62 -1.5 -101t-6.5 -85.5t-15.5 -73.5t-28.5 -52.5t-46 -36.5t-66 -11q-37 0 -84 14.5t-74 14.5l-36 368h41q17 -121 34.5 -196.5t36 -108.5t33.5 -42t37 -9q34 0 46.5 37t12.5 110
q0 72 -29.5 179t-29.5 184v688z" />
    <glyph glyph-name="circumflex" unicode="&#x2c6;" horiz-adv-x="655" 
d="M326 1425q45 0 84 -45l143 -174l-27 -26l-200 127l-197 -127l-27 26l140 174q39 45 84 45z" />
    <glyph glyph-name="caron" unicode="&#x2c7;" horiz-adv-x="622" 
d="M326 1167q-45 0 -84 45l-140 174l27 27l197 -127l200 127l27 -27l-143 -174q-39 -45 -84 -45z" />
    <glyph glyph-name="breve" unicode="&#x2d8;" horiz-adv-x="628" 
d="M313 1167q-109 0 -160 75.5t-51 203.5h41q0 -152 170 -152q87 0 129.5 39.5t42.5 112.5h41q0 -128 -52 -203.5t-161 -75.5z" />
    <glyph glyph-name="dotaccent" unicode="&#x2d9;" horiz-adv-x="364" 
d="M182 1198q-49 0 -80.5 31.5t-31.5 79.5q0 49 31 80.5t81 31.5t82.5 -31.5t32.5 -80.5q0 -47 -33 -79t-82 -32z" />
    <glyph glyph-name="ring" unicode="&#x2da;" horiz-adv-x="423" 
d="M207 1155q-66 0 -108 40.5t-42 100.5q0 57 42 97.5t108 40.5q64 0 105.5 -40.5t41.5 -97.5q0 -60 -41 -100.5t-106 -40.5zM100 1296q0 -43 29 -73.5t78 -30.5q48 0 77 30.5t29 73.5q0 42 -29 72.5t-77 30.5q-49 0 -78 -30.5t-29 -72.5z" />
    <glyph glyph-name="ogonek" unicode="&#x2db;" horiz-adv-x="499" 
d="M332 8q-67 -87 -100 -149.5t-33 -130.5q0 -39 18.5 -66t48.5 -27q38 0 63.5 36.5t45.5 119.5l37 -14q-24 -105 -68 -155t-121 -50q-71 0 -115.5 38.5t-44.5 110.5q0 46 20 88.5t60 80.5t75 64.5t89 61.5z" />
    <glyph glyph-name="tilde" unicode="&#x2dc;" horiz-adv-x="724" 
d="M623 1421q-13 -42 -26 -73.5t-33.5 -63.5t-49 -49.5t-63.5 -17.5q-32 0 -63 18t-51 39t-44.5 39t-46.5 18q-31 0 -55.5 -22.5t-51.5 -71.5l-37 16q17 46 29.5 74.5t34.5 62.5t50 51t63 17q32 0 62.5 -18t50 -39.5t44.5 -39.5t47 -18q30 0 52.5 22t50.5 73z" />
    <glyph glyph-name="hungarumlaut" unicode="&#x2dd;" horiz-adv-x="446" 
d="M219 1405l-147 -256l-27 10l33 203q7 39 31 54t52 10.5t58 -21.5zM229 1159l33 203q7 39 30.5 54t51 10.5t57.5 -21.5l-145 -256z" />
    <glyph glyph-name="gravecomb" unicode="&#x300;" 
d="M70 1253q0 31 11.5 54.5t35.5 37t66 5.5t96 -39l159 -92l-8 -27z" />
    <glyph glyph-name="acutecomb" unicode="&#x301;" 
d="M438 1253l-362 -61l-6 27l157 92q55 31 97.5 39t66 -5.5t35.5 -37t12 -54.5z" />
    <glyph glyph-name="uni0302" unicode="&#x302;" 
d="M326 1425q45 0 84 -45l143 -174l-27 -26l-200 127l-197 -127l-27 26l140 174q39 45 84 45z" />
    <glyph glyph-name="tildecomb" unicode="&#x303;" 
d="M623 1421q-13 -42 -26 -73.5t-33.5 -63.5t-49 -49.5t-63.5 -17.5q-32 0 -63 18t-51 39t-44.5 39t-46.5 18q-31 0 -55.5 -22.5t-51.5 -71.5l-37 16q17 46 29.5 74.5t34.5 62.5t50 51t63 17q32 0 62.5 -18t50 -39.5t44.5 -39.5t47 -18q30 0 52.5 22t50.5 73z" />
    <glyph glyph-name="uni0304" unicode="&#x304;" 
d="M102 1319h416v-82h-416v82z" />
    <glyph glyph-name="uni0306" unicode="&#x306;" 
d="M313 1167q-109 0 -160 75.5t-51 203.5h41q0 -152 170 -152q87 0 129.5 39.5t42.5 112.5h41q0 -128 -52 -203.5t-161 -75.5z" />
    <glyph glyph-name="uni0307" unicode="&#x307;" 
d="M182 1198q-49 0 -80.5 31.5t-31.5 79.5q0 49 31 80.5t81 31.5t82.5 -31.5t32.5 -80.5q0 -47 -33 -79t-82 -32z" />
    <glyph glyph-name="uni0308" unicode="&#x308;" 
d="M496 1196q-50 0 -82.5 32t-32.5 81q0 47 33 78.5t82 31.5q47 0 79.5 -31.5t32.5 -78.5q0 -49 -32 -81t-80 -32zM70 1309q0 48 31.5 79t80.5 31t82 -31.5t33 -78.5q0 -49 -32.5 -81t-82.5 -32q-49 0 -80.5 31.5t-31.5 81.5z" />
    <glyph glyph-name="uni030A" unicode="&#x30a;" 
d="M207 1155q-66 0 -108 40.5t-42 100.5q0 57 42 97.5t108 40.5q64 0 105.5 -40.5t41.5 -97.5q0 -60 -41 -100.5t-106 -40.5zM100 1296q0 -43 29 -73.5t78 -30.5q48 0 77 30.5t29 73.5q0 42 -29 72.5t-77 30.5q-49 0 -78 -30.5t-29 -72.5z" />
    <glyph glyph-name="uni030B" unicode="&#x30b;" 
d="M219 1405l-147 -256l-27 10l33 203q7 39 31 54t52 10.5t58 -21.5zM229 1159l33 203q7 39 30.5 54t51 10.5t57.5 -21.5l-145 -256z" />
    <glyph glyph-name="uni030C" unicode="&#x30c;" 
d="M326 1167q-47 0 -84 45l-140 172l27 27l197 -125l200 125l27 -27l-143 -172q-37 -45 -84 -45z" />
    <glyph glyph-name="uni0312" unicode="&#x312;" 
d="M221 1157q-47 0 -83 35t-36 98q0 71 48 121.5t131 79.5l16 -37q-88 -36 -88 -82q0 -20 16.5 -34.5t36.5 -22t36.5 -26t16.5 -46.5q0 -40 -27 -63t-67 -23z" />
    <glyph glyph-name="uni0326" unicode="&#x326;" 
d="M197 -123q47 0 82.5 -35t35.5 -98q0 -139 -178 -201l-16 37q88 36 88 82q0 20 -16.5 34.5t-37 22t-37 26t-16.5 46.5q0 40 27.5 63t67.5 23z" />
    <glyph glyph-name="uni0327" unicode="&#x327;" 
d="M180 -90q185 -38 185 -178q0 -63 -43.5 -96t-112.5 -33q-24 0 -59.5 8t-57.5 8l-29 201h39q20 -110 39.5 -145t46.5 -35q45 0 45 67q0 121 -96 187v20l33 86h43z" />
    <glyph glyph-name="uni0328" unicode="&#x328;" 
d="M332 8q-67 -87 -100 -149.5t-33 -130.5q0 -39 18.5 -66t48.5 -27q38 0 63.5 36.5t45.5 119.5l37 -14q-24 -105 -68 -155t-121 -50q-71 0 -115.5 38.5t-44.5 110.5q0 46 20 88.5t60 80.5t75 64.5t89 61.5z" />
    <glyph glyph-name="uni0337" unicode="&#x337;" 
d="M51 623l385 206l21 -34l-385 -207z" />
    <glyph glyph-name="uni0338" unicode="&#x338;" 
d="M98 -205h-43l338 1434h43z" />
    <glyph glyph-name="uni0400" unicode="&#x400;" horiz-adv-x="757" 
d="M668 1434l39 -498h-41q-13 112 -23 185.5t-22.5 126.5t-23 80.5t-29.5 43t-36 18.5t-47 3h-168v-613h113q40 0 54 12.5t18.5 61t-4.5 145.5h41l39 -503h-41q-19 165 -29 196q-12 37 -42 44q-16 3 -42 3h-107v-698h183q29 0 45.5 3.5t35 19t29.5 44.5t24 82.5t23 129.5
t23 190h41l-37 -510h-633v20q37 10 52.5 23t22.5 44.5t7 98.5v1061q0 67 -7 98.5t-22.5 44.5t-52.5 23v21h617zM209 1622q0 31 11.5 54t35.5 36.5t66 5.5t96 -39l160 -92l-9 -26z" />
    <glyph glyph-name="uni0401" unicode="&#x401;" horiz-adv-x="757" 
d="M668 1434l39 -498h-41q-13 112 -23 185.5t-22.5 126.5t-23 80.5t-29.5 43t-36 18.5t-47 3h-168v-613h113q40 0 54 12.5t18.5 61t-4.5 145.5h41l39 -503h-41q-19 165 -29 196q-12 37 -42 44q-16 3 -42 3h-107v-698h183q29 0 45.5 3.5t35 19t29.5 44.5t24 82.5t23 129.5
t23 190h41l-37 -510h-633v20q37 10 52.5 23t22.5 44.5t7 98.5v1061q0 67 -7 98.5t-22.5 44.5t-52.5 23v21h617zM125 1677q0 48 32 79.5t81 31.5t81.5 -32t32.5 -79q0 -49 -32 -80.5t-82 -31.5t-81.5 31.5t-31.5 80.5zM436 1677q0 47 33 79t82 32q47 0 80 -32t33 -79
q0 -49 -32.5 -80.5t-80.5 -31.5q-50 0 -82.5 31.5t-32.5 80.5z" />
    <glyph glyph-name="uni0402" unicode="&#x402;" horiz-adv-x="1015" 
d="M631 37q43 7 69.5 41t43 129t16.5 258q0 97 -9 168.5t-23.5 112.5t-35.5 65.5t-41 32.5t-45 8q-56 0 -110 -47v-619q0 -67 6.5 -98.5t21.5 -44.5t51 -23v-20h-346v20q37 10 52.5 23t22.5 44.5t7 98.5v1207h-65q-55 0 -81.5 -28t-47 -115t-45.5 -289h-41l39 473h667
l37 -473h-41q-15 122 -27 195.5t-24.5 124.5t-31 73.5t-38.5 30.5t-53 8h-63v-545q75 51 180 51q126 0 205.5 -108.5t79.5 -337.5q0 -128 -24 -217.5t-70 -139t-101 -72t-127 -26.5z" />
    <glyph glyph-name="uni0403" unicode="&#x403;" horiz-adv-x="739" 
d="M51 0v20q37 10 52.5 23t22.5 44.5t7 98.5v1061q0 67 -7 98.5t-22.5 44.5t-52.5 23v21h633l37 -500h-41q-12 111 -23 187.5t-25.5 127.5t-27 80t-33.5 43t-38 17.5t-48 3.5h-168v-1207q0 -96 17.5 -124t79.5 -42v-20h-363zM193 1628l157 92q44 25 80.5 35t60.5 5.5
t40 -18.5t23 -34.5t7 -44.5l-362 -61z" />
    <glyph glyph-name="uni0404" unicode="&#x404;" horiz-adv-x="874" 
d="M51 748q0 187 31.5 325t90 219.5t135 120.5t173.5 39q50 0 111 -11t92 -11l37 -494h-41q-16 152 -35 247.5t-44.5 145t-52.5 66t-67 16.5q-103 0 -161.5 -154t-59.5 -477h338v-41h-338q3 -307 66 -481t166 -174q43 0 75.5 21.5t63.5 75t53.5 154t36.5 249.5l41 -4
q-16 -180 -43.5 -298.5t-69 -183.5t-91 -90.5t-118.5 -25.5q-179 0 -284 199t-105 567z" />
    <glyph glyph-name="uni0405" unicode="&#x405;" horiz-adv-x="684" 
d="M94 510q17 -146 41 -244t55.5 -150t64.5 -72.5t77 -20.5q125 0 125 176q0 26 -3.5 53.5t-7.5 49.5t-15 53.5t-16.5 49.5t-23.5 55t-24.5 51.5t-29.5 57t-29.5 53.5t-34 60t-33.5 59q-15 27 -48.5 85.5t-48 85.5t-38.5 75.5t-34.5 80t-19 72.5t-8.5 79q0 103 71.5 168
t202.5 65q46 0 125 -11t125 -11l39 -494h-41q-23 195 -53.5 299.5t-67.5 140t-96 35.5q-57 0 -87 -38.5t-30 -102.5q0 -25 4.5 -51.5t16 -58.5t21 -55.5t30.5 -65t33 -63.5t40.5 -73t41.5 -74q53 -87 83 -141.5t68 -134.5t56 -152.5t18 -142.5q0 -141 -72 -208.5t-202 -67.5
q-51 0 -140 11t-139 11l-37 506h41z" />
    <glyph glyph-name="uni0406" unicode="&#x406;" horiz-adv-x="448" 
d="M133 1247q0 67 -7 98.5t-22.5 44.5t-52.5 23v21h346v-21q-36 -10 -51 -23t-22 -44.5t-7 -98.5v-1061q0 -67 7 -98.5t22 -44.5t51 -23v-20h-346v20q37 10 52.5 23t22.5 44.5t7 98.5v1061z" />
    <glyph glyph-name="uni0407" unicode="&#x407;" horiz-adv-x="448" 
d="M133 1247q0 67 -7 98.5t-22.5 44.5t-52.5 23v21h346v-21q-36 -10 -51 -23t-22 -44.5t-7 -98.5v-1061q0 -67 7 -98.5t22 -44.5t51 -23v-20h-346v20q37 10 52.5 23t22.5 44.5t7 98.5v1061zM-43 1692q0 47 32 78.5t81 31.5t81.5 -31.5t32.5 -78.5q0 -49 -32 -81t-82 -32
t-81.5 31.5t-31.5 81.5zM268 1692q0 47 33 78.5t82 31.5q48 0 80.5 -31.5t32.5 -78.5q0 -49 -32.5 -81t-80.5 -32q-50 0 -82.5 32t-32.5 81z" />
    <glyph glyph-name="uni0408" unicode="&#x408;" horiz-adv-x="532" 
d="M72 516q29 -207 55.5 -317t49.5 -143t56 -33q64 0 64 110q0 48 -28.5 164.5t-28.5 202.5v747q0 67 -7 98.5t-22 44.5t-51 23v21h344v-21q-36 -10 -51 -23t-22 -44.5t-7 -98.5v-958q0 -75 -7 -126t-26.5 -94.5t-57 -65t-95.5 -21.5q-43 0 -92 17t-76 17l-39 500h41z" />
    <glyph glyph-name="uni0409" unicode="&#x409;" horiz-adv-x="1329" 
d="M98 -8l-94 303l37 14q44 -122 67.5 -162.5t53.5 -40.5q57 0 83 131t29 402l7 608q0 96 -13.5 124t-62.5 42v21h672v-21q-34 -10 -49 -23t-22 -45t-7 -98v-346q78 33 153 33q49 0 94 -14t88 -49t74.5 -88t50.5 -138t19 -192q0 -115 -20 -200.5t-52.5 -136.5t-80.5 -82
t-96 -41.5t-107 -10.5q-36 0 -124 8.5t-157 9.5h-102v20q34 10 48.5 23t20.5 44.5t6 98.5v1207h-290l-9 -772q-2 -91 -5 -157t-9.5 -135t-17 -116.5t-26.5 -91.5t-38 -70t-52 -42t-69 -17zM799 37q55 -14 96 -14q32 0 56.5 9t49 37.5t40 76t25 129.5t9.5 194q0 131 -14 220
t-40 131t-53 57.5t-63 15.5q-56 0 -106 -35v-821z" />
    <glyph glyph-name="uni040A" unicode="&#x40a;" horiz-adv-x="1329" 
d="M922 -18q-35 0 -122.5 8.5t-156.5 9.5h-108v20q37 10 52.5 23t22 44.5t6.5 98.5v516h-299v-516q0 -67 7 -98.5t22 -44.5t51 -23v-20h-346v20q37 10 52.5 23t22.5 44.5t7 98.5v1061q0 67 -7 98.5t-22.5 44.5t-52.5 23v21h346v-21q-36 -10 -51 -23t-22 -44.5t-7 -98.5v-504
h299v504q0 67 -6.5 98.5t-22 44.5t-52.5 23v21h346v-21q-36 -10 -51 -23t-22 -44.5t-7 -98.5v-346q78 33 151 33q49 0 94 -14t88 -49t74.5 -88t50.5 -138t19 -192q0 -115 -20 -200.5t-52.5 -136.5t-80.5 -82t-96 -41.5t-107 -10.5zM801 37q52 -14 94 -14q32 0 56.5 9
t49.5 37.5t40.5 76t25.5 129.5t10 194q0 131 -14.5 220t-40.5 131t-53 57.5t-62 15.5q-56 0 -106 -35v-821z" />
    <glyph glyph-name="uni040B" unicode="&#x40b;" horiz-adv-x="1081" 
d="M229 0v20q37 10 52.5 23t22.5 44.5t7 98.5v1207h-65q-55 0 -81.5 -27t-47 -111t-45.5 -280h-41l39 459h667l37 -459h-41q-12 99 -22 163t-21.5 113.5t-22.5 75t-28 42t-34.5 20.5t-45.5 4h-63v-660q118 144 249 144q216 0 216 -250v-441q0 -67 7.5 -98t24.5 -44.5
t58 -23.5v-20h-367v20q40 10 57 23t25 44.5t8 98.5v467q0 73 -22.5 107.5t-71.5 34.5q-79 0 -184 -117v-492q0 -67 6.5 -98.5t21.5 -44.5t51 -23v-20h-346z" />
    <glyph glyph-name="uni040C" unicode="&#x40c;" horiz-adv-x="954" 
d="M51 0v20q37 10 52.5 23t22.5 44.5t7 98.5v1061q0 67 -7 98.5t-22.5 44.5t-52.5 23v21h346v-21q-36 -10 -51 -23t-22 -44.5t-7 -98.5v-403h11q42 0 71.5 29.5t62.5 108t77 232.5q38 133 72.5 178.5t105.5 45.5q29 0 70 -7.5t63 -7.5l29 -309h-39q-18 115 -38.5 178
t-43.5 85t-56 22q-39 0 -63 -39.5t-55 -145.5q-53 -176 -87 -257.5t-73 -114.5q99 -3 161.5 -40.5t88.5 -137.5l127 -484q17 -62 35.5 -94.5t37.5 -44t56 -21.5v-20h-375v20q54 13 60.5 39t-17.5 121l-115 459q-12 50 -30.5 84t-39.5 49.5t-38.5 21t-38.5 5.5h-19v-613
q0 -67 7 -98.5t22 -44.5t51 -23v-20h-346zM303 1628l158 92q44 25 80.5 35t60.5 5.5t40 -18.5t23 -34.5t7 -44.5l-363 -61z" />
    <glyph glyph-name="uni040D" unicode="&#x40d;" horiz-adv-x="978" 
d="M51 0v20q39 10 55.5 23t23.5 44.5t7 98.5v1061q0 67 -7 98.5t-23.5 44.5t-55.5 23v21h357v-21q-38 -10 -54.5 -23t-24 -44.5t-7.5 -98.5v-1081l335 1268h271v-21q-39 -10 -55.5 -23t-23.5 -44.5t-7 -98.5v-1061q0 -67 7 -98.5t23.5 -44.5t55.5 -23v-20h-357v20
q38 10 54.5 23t24 44.5t7.5 98.5v1078l-335 -1264h-271zM299 1663q0 31 11.5 54t35.5 36.5t66 5.5t96 -39l160 -92l-9 -26z" />
    <glyph glyph-name="uni040F" unicode="&#x40f;" horiz-adv-x="950" 
d="M459 -297q-2 54 -5 89.5t-8.5 70t-14.5 55t-22 38t-32 26.5t-44 13.5t-59 4.5h-223v20q37 10 52.5 23t22.5 44.5t7 98.5v1061q0 67 -7 98.5t-22.5 44.5t-52.5 23v21h346v-21q-36 -10 -51 -23t-22 -44.5t-7 -98.5v-1206h316v1206q0 67 -7 98.5t-22 44.5t-51 23v21h344v-21
q-36 -10 -51 -23t-22 -44.5t-7 -98.5v-1061q0 -67 7 -98.5t22 -44.5t51 -23v-20h-225q-110 0 -143 -58t-42 -239h-28z" />
    <glyph glyph-name="uni0410" unicode="&#x410;" horiz-adv-x="876" 
d="M176 182q-9 -51 -10.5 -77t8.5 -44.5t29 -26t59 -14.5v-20h-242v20q54 14 75.5 42.5t39.5 119.5l203 1145l-10 59v21q65 0 98 8t66 37h20l229 -1270q18 -91 40 -119.5t75 -42.5v-20h-397v20q39 7 58 14.5t29.5 26t9 45t-10.5 76.5l-37 201h-297zM219 424h283l-144 790z
" />
    <glyph glyph-name="uni0411" unicode="&#x411;" horiz-adv-x="874" 
d="M434 -18q-37 0 -122 8.5t-152 9.5h-109v20q37 10 52.5 23t22.5 44.5t7 98.5v1061q0 67 -7 98.5t-22.5 44.5t-52.5 23v21h654l34 -469h-37q-21 196 -44 288t-49 116t-77 24h-208v-527q68 31 145 31q49 0 93 -14.5t85 -48.5t71 -86t48 -132.5t18 -181.5q0 -452 -350 -452z
M324 37q61 -14 86 -14q39 0 67 15.5t53.5 58t38.5 129.5t13 218q0 103 -10 180t-25 120t-37 69.5t-42 34.5t-44 8q-57 0 -100 -37v-782z" />
    <glyph glyph-name="uni0412" unicode="&#x412;" horiz-adv-x="821" 
d="M133 1247q0 67 -7 98.5t-22.5 44.5t-52.5 23v21h109q72 1 153.5 9.5t120.5 8.5q141 0 215 -81t74 -259q0 -263 -186 -330q237 -71 237 -405q0 -395 -338 -395q-42 0 -122.5 8.5t-153.5 9.5h-109v20q37 10 52.5 23t22.5 44.5t7 98.5v1061zM317 35q43 -12 78 -12
q90 0 134 78t44 272q0 389 -170 389q-38 0 -86 10v-737zM317 813q38 -10 68 -10q74 0 110.5 71t36.5 238q0 117 -17.5 184.5t-47 91t-76.5 23.5q-32 0 -74 -10v-588z" />
    <glyph glyph-name="uni0413" unicode="&#x413;" horiz-adv-x="739" 
d="M51 0v20q37 10 52.5 23t22.5 44.5t7 98.5v1061q0 67 -7 98.5t-22.5 44.5t-52.5 23v21h633l37 -500h-41q-12 111 -23 187.5t-25.5 127.5t-27 80t-33.5 43t-38 17.5t-48 3.5h-168v-1207q0 -96 17.5 -124t79.5 -42v-20h-363z" />
    <glyph glyph-name="uni0414" unicode="&#x414;" horiz-adv-x="942" 
d="M281 0q-54 0 -92.5 -12t-63.5 -32.5t-41.5 -60t-26 -83t-18.5 -113.5h-29l4 342h62q92 0 132.5 146.5t45.5 451.5l4 608q1 67 -6.5 98.5t-26 44.5t-61.5 23v21h715v-21q-62 -14 -79.5 -42t-17.5 -124v-1165q0 -22 10 -31.5t37 -9.5h93l4 -342h-31q-10 87 -22.5 137.5
t-38.5 91t-68.5 56.5t-110.5 16h-374zM172 41h426v1352h-295l-8 -772q-3 -242 -30 -383.5t-93 -196.5z" />
    <glyph glyph-name="uni0415" unicode="&#x415;" horiz-adv-x="757" 
d="M668 1434l39 -498h-41q-13 112 -23 185.5t-22.5 126.5t-23 80.5t-29.5 43t-36 18.5t-47 3h-168v-613h113q40 0 54 12.5t18.5 61t-4.5 145.5h41l39 -503h-41q-19 165 -29 196q-12 37 -42 44q-16 3 -42 3h-107v-698h183q29 0 45.5 3.5t35 19t29.5 44.5t24 82.5t23 129.5
t23 190h41l-37 -510h-633v20q37 10 52.5 23t22.5 44.5t7 98.5v1061q0 67 -7 98.5t-22.5 44.5t-52.5 23v21h617z" />
    <glyph glyph-name="uni0416" unicode="&#x416;" horiz-adv-x="1398" 
d="M526 0v20q36 10 51 23t22 44.5t7 98.5v613h-6q-38 0 -74.5 -34t-58.5 -126l-111 -459q-17 -69 -19 -96t9 -41t47 -23v-20h-368v20q38 10 56.5 21.5t36.5 44t34 94.5l114 455q26 104 87 152.5t165 54.5q-35 30 -63.5 94.5t-73.5 202.5q-49 163 -74 211.5t-65 48.5
q-50 0 -79.5 -58.5t-56.5 -226.5h-40l30 309q21 0 61.5 7.5t69.5 7.5q73 0 107.5 -51.5t83.5 -219.5q53 -185 91.5 -252t96.5 -71v403q0 67 -7 98.5t-22 44.5t-51 23v21h346v-21q-36 -10 -51 -23t-21.5 -44.5t-6.5 -98.5v-403q57 4 95.5 70.5t94.5 252.5q48 168 81.5 219.5
t106.5 51.5q29 0 69 -7.5t63 -7.5l30 -309h-39q-19 115 -39 177.5t-42.5 85t-55.5 22.5q-39 0 -62.5 -46.5t-76.5 -213.5q-43 -136 -71.5 -201.5t-65.5 -95.5q104 -6 163.5 -54.5t85.5 -152.5l117 -455q16 -62 34 -94.5t36.5 -44t56.5 -21.5v-20h-368v20q49 13 54.5 39
t-18.5 121l-108 459q-22 92 -59.5 126t-75.5 34h-6v-613q0 -67 6.5 -98.5t21.5 -44.5t51 -23v-20h-346z" />
    <glyph glyph-name="uni0417" unicode="&#x417;" horiz-adv-x="815" 
d="M385 -18q-63 0 -110 14t-91.5 53t-74.5 105.5t-50.5 175.5t-27.5 258l43 4q10 -197 42.5 -313t82 -160.5t125.5 -44.5q180 0 180 368q0 159 -34 252.5t-103 93.5q-56 0 -136 -67l-26 33q64 76 98 121t75.5 113.5t60 137.5t18.5 146q0 68 -23 103.5t-80 35.5
q-39 0 -68.5 -16.5t-60.5 -63t-56.5 -143.5t-43.5 -244h-41l41 467q29 0 121.5 20.5t152.5 20.5q117 0 178.5 -50t61.5 -161q0 -256 -238 -407q62 13 117 -3.5t99.5 -62.5t71 -133t26.5 -205q0 -215 -91 -331.5t-239 -116.5z" />
    <glyph glyph-name="uni0418" unicode="&#x418;" horiz-adv-x="978" 
d="M51 0v20q39 10 55.5 23t23.5 44.5t7 98.5v1061q0 67 -7 98.5t-23.5 44.5t-55.5 23v21h357v-21q-38 -10 -54.5 -23t-24 -44.5t-7.5 -98.5v-1081l335 1268h271v-21q-39 -10 -55.5 -23t-23.5 -44.5t-7 -98.5v-1061q0 -67 7 -98.5t23.5 -44.5t55.5 -23v-20h-357v20
q38 10 54.5 23t24 44.5t7.5 98.5v1078l-335 -1264h-271z" />
    <glyph glyph-name="uni0419" unicode="&#x419;" horiz-adv-x="978" 
d="M51 0v20q39 10 55.5 23t23.5 44.5t7 98.5v1061q0 67 -7 98.5t-23.5 44.5t-55.5 23v21h357v-21q-38 -10 -54.5 -23t-24 -44.5t-7.5 -98.5v-1081l335 1268h271v-21q-39 -10 -55.5 -23t-23.5 -44.5t-7 -98.5v-1061q0 -67 7 -98.5t23.5 -44.5t55.5 -23v-20h-357v20
q38 10 54.5 23t24 44.5t7.5 98.5v1078l-335 -1264h-271z" />
    <glyph glyph-name="uni041A" unicode="&#x41a;" horiz-adv-x="954" 
d="M51 0v20q37 10 52.5 23t22.5 44.5t7 98.5v1061q0 67 -7 98.5t-22.5 44.5t-52.5 23v21h346v-21q-36 -10 -51 -23t-22 -44.5t-7 -98.5v-403h11q42 0 71.5 29.5t62.5 108t77 232.5q38 133 72.5 178.5t105.5 45.5q29 0 70 -7.5t63 -7.5l29 -309h-39q-18 115 -38.5 178
t-43.5 85t-56 22q-39 0 -63 -39.5t-55 -145.5q-53 -176 -87 -257.5t-73 -114.5q99 -3 161.5 -40.5t88.5 -137.5l127 -484q17 -62 35.5 -94.5t37.5 -44t56 -21.5v-20h-375v20q54 13 60.5 39t-17.5 121l-115 459q-12 50 -30.5 84t-39.5 49.5t-38.5 21t-38.5 5.5h-19v-613
q0 -67 7 -98.5t22 -44.5t51 -23v-20h-346z" />
    <glyph glyph-name="uni041B" unicode="&#x41b;" horiz-adv-x="935" 
d="M100 -8l-96 303l37 14q43 -123 67 -163t54 -40q58 0 85 135t32 408l4 598q1 67 -7 98.5t-26.5 44.5t-61.5 23v21h695v-21q-38 -10 -54.5 -23t-24 -44.5t-7.5 -98.5v-1061q0 -67 7.5 -98.5t24 -44.5t54.5 -23v-20h-357v20q39 10 55.5 23t23.5 44.5t7 98.5v1207h-284
l-9 -764q-2 -90 -5 -156.5t-9.5 -136.5t-17 -118.5t-26.5 -93t-38.5 -71.5t-53 -43.5t-69.5 -17.5z" />
    <glyph glyph-name="uni041C" unicode="&#x41c;" horiz-adv-x="1193" 
d="M483 0l-243 1255l-66 -1069q-4 -68 1 -98.5t21.5 -44t57.5 -23.5v-20h-213v20q53 14 69.5 42.5t22.5 123.5l64 1061q4 68 -1 98.5t-20.5 44t-54.5 23.5v21h278l203 -1031l191 1031h272v-21q-39 -10 -54.5 -23.5t-20.5 -44t-1 -98.5l70 -1061q7 -95 24 -123.5t70 -42.5
v-20h-358v20q40 10 55 22t22 46.5t0 97.5l-69 1069l-234 -1255h-86z" />
    <glyph glyph-name="uni041D" unicode="&#x41d;" horiz-adv-x="931" 
d="M535 0v20q37 10 52.5 23t22 44.5t6.5 98.5v516h-299v-516q0 -67 7 -98.5t22 -44.5t51 -23v-20h-346v20q37 10 52.5 23t22.5 44.5t7 98.5v1061q0 67 -7 98.5t-22.5 44.5t-52.5 23v21h346v-21q-36 -10 -51 -23t-22 -44.5t-7 -98.5v-504h299v504q0 67 -6.5 98.5t-22 44.5
t-52.5 23v21h346v-21q-36 -10 -51 -23t-22 -44.5t-7 -98.5v-1061q0 -67 7 -98.5t22 -44.5t51 -23v-20h-346z" />
    <glyph glyph-name="uni041E" unicode="&#x41e;" horiz-adv-x="864" 
d="M432 -18q-177 0 -279 179.5t-102 555.5t102 555.5t279 179.5q176 0 278.5 -179t102.5 -556q0 -378 -102 -556.5t-279 -178.5zM260 717q0 -266 19 -419t55 -214t98 -61q63 0 99 61.5t54.5 213.5t18.5 419q0 268 -18.5 420t-54.5 213t-99 61q-62 0 -98 -61t-55 -214
t-19 -419z" />
    <glyph glyph-name="uni041F" unicode="&#x41f;" horiz-adv-x="933" 
d="M537 0v20q36 10 51 23t21.5 44.5t6.5 98.5v1207h-299v-1207q0 -67 7 -98.5t22 -44.5t51 -23v-20h-346v20q37 10 52.5 23t22.5 44.5t7 98.5v1061q0 67 -7 98.5t-22.5 44.5t-52.5 23v21h830v-21q-36 -10 -51 -23t-22 -44.5t-7 -98.5v-1061q0 -67 7 -98.5t22 -44.5t51 -23
v-20h-344z" />
    <glyph glyph-name="uni0420" unicode="&#x420;" horiz-adv-x="798" 
d="M51 0v20q37 10 52.5 23t22.5 44.5t7 98.5v1061q0 67 -7 98.5t-22.5 44.5t-52.5 23v21h109q72 1 148 9.5t112 8.5q57 0 103 -10.5t94 -41.5t80 -82.5t52.5 -139.5t20.5 -205q0 -111 -18 -200t-49 -148.5t-74 -99t-91 -57t-102 -17.5q-55 0 -119 20v-285q0 -67 9 -98.5
t28.5 -44.5t65.5 -23v-20h-369zM317 516q39 -24 80 -24q36 0 63.5 17.5t53 64t39.5 142.5t14 238q0 114 -10 197.5t-25.5 132.5t-39 78.5t-47.5 39t-54 9.5q-32 0 -74 -10v-885z" />
    <glyph glyph-name="uni0421" unicode="&#x421;" horiz-adv-x="792" 
d="M51 748q0 187 31.5 325t90 219.5t135 120.5t173.5 39q50 0 111 -11t92 -11l37 -494h-41q-16 152 -35 247.5t-44.5 145t-52.5 66t-67 16.5q-104 0 -162.5 -157t-58.5 -486q0 -319 64 -501.5t168 -182.5q43 0 75.5 21.5t63.5 75t53.5 154t36.5 249.5l41 -4
q-16 -180 -43.5 -298.5t-69 -183.5t-91 -90.5t-118.5 -25.5q-179 0 -284 199t-105 567z" />
    <glyph glyph-name="uni0422" unicode="&#x422;" horiz-adv-x="804" 
d="M737 1434l37 -498h-41q-12 108 -22 178t-21.5 124t-22.5 82.5t-28 46t-34.5 22t-45.5 4.5h-63v-1207q0 -67 6.5 -98.5t21.5 -44.5t51 -23v-20h-346v20q37 10 52.5 23t22.5 44.5t7 98.5v1207h-65q-55 0 -81.5 -29.5t-47 -121.5t-45.5 -306h-41l39 498h667z" />
    <glyph glyph-name="uni0423" unicode="&#x423;" horiz-adv-x="907" 
d="M285 -14q-31 0 -71.5 15t-68.5 15l-49 387h41q16 -105 32.5 -177.5t30 -110.5t31 -58t29 -24t29.5 -4q40 0 65 42.5t60 161.5l37 129h-48l-256 893q-18 62 -38 93.5t-41 43t-64 21.5v21h412v-21q-37 -7 -53.5 -14t-24 -25.5t-3 -44t18.5 -76.5l168 -643l187 645
q10 34 15 54t5.5 38t-3.5 27t-15.5 17.5t-26.5 12.5t-41 9v21h244v-21q-56 -15 -81.5 -42.5t-51.5 -115.5l-301 -1030q-15 -52 -26 -84.5t-26.5 -65.5t-31 -50t-36.5 -28t-48 -11z" />
    <glyph glyph-name="uni0424" unicode="&#x424;" horiz-adv-x="1146" 
d="M49 721q0 567 432 582q-3 64 -20.5 85.5t-67.5 34.5v21h359v-21q-50 -13 -66.5 -34t-19.5 -86q432 -15 432 -582t-432 -582q3 -71 19.5 -93.5t66.5 -35.5v-20h-359v20q50 13 67.5 36t20.5 93q-432 15 -432 582zM254 721q0 -265 53 -398t174 -145v1079v9
q-120 -12 -173.5 -145.5t-53.5 -399.5zM666 178q119 12 173 145.5t54 397.5q0 265 -54 399t-173 144v-7v-1079z" />
    <glyph glyph-name="uni0425" unicode="&#x425;" horiz-adv-x="876" 
d="M416 1434v-21q-67 -13 -74.5 -38.5t23.5 -117.5l143 -442l154 442q33 92 25 117.5t-75 38.5v21h234v-21q-55 -15 -83 -42.5t-58 -113.5l-177 -505l189 -576q29 -86 56.5 -113.5t82.5 -42.5v-20h-395v20q67 13 74.5 38.5t-23.5 117.5l-145 445l-158 -445
q-34 -94 -27 -118.5t74 -37.5v-20h-236v20q58 15 86 42t58 114l182 510l-186 571q-20 60 -40.5 91.5t-40.5 43t-59 21.5v21h396z" />
    <glyph glyph-name="uni0426" unicode="&#x426;" horiz-adv-x="948" 
d="M618 1247q0 67 -6.5 98.5t-21.5 44.5t-51 23v21h344v-21q-36 -10 -51 -23t-22 -44.5t-7 -98.5v-1165q0 -22 10 -31.5t37 -9.5h78l4 -342h-29q-7 52 -12 83.5t-13.5 68t-18.5 56.5t-26 40.5t-38 30.5t-51 16t-68 6h-625v20q37 10 52.5 23t22.5 44.5t7 98.5v1061
q0 67 -7 98.5t-22.5 44.5t-52.5 23v21h346v-21q-36 -10 -51 -23t-22 -44.5t-7 -98.5v-1206h301v1206z" />
    <glyph glyph-name="uni0427" unicode="&#x427;" horiz-adv-x="892" 
d="M477 0v20q43 10 62 23t27.5 44.5t8.5 98.5v334q-83 -33 -161 -33q-318 -4 -318 316v444q0 95 -15 123.5t-67 42.5v21h348v-21q-36 -10 -51 -23t-21.5 -44.5t-6.5 -98.5v-491q0 -124 47.5 -175t118.5 -51q59 0 126 31v686q0 67 -6.5 98.5t-21.5 44.5t-51 23v21h344v-21
q-36 -10 -51 -23t-22 -44.5t-7 -98.5v-1061q0 -67 7 -98.5t22 -44.5t51 -23v-20h-363z" />
    <glyph glyph-name="uni0428" unicode="&#x428;" horiz-adv-x="1374" 
d="M51 0v20q37 10 52.5 23t22.5 44.5t7 98.5v1061q0 67 -7 98.5t-22.5 44.5t-52.5 23v21h346v-21q-36 -10 -51 -23t-22 -44.5t-7 -98.5v-1206h277v1206q0 67 -7 98.5t-22 44.5t-51 23v21h346v-21q-36 -10 -51 -23t-22 -44.5t-7 -98.5v-1206h277v1206q0 67 -7 98.5t-22 44.5
t-51 23v21h346v-21q-37 -10 -52.5 -23t-22.5 -44.5t-7 -98.5v-1061q0 -67 7 -98.5t22.5 -44.5t52.5 -23v-20h-1272z" />
    <glyph glyph-name="uni0429" unicode="&#x429;" horiz-adv-x="1388" 
d="M317 41h277v1206q0 67 -7 98.5t-22 44.5t-51 23v21h346v-21q-36 -10 -51 -23t-22 -44.5t-7 -98.5v-1206h277v1206q0 67 -7 98.5t-22 44.5t-51 23v21h346v-21q-37 -10 -52.5 -23t-22.5 -44.5t-7 -98.5v-1165q0 -22 10 -31.5t37 -9.5h80l4 -338h-29q-7 52 -12 82.5
t-13.5 66.5t-19 55.5t-26.5 40t-38 30.5t-51.5 16t-68.5 6h-1063v20q37 10 52.5 23t22.5 44.5t7 98.5v1061q0 67 -7 98.5t-22.5 44.5t-52.5 23v21h346v-21q-36 -10 -51 -23t-22 -44.5t-7 -98.5v-1206z" />
    <glyph glyph-name="uni042A" unicode="&#x42a;" horiz-adv-x="956" 
d="M573 -18q-34 0 -120.5 8.5t-155.5 9.5h-102v20q34 10 48.5 23t20.5 44.5t6 98.5v1207h-47q-50 0 -76 -20t-49 -99.5t-43 -245.5h-41l37 406h502v-21q-62 -14 -79 -42t-17 -124v-344q77 31 151 31q49 0 93 -14t86.5 -49t73.5 -88t50 -138t19 -192q0 -115 -20 -200.5
t-52.5 -136.5t-80.5 -82t-96.5 -41.5t-107.5 -10.5zM457 37q52 -14 94 -14q31 0 54.5 9t47.5 37.5t39.5 76t25 129.5t9.5 194q0 131 -14 220t-39.5 131t-52 57.5t-60.5 15.5q-54 0 -104 -35v-821z" />
    <glyph glyph-name="uni042B" unicode="&#x42b;" horiz-adv-x="1253" 
d="M430 -18q-34 0 -120.5 8.5t-155.5 9.5h-103v20q34 10 49 23t22 45t7 98v1061q0 66 -7 98t-22 45t-49 23v21h338v-21q-49 -14 -62.5 -42t-13.5 -124v-344q81 31 148 31q49 0 93 -14t86.5 -49t72.5 -88t48.5 -137.5t18.5 -192.5q0 -115 -20 -200.5t-51.5 -136.5t-79 -82
t-94.5 -41.5t-105 -10.5zM313 37q49 -14 95 -14q28 0 50.5 8.5t46 36.5t39.5 75t26 130t10 196q0 106 -10 184.5t-25 123.5t-38 72t-44 35.5t-47 8.5q-56 0 -103 -35v-821zM854 0v20q37 10 52.5 23t22.5 44.5t7 98.5v1061q0 67 -7 98.5t-22.5 44.5t-52.5 23v21h346v-21
q-36 -10 -51 -23t-22 -44.5t-7 -98.5v-1061q0 -67 7 -98.5t22 -44.5t51 -23v-20h-346z" />
    <glyph glyph-name="uni042C" unicode="&#x42c;" horiz-adv-x="831" 
d="M430 -18q-34 0 -120.5 8.5t-155.5 9.5h-103v20q34 10 49 23t22 45t7 98v1061q0 66 -7 98t-22 45t-49 23v21h338v-21q-49 -14 -62.5 -42t-13.5 -124v-344q81 31 148 31q49 0 93 -14t86.5 -49t72.5 -88t48.5 -137.5t18.5 -192.5q0 -115 -20 -200.5t-51.5 -136.5t-79 -82
t-94.5 -41.5t-105 -10.5zM313 37q49 -14 95 -14q28 0 50.5 8.5t46 36.5t39.5 75t26 130t10 196q0 106 -10 184.5t-25 123.5t-38 72t-44 35.5t-47 8.5q-56 0 -103 -35v-821z" />
    <glyph glyph-name="uni042D" unicode="&#x42d;" horiz-adv-x="874" 
d="M823 748q0 -368 -105 -567t-284 -199q-55 0 -96.5 15.5t-79 55t-64.5 106.5t-47.5 171.5t-33.5 249.5l41 4q14 -149 36.5 -249.5t53.5 -154t63.5 -75t75.5 -21.5q103 0 165.5 174t65.5 481h-340v41h340q-1 323 -59.5 477t-161.5 154q-40 0 -67 -16.5t-52 -66t-44 -145
t-35 -247.5h-41l36 494q31 0 92 11t111 11q97 0 173.5 -39t135 -120.5t90 -219.5t31.5 -325z" />
    <glyph glyph-name="uni042E" unicode="&#x42e;" horiz-adv-x="1284" 
d="M860 -18q-83 0 -149.5 41t-116.5 125.5t-77 225t-28 328.5h-172v-516q0 -67 7 -98.5t22 -44.5t51 -23v-20h-346v20q37 10 52.5 23t22.5 44.5t7 98.5v1061q0 67 -7 98.5t-22.5 44.5t-52.5 23v21h346v-21q-36 -10 -51 -23t-22 -44.5t-7 -98.5v-504h172q4 363 102.5 536
t268.5 173q174 0 273.5 -178.5t99.5 -556.5t-99 -556.5t-274 -178.5zM694 717q0 -267 17.5 -419t52.5 -213.5t96 -61.5t97 61.5t53.5 213t17.5 419.5q0 269 -17.5 420.5t-53 212.5t-97.5 61q-61 0 -96 -61.5t-52.5 -213.5t-17.5 -419z" />
    <glyph glyph-name="uni042F" unicode="&#x42f;" horiz-adv-x="849" 
d="M453 0v20q36 10 51 23t21.5 44.5t6.5 98.5v506q-44 -8 -88 -8q-61 0 -83.5 -65.5t-30.5 -245.5q-9 -218 -49.5 -304.5t-135.5 -86.5q-78 0 -105 49t-32 172l41 4q6 -90 14 -115.5t29 -25.5q30 0 38.5 54.5t16.5 256.5q8 159 50.5 232.5t140.5 95.5q-92 36 -144.5 134
t-52.5 248q0 197 72.5 281t206.5 84q29 0 111 -8.5t159 -9.5h107v-21q-36 -10 -51 -23t-22 -44.5t-7 -98.5v-1061q0 -67 7 -98.5t22 -44.5t51 -23v-20h-344zM328 1085q0 -360 131 -360q37 0 73 10v666q-36 10 -71 10q-133 0 -133 -326z" />
    <glyph glyph-name="uni0430" unicode="&#x430;" horiz-adv-x="841" 
d="M590 -16q-58 0 -58 71v88q-63 -161 -204 -161q-116 0 -191.5 100.5t-75.5 304.5q0 206 75.5 306t193.5 100q143 0 202 -160v63q0 171 -33.5 238t-113.5 67q-151 0 -240 -194h-43l74 205q36 0 116.5 15t129.5 15q137 0 213 -83t76 -257v-489q0 -101 12 -119t78 0l10 -18
l-133 -66q-53 -26 -88 -26zM250 387q0 -156 35.5 -237.5t103.5 -81.5q65 0 104 80.5t39 238.5q0 159 -39 239.5t-102 80.5q-69 0 -105 -81.5t-36 -238.5z" />
    <glyph glyph-name="uni0431" unicode="&#x431;" horiz-adv-x="811" 
d="M403 -18q-175 0 -258 138t-84 458q-2 94 -0.5 180t5.5 163t15 143.5t27 121.5t42 98t61 72.5t82.5 45t107.5 15.5q30 0 111.5 -8t103.5 -8q53 0 80.5 20t36.5 70l39 -8q-19 -120 -74.5 -175t-167.5 -55q-28 0 -90 7.5t-94 7.5q-63 0 -103.5 -17.5t-72.5 -66t-48 -139
t-20 -232.5q34 99 111.5 151t192.5 52q170 0 256 -125t86 -393t-86.5 -392t-258.5 -124zM256 498q0 -182 17.5 -288t49.5 -146.5t83 -40.5q50 0 81 40.5t48.5 146.5t17.5 288t-17.5 288.5t-48.5 147.5t-81 41q-51 0 -83 -41t-49.5 -147.5t-17.5 -288.5z" />
    <glyph glyph-name="uni0432" unicode="&#x432;" horiz-adv-x="821" 
d="M408 -14q-47 0 -125 6.5t-144 7.5h-108v20q37 10 52.5 23t22.5 44.5t7 98.5v652q0 67 -7 98.5t-22.5 44.5t-52.5 23v20h108q65 1 141.5 7.5t118.5 6.5q146 0 219.5 -57.5t73.5 -183.5q0 -104 -57 -163t-156 -75q129 -21 194.5 -92.5t65.5 -202.5q0 -81 -25 -137t-72 -86
t-103 -42.5t-131 -12.5zM291 35q47 -8 88 -8q89 0 131.5 53t42.5 184q0 141 -43.5 209t-132.5 68q-43 0 -86 6v-512zM291 584q37 -6 69 -6q79 0 119.5 49.5t40.5 167.5t-36.5 161t-112.5 43q-22 0 -80 -8v-407z" />
    <glyph glyph-name="uni0433" unicode="&#x433;" horiz-adv-x="679" 
d="M31 0v20q37 10 52.5 23t22.5 44.5t7 98.5v652q0 67 -7 98.5t-22.5 44.5t-52.5 23v20h579l37 -479h-41q-11 107 -21 179t-22.5 122t-23 76.5t-28.5 40.5t-32.5 17t-42.5 3h-145v-797q0 -67 7 -98.5t22 -44.5t51 -23v-20h-340z" />
    <glyph glyph-name="uni0434" unicode="&#x434;" horiz-adv-x="880" 
d="M80 41q87 0 127 140.5t45 408.5l4 248q0 67 -8 98.5t-26 44.5t-60 23v20h667v-20q-40 -10 -57 -23t-25 -44.5t-8 -98.5v-756q0 -16 11 -28.5t36 -12.5h80l4 -338h-28q-8 68 -17.5 111t-26 82t-42 60t-64 32.5t-92.5 11.5h-305q-54 0 -92.5 -11.5t-64 -32.5t-42 -60
t-26 -82t-17.5 -111h-28l4 338h51zM174 41h387v942h-260l-10 -414q-5 -216 -29.5 -345.5t-87.5 -182.5z" />
    <glyph glyph-name="uni0435" unicode="&#x435;" horiz-adv-x="731" 
d="M61 524q0 245 88 381.5t242 136.5q131 0 205 -104t74 -289h-414v-45q0 -115 11 -209t34.5 -166.5t62.5 -112.5t91 -40q64 0 116.5 72.5t79.5 244.5l41 -4q-16 -117 -45.5 -199t-70.5 -126t-86.5 -63t-100.5 -19q-159 0 -243.5 140.5t-84.5 401.5zM258 690h236
q0 163 -26.5 237t-78.5 74q-62 0 -93.5 -79t-37.5 -232z" />
    <glyph glyph-name="uni0436" unicode="&#x436;" horiz-adv-x="1251" 
d="M457 0v20q36 10 51 23t22 44.5t7 98.5v371h-5q-85 0 -129 -151l-65 -228q-27 -94 -22 -119.5t57 -38.5v-20h-365v20q55 15 81.5 42.5t55.5 115.5l82 260q29 88 83 122.5t139 39.5q-43 41 -97 176q-57 144 -69 167q-37 50 -76 54q-46 0 -73.5 -66.5t-49.5 -252.5h-41
l35 348q20 0 54.5 6t62.5 6q39 0 64 -10.5t45 -38.5t36 -64.5t40 -100.5q3 -10 5 -15.5t5.5 -14t6.5 -16.5q37 -100 65 -136t75 -40v236q0 67 -7 98.5t-22 44.5t-51 23v20h338v-20q-36 -10 -51 -23t-22 -44.5t-7 -98.5v-236q48 4 75 38.5t66 137.5q57 153 77 187
q33 59 86 70q17 3 38 3q28 0 62.5 -6t54.5 -6l36 -348h-41q-24 186 -51.5 252.5t-73.5 66.5q-41 0 -64 -36.5t-68 -151.5q-3 -7 -4.5 -11t-4 -10.5t-4.5 -11.5q-54 -137 -96 -176q55 -3 93.5 -16t74 -49t55.5 -97l82 -260q27 -88 53.5 -115.5t81.5 -42.5v-20h-364v20
q38 9 49.5 23t8 40t-23.5 95l-65 228q-44 151 -127 151h-6v-371q0 -67 7 -98.5t22 -44.5t51 -23v-20h-338z" />
    <glyph glyph-name="uni0437" unicode="&#x437;" horiz-adv-x="673" 
d="M342 -16q-153 0 -227.5 96.5t-89.5 302.5l38 8q18 -178 71.5 -253t139.5 -75q91 0 131.5 67t40.5 196q0 239 -133 239q-52 0 -118 -39l-25 23q54 47 90.5 84t72 83.5t53 96t17.5 102.5q0 101 -94 101q-27 0 -48 -7t-43.5 -28.5t-40.5 -59t-36 -102t-32 -153.5h-41l38 352
q29 0 109.5 14.5t136.5 14.5q232 0 232 -164q0 -98 -62 -168.5t-160 -110.5q130 16 206.5 -56.5t76.5 -236.5q0 -88 -24.5 -153t-67.5 -102t-95.5 -54.5t-115.5 -17.5z" />
    <glyph glyph-name="uni0438" unicode="&#x438;" horiz-adv-x="851" 
d="M31 0v20q37 10 52.5 23t22.5 44.5t7 98.5v652q0 67 -7 98.5t-22.5 44.5t-52.5 23v20h340v-20q-36 -10 -51 -23t-22 -44.5t-7 -98.5v-701l270 887h260v-20q-36 -10 -51 -23t-22 -44.5t-7 -98.5v-652q0 -67 7 -98.5t22 -44.5t51 -23v-20h-340v20q36 10 51 23t22 44.5
t7 98.5v705l-270 -885v-6h-260z" />
    <glyph glyph-name="uni0439" unicode="&#x439;" horiz-adv-x="851" 
d="M31 0v20q37 10 52.5 23t22.5 44.5t7 98.5v652q0 67 -7 98.5t-22.5 44.5t-52.5 23v20h340v-20q-36 -10 -51 -23t-22 -44.5t-7 -98.5v-701l270 887h260v-20q-36 -10 -51 -23t-22 -44.5t-7 -98.5v-652q0 -67 7 -98.5t22 -44.5t51 -23v-20h-340v20q36 10 51 23t22 44.5
t7 98.5v705l-270 -885v-6h-260zM119 1362l178 20q0 -198 121 -198q59 0 93 48.5t34 149.5l176 -20q0 -92 -81 -148.5t-222 -56.5q-143 0 -221 56t-78 149z" />
    <glyph glyph-name="uni043A" unicode="&#x43a;" horiz-adv-x="835" 
d="M31 0v20q36 10 51 23t22 44.5t7 98.5v652q0 67 -7 98.5t-22 44.5t-51 23v20h336v-20q-34 -10 -49 -23t-22 -45t-7 -98v-236q58 0 86.5 32t68.5 142q58 154 75 185q33 60 82 72q19 5 44 5t59 -6t54 -6l35 -348h-41q-23 187 -49 253t-72 66q-41 0 -63.5 -36t-65.5 -151
q-8 -22 -13 -34q-30 -75 -50 -114t-44 -62q37 -2 66 -9t57.5 -23.5t50.5 -48t37 -77.5l86 -264q27 -88 53.5 -115.5t81.5 -42.5v-20h-364v20q52 13 57 38.5t-22 119.5l-66 228q-27 92 -60 121.5t-79 29.5h-4v-371q0 -66 7 -98t22 -45t49 -23v-20h-336z" />
    <glyph glyph-name="uni043B" unicode="&#x43b;" horiz-adv-x="894" 
d="M119 -8l-109 289l37 14q56 -118 79.5 -153.5t51.5 -35.5q112 0 115 517l2 215q1 67 -6.5 98.5t-24.5 44.5t-57 23v20h657v-20q-41 -10 -58 -23.5t-24.5 -44.5t-7.5 -98v-652q0 -67 7.5 -98t24.5 -44.5t58 -23.5v-20h-358v20q40 10 57 23t25 44.5t8 98.5v797h-256l-6 -375
q-1 -87 -3.5 -152.5t-9 -132t-16.5 -114t-26 -90t-38.5 -69t-52.5 -42t-69 -16.5z" />
    <glyph glyph-name="uni043C" unicode="&#x43c;" horiz-adv-x="919" 
d="M31 0v20q37 10 52.5 23t22.5 44.5t7 98.5v652q0 67 -7 98.5t-22.5 44.5t-52.5 23v20h235l193 -639l194 639h236v-20q-36 -10 -51 -23t-22 -44.5t-7 -98.5v-652q0 -67 7 -98.5t22 -44.5t51 -23v-20h-338v20q36 10 51 23t22 44.5t7 98.5v619l-225 -711h-37l-217 711v-619
q0 -67 6.5 -98.5t21.5 -44.5t51 -23v-20h-200z" />
    <glyph glyph-name="uni043D" unicode="&#x43d;" horiz-adv-x="858" 
d="M485 0v20q36 10 51 23t22 44.5t7 98.5v326h-274v-326q0 -67 7 -98.5t22 -44.5t51 -23v-20h-340v20q37 10 52.5 23t22.5 44.5t7 98.5v652q0 67 -7 98.5t-22.5 44.5t-52.5 23v20h340v-20q-36 -10 -51 -23t-22 -44.5t-7 -98.5v-285h274v285q0 67 -7 98.5t-22 44.5t-51 23v20
h340v-20q-36 -10 -51 -23t-22 -44.5t-7 -98.5v-652q0 -67 7 -98.5t22 -44.5t51 -23v-20h-340z" />
    <glyph glyph-name="uni043E" unicode="&#x43e;" horiz-adv-x="802" 
d="M401 -18q-346 0 -346 530t346 530q347 0 347 -530t-347 -530zM250 512q0 -186 15.5 -292.5t47.5 -151.5t88 -45t88.5 45t48 151.5t15.5 292.5q0 187 -15.5 293.5t-48 151t-88.5 44.5q-54 0 -86.5 -45t-48.5 -152t-16 -292z" />
    <glyph glyph-name="uni043F" unicode="&#x43f;" horiz-adv-x="854" 
d="M823 1024v-20q-36 -10 -51 -23t-22 -44.5t-7 -98.5v-652q0 -67 7 -98.5t22 -44.5t51 -23v-20h-340v20q36 10 51 23t22 44.5t7 98.5v797h-272v-797q0 -67 7 -98.5t22 -44.5t51 -23v-20h-340v20q37 10 52.5 23t22.5 44.5t7 98.5v652q0 67 -7 98.5t-22.5 44.5t-52.5 23v20
h792z" />
    <glyph glyph-name="uni0440" unicode="&#x440;" horiz-adv-x="821" 
d="M115 807q0 67 -8 98.5t-25 44.5t-57 23v20h120q84 6 127 49h21v-122q43 61 93 91.5t118 30.5q118 0 187 -130t69 -375q0 -256 -79 -405.5t-208 -149.5q-64 0 -107.5 28t-72.5 88v-321q0 -67 8 -98.5t25 -44.5t57 -23v-21h-358v21q40 10 57 23t25 44.5t8 98.5v1030z
M293 350q3 -142 40.5 -221.5t92.5 -79.5q48 0 78 44t45.5 147.5t15.5 275.5q0 245 -31.5 345t-103.5 100q-35 0 -67 -22t-70 -73v-516z" />
    <glyph glyph-name="uni0441" unicode="&#x441;" horiz-adv-x="716" 
d="M61 524q0 242 93 380t258 138q45 0 104 -14t88 -14l37 -348h-41q-15 106 -33.5 176t-41.5 103t-44 44.5t-49 11.5q-59 0 -99 -56t-58.5 -151t-18.5 -225q0 -103 10 -188.5t31.5 -155.5t59.5 -109.5t89 -39.5q145 0 189 317l41 -4q-16 -115 -44.5 -195.5t-67.5 -126
t-83.5 -65.5t-99.5 -20q-156 0 -238 138.5t-82 403.5z" />
    <glyph glyph-name="uni0442" unicode="&#x442;" horiz-adv-x="753" 
d="M8 559l51 465h637l49 -465h-40q-15 103 -28 173t-27.5 118t-25.5 74t-30 39.5t-34.5 16.5t-43.5 3h-49v-797q0 -96 17 -124t79 -42v-20h-373v20q62 14 79.5 42t17.5 124v797h-47q-29 0 -44.5 -3t-34.5 -16.5t-30 -39t-25.5 -74t-27.5 -118t-29 -173.5h-41z" />
    <glyph glyph-name="uni0443" unicode="&#x443;" horiz-adv-x="837" 
d="M293 -444q-30 0 -69.5 15t-67.5 15l-43 387h41q19 -128 37 -208t36.5 -114.5t32.5 -44t35 -9.5q36 0 60.5 49.5t54.5 179.5l36 156h-69l-227 862q-17 63 -35.5 94.5t-37.5 43.5t-57 22v20h398v-20q-40 -7 -58.5 -14t-27.5 -25.5t-5.5 -44t15.5 -76.5l158 -635l151 635
q12 51 15.5 76.5t-5.5 44t-27.5 25.5t-58.5 14v20h242v-20q-38 -10 -57 -22t-36 -43.5t-32 -94.5l-243 -1024q-15 -60 -24 -93t-23 -71t-28 -56.5t-34.5 -31t-46.5 -12.5z" />
    <glyph glyph-name="uni0444" unicode="&#x444;" horiz-adv-x="1069" 
d="M446 1249q0 67 -8 98t-25 44t-57 24v21h359v-21q-59 -15 -74.5 -42.5t-15.5 -123.5v-207q193 -5 292 -133.5t99 -396.5q0 -269 -98.5 -397t-292.5 -133v-205q0 -67 7.5 -98t24.5 -44.5t58 -23.5v-21h-359v21q40 10 57 23t25 44.5t8 98.5v205q-194 5 -292.5 134t-98.5 396
t98.5 396t292.5 134v207zM240 512q0 -473 206 -492v984q-206 -20 -206 -492zM625 20q204 20 204 492t-204 492v-984z" />
    <glyph glyph-name="uni0445" unicode="&#x445;" horiz-adv-x="772" 
d="M416 1024v-20q-73 -13 -81.5 -37.5t25.5 -116.5l93 -254l96 254q16 41 22 62t8 39.5t-8.5 26.5t-26 14t-46.5 12v20h243v-20q-57 -15 -85.5 -41.5t-61.5 -112.5l-121 -311l133 -365q30 -85 58 -112t84 -42v-20h-394v20q73 13 81.5 37.5t-25.5 116.5l-95 258l-96 -258
q-36 -92 -28 -116.5t81 -37.5v-20h-243v20q56 15 84 41.5t61 112.5l121 318l-129 358q-31 85 -59 112t-82 42v20h391z" />
    <glyph glyph-name="uni0446" unicode="&#x446;" horiz-adv-x="884" 
d="M31 0v20q37 10 52.5 23t22.5 44.5t7 98.5v652q0 67 -7 98.5t-22.5 44.5t-52.5 23v20h340v-20q-36 -10 -51 -23t-22 -44.5t-7 -98.5v-797h272v797q0 67 -7 98.5t-22 44.5t-51 23v20h340v-20q-36 -10 -51 -23t-22 -44.5t-7 -98.5v-756q0 -22 9.5 -31.5t35.5 -9.5h80l4 -338
h-28q-7 51 -12 82t-13.5 66.5t-19 55.5t-27 40.5t-38.5 30.5t-51.5 16t-68.5 6h-583z" />
    <glyph glyph-name="uni0447" unicode="&#x447;" horiz-adv-x="831" 
d="M354 354q-258 0 -258 281v203q0 67 -7 98.5t-22 44.5t-51 23v20h338v-20q-36 -10 -51 -23t-22 -44.5t-7 -98.5v-220q0 -116 40 -168.5t102 -52.5q71 0 127 41v400q0 67 -7 98.5t-22.5 44.5t-52.5 23v20h340v-20q-36 -10 -51 -23t-22 -44.5t-7 -98.5v-652q0 -67 7 -98.5
t22 -44.5t51 -23v-20h-348v20q40 10 57 23t25 44.5t8 98.5v207q-86 -39 -189 -39z" />
    <glyph glyph-name="uni0448" unicode="&#x448;" horiz-adv-x="1269" 
d="M31 0v20q37 10 52.5 23t22.5 44.5t7 98.5v652q0 67 -7 98.5t-22.5 44.5t-52.5 23v20h340v-20q-36 -10 -51 -23t-22 -44.5t-7 -98.5v-797h254v797q0 67 -7 98.5t-22 44.5t-51 23v20h340v-20q-36 -10 -51 -23t-22 -44.5t-7 -98.5v-797h254v797q0 67 -7 98.5t-22 44.5
t-51 23v20h338v-20q-36 -10 -51 -23t-22 -44.5t-7 -98.5v-652q0 -67 7 -98.5t22 -44.5t51 -23v-20h-1206z" />
    <glyph glyph-name="uni0449" unicode="&#x449;" horiz-adv-x="1298" 
d="M68 0v12q29 9 37 27t8 78v790q0 60 -8 78t-37 27v12h266v-12q-28 -9 -35.5 -26.5t-7.5 -78.5v-866h254v866q0 60 -8 78t-37 27v12h268v-12q-28 -9 -35.5 -26.5t-7.5 -78.5v-866h254v866q0 60 -8 78t-37 27v12h266v-12q-27 -9 -35 -27t-8 -78v-825q0 -22 10 -31.5t37 -9.5
h80l4 -338h-28q-7 51 -12 82t-13.5 66.5t-19 55.5t-27 40.5t-38.5 30.5t-51.5 16t-68.5 6h-962z" />
    <glyph glyph-name="uni044A" unicode="&#x44a;" horiz-adv-x="917" 
d="M551 -18q-38 0 -124 8.5t-159 9.5h-59v12q29 9 37 27t8 78v866h-35q-33 0 -53 -7t-37.5 -25.5t-30 -59.5t-24 -98.5t-25.5 -153.5h-41l41 385h438v-12q-35 -9 -45 -27t-10 -78v-239q69 30 148 30q63 0 116.5 -19.5t97.5 -60.5t69.5 -112t25.5 -166q0 -86 -19.5 -151
t-51 -103.5t-77 -62.5t-91 -32.5t-99.5 -8.5zM432 37q61 -14 92 -14q37 0 64.5 12t54 45t41 102.5t14.5 173.5q0 301 -159 301q-61 0 -107 -34v-586z" />
    <glyph glyph-name="uni044B" unicode="&#x44b;" horiz-adv-x="1181" 
d="M408 -18q-37 0 -123 8.5t-158 9.5h-59v12q29 9 37 27t8 78v790q0 60 -8 78t-37 27v12h276v-12q-34 -9 -43.5 -27t-9.5 -78v-239q62 30 145 30q62 0 115.5 -19.5t98 -60.5t70 -112t25.5 -166q0 -86 -19.5 -151t-51 -103.5t-77 -62.5t-90.5 -32.5t-99 -8.5zM291 37
q61 -14 92 -14q28 0 50.5 6.5t46 27.5t39.5 56.5t26 97t10 145.5q0 301 -164 301q-54 0 -100 -34v-586zM793 0v20q40 10 57 23t25 44.5t8 98.5v621q0 67 -8 98.5t-25 44.5t-57 23v20h120q87 7 127 49h21v-856q0 -67 8 -98.5t25 -44.5t57 -23v-20h-358z" />
    <glyph glyph-name="uni044C" unicode="&#x44c;" horiz-adv-x="774" 
d="M408 -18q-37 0 -123 8.5t-158 9.5h-59v12q29 9 37 27t8 78v790q0 60 -8 78t-37 27v12h276v-12q-34 -9 -43.5 -27t-9.5 -78v-239q62 30 145 30q62 0 115.5 -19.5t98 -60.5t70 -112t25.5 -166q0 -86 -19.5 -151t-51 -103.5t-77 -62.5t-90.5 -32.5t-99 -8.5zM291 37
q61 -14 92 -14q28 0 50.5 6.5t46 27.5t39.5 56.5t26 97t10 145.5q0 301 -164 301q-54 0 -100 -34v-586z" />
    <glyph glyph-name="uni044D" unicode="&#x44d;" horiz-adv-x="716" 
d="M655 524q0 -265 -81.5 -403.5t-237.5 -138.5q-55 0 -99.5 20t-83.5 65.5t-67.5 126t-44.5 195.5l41 4q44 -317 188 -317q64 0 107 63.5t62 160.5t22 226h-281v41h281v2q0 130 -18.5 225t-58.5 151t-99 56q-28 0 -49 -11.5t-44 -44.5t-41.5 -103t-33.5 -176h-41l37 348
q29 0 88 14t104 14q165 0 257.5 -138t92.5 -380z" />
    <glyph glyph-name="uni044E" unicode="&#x44e;" horiz-adv-x="1196" 
d="M799 -18q-342 0 -342 530h-152v-326q0 -96 17 -124t79 -42v-20h-370v20q62 14 79 42t17 124v652q0 96 -17 124t-79 42v20h370v-20q-62 -14 -79 -42t-17 -124v-285h152q14 489 342 489q342 0 342 -530t-342 -530zM653 512q0 -186 15 -292.5t46.5 -151.5t84.5 -45
q52 0 83 45t46.5 152t15.5 292q0 186 -15.5 293t-46 151.5t-83.5 44.5q-52 0 -83.5 -45t-47 -152t-15.5 -292z" />
    <glyph glyph-name="uni044F" unicode="&#x44f;" horiz-adv-x="813" 
d="M442 0v20q36 10 51 23t22 44.5t7 98.5v301q-44 -13 -121 -16q-47 -8 -64 -54t-24 -147q-10 -153 -45.5 -220.5t-122.5 -67.5q-77 0 -108 50.5t-39 170.5l41 4q5 -59 12 -90.5t14.5 -40t20.5 -8.5q25 0 34 36t15 156q12 98 47 150.5t105 72.5q-176 49 -176 279
q0 152 75.5 216t219.5 64q40 0 120.5 -8.5t147.5 -9.5h108v-20q-36 -10 -51 -23t-22 -44.5t-7 -98.5v-652q0 -67 7 -98.5t22 -44.5t51 -23v-20h-340zM289 758q0 -126 36.5 -186t110.5 -60q45 0 86 16v459q-39 14 -84 14q-149 0 -149 -243z" />
    <glyph glyph-name="uni0450" unicode="&#x450;" horiz-adv-x="731" 
d="M61 524q0 245 88 381.5t242 136.5q131 0 205 -104t74 -289h-414v-45q0 -115 11 -209t34.5 -166.5t62.5 -112.5t91 -40q64 0 116.5 72.5t79.5 244.5l41 -4q-16 -117 -45.5 -199t-70.5 -126t-86.5 -63t-100.5 -19q-159 0 -243.5 140.5t-84.5 401.5zM211 1253
q0 31 11.5 54.5t35.5 37t66 5.5t96 -39l160 -92l-9 -27zM258 690h236q0 163 -26.5 237t-78.5 74q-62 0 -93.5 -79t-37.5 -232z" />
    <glyph glyph-name="uni0451" unicode="&#x451;" horiz-adv-x="731" 
d="M61 524q0 245 88 381.5t242 136.5q131 0 205 -104t74 -289h-414v-45q0 -115 11 -209t34.5 -166.5t62.5 -112.5t91 -40q64 0 116.5 72.5t79.5 244.5l41 -4q-16 -117 -45.5 -199t-70.5 -126t-86.5 -63t-100.5 -19q-159 0 -243.5 140.5t-84.5 401.5zM125 1309q0 47 32 78.5
t81 31.5t81.5 -31.5t32.5 -78.5q0 -49 -32 -81t-82 -32t-81.5 32t-31.5 81zM258 690h236q0 163 -26.5 237t-78.5 74q-62 0 -93.5 -79t-37.5 -232zM436 1309q0 47 33 78.5t82 31.5q48 0 80.5 -31.5t32.5 -78.5q0 -49 -32.5 -81t-80.5 -32q-50 0 -82.5 32t-32.5 81z" />
    <glyph glyph-name="uni0452" unicode="&#x452;" horiz-adv-x="823" 
d="M115 1217q0 67 -8 98t-25 44t-57 23v21h120q84 6 127 49h21v-235h211v-41h-211v-275q119 141 252 141q98 0 147 -59t49 -188v-842v-74.5t-1.5 -66t-4.5 -61.5t-8 -51t-13 -45.5t-20 -34.5t-27.5 -27.5t-36 -14.5t-46.5 -6q-31 0 -75 14.5t-71 14.5l-39 354h43
q17 -116 33 -188.5t32.5 -104t29 -40.5t30.5 -9q29 0 39 36t10 105q0 74 -25.5 191t-25.5 190v688q0 142 -88 142q-44 0 -87 -30.5t-97 -88.5v-660q0 -67 8 -98.5t25 -44.5t57 -23v-20h-358v20q40 10 57 23t25 44.5t8 98.5v990h-90v41h90z" />
    <glyph glyph-name="uni0453" unicode="&#x453;" horiz-adv-x="679" 
d="M31 0v20q37 10 52.5 23t22.5 44.5t7 98.5v652q0 67 -7 98.5t-22.5 44.5t-52.5 23v20h579l37 -479h-41q-11 107 -21 179t-22.5 122t-23 76.5t-28.5 40.5t-32.5 17t-42.5 3h-145v-797q0 -67 7 -98.5t22 -44.5t51 -23v-20h-340zM160 1219l157 92q55 31 97.5 39t66 -5.5
t35.5 -37t12 -54.5l-362 -61z" />
    <glyph glyph-name="uni0454" unicode="&#x454;" horiz-adv-x="716" 
d="M61 524q0 242 93 380t258 138q45 0 104 -14t88 -14l37 -348h-41q-15 106 -33.5 176t-41.5 103t-44 44.5t-49 11.5q-59 0 -99 -56t-58.5 -151t-18.5 -225v-2h281v-41h-281q2 -96 13.5 -174t33.5 -141.5t58.5 -99t84.5 -35.5q145 0 189 317l41 -4q-16 -115 -44.5 -195.5
t-67.5 -126t-83.5 -65.5t-99.5 -20q-156 0 -238 138.5t-82 403.5z" />
    <glyph glyph-name="uni0455" unicode="&#x455;" horiz-adv-x="645" 
d="M94 406q21 -122 44 -200t51 -117t55.5 -52.5t66.5 -13.5q99 0 99 114q0 70 -35 140.5t-112 188.5q-15 22 -23 34q-48 63 -70 94t-50 79t-39 90t-11 89q0 95 64 142.5t167 47.5q46 0 116 -14t109 -14l41 -348h-39q-18 111 -39 182t-47 102.5t-48 41t-54 9.5
q-41 0 -64.5 -22.5t-23.5 -67.5q0 -43 25 -100.5t49.5 -95.5t89.5 -133q85 -115 129.5 -203.5t44.5 -181.5q0 -109 -64.5 -162t-181.5 -53q-59 0 -138.5 14t-115.5 14l-37 396h41z" />
    <glyph glyph-name="uni0456" unicode="&#x456;" horiz-adv-x="419" 
d="M121 807q0 67 -8 98.5t-25 44.5t-57 23v20h121q87 7 127 49h20v-856q0 -67 8 -98.5t25 -44.5t57 -23v-20h-358v20q40 10 57 23t25 44.5t8 98.5v621zM70 1321q0 57 39 95t96 38t96 -38t39 -95t-39 -95t-96 -38t-96 38t-39 95z" />
    <glyph glyph-name="uni0457" unicode="&#x457;" horiz-adv-x="419" 
d="M121 807q0 67 -8 98.5t-25 44.5t-57 23v20h121q87 7 127 49h20v-856q0 -67 8 -98.5t25 -44.5t57 -23v-20h-358v20q40 10 57 23t25 44.5t8 98.5v621zM-72 1309q0 47 32 78.5t81 31.5t82 -31.5t33 -78.5q0 -49 -32.5 -81t-82.5 -32q-49 0 -81 32t-32 81zM240 1309
q0 47 32.5 78.5t81.5 31.5q48 0 80.5 -31.5t32.5 -78.5q0 -49 -32.5 -81t-80.5 -32q-50 0 -82 32t-32 81z" />
    <glyph glyph-name="uni0458" unicode="&#x458;" horiz-adv-x="415" 
d="M121 811q0 67 -8 98.5t-25 44.5t-57 23v20l121 2q82 3 124 50h21v-1117q0 -62 -1.5 -101t-6.5 -85.5t-15.5 -73.5t-28.5 -52.5t-46 -36.5t-66 -11q-37 0 -84 14.5t-74 14.5l-36 368h41q17 -121 34.5 -196.5t36 -108.5t33.5 -42t37 -9q34 0 46.5 37t12.5 110
q0 72 -29.5 179t-29.5 184v688zM63 1321q0 57 39.5 95t96.5 38t96 -38t39 -95t-39 -95t-96 -38t-96.5 38t-39.5 95z" />
    <glyph glyph-name="uni0459" unicode="&#x459;" horiz-adv-x="1257" 
d="M889 -18q-38 0 -123 8.5t-160 9.5h-59v12q29 9 37 27t8 78v866h-254l-6 -375q-2 -88 -5 -152.5t-9.5 -132t-16.5 -114t-25.5 -90t-37.5 -69t-52 -41.5t-69 -17l-107 287l37 14q55 -116 78 -151.5t51 -35.5q57 0 83.5 128.5t31.5 388.5l2 215q1 67 -6.5 98.5t-25.5 44.5
t-60 23v20h624v-12q-34 -9 -43.5 -27t-9.5 -78v-239q66 30 148 30q63 0 116.5 -19.5t97.5 -60.5t69.5 -112t25.5 -166q0 -107 -28.5 -180.5t-79.5 -110.5t-106.5 -52t-125.5 -15zM772 37q61 -14 92 -14q37 0 64.5 12t55 45t42 103t14.5 173q0 301 -166 301q-56 0 -102 -34
v-586z" />
    <glyph glyph-name="uni045A" unicode="&#x45a;" horiz-adv-x="1243" 
d="M877 -18q-38 0 -120 8.5t-151 9.5h-108v20q52 14 67 42.5t15 123.5v326h-289v-326q0 -67 7 -98.5t22 -44.5t51 -23v-20h-340v20q37 10 52.5 23t22.5 44.5t7 98.5v652q0 67 -7 98.5t-22.5 44.5t-52.5 23v20h340v-20q-36 -10 -51 -23t-22 -44.5t-7 -98.5v-285h289v285
q0 95 -15 123.5t-67 42.5v20h340v-20q-36 -10 -51 -23t-22 -44.5t-7 -98.5v-170q69 30 147 30q63 0 117 -19.5t98.5 -60.5t70.5 -112t26 -166q0 -107 -28.5 -180.5t-79.5 -110.5t-106.5 -52t-125.5 -15zM758 37q65 -14 92 -14q37 0 64.5 12t55 45t42 103t14.5 173
q0 301 -166 301q-53 0 -102 -34v-586z" />
    <glyph glyph-name="uni045B" unicode="&#x45b;" horiz-adv-x="864" 
d="M115 1217q0 67 -8 98t-25 44t-57 23v21h120q84 6 127 49h21v-235h211v-41h-211v-275q119 141 252 141q98 0 147 -59t49 -188v-609q0 -67 8 -98.5t25 -44.5t57 -23v-20h-356v20q40 10 57 23t25 44.5t8 98.5v637q0 142 -88 142q-44 0 -87 -30.5t-97 -88.5v-660
q0 -67 8 -98.5t25 -44.5t57 -23v-20h-358v20q40 10 57 23t25 44.5t8 98.5v990h-90v41h90z" />
    <glyph glyph-name="uni045C" unicode="&#x45c;" horiz-adv-x="835" 
d="M31 0v20q36 10 51 23t22 44.5t7 98.5v652q0 67 -7 98.5t-22 44.5t-51 23v20h336v-20q-34 -10 -49 -23t-22 -45t-7 -98v-236q58 0 86.5 32t68.5 142q58 154 75 185q33 60 82 72q19 5 44 5t59 -6t54 -6l35 -348h-41q-23 187 -49 253t-72 66q-41 0 -63.5 -36t-65.5 -151
q-8 -22 -13 -34q-30 -75 -50 -114t-44 -62q37 -2 66 -9t57.5 -23.5t50.5 -48t37 -77.5l86 -264q27 -88 53.5 -115.5t81.5 -42.5v-20h-364v20q52 13 57 38.5t-22 119.5l-66 228q-27 92 -60 121.5t-79 29.5h-4v-371q0 -66 7 -98t22 -45t49 -23v-20h-336zM248 1219l158 92
q55 31 97.5 39t66 -5.5t35 -37t11.5 -54.5l-362 -61z" />
    <glyph glyph-name="uni045D" unicode="&#x45d;" horiz-adv-x="851" 
d="M31 0v20q37 10 52.5 23t22.5 44.5t7 98.5v652q0 67 -7 98.5t-22.5 44.5t-52.5 23v20h340v-20q-36 -10 -51 -23t-22 -44.5t-7 -98.5v-701l270 887h260v-20q-36 -10 -51 -23t-22 -44.5t-7 -98.5v-652q0 -67 7 -98.5t22 -44.5t51 -23v-20h-340v20q36 10 51 23t22 44.5
t7 98.5v705l-270 -885v-6h-260zM236 1253q0 31 11.5 54.5t35 37t65.5 5.5t96 -39l160 -92l-8 -27z" />
    <glyph glyph-name="uni045F" unicode="&#x45f;" horiz-adv-x="866" 
d="M31 2v21q53 14 67.5 41.5t14.5 123.5v652q0 67 -7 98t-22.5 44t-52.5 24v20h340v-20q-36 -11 -51 -24t-22 -44t-7 -98v-797h282v797q0 96 -14 123.5t-65 42.5v20h340v-20q-36 -11 -51 -24t-22 -44t-7 -98v-652q0 -67 7 -98t22 -44t51 -23v-21h-201q-39 0 -66 -5.5
t-47.5 -21t-32 -35t-19.5 -57t-12 -77t-7 -103.5h-29q-4 77 -9 121.5t-16 83.5t-31 57t-50 27.5t-76 9.5h-207z" />
    <glyph glyph-name="uni0490" unicode="&#x490;" horiz-adv-x="708" 
d="M53 0v20q36 10 51 23t22 44.5t7 98.5v1061q0 67 -7 98.5t-22.5 44.5t-52.5 23v21h449q55 0 85 19t58.5 81.5t63.5 196.5h41l-64 -338h-367v-1207q0 -66 9 -98t28 -45t62 -23v-20h-363z" />
    <glyph glyph-name="uni0491" unicode="&#x491;" horiz-adv-x="665" 
d="M31 0v20q37 10 52.5 23t22.5 44.5t7 98.5v652q0 67 -7 98.5t-22.5 44.5t-52.5 23v20h397q36 0 58.5 5.5t43.5 21.5t37 50t31.5 85.5t34.5 134.5h41l-58 -338h-325v-797q0 -67 7 -98.5t22 -44.5t51 -23v-20h-340z" />
    <glyph glyph-name="uni0E3F" unicode="&#xe3f;" horiz-adv-x="821" 
d="M133 1247q0 67 -7 98.5t-22.5 44.5t-52.5 23v21h109q69 1 147 9t92 9v104h41v-104q138 -2 210.5 -82.5t72.5 -257.5q0 -263 -186 -330q237 -71 237 -405q0 -391 -334 -395v-105h-41v105q-16 1 -93.5 9t-145.5 9h-109v20q37 10 52.5 23t22.5 44.5t7 98.5v1061zM317 35
q43 -12 78 -12h4v739q-37 0 -82 10v-737zM317 813q38 -10 68 -10h14v608h-8q-32 0 -74 -10v-588zM440 29q66 16 99.5 96.5t33.5 247.5q0 344 -133 383v-727zM440 815q92 45 92 297q0 138 -23.5 205.5t-68.5 85.5v-588z" />
    <glyph glyph-name="Wgrave" unicode="&#x1e80;" horiz-adv-x="1271" 
d="M506 -18h-92l-273 1269q-21 92 -43.5 120t-77.5 42v21h861v-27q-43 -6 -66.5 -39.5t-40.5 -114.5l-35 -168l156 -774l195 942q19 82 8 115t-64 39v27h217v-21q-37 -10 -55 -22t-34 -44t-29 -96l-269 -1269h-90l-135 628zM344 1253l193 -942l81 396l-118 546
q-18 83 -41 118.5t-62 35.5q-45 0 -56.5 -38.5t3.5 -115.5zM471 1622q0 31 11.5 54t35.5 36.5t66 5.5t96 -39l160 -92l-9 -26zM705 1253l12 -61l12 61q14 64 12 97.5t-22 46.5q-22 -12 -25 -45t11 -99z" />
    <glyph glyph-name="wgrave" unicode="&#x1e81;" horiz-adv-x="1157" 
d="M147 844q-16 63 -33.5 94.5t-36.5 43.5t-57 22v20h768v-27q-40 -6 -63.5 -37t-44.5 -116l-4 -21l145 -610l150 631q20 89 9.5 118t-62.5 35v27h217v-20q-37 -10 -55.5 -22t-35.5 -43.5t-32 -94.5l-211 -862h-99l-120 464l-113 -464h-98zM338 846l154 -633l71 307l-84 326
q-20 84 -43 117.5t-59 33.5q-38 0 -48 -33t9 -118zM403 1253q0 31 11.5 54.5t35.5 37t66 5.5t96 -39l160 -92l-8 -27z" />
    <glyph glyph-name="Wacute" unicode="&#x1e82;" horiz-adv-x="1271" 
d="M506 -18h-92l-273 1269q-21 92 -43.5 120t-77.5 42v21h861v-27q-43 -6 -66.5 -39.5t-40.5 -114.5l-35 -168l156 -774l195 942q19 82 8 115t-64 39v27h217v-21q-37 -10 -55 -22t-34 -44t-29 -96l-269 -1269h-90l-135 628zM344 1253l193 -942l81 396l-118 546
q-18 83 -41 118.5t-62 35.5q-45 0 -56.5 -38.5t3.5 -115.5zM473 1587l158 92q44 25 80.5 35t60.5 5.5t40 -18.5t23 -34.5t7 -44.5l-363 -61zM705 1253l12 -61l12 61q14 64 12 97.5t-22 46.5q-22 -12 -25 -45t11 -99z" />
    <glyph glyph-name="wacute" unicode="&#x1e83;" horiz-adv-x="1157" 
d="M147 844q-16 63 -33.5 94.5t-36.5 43.5t-57 22v20h768v-27q-40 -6 -63.5 -37t-44.5 -116l-4 -21l145 -610l150 631q20 89 9.5 118t-62.5 35v27h217v-20q-37 -10 -55.5 -22t-35.5 -43.5t-32 -94.5l-211 -862h-99l-120 464l-113 -464h-98zM338 846l154 -633l71 307l-84 326
q-20 84 -43 117.5t-59 33.5q-38 0 -48 -33t9 -118zM403 1219l158 92q55 31 97.5 39t66 -5.5t35.5 -37t12 -54.5l-362 -61z" />
    <glyph glyph-name="Wdieresis" unicode="&#x1e84;" horiz-adv-x="1271" 
d="M506 -18h-92l-273 1269q-21 92 -43.5 120t-77.5 42v21h861v-27q-43 -6 -66.5 -39.5t-40.5 -114.5l-35 -168l156 -774l195 942q19 82 8 115t-64 39v27h217v-21q-37 -10 -55 -22t-34 -44t-29 -96l-269 -1269h-90l-135 628zM344 1253l193 -942l81 396l-118 546
q-18 83 -41 118.5t-62 35.5q-45 0 -56.5 -38.5t3.5 -115.5zM387 1677q0 48 32 79.5t81 31.5t81.5 -32t32.5 -79q0 -49 -32 -80.5t-82 -31.5t-81.5 31.5t-31.5 80.5zM698 1677q0 47 33 79t82 32q47 0 80 -32t33 -79q0 -49 -32.5 -80.5t-80.5 -31.5q-50 0 -82.5 31.5
t-32.5 80.5zM705 1253l12 -61l12 61q14 64 12 97.5t-22 46.5q-22 -12 -25 -45t11 -99z" />
    <glyph glyph-name="wdieresis" unicode="&#x1e85;" horiz-adv-x="1157" 
d="M147 844q-16 63 -33.5 94.5t-36.5 43.5t-57 22v20h768v-27q-40 -6 -63.5 -37t-44.5 -116l-4 -21l145 -610l150 631q20 89 9.5 118t-62.5 35v27h217v-20q-37 -10 -55.5 -22t-35.5 -43.5t-32 -94.5l-211 -862h-99l-120 464l-113 -464h-98zM319 1309q0 47 32 78.5t81 31.5
t82 -31.5t33 -78.5q0 -49 -32.5 -81t-82.5 -32t-81.5 32t-31.5 81zM338 846l154 -633l71 307l-84 326q-20 84 -43 117.5t-59 33.5q-38 0 -48 -33t9 -118zM631 1309q0 47 32.5 78.5t81.5 31.5q48 0 80.5 -31.5t32.5 -78.5q0 -49 -32.5 -81t-80.5 -32q-50 0 -82 32t-32 81z
" />
    <glyph glyph-name="uni1E9E" unicode="&#x1e9e;" horiz-adv-x="968" 
d="M39 0v20q36 10 51 23t22 44.5t7 98.5v897q0 369 319 369q66 0 150.5 -13.5t120.5 -15.5v-41l-256 -419q64 -25 119 -59.5t107 -87.5t88.5 -117.5t58.5 -153t22 -191.5q0 -101 -21.5 -176t-58.5 -116t-79.5 -60.5t-90.5 -19.5q-52 0 -98.5 14t-77.5 14l-43 492h41
q21 -160 39 -258t36.5 -143.5t33 -58.5t36.5 -13q76 0 76 293q0 244 -62 398t-165 210v47l227 391q-87 43 -170 43q-39 0 -68 -10.5t-47 -33.5t-29 -47t-16 -62.5t-6.5 -69t-1.5 -76.5v-1112h-264z" />
    <glyph glyph-name="Ygrave" unicode="&#x1ef2;" horiz-adv-x="860" 
d="M670 1253q17 67 17.5 95.5t-16 41.5t-63.5 23v21h232v-21q-38 -10 -57 -22t-36.5 -43.5t-33.5 -94.5l-172 -663v-404q0 -67 7 -98.5t22 -44.5t51 -23v-20h-347v20q36 10 51 23t22 44.5t7 98.5v377l-200 692q-18 61 -37.5 93t-38.5 43.5t-58 21.5v21h402v-21
q-29 -6 -44 -12t-25.5 -15t-10.5 -27.5t4.5 -41t15.5 -64.5l156 -565zM289 1622q0 31 11.5 54t35.5 36.5t66 5.5t96 -39l159 -92l-8 -26z" />
    <glyph glyph-name="ygrave" unicode="&#x1ef3;" horiz-adv-x="837" 
d="M293 -444q-30 0 -69.5 15t-67.5 15l-43 387h41q19 -128 37 -208t36.5 -114.5t32.5 -44t35 -9.5q36 0 60.5 49.5t54.5 179.5l36 156h-69l-227 862q-17 63 -35.5 94.5t-37.5 43.5t-57 22v20h398v-20q-40 -7 -58.5 -14t-27.5 -25.5t-5.5 -44t15.5 -76.5l158 -635l151 635
q12 51 15.5 76.5t-5.5 44t-27.5 25.5t-58.5 14v20h242v-20q-38 -10 -57 -22t-36 -43.5t-32 -94.5l-243 -1024q-15 -60 -24 -93t-23 -71t-28 -56.5t-34.5 -31t-46.5 -12.5zM274 1253q0 31 11.5 54.5t35.5 37t66 5.5t96 -39l160 -92l-8 -27z" />
    <glyph glyph-name="endash" unicode="&#x2013;" horiz-adv-x="851" 
d="M61 532h730v-40h-730v40z" />
    <glyph glyph-name="emdash" unicode="&#x2014;" horiz-adv-x="1277" 
d="M61 532h1217v-40h-1217v40z" />
    <glyph glyph-name="quoteleft" unicode="&#x2018;" horiz-adv-x="305" 
d="M233 1427q-52 -70 -67.5 -103t-15.5 -62q0 -24 15.5 -42t34.5 -28t34.5 -31.5t15.5 -52.5q0 -43 -26.5 -67.5t-65.5 -24.5q-47 0 -75 30t-28 89q0 80 39 157t111 164z" />
    <glyph glyph-name="quoteright" unicode="&#x2019;" horiz-adv-x="305" 
d="M72 1047q52 71 68 103.5t16 61.5q0 24 -16 42t-34.5 28t-34.5 31.5t-16 52.5q0 43 26.5 67.5t65.5 24.5q47 0 75 -30t28 -89q0 -80 -39 -157t-111 -164z" />
    <glyph glyph-name="quotesinglbase" unicode="&#x201a;" horiz-adv-x="305" 
d="M72 -209q52 70 68 103.5t16 62.5q0 24 -16 42t-34.5 28t-34.5 31.5t-16 52.5q0 43 26.5 67.5t65.5 24.5q47 0 75 -30t28 -89q0 -140 -150 -322z" />
    <glyph glyph-name="quotedblleft" unicode="&#x201c;" horiz-adv-x="563" 
d="M233 1427q-52 -70 -67.5 -103t-15.5 -62q0 -24 15.5 -42t34.5 -28t34.5 -31.5t15.5 -52.5q0 -43 -26.5 -67.5t-65.5 -24.5q-47 0 -75 30t-28 89q0 80 39 157t111 164zM313 1135q0 80 39 157t111 164l29 -29q-52 -71 -68 -103.5t-16 -61.5q0 -24 15.5 -42t34.5 -28
t34.5 -31.5t15.5 -52.5q0 -43 -26.5 -67.5t-65.5 -24.5q-47 0 -75 30t-28 89z" />
    <glyph glyph-name="quotedblright" unicode="&#x201d;" horiz-adv-x="567" 
d="M72 1047q52 71 68 103.5t16 61.5q0 24 -16 42t-34.5 28t-34.5 31.5t-16 52.5q0 43 26.5 67.5t65.5 24.5q47 0 75 -30t28 -89q0 -80 -39 -157t-111 -164zM319 1366q0 42 27 67t66 25q46 0 74 -30t28 -89q0 -80 -39 -157.5t-110 -163.5l-29 29q52 71 68 103.5t16 61.5
q0 24 -16 42t-34.5 28t-34.5 31.5t-16 52.5z" />
    <glyph glyph-name="quotedblbase" unicode="&#x201e;" horiz-adv-x="577" 
d="M72 -209q52 70 68 103.5t16 62.5q0 24 -16 42t-34.5 28t-34.5 31.5t-16 52.5q0 43 26.5 67.5t65.5 24.5q47 0 75 -30t28 -89q0 -140 -150 -322zM328 111q0 43 26.5 67.5t65.5 24.5q46 0 74 -30t28 -89q0 -141 -149 -322l-29 29q52 70 68 103.5t16 62.5q0 24 -15.5 42
t-34.5 28t-34.5 31.5t-15.5 52.5z" />
    <glyph glyph-name="dagger" unicode="&#x2020;" horiz-adv-x="657" 
d="M330 1458q29 0 45 -17t16 -44q0 -17 -25.5 -97t-25.5 -149q59 0 117.5 25.5t77.5 25.5q27 0 44 -16t17 -45t-17 -45.5t-44 -16.5q-19 0 -77.5 25.5t-117.5 25.5v-1335h-21v1335q-59 0 -118 -25.5t-78 -25.5q-27 0 -44.5 16.5t-17.5 45.5q0 28 17.5 44.5t44.5 16.5
q19 0 78 -25.5t118 -25.5q0 69 -25.5 149t-25.5 97q0 27 16.5 44t45.5 17z" />
    <glyph glyph-name="daggerdbl" unicode="&#x2021;" horiz-adv-x="657" 
d="M330 1458q29 0 45 -17t16 -44q0 -17 -25.5 -97t-25.5 -149q59 0 117.5 25.5t77.5 25.5q27 0 44 -16t17 -45t-17 -45.5t-44 -16.5q-19 0 -77.5 25.5t-117.5 25.5v-413q0 -31 1.5 -44t9 -26.5t24 -17.5t47.5 -4v-21q-57 0 -69.5 -17.5t-12.5 -74.5v-414q59 0 117.5 26
t77.5 26q27 0 44 -16.5t17 -45.5t-17 -45t-44 -16q-19 0 -77.5 25.5t-117.5 25.5q0 -69 25.5 -149t25.5 -97q0 -27 -16 -44t-45 -17t-45.5 17t-16.5 44q0 17 25.5 97t25.5 149q-59 0 -118 -25.5t-78 -25.5q-27 0 -44.5 16.5t-17.5 44.5q0 29 17.5 45.5t44.5 16.5
q19 0 78 -26t118 -26v414q0 32 -1 44t-8.5 26t-24 18t-47.5 4v21q31 0 47.5 4t24 18t8.5 26t1 44v413q-59 0 -118 -25.5t-78 -25.5q-27 0 -44.5 16.5t-17.5 45.5q0 28 17.5 44.5t44.5 16.5q19 0 78 -25.5t118 -25.5q0 69 -25.5 149t-25.5 97q0 27 16.5 44t45.5 17z" />
    <glyph glyph-name="bullet" unicode="&#x2022;" horiz-adv-x="530" 
d="M264 289q-88 0 -141 62t-53 157q0 93 53.5 155t140.5 62q88 0 140.5 -62t52.5 -155q0 -96 -52 -157.5t-141 -61.5z" />
    <glyph glyph-name="ellipsis" unicode="&#x2026;" horiz-adv-x="1107" 
d="M510 -18q-44 0 -71 31t-27 79q0 47 27.5 79t70.5 32q45 0 71.5 -32t26.5 -79q0 -48 -26.5 -79t-71.5 -31zM51 92q0 47 28 79t71 32q45 0 71.5 -32t26.5 -79q0 -48 -26.5 -79t-71.5 -31q-44 0 -71.5 31t-27.5 79zM770 92q0 47 27.5 79t70.5 32q45 0 72 -32t27 -79
q0 -48 -27 -79t-72 -31q-44 0 -71 31t-27 79z" />
    <glyph glyph-name="perthousand" unicode="&#x2030;" horiz-adv-x="1699" 
d="M1413 -18q-113 0 -172 88.5t-59 253.5q0 167 59 254.5t172 87.5q114 0 173 -88t59 -254t-59 -254t-173 -88zM55 1112q0 165 59 252.5t173 87.5q113 0 172 -87.5t59 -252.5q0 -168 -58.5 -256t-172.5 -88q-113 0 -172.5 88.5t-59.5 255.5zM209 1112q0 -174 14 -238.5
t64 -64.5t64 64.5t14 238.5q0 170 -14 234.5t-64 64.5t-64 -64.5t-14 -234.5zM250 0l610 1434h45l-610 -1434h-45zM635 324q0 166 59.5 254t173.5 88q112 0 172 -88t60 -254t-60 -254t-172 -88q-113 0 -173 88.5t-60 253.5zM791 324q0 -174 14 -237.5t63 -63.5q48 0 62 64.5
t14 236.5q0 171 -14 236t-62 65q-49 0 -63 -64t-14 -237zM1335 324q0 -173 14 -237t64 -64t64 64t14 237q0 172 -14 236.5t-64 64.5t-64 -64.5t-14 -236.5z" />
    <glyph glyph-name="guilsinglleft" unicode="&#x2039;" horiz-adv-x="438" 
d="M102 514q0 25 14 51t48 66l184 205l29 -19l-144 -303l144 -303l-29 -18l-184 204q-34 40 -48 66t-14 51z" />
    <glyph glyph-name="guilsinglright" unicode="&#x203a;" horiz-adv-x="438" 
d="M336 514q0 -25 -14 -51t-48 -66l-184 -204l-29 18l144 303l-144 303l29 19l184 -205q34 -40 48 -66t14 -51z" />
    <glyph glyph-name="fraction" unicode="&#x2044;" horiz-adv-x="202" 
d="M-129 0h-43l508 1434h39z" />
    <glyph glyph-name="uni2070" unicode="&#x2070;" horiz-adv-x="495" 
d="M248 911q-99 0 -158 87.5t-59 281.5t59 281.5t158 87.5q98 0 157.5 -88t59.5 -281q0 -194 -59 -281.5t-158 -87.5zM178 1280q0 -141 7 -216.5t21.5 -103.5t41.5 -28q39 0 54 72.5t15 275.5t-15 275.5t-54 72.5q-27 0 -41.5 -28.5t-21.5 -104t-7 -215.5z" />
    <glyph glyph-name="uni2074" unicode="&#x2074;" horiz-adv-x="454" 
d="M240 1655q32 -21 59.5 -28t69.5 -9v-424h69v-100h-69v-78q0 -41 9.5 -57.5t35.5 -22.5v-14h-226v14q26 6 35.5 22.5t9.5 57.5v78h-217v20l213 541h11zM76 1194h157v410z" />
    <glyph glyph-name="uni2075" unicode="&#x2075;" horiz-adv-x="415" 
d="M43 1200q23 -155 47 -210.5t64 -55.5q28 0 46.5 21t30 80.5t11.5 160.5q0 121 -20 170t-60 49q-31 0 -57 -29t-52 -94h-20l35 346h274v-100h-264l-15 -137q3 1 25.5 14t48 20t60.5 7q89 0 142.5 -62.5t53.5 -191.5q0 -145 -58.5 -211t-146.5 -66q-42 0 -85.5 7.5
t-59.5 7.5l-20 274h20z" />
    <glyph glyph-name="uni2076" unicode="&#x2076;" horiz-adv-x="481" 
d="M23 1257q0 184 68.5 288t191.5 104q27 0 64 -7.5t54 -7.5l19 -200h-21q-6 61 -17.5 101.5t-27.5 59.5t-30.5 26t-32.5 7q-104 0 -115 -282q53 53 127 53q66 0 112 -56.5t46 -168.5q0 -132 -58.5 -197.5t-154.5 -65.5q-47 0 -85 17t-71 55t-51 107.5t-18 166.5zM174 1225
q0 -121 7 -185t21 -86t40 -22q36 0 51.5 45.5t15.5 175.5q0 81 -7.5 127t-20 62t-33.5 16q-28 0 -72 -37q-2 -31 -2 -96z" />
    <glyph glyph-name="uni2077" unicode="&#x2077;" horiz-adv-x="432" 
d="M428 1618q-106 -153 -141 -288t-35 -408h-152q0 192 55 339.5t193 276.5h-215q-34 0 -48 -7.5t-26 -40.5t-22 -110h-21l25 258h387v-20z" />
    <glyph glyph-name="uni2078" unicode="&#x2078;" horiz-adv-x="499" 
d="M274 1315l29 16l-4 4q-16 13 -29 29q-21 -30 -53 -49l-24 -15l6 -6l24 -22q19 22 51 43zM27 1077q0 -79 58 -123.5t161 -44.5q105 0 166 45.5t61 128.5q0 38 -10.5 68.5t-39 64t-49.5 53t-71 62.5q73 45 108 87t35 98q0 63 -52.5 99t-137.5 36q-95 0 -151 -39t-56 -105
q0 -57 30 -97t114 -110q-166 -101 -166 -223zM162 1069q0 130 61 203q90 -85 90 -215q0 -127 -71 -127q-39 0 -59.5 37t-20.5 102zM201 1536q0 94 59 94t59 -102q0 -97 -49 -164q-69 72 -69 172z" />
    <glyph glyph-name="uni2079" unicode="&#x2079;" horiz-adv-x="481" 
d="M459 1303q0 -184 -68.5 -288t-191.5 -104q-27 0 -64.5 7.5t-54.5 7.5l-19 200h21q6 -61 17.5 -101.5t27.5 -59.5t30.5 -26t32.5 -7q104 0 115 282q-53 -53 -127 -53q-66 0 -112 56.5t-46 168.5q0 132 58.5 197.5t154.5 65.5q47 0 85.5 -17t71 -55t51 -107.5t18.5 -166.5z
M172 1407q0 -81 7.5 -127t20 -62t33.5 -16q28 0 72 37q2 31 2 96q0 122 -7 185t-20.5 85.5t-39.5 22.5q-36 0 -52 -45.5t-16 -175.5z" />
    <glyph glyph-name="uni2080" unicode="&#x2080;" horiz-adv-x="495" 
d="M248 -215q-99 0 -158 87.5t-59 281.5t59 281t158 87t158 -88t59 -280q0 -194 -59 -281.5t-158 -87.5zM178 154q0 -141 7 -216.5t21.5 -104t41.5 -28.5q39 0 54 73t15 276t-15 275.5t-54 72.5q-27 0 -41.5 -28.5t-21.5 -104t-7 -215.5z" />
    <glyph glyph-name="uni2081" unicode="&#x2081;" horiz-adv-x="296" 
d="M20 397q78 6 121.5 33.5t77.5 91.5h10v-633q0 -41 10.5 -57t39.5 -22v-15h-228v15q27 6 36 20.5t9 58.5v422q0 39 -14 52.5t-62 13.5v20z" />
    <glyph glyph-name="uni2082" unicode="&#x2082;" horiz-adv-x="409" 
d="M12 -184q45 84 58.5 110t50 98t50 107t34 91t28 99.5t7.5 84.5q0 48 -14 71t-48 23q-42 0 -68.5 -50t-48.5 -194h-20l20 252q17 0 58.5 7t73.5 7q194 0 194 -164q0 -46 -10.5 -89.5t-35.5 -86t-47 -74.5t-64.5 -75t-67 -66.5t-74.5 -68.5h148q25 0 37.5 2t27.5 10.5
t23 27.5t16 51.5t16 84.5h21l-25 -279h-340v21z" />
    <glyph glyph-name="uni2083" unicode="&#x2083;" horiz-adv-x="419" 
d="M41 74q15 -112 33.5 -172.5t37 -78.5t46.5 -18q44 0 66 58.5t22 159.5q0 80 -16.5 130t-49.5 50q-18 0 -31.5 -9.5t-35.5 -31.5l-15 16q61 77 89 135.5t28 122.5q0 66 -47 66q-25 0 -42.5 -16.5t-36 -72.5t-34.5 -157h-20l20 252q19 0 66.5 7t81.5 7q147 0 147 -112
q0 -119 -131 -181q70 10 125 -44.5t55 -166.5q0 -118 -65.5 -175.5t-169.5 -57.5q-32 0 -69 7t-54 7l-21 275h21z" />
    <glyph glyph-name="uni2084" unicode="&#x2084;" horiz-adv-x="454" 
d="M240 528q32 -21 59 -27.5t70 -8.5v-424h69v-101h-69v-78q0 -41 9.5 -57t35.5 -22v-15h-226v15q26 6 35.5 22t9.5 57v78h-217v21l213 540h11zM76 68h157v409z" />
    <glyph glyph-name="uni2085" unicode="&#x2085;" horiz-adv-x="415" 
d="M43 74q23 -155 47 -211t64 -56q43 0 65.5 57.5t22.5 205.5q0 121 -20 170t-60 49q-31 0 -57 -29t-52 -94h-20l35 346h274v-100h-264l-15 -138q3 1 25.5 14t48 20t60.5 7q89 0 142.5 -62.5t53.5 -191.5q0 -145 -58.5 -210.5t-146.5 -65.5q-42 0 -85.5 7t-59.5 7l-20 275
h20z" />
    <glyph glyph-name="uni2086" unicode="&#x2086;" horiz-adv-x="481" 
d="M23 131q0 183 68.5 287t191.5 104q27 0 64 -7t54 -7l19 -201h-21q-18 195 -108 195q-104 0 -115 -283q53 53 127 53q66 0 112 -56.5t46 -168.5q0 -132 -58.5 -197t-154.5 -65q-47 0 -85 17t-71 55t-51 107.5t-18 166.5zM174 98q0 -121 7 -185t21 -86t40 -22q36 0 51.5 46
t15.5 176q0 81 -7.5 126.5t-20 61.5t-33.5 16q-29 0 -72 -36q-2 -31 -2 -97z" />
    <glyph glyph-name="uni2087" unicode="&#x2087;" horiz-adv-x="432" 
d="M428 492q-106 -153 -141 -288.5t-35 -408.5h-152q0 192 55 340.5t193 276.5h-215q-34 0 -48 -7.5t-26 -40.5t-22 -110h-21l25 258h387v-20z" />
    <glyph glyph-name="uni2088" unicode="&#x2088;" horiz-adv-x="499" 
d="M274 188l29 17l-4 4q-16 13 -29 29q-22 -31 -53 -50l-24 -14l6 -6l24 -23q19 22 51 43zM27 -49q0 -79 58 -123.5t161 -44.5q105 0 166 45.5t61 128.5q0 38 -10.5 68.5t-39 64t-49.5 53t-71 62.5q73 46 108 87t35 97q0 63 -52.5 99t-137.5 36q-95 0 -151 -38.5t-56 -104.5
q0 -57 30 -97t114 -110q-166 -101 -166 -223zM162 -57q0 129 61 202q90 -85 90 -215q0 -127 -71 -127q-39 0 -59.5 37.5t-20.5 102.5zM201 410q0 94 59 94q29 0 44 -28t15 -75q0 -96 -49 -163q-69 72 -69 172z" />
    <glyph glyph-name="uni2089" unicode="&#x2089;" horiz-adv-x="481" 
d="M459 176q0 -183 -68.5 -287t-191.5 -104q-27 0 -64.5 7t-54.5 7l-19 201h21q18 -195 108 -195q104 0 115 283q-53 -53 -127 -53q-66 0 -112 56.5t-46 168.5q0 132 58.5 197t154.5 65q47 0 85.5 -17t71 -55t51 -107.5t18.5 -166.5zM172 281q0 -81 7.5 -127t20 -62
t33.5 -16q28 0 72 37q2 31 2 96q0 122 -7 185t-20.5 85.5t-39.5 22.5q-36 0 -52 -45.5t-16 -175.5z" />
    <glyph glyph-name="colonmonetary" unicode="&#x20a1;" horiz-adv-x="888" 
d="M51 748q0 187 31.5 325t90 219.5t135 120.5t173.5 39h8l35 193h43l-35 -195q19 -2 48 -7.5t38 -6.5l37 209h41l-39 -213q8 -2 27 -2l37 -494h-41q-19 200 -53 319l-203 -1149q31 -22 68 -22q43 0 75.5 21.5t63.5 75t53.5 154t36.5 249.5l41 -4q-16 -180 -43.5 -298.5
t-69 -183.5t-91 -90.5t-118.5 -25.5q-27 0 -39 2l-32 -183h-41l34 191q-35 10 -81 39l-41 -230h-41l45 260q-92 86 -142.5 260.5t-50.5 426.5zM260 768q0 -233 37 -408l186 1051h-2q-104 0 -162.5 -157t-58.5 -486zM324 268q29 -84 63 -127l213 1190q-33 62 -76 74z" />
    <glyph glyph-name="franc" unicode="&#x20a3;" horiz-adv-x="745" 
d="M442 745q34 0 49.5 6.5t25.5 29t7.5 67t-4.5 119.5h41l41 -504h-43v1v2q-18 160 -32 194q-14 37 -52 43q-14 2 -39 2h-119v-343h279v-40h-279v-136q0 -67 7 -98.5t22 -44.5t51 -23v-20h-346v20q37 10 52.5 23t22.5 44.5t7 98.5v136h-98v40h98v885q0 67 -7 98.5
t-22.5 44.5t-52.5 23v21h633l37 -510h-41q-13 116 -23.5 191t-24 130t-24.5 82.5t-31.5 43.5t-38.5 19t-51 3h-170v-648h125z" />
    <glyph glyph-name="uni20A6" unicode="&#x20a6;" horiz-adv-x="960" 
d="M688 1247q0 67 -7 98.5t-22.5 44.5t-52.5 23v21h203v-21q-36 -10 -51 -23t-22 -44.5t-7 -98.5v-416h145v-40h-145v-89h145v-40h-145v-662h-123l-231 662h-205v-476q0 -67 7 -98.5t22 -44.5t51 -23v-20h-201v20q36 10 51 23t22 44.5t7 98.5v476h-133v40h133v89h-133v40
h133v517q-12 21 -26 33.5t-25.5 18.5t-32.5 13v21h279l200 -603h164v416zM170 702h190l-30 89h-160v-89zM170 831h145l-145 420v-420zM537 791l28 -89h123v89h-151zM580 662l108 -328v328h-108z" />
    <glyph glyph-name="peseta" unicode="&#x20a7;" horiz-adv-x="921" 
d="M51 0v20q37 10 52.5 23t22.5 44.5t7 98.5v797h-133v41h133v223q0 67 -7 98.5t-22.5 44.5t-52.5 23v21h109q72 1 148 9.5t112 8.5q54 0 98.5 -9.5t90.5 -37.5t78.5 -74t55 -124.5t27.5 -182.5h152v-41h-152v-10q0 -111 -18 -200t-49 -148.5t-74 -99t-91 -57t-102 -17.5
q-55 0 -119 20v-285q0 -67 9 -98.5t28.5 -44.5t65.5 -23v-20h-369zM317 516q39 -24 80 -24q36 0 63.5 17.5t53 64t39.5 142.5t14 238v29h-250v-467zM317 1024h250q-3 96 -14 167t-27 112.5t-39 66t-45.5 33t-50.5 8.5q-32 0 -74 -10v-377z" />
    <glyph glyph-name="uni20A8" unicode="&#x20a8;" horiz-adv-x="1390" 
d="M51 0v20q37 10 52.5 23t22.5 44.5t7 98.5v1061q0 67 -7 98.5t-22.5 44.5t-52.5 23v21h109q76 1 156 9.5t114 8.5q279 0 279 -309q0 -131 -54 -218t-147 -120q101 -29 143.5 -147.5t57.5 -399.5q9 -161 16.5 -251t19 -146t24.5 -73t36 -17q34 0 50.5 29t25.5 120l41 -4
q-9 -125 -50 -178t-129 -53q-74 0 -116.5 47.5t-67.5 166.5t-37 341q-18 318 -27 387q-18 136 -66 156q-11 5 -23 5h-3q-33 0 -86 9v-611q0 -67 7 -98.5t22 -44.5t51 -23v-20h-346zM317 840q37 -11 72 -11q66 0 98.5 82t32.5 222q0 278 -133 278q-34 0 -70 -10v-561z
M801 406h45q16 -98 34.5 -168t37.5 -111.5t42.5 -65t46 -31t52.5 -7.5q98 0 98 114q0 70 -35 140.5t-112 188.5q-15 22 -23 34q-38 51 -47.5 64t-38 54t-37 60t-23.5 52.5t-19.5 62t-4.5 59.5q0 95 63 142.5t164 47.5q46 0 118 -14t112 -14l41 -348h-43q-17 111 -38 182
t-46 102.5t-46.5 41t-51.5 9.5q-43 0 -67 -22.5t-24 -67.5q0 -44 24.5 -100t51 -96.5t90.5 -132.5q84 -117 128 -204.5t44 -180.5q0 -109 -64 -162t-181 -53q-60 0 -138.5 14t-113.5 14z" />
    <glyph glyph-name="uni20A9" unicode="&#x20a9;" horiz-adv-x="1433" 
d="M506 -18h-92l-172 804h-211v41h200l-18 91h-182v40h174l-64 293q-21 92 -43.5 120t-77.5 42v21h861v-27q-43 -6 -66.5 -39.5t-40.5 -114.5l-35 -168l25 -127h264l62 295q19 82 8 115t-64 39v27h217v-21q-37 -10 -55 -22t-34 -44t-29 -96l-62 -293h172v-40h-180l-21 -91
h201v-41h-209l-170 -804h-90l-135 628zM344 1253l59 -295h160l-63 295q-18 83 -41 118.5t-62 35.5q-45 0 -56.5 -38.5t3.5 -115.5zM414 918l18 -91h160l-21 91h-157zM440 786l97 -475l81 396l-18 79h-160zM705 1253l12 -61l12 61q14 64 12 97.5t-22 46.5q-22 -12 -25 -45
t11 -99zM772 918l19 -91h210l19 91h-248zM799 786l96 -475l98 475h-194z" />
    <glyph glyph-name="Euro" unicode="&#x20ac;" horiz-adv-x="759" 
d="M444 -18q-156 0 -247.5 166t-104.5 489h-102v41h100v67v23h-100v41h100q10 331 114.5 487t276.5 156q47 0 104 -11t87 -11l39 -482h-41q-22 193 -50 297t-57.5 135t-75.5 31q-86 0 -136 -147t-54 -455h266v-41h-266v-4v-86h266v-41h-264q9 -274 59 -417.5t138 -143.5
q171 0 194 493l41 -4q-9 -172 -32 -288t-61.5 -180t-84 -89.5t-109.5 -25.5z" />
    <glyph glyph-name="uni20B1" unicode="&#x20b1;" horiz-adv-x="921" 
d="M51 0v20q37 10 52.5 23t22.5 44.5t7 98.5v627h-84v41h84v129h-84v41h84v223q0 67 -7 98.5t-22.5 44.5t-52.5 23v21h109q72 1 148 9.5t112 8.5q54 0 98.5 -9.5t90.5 -37.5t78.5 -74t55 -124.5t27.5 -182.5h100v-41h-100v-10q0 -64 -6 -119h106v-41h-110
q-28 -185 -116 -273.5t-208 -88.5q-55 0 -119 20v-285q0 -67 9 -98.5t28.5 -44.5t65.5 -23v-20h-369zM317 516q39 -24 80 -24q31 0 55.5 13t48 45.5t40 99t22.5 163.5h-246v-297zM317 854h248q2 31 2 100v29h-250v-129zM317 1024h250q-3 96 -14 167t-27 112.5t-39 66
t-45.5 33t-50.5 8.5q-32 0 -74 -10v-377z" />
    <glyph glyph-name="uni20B4" unicode="&#x20b4;" horiz-adv-x="702" 
d="M313 -18q-268 0 -268 274q0 154 92 383h-86v41h613v-41h-287q-72 -136 -105.5 -238.5t-33.5 -199.5q0 -89 28.5 -133.5t91.5 -44.5q42 0 75.5 21.5t63.5 73.5t53 147.5t38 234.5h41l-37 -484q-45 0 -131 -17t-148 -17zM51 772v41h197q91 126 143.5 247t52.5 206
q0 66 -29 105.5t-87 39.5q-56 0 -91 -35t-63 -138t-47 -292h-45l39 471q39 0 112.5 17.5t137.5 17.5q120 0 193 -64.5t73 -177.5q0 -92 -32.5 -180.5t-102.5 -216.5h162v-41h-613z" />
    <glyph glyph-name="uni20B8" unicode="&#x20b8;" horiz-adv-x="804" 
d="M229 0v20q37 10 52.5 23t22.5 44.5t7 98.5v1074h-65q-55 0 -81.5 -29.5t-47 -121.5t-45.5 -306h-41l39 497h667l37 -497h-41q-12 108 -22 178t-21.5 124t-22.5 82.5t-28 46t-34.5 22t-45.5 4.5h-63v-1074q0 -67 6.5 -98.5t21.5 -44.5t51 -23v-20h-346zM80 1393l2 41h647
l2 -41h-651z" />
    <glyph glyph-name="uni20B9" unicode="&#x20b9;" horiz-adv-x="661" 
d="M55 1434h541v-41h-330q185 -56 185 -293q0 -36 -7 -76h152v-41h-162q-48 -148 -229 -190q33 -10 58.5 -25.5t46 -41.5t35.5 -54.5t29.5 -75t25.5 -90.5t26 -113l45 -211q13 -64 30.5 -96t38.5 -44t66 -22v-20h-121q-29 0 -51.5 4t-41 15.5t-32.5 23.5t-26 36.5
t-20.5 46.5t-18 61t-16.5 71.5t-17 87.5q-49 263 -61 305q-24 88 -63 111q-28 16 -83 16v41q146 0 189 164h-189v41h195q6 40 6 80q0 289 -164 289h-37v41z" />
    <glyph glyph-name="uni20BD" unicode="&#x20bd;" horiz-adv-x="786" 
d="M61 0v20q37 10 52.5 23t22.5 44.5t7 98.5v179h-88v41h88v116h-88v41h88v684q0 67 -7 98.5t-22.5 44.5t-52.5 23v21h109q72 1 148 9.5t106 8.5q57 0 102 -10.5t89.5 -39.5t74 -77.5t48 -129.5t18.5 -189q0 -134 -27 -230t-78.5 -150.5t-117.5 -79t-152 -24.5h-53v-116h250
v-41h-250v-179q0 -67 8 -98.5t26 -44.5t60 -23v-20h-361zM328 563h43q41 0 67.5 8.5t50.5 33.5t37.5 71.5t21 122t7.5 184.5q0 131 -11 218.5t-33.5 132t-48 61t-61.5 16.5q-25 0 -73 -10v-838z" />
    <glyph glyph-name="uni2116" unicode="&#x2116;" horiz-adv-x="1376" 
d="M1106 768q-112 0 -172 89t-60 255q0 164 60 252t172 88q114 0 173.5 -87.5t59.5 -252.5q0 -168 -59.5 -256t-173.5 -88zM45 1413v21h279l366 -1100v913q0 95 -15 123.5t-67 42.5v21h203v-21q-36 -10 -51 -23t-22 -44.5t-7 -98.5v-1247h-123l-438 1251v-1065
q0 -67 7 -98.5t22 -44.5t51 -23v-20h-201v20q36 10 51 23t22 44.5t7 98.5v1162q-12 21 -26 33.5t-25.5 18.5t-32.5 13zM909 625v41h396v-41h-396zM1022 1112q0 -171 16 -237t68 -66q53 0 69.5 66t16.5 237q0 167 -16.5 233t-69.5 66q-51 0 -67.5 -66t-16.5 -233z" />
    <glyph glyph-name="trademark" unicode="&#x2122;" horiz-adv-x="993" 
d="M41 1221l20 213h347l18 -213h-20q-14 78 -26 114.5t-26 47t-41 10.5h-32v-410q0 -62 11 -79.5t52 -26.5v-13h-219v13q41 9 53 27t12 79v410h-36q-27 0 -40.5 -10.5t-25.5 -46.5t-27 -115h-20zM418 864v13q38 9 50.5 27t16.5 79l19 332q3 62 -6.5 79.5t-48.5 26.5v13h157
l78 -334l74 334h157v-13q-39 -9 -48.5 -26.5t-6.5 -79.5l23 -332q3 -60 15.5 -78t51.5 -28v-13h-215v13q38 9 47 26.5t6 79.5l-24 379l-102 -498h-25l-111 498l-20 -379q-4 -61 5.5 -79t47.5 -27v-13h-141z" />
    <glyph glyph-name="uni2126" unicode="&#x2126;" horiz-adv-x="1236" 
d="M63 819q0 191 65 336t191.5 227t298.5 82q173 0 300 -81t192.5 -226t65.5 -338q0 -242 -95 -412t-293 -280h324v-127h-422v127q277 221 277 707q0 279 -87 434t-262 155t-261.5 -154.5t-86.5 -434.5q0 -486 277 -707v-127h-420v127h322q-196 110 -291 280t-95 412z" />
    <glyph glyph-name="oneeighth" unicode="&#x215b;" horiz-adv-x="927" 
d="M20 1319q78 6 121.5 33.5t77.5 91.5h10v-633q0 -41 10.5 -57.5t39.5 -22.5v-14h-228v14q27 6 36 21t9 59v422q0 38 -14 51.5t-62 13.5v21zM98 0l508 1434h39l-504 -1434h-43zM455 156q0 -79 58 -123.5t161 -44.5q105 0 166 45.5t61 128.5q0 38 -10.5 68.5t-39 64
t-49.5 53t-71 62.5q73 46 108 87t35 97q0 63 -52.5 99t-137.5 36q-95 0 -151 -38.5t-56 -104.5q0 -57 30 -97t114 -110q-166 -101 -166 -223zM590 147q0 130 61 203q90 -85 90 -215q0 -127 -71 -127q-39 0 -59.5 37t-20.5 102zM621 379l6 -6q2 -2 11.5 -10t12.5 -13
q19 22 51 43l29 17l-4 4q-18 15 -29 28q-69 72 -69 172q0 95 59 95q30 0 45 -28.5t15 -74.5q0 -96 -50 -164q-21 -30 -53 -49z" />
    </font>
</defs>
</svg>
